<?xml version="1.0" encoding="UTF-8" standalone="no"?>
<!-- Created with Inkscape (http://www.inkscape.org/) -->

<svg
   version="1.1"
   id="svg1"
   width="333.16934"
   height="286.76666"
   viewBox="0 0 333.16934 286.76666"
   sodipodi:docname="Mediation.pdf"
   xmlns:inkscape="http://www.inkscape.org/namespaces/inkscape"
   xmlns:sodipodi="http://sodipodi.sourceforge.net/DTD/sodipodi-0.dtd"
   xmlns="http://www.w3.org/2000/svg"
   xmlns:svg="http://www.w3.org/2000/svg">
  <defs
     id="defs1" />
  <sodipodi:namedview
     id="namedview1"
     pagecolor="#ffffff"
     bordercolor="#000000"
     borderopacity="0.25"
     inkscape:showpageshadow="2"
     inkscape:pageopacity="0.0"
     inkscape:pagecheckerboard="0"
     inkscape:deskcolor="#d1d1d1">
    <inkscape:page
       x="0"
       y="0"
       inkscape:label="1"
       id="page1"
       width="333.16934"
       height="286.76666"
       margin="0"
       bleed="0" />
  </sodipodi:namedview>
  <g
     id="g1"
     inkscape:groupmode="layer"
     inkscape:label="1">
    <path
       id="path1"
       d="M 15.5908,15.5908 H -15.5908 V -15.5908 H 15.5908 Z"
       style="fill:none;stroke:#000000;stroke-width:0.3985;stroke-linecap:butt;stroke-linejoin:miter;stroke-miterlimit:10;stroke-dasharray:none;stroke-opacity:1"
       transform="matrix(1.3333333,0,0,-1.3333333,34.336,252.42933)" />
    <path
       id="path2"
       d="m 1.598679,-0.45852983 c 0.3089488,0.28764205 0.7457386,0.56463068 1.3423295,0.56463068 0.9694602,0 1.8430398,-0.96946022 1.8430398,-2.33309655 0,-1.1931819 -0.6285511,-2.3011364 -1.587358,-2.3011364 -0.5965909,0 -1.171875,0.2024148 -1.6299716,0.5965909 V -4.421598 H 0.82098011 V 1.9278338 H 1.598679 Z m 0,-2.85511367 C 1.833054,-3.665206 2.2272301,-3.899581 2.6533665,-3.899581 c 0.756392,0 1.3529829,0.7563921 1.3529829,1.6725853 0,1.0333806 -0.7137784,1.72585223 -1.459517,1.72585223 -0.3835227,0 -0.649858,-0.19176136 -0.8522727,-0.46875 C 1.598679,-1.1190412 1.598679,-1.140348 1.598679,-1.3108026 Z M 6.7043253,-6.9144957 H 5.9585866 v 6.91406246136 h 0.7457387 z m 4.9458447,4.7301136 c 0,-0.3409091 -0.01065,-1.0866477 -0.394176,-1.6832386 -0.415483,-0.6178978 -1.022727,-0.7244319 -1.3742895,-0.7244319 -1.1079545,0 -2.0028409,1.0546875 -2.0028409,2.34375 0,1.31036936 0.9481534,2.35440345 2.1519884,2.35440345 0.628551,0 1.193182,-0.234375 1.576705,-0.51136363 L 11.55429,-1.0551207 c -0.628551,0.52201701 -1.289063,0.55397723 -1.512784,0.55397723 -0.799006,0 -1.4382105,-0.70312503 -1.4701708,-1.68323863 z M 8.6246023,-2.727706 c 0.1598011,-0.756392 0.6818182,-1.2571022 1.2571022,-1.2571022 0.5113635,0 1.0759945,0.3409091 1.2038355,1.2571022 z m 0,0"
       style="fill:#000000;fill-opacity:1;fill-rule:nonzero;stroke:none"
       aria-label="ple"
       transform="matrix(1.4666667,0,0,1.4666667,25.569333,256.08267)" />
    <path
       id="path3"
       d="m 188.94492,15.59082 h -31.18164 v -31.18161 h 31.18164 z"
       style="fill:none;stroke:#000000;stroke-width:0.3985;stroke-linecap:butt;stroke-linejoin:miter;stroke-miterlimit:10;stroke-dasharray:none;stroke-opacity:1"
       transform="matrix(1.3333333,0,0,-1.3333333,34.336,252.42933)" />
    <path
       id="path4"
       d="M 3.4208736,-4.272081 C 2.8988565,-4.5171094 2.494027,-4.5916832 1.9826634,-4.5916832 c -0.2450285,0 -1.65127846,0 -1.65127846,1.2997159 0,0.4900568 0.28764205,0.8096591 0.53267046,1.0014204 0.3089489,0.2237216 0.5326705,0.2556818 1.0759943,0.3728693 0.3622159,0.063921 0.9375,0.181108 0.9375,0.7137785 0,0.68181813 -0.7883523,0.68181813 -0.9375,0.68181813 -0.7990057,0 -1.36363635,-0.3622159 -1.5447443,-0.47940343 l -0.1171875,0.6711648 c 0.31960227,0.15980113 0.8735795,0.43678977 1.6725852,0.43678977 0.181108,0 0.7350853,0 1.1612216,-0.31960227 0.3089489,-0.234375 0.4794034,-0.62855114 0.4794034,-1.0653409 0,-0.5433239 -0.3728693,-0.884233 -0.3941761,-0.9161932 C 2.8136293,-2.5355753 2.5366406,-2.5994957 2.0465838,-2.684723 1.4926065,-2.8019105 1.0345099,-2.8977912 1.0345099,-3.387848 c 0,-0.6178977 0.7244319,-0.6178977 0.8522728,-0.6178977 0.3196022,0 0.8416193,0.042614 1.40625,0.3835227 z m 4.732777,1.2997159 c 0,-0.6498579 -0.1491478,-1.5553977 -1.3636364,-1.5553977 -0.6178977,0 -1.0973011,0.3089489 -1.4169034,0.7137784 v -3.100142 H 4.6273722 V -6.3920455e-5 H 5.405071 V -2.4396946 c 0,-0.6605114 0.2450284,-1.4808239 1.0014205,-1.4808239 0.9588068,0 0.9694602,0.703125 0.9694602,1.0227273 V -6.3920455e-5 H 8.1536506 Z M 12.385717,-4.272081 c -0.522017,-0.2450284 -0.926846,-0.3196022 -1.43821,-0.3196022 -0.245028,0 -1.6512783,0 -1.6512783,1.2997159 0,0.4900568 0.287642,0.8096591 0.5326704,1.0014204 0.3089489,0.2237216 0.5326709,0.2556818 1.0759939,0.3728693 0.362216,0.063921 0.9375,0.181108 0.9375,0.7137785 0,0.68181813 -0.788352,0.68181813 -0.9375,0.68181813 -0.799005,0 -1.3636359,-0.3622159 -1.5447439,-0.47940343 l -0.1171875,0.6711648 c 0.3196023,0.15980113 0.8735794,0.43678977 1.6725854,0.43678977 0.181108,0 0.735085,0 1.161221,-0.31960227 0.308949,-0.234375 0.479404,-0.62855114 0.479404,-1.0653409 0,-0.5433239 -0.372869,-0.884233 -0.394176,-0.9161932 -0.383523,-0.3409091 -0.660512,-0.4048295 -1.150568,-0.4900568 -0.553978,-0.1171875 -1.0120743,-0.2130682 -1.0120743,-0.703125 0,-0.6178977 0.7244323,-0.6178977 0.8522723,-0.6178977 0.319603,0 0.84162,0.042614 1.40625,0.3835227 z m 0,0"
       style="fill:#000000;fill-opacity:1;fill-rule:nonzero;stroke:none"
       aria-label="shs"
       transform="matrix(1.4666667,0,0,1.4666667,256.096,257.504)" />
    <path
       id="path5"
       d="M 102.26787,154.14258 H 71.08624 v -31.18163 h 31.18163 z"
       style="fill:none;stroke:#000000;stroke-width:0.3985;stroke-linecap:butt;stroke-linejoin:miter;stroke-miterlimit:10;stroke-dasharray:none;stroke-opacity:1"
       transform="matrix(1.3333333,0,0,-1.3333333,34.336,252.42933)" />
    <path
       id="path6"
       d="m 3.5041548,-3.9001349 c 0.2237216,0 0.5007103,-0.03196 0.7350853,-0.03196 0.1811079,0 0.575284,0.021307 0.5859375,0.021307 L 4.7186435,-4.5286861 c -0.6924716,0 -1.2677557,0.181108 -1.5767046,0.3089489 -0.2024148,-0.1598012 -0.5433238,-0.3089489 -0.9375,-0.3089489 -0.8629261,0 -1.58735793,0.7137784 -1.58735793,1.6193182 0,0.3728693 0.1278409,0.7244318 0.33025568,0.990767 -0.28764205,0.4048296 -0.28764205,0.7883523 -0.28764205,0.8416194 0,0.25568178 0.0852273,0.54332383 0.25568182,0.75639201 -0.52201705,0.30894886 -0.63920455,0.76704546 -0.63920455,1.02272727 0,0.75639202 0.99076703,1.35298292 2.20525573,1.35298292 1.225142,0 2.2052556,-0.5965909 2.2052556,-1.36363633 0,-1.38494318 -1.6619318,-1.38494318 -2.0454545,-1.38494318 h -0.884233 c -0.1278409,0 -0.5752841,0 -0.5752841,-0.52201709 0,-0.106534 0.042614,-0.2663352 0.1171875,-0.3622159 0.2024148,0.1491478 0.5326705,0.2876421 0.9055398,0.2876421 0.8948864,0 1.587358,-0.7350852 1.587358,-1.6193182 0,-0.4794034 -0.2130682,-0.8416193 -0.3302557,-1.0014205 z m -1.2997159,2.0454545 c -0.3728693,0 -0.8948863,-0.2237216 -0.8948863,-1.0546875 0,-0.8309659 0.522017,-1.0546875 0.8948863,-1.0546875 0.4261364,0 0.8948864,0.2769886 0.8948864,1.0546875 0,0.7776989 -0.46875,1.0546875 -0.8948864,1.0546875 z m 0.4474432,1.88565341 c 0.2130682,0 1.3423295,0 1.3423295,0.68181818 0,0.43678981 -0.6924715,0.76704541 -1.5021306,0.76704541 -0.8096591,0 -1.51278413,-0.3089488 -1.51278413,-0.77769882 0,-0.0213068 0,-0.67116477 0.77769883,-0.67116477 z M 6.5483665,-2.131669 c 0,-1.0014205 0.7137784,-1.7151989 1.693892,-1.7365057 v -0.6605114 c -0.8842329,0.010653 -1.4382102,0.4900568 -1.7471591,0.9481534 V -4.4860724 H 5.8026278 v 4.48508518409 h 0.7457387 z m 5.8114345,-0.7457387 c 0,-1.0227272 -0.724432,-1.7151988 -1.640625,-1.7151988 -0.649858,0 -1.097301,0.1598011 -1.566051,0.4261363 l 0.063921,0.6605114 c 0.5113636,-0.3728693 1.012074,-0.5007102 1.502131,-0.5007102 0.46875,0 0.862926,0.4048295 0.862926,1.1399147 v 0.4261364 c -1.491477,0.021307 -2.7592332,0.4367898 -2.7592332,1.3103693 0,0.43678979 0.2663352,1.23579547 1.1399148,1.23579547 0.1384944,0 1.0759944,-0.02130681 1.6512784,-0.46875 v 0.36221591409 h 0.745739 z m -0.777699,1.5660512 c 0,0.1811079 0,0.43678974 -0.340909,0.61789769 -0.287642,0.18110796 -0.660511,0.19176137 -0.777699,0.19176137 -0.4687497,0 -0.9268463,-0.22372159 -0.9268463,-0.64985796 0,-0.6924716 1.6193183,-0.7670455 2.0454543,-0.7776989 z m 3.339844,-2.5355114 h 1.395597 V -4.422152 h -1.395597 v -1.2677557 h -0.692472 v 1.2677557 h -0.862926 v 0.5752841 h 0.830966 v 2.6633523 c 0,0.59659088 0.138495,1.28906247 0.830966,1.28906247 0.692472,0 1.203835,-0.2450284 1.448864,-0.37286931 l -0.159801,-0.5859375 c -0.255682,0.20241477 -0.575284,0.31960227 -0.894887,0.31960227 -0.362216,0 -0.50071,-0.29829546 -0.50071,-0.82031253 z m 0,0"
       style="fill:#000000;fill-opacity:1;fill-rule:nonzero;stroke:none"
       aria-label="grat"
       transform="matrix(1.4666667,0,0,1.4666667,137.60667,70.450667)" />
    <path
       id="path7"
       d="M 15.80998,0 H 153.84174"
       style="fill:none;stroke:#000000;stroke-width:0.3985;stroke-linecap:butt;stroke-linejoin:miter;stroke-miterlimit:10;stroke-dasharray:none;stroke-opacity:1"
       transform="matrix(1.3333333,0,0,-1.3333333,34.336,252.42933)" />
    <path
       id="path8"
       d="M 3.68454,0 0.6434,1.14696 1.64552,0 0.6434,-1.14696 Z"
       style="fill:#000000;fill-opacity:1;fill-rule:nonzero;stroke:#000000;stroke-width:0.3985;stroke-linecap:butt;stroke-linejoin:miter;stroke-miterlimit:10;stroke-dasharray:none;stroke-opacity:1"
       transform="matrix(1.3333333,0,0,-1.3333333,237.39707,252.42933)" />
    <g
       id="g8"
       aria-label="c&#10;′"
       transform="matrix(1.4666667,0,0,1.4666667,144.608,249.21467)">
      <path
         id="path9"
         d="M 4.0811932,-4.1653622 C 3.4952557,-4.5062713 3.1543466,-4.5914986 2.5471023,-4.5914986 c -1.3849432,0 -2.18394889,1.2038352 -2.18394889,2.3757102 0,1.2357955 0.90553979,2.32244323 2.15198859,2.32244323 0.5326705,0 1.0866478,-0.13849432 1.6193182,-0.50071023 l -0.06392,-0.6711648 c -0.5007103,0.39417617 -1.0440341,0.53267048 -1.5447443,0.53267048 -0.830966,0 -1.3849432,-0.71377838 -1.3849432,-1.69389208 0,-0.7670454 0.3622159,-1.7258522 1.4169034,-1.7258522 0.522017,0 0.8629261,0.074574 1.40625,0.4367897 z m 0,0"
         style="fill:#000000;fill-opacity:1;fill-rule:nonzero;stroke:none" />
      <path
         id="path10"
         d="m 6.4515767,-6.9059517 c 0.053267,-0.1171875 0.063921,-0.181108 0.063921,-0.2237216 0,-0.2130682 -0.1917614,-0.3835227 -0.415483,-0.3835227 -0.2663352,0 -0.3515625,0.2130682 -0.3835227,0.3302557 l -0.9161932,3.0149147 c -0.010653,0.021307 -0.042614,0.1065341 -0.042614,0.1171875 0,0.085227 0.2237215,0.1491478 0.2769886,0.1491478 0.053267,0 0.053267,-0.010653 0.1065341,-0.1171875 z m 0,0"
         style="fill:#000000;fill-opacity:1;fill-rule:nonzero;stroke:none" />
    </g>
    <path
       id="path11"
       d="m 5.7543,15.80998 73.03936,103.903"
       style="fill:none;stroke:#000000;stroke-width:0.3985;stroke-linecap:butt;stroke-linejoin:miter;stroke-miterlimit:10;stroke-dasharray:none;stroke-opacity:1"
       transform="matrix(1.3333333,0,0,-1.3333333,34.336,252.42933)" />
    <path
       id="path12"
       d="M 3.68454,0 0.6434,1.14696 1.64552,0 0.6434,-1.14696 Z"
       style="fill:#000000;fill-opacity:1;fill-rule:nonzero;stroke:#000000;stroke-width:0.3985;stroke-linecap:butt;stroke-linejoin:miter;stroke-miterlimit:10;stroke-dasharray:none;stroke-opacity:1"
       transform="matrix(0.76674667,-1.09076,-1.09076,-0.76674667,138.20888,94.49824)" />
    <path
       id="path13"
       d="m 3.9729119,-2.8776548 c 0,-1.0227273 -0.7244318,-1.7151989 -1.640625,-1.7151989 -0.6498579,0 -1.0973011,0.1598011 -1.5660511,0.4261364 l 0.0639205,0.6605113 c 0.5113636,-0.3728693 1.0120738,-0.5007102 1.5021306,-0.5007102 0.46875,0 0.8629262,0.4048296 0.8629262,1.1399148 v 0.4261363 c -1.4914773,0.021307 -2.75923299,0.4367898 -2.75923299,1.3103694 0,0.43678973 0.26633523,1.23579542 1.13991479,1.23579542 0.1384943,0 1.0759943,-0.02130682 1.6512784,-0.46875 v 0.3622159 h 0.7457386 z m -0.7776988,1.5660511 c 0,0.181108 0,0.43678978 -0.3409091,0.61789773 -0.2876421,0.18110796 -0.6605114,0.19176137 -0.7776989,0.19176137 -0.46875,0 -0.9268466,-0.22372159 -0.9268466,-0.649858 0,-0.6924715 1.6193182,-0.7670454 2.0454546,-0.7776988 z m 0,0"
       style="fill:#000000;fill-opacity:1;fill-rule:nonzero;stroke:none"
       aria-label="a"
       transform="matrix(1.4666667,0,0,1.4666667,81.884,156.84947)" />
    <path
       id="path14"
       d="M 92.43137,122.74178 165.4707,18.83879"
       style="fill:none;stroke:#000000;stroke-width:0.3985;stroke-linecap:butt;stroke-linejoin:miter;stroke-miterlimit:10;stroke-dasharray:none;stroke-opacity:1"
       transform="matrix(1.3333333,0,0,-1.3333333,34.336,252.42933)" />
    <path
       id="path15"
       d="M 3.68454,0 0.6434,1.14696 1.64552,0 0.6434,-1.14696 Z"
       style="fill:#000000;fill-opacity:1;fill-rule:nonzero;stroke:#000000;stroke-width:0.3985;stroke-linecap:butt;stroke-linejoin:miter;stroke-miterlimit:10;stroke-dasharray:none;stroke-opacity:1"
       transform="matrix(0.76674667,1.09076,1.09076,-0.76674667,253.77827,225.62473)" />
    <path
       id="path16"
       d="M 1.565831,-6.9152969 H 0.82009233 v 6.91406252 H 1.5977912 v -0.45809659 c 0.234375,0.22372159 0.6605114,0.56463069 1.3316761,0.56463069 0.9907671,0 1.8536932,-0.99076705 1.8536932,-2.33309662 0,-1.225142 -0.6818182,-2.3011363 -1.6193182,-2.3011363 -0.3835227,0 -1.0014204,0.095881 -1.5980113,0.5859375 z m 0.03196,3.5795455 c 0.1598011,-0.2450284 0.5113636,-0.5859375 1.0653409,-0.5859375 0.5859375,0 1.3423295,0.4261363 1.3423295,1.693892 0,1.29971593 -0.8416193,1.7258523 -1.4488636,1.7258523 -0.3835227,0 -0.7137784,-0.18110796 -0.9588068,-0.6392045 z m 0,0"
       style="fill:#000000;fill-opacity:1;fill-rule:nonzero;stroke:none"
       aria-label="b"
       transform="matrix(1.4666667,0,0,1.4666667,210.90267,156.84947)" />
    <path
       id="path17"
       d="m 213.96535,32.81586 c 0,4.30531 -3.49007,7.79538 -7.7954,7.79538 -4.30533,0 -7.79539,-3.49007 -7.79539,-7.79538 0,-4.30533 3.49006,-7.7954 7.79539,-7.7954 4.30533,0 7.7954,3.49007 7.7954,7.7954 z"
       style="fill:none;stroke:#000000;stroke-width:0.3985;stroke-linecap:butt;stroke-linejoin:miter;stroke-miterlimit:10;stroke-dasharray:none;stroke-opacity:1"
       transform="matrix(1.3333333,0,0,-1.3333333,34.336,252.42933)" />
    <g
       id="g17"
       aria-label="e&#10;2"
       transform="matrix(1.4666667,0,0,1.4666667,302.89733,210.82667)">
      <path
         id="path18"
         d="m 4.1236222,-2.1829545 c 0,-0.3409091 -0.010654,-1.0866478 -0.3941762,-1.6832387 C 3.3139631,-4.4840909 2.7067187,-4.590625 2.3551562,-4.590625 c -1.1079545,0 -2.00284086,1.0546875 -2.00284086,2.34375 0,1.31036932 0.94815336,2.35440341 2.15198866,2.35440341 0.6285511,0 1.1931818,-0.234375 1.5767045,-0.51136364 L 4.0277415,-1.0536932 c -0.6285512,0.52201706 -1.2890625,0.55397729 -1.5127841,0.55397729 -0.7990057,0 -1.4382102,-0.70312499 -1.4701705,-1.68323859 z M 1.098054,-2.7262784 c 0.1598011,-0.7563921 0.6818182,-1.2571023 1.2571022,-1.2571023 0.5113637,0 1.0759944,0.3409091 1.2038353,1.2571023 z m 0,0"
         style="fill:#000000;fill-opacity:1;fill-rule:nonzero;stroke:none" />
      <path
         id="path19"
         d="m 6.398125,0.96246449 c -0.074574,0 -0.1598011,0 -0.2450284,0 H 5.3540909 L 6.4407386,0.00365767 c 0.1171875,-0.10653409 0.46875,-0.36221591 0.5965909,-0.47940341 0.3089489,-0.27698863 0.7137785,-0.63920456 0.7137785,-1.24644886 0,-0.7883523 -0.5859375,-1.5021307 -1.5767046,-1.5021307 -0.7457386,0 -1.2038352,0.3941762 -1.4382102,1.1079546 l 0.3302557,0.4048295 c 0.1598011,-0.5859375 0.4048295,-1.0333807 1.0120738,-1.0333807 0.5859375,0 1.0333807,0.4048296 1.0333807,1.0333807 0,0.5859375 -0.3515625,0.91619319 -0.7670454,1.31036933 C 6.2063636,-0.26267756 5.8334943,0.04627131 5.6843466,0.19541903 5.4819318,0.37652699 5.0025284,0.83462358 4.8001136,1.0157315 V 1.4951349 H 7.751108 V 0.96246449 Z m 0,0"
         style="fill:#000000;fill-opacity:1;fill-rule:nonzero;stroke:none" />
    </g>
    <path
       id="path20"
       d="m 127.2883,171.36761 c 0,4.30532 -3.49007,7.79539 -7.7954,7.79539 -4.30531,0 -7.79539,-3.49007 -7.79539,-7.79539 0,-4.30532 3.49008,-7.79539 7.79539,-7.79539 4.30533,0 7.7954,3.49007 7.7954,7.79539 z"
       style="fill:none;stroke:#000000;stroke-width:0.3985;stroke-linecap:butt;stroke-linejoin:miter;stroke-miterlimit:10;stroke-dasharray:none;stroke-opacity:1"
       transform="matrix(1.3333333,0,0,-1.3333333,34.336,252.42933)" />
    <g
       id="g20"
       aria-label="e&#10;1"
       transform="matrix(1.4666667,0,0,1.4666667,187.32933,26.093333)">
      <path
         id="path21"
         d="m 4.1220455,-2.1836648 c 0,-0.3409091 -0.010653,-1.0866477 -0.3941762,-1.6832386 -0.4154829,-0.6178977 -1.0227273,-0.7244318 -1.3742898,-0.7244318 -1.1079545,0 -2.00284086,1.0546875 -2.00284086,2.34375 0,1.31036929 0.94815336,2.35440338 2.15198866,2.35440338 0.6285511,0 1.1931818,-0.234375 1.5767045,-0.51136363 L 4.0261648,-1.0544034 c -0.6285512,0.52201704 -1.2890625,0.55397726 -1.5127841,0.55397726 -0.7990057,0 -1.4382102,-0.70312496 -1.4701705,-1.68323866 z M 1.0964773,-2.7269886 c 0.1598011,-0.7563921 0.6818182,-1.2571023 1.2571022,-1.2571023 0.5113637,0 1.0759944,0.3409091 1.2038353,1.2571023 z m 0,0"
         style="fill:#000000;fill-opacity:1;fill-rule:nonzero;stroke:none" />
      <path
         id="path22"
         d="M 6.6655469,-3.2250355 H 6.5163991 c -0.4580965,0.4154829 -1.0227272,0.4367898 -1.4488636,0.4580966 v 0.4367898 c 0.2769886,-0.010654 0.6285511,-0.021307 0.9694602,-0.1598012 V 1.0576349 H 5.1101491 V 1.4944247 H 7.5923935 V 1.0576349 H 6.6655469 Z m 0,0"
         style="fill:#000000;fill-opacity:1;fill-rule:nonzero;stroke:none" />
    </g>
    <path
       id="path23"
       d="m 200.50304,27.14871 -8.72098,-8.72085"
       style="fill:none;stroke:#000000;stroke-width:0.3985;stroke-linecap:butt;stroke-linejoin:miter;stroke-miterlimit:10;stroke-dasharray:none;stroke-opacity:1"
       transform="matrix(1.3333333,0,0,-1.3333333,34.336,252.42933)" />
    <path
       id="path24"
       d="M 3.68454,0 0.6434,1.14696 1.64552,0 0.6434,-1.14696 Z"
       style="fill:#000000;fill-opacity:1;fill-rule:nonzero;stroke:#000000;stroke-width:0.3985;stroke-linecap:butt;stroke-linejoin:miter;stroke-miterlimit:10;stroke-dasharray:none;stroke-opacity:1"
       transform="matrix(-0.9428,0.94277333,0.94277333,0.9428,291.50291,226.4014)" />
    <path
       id="path25"
       d="m 113.82599,165.70047 -8.72098,-8.72086"
       style="fill:none;stroke:#000000;stroke-width:0.3985;stroke-linecap:butt;stroke-linejoin:miter;stroke-miterlimit:10;stroke-dasharray:none;stroke-opacity:1"
       transform="matrix(1.3333333,0,0,-1.3333333,34.336,252.42933)" />
    <path
       id="path26"
       d="M 3.68454,0 0.6434,1.14696 1.64552,0 0.6434,-1.14696 Z"
       style="fill:#000000;fill-opacity:1;fill-rule:nonzero;stroke:#000000;stroke-width:0.3985;stroke-linecap:butt;stroke-linejoin:miter;stroke-miterlimit:10;stroke-dasharray:none;stroke-opacity:1"
       transform="matrix(-0.9428,0.94277333,0.94277333,0.9428,175.93352,41.66572)" />
  </g>
</svg>
