<?xml version="1.0" encoding="UTF-8" standalone="no"?>
<!-- Created with Inkscape (http://www.inkscape.org/) -->

<svg
   version="1.1"
   id="svg1"
   width="821.70935"
   height="221.224"
   viewBox="0 0 821.70935 221.224"
   sodipodi:docname="Banner.svg"
   inkscape:version="1.3.2 (091e20e, 2023-11-25, custom)"
   xmlns:inkscape="http://www.inkscape.org/namespaces/inkscape"
   xmlns:sodipodi="http://sodipodi.sourceforge.net/DTD/sodipodi-0.dtd"
   xmlns="http://www.w3.org/2000/svg"
   xmlns:svg="http://www.w3.org/2000/svg">
  <defs
     id="defs1" />
  <sodipodi:namedview
     id="namedview1"
     pagecolor="#ffffff"
     bordercolor="#000000"
     borderopacity="0.25"
     inkscape:showpageshadow="2"
     inkscape:pageopacity="0.0"
     inkscape:pagecheckerboard="0"
     inkscape:deskcolor="#d1d1d1"
     inkscape:zoom="1.2413148"
     inkscape:cx="410.85468"
     inkscape:cy="110.36684"
     inkscape:window-width="1920"
     inkscape:window-height="991"
     inkscape:window-x="-9"
     inkscape:window-y="-9"
     inkscape:window-maximized="1"
     inkscape:current-layer="g1">
    <inkscape:page
       x="0"
       y="0"
       inkscape:label="1"
       id="page1"
       width="821.70935"
       height="221.224"
       margin="0"
       bleed="0" />
  </sodipodi:namedview>
  <g
     id="g1"
     inkscape:groupmode="layer"
     inkscape:label="1">
    <path
       id="path1"
       d="m 0,72.00124 -62.3548,-36.00049 -1e-5,-72.00122 L 0,-72.00124 l 62.3548,36.00049 1e-5,72.00122 z"
       style="fill:#cb6015;fill-opacity:1;fill-rule:nonzero;stroke:#a6a6a6;stroke-width:1.99255;stroke-linecap:butt;stroke-linejoin:miter;stroke-miterlimit:10;stroke-dasharray:none;stroke-opacity:1"
       transform="matrix(1.3333333,0,0,-1.3333333,723.95867,110.612)" />
    <path
       id="path2"
       d="m -53.85873,-12.75595 h 14.17337 V 1.41742 h -14.17337 z"
       style="fill:#ccccff;fill-opacity:1;fill-rule:nonzero;stroke:#000000;stroke-width:0.3985;stroke-linecap:butt;stroke-linejoin:miter;stroke-miterlimit:10;stroke-dasharray:none;stroke-opacity:1"
       transform="matrix(1.3333333,0,0,-1.3333333,723.95867,110.612)" />
    <path
       id="path3"
       d="M 3.6786641,-3.6455937 6.0810078,-6.915125 H 5.1200703 l -1.875,2.6015625 L 1.3114766,-6.915125 H 0.28022656 L 2.8231953,-3.6455937 0.13960156,-0.0010625 H 1.1005391 l 2.1445312,-3.046875 2.2148438,3.046875 h 1.03125 z m 0,0"
       style="fill:#000000;fill-opacity:1;fill-rule:nonzero;stroke:none"
       aria-label="X"
       transform="matrix(1.3333333,0,0,1.3333333,657.16933,122.78267)" />
    <path
       id="path4"
       d="M 39.68535,-12.75595 H 53.85872 V 1.41742 H 39.68535 Z"
       style="fill:#ccccff;fill-opacity:1;fill-rule:nonzero;stroke:#000000;stroke-width:0.3985;stroke-linecap:butt;stroke-linejoin:miter;stroke-miterlimit:10;stroke-dasharray:none;stroke-opacity:1"
       transform="matrix(1.3333333,0,0,-1.3333333,723.95867,110.612)" />
    <path
       id="path5"
       d="M 6.6102734,-6.915125 H 5.7313672 l -1.546875,2.25 c -0.046875,0.070312 -0.09375,0.1523438 -0.1640625,0.2578125 l -0.609375,0.9492188 c -0.1875,-0.3046875 -0.1875,-0.328125 -0.3632813,-0.5625 L 1.0790234,-6.915125 H 0.03605469 l 2.85937501,4.1484375 v 2.765625 h 0.8554687 v -2.7539062 z m 0,0"
       style="fill:#000000;fill-opacity:1;fill-rule:nonzero;stroke:none"
       aria-label="Y"
       transform="matrix(1.3333333,0,0,1.3333333,781.89333,122.78267)" />
    <path
       id="path6"
       d="M -9.92154,39.68535 H 4.25183 V 53.85872 H -9.92154 Z"
       style="fill:#ccccff;fill-opacity:1;fill-rule:nonzero;stroke:#000000;stroke-width:0.3985;stroke-linecap:butt;stroke-linejoin:miter;stroke-miterlimit:10;stroke-dasharray:none;stroke-opacity:1"
       transform="matrix(1.3333333,0,0,-1.3333333,723.95867,110.612)" />
    <path
       id="path7"
       d="m 5.2855469,-3.5386016 c -0.3515625,0.9140625 -0.8203125,2.1445313 -0.9375,2.61328129 C 4.2894531,-1.1362578 4.1722656,-1.4995391 4.0199219,-1.9214141 l -1.5585938,-4.125 -0.3398437,-0.8671875 H 0.99648438 V 4.609375e-4 H 1.7699219 V -6.1753203 h 0.011719 c 0.058594,0.3164062 0.4570313,1.40625 0.7148438,2.0859375 l 1.4765625,3.86718749 H 4.6996094 L 6.0238281,-3.6909453 c 0.3164063,-0.8085938 0.4101563,-1.0546875 0.4804688,-1.2539063 0.1054687,-0.2929687 0.375,-1.0078125 0.421875,-1.2421875 l 0.011719,0.011719 V 4.609375e-4 H 7.7113281 V -6.9136016 H 6.5746094 Z m 0,0"
       style="fill:#000000;fill-opacity:1;fill-rule:nonzero;stroke:none"
       aria-label="M"
       transform="matrix(1.3333333,0,0,1.3333333,714.36667,52.862667)" />
    <path
       id="path8"
       d="M -39.4861,-5.66927 H 34.82701"
       style="fill:none;stroke:#000000;stroke-width:0.3985;stroke-linecap:butt;stroke-linejoin:miter;stroke-miterlimit:10;stroke-dasharray:none;stroke-opacity:1"
       transform="matrix(1.3333333,0,0,-1.3333333,723.95867,110.612)" />
    <path
       id="path9"
       d="M 5.10188,0 0.64343,1.67842 2.10616,0 0.64343,-1.67842 Z"
       style="fill:#000000;fill-opacity:1;fill-rule:nonzero;stroke:#000000;stroke-width:0.3985;stroke-linecap:butt;stroke-linejoin:miter;stroke-miterlimit:10;stroke-dasharray:none;stroke-opacity:1"
       transform="matrix(1.3333333,0,0,-1.3333333,767.71929,118.17103)" />
    <g
       id="g9"
       aria-label="c&#10;′"
       transform="matrix(1.3333333,0,0,1.3333333,718.62667,115.248)">
      <path
         id="path10"
         d="m 4.7917188,-1.2904922 c -0.5507813,0.44531251 -1.1601563,0.66796876 -1.828125,0.66796876 -0.9960938,0 -1.640625,-0.89062496 -1.640625,-2.03906246 0,-0.9960938 0.4804687,-2.0859375 1.6757812,-2.0859375 0.796875,0 1.1367188,0.1875 1.6523438,0.5390625 l 0.140625,-0.7734375 C 4.1003125,-5.3920547 3.701875,-5.4858047 2.99875,-5.4858047 c -1.6523437,0 -2.578125,1.453125 -2.578125,2.8242188 0,1.5234375 1.1015625,2.77734371 2.53125,2.77734371 0.5859375,0 1.2539063,-0.140625 1.9101563,-0.62109375 0,-0.0351563 -0.035156,-0.41015625 -0.046875,-0.45703125 z m 0,0"
         style="fill:#000000;fill-opacity:1;fill-rule:nonzero;stroke:none" />
      <path
         id="path11"
         d="m 7.31125,-8.1108047 c 0.046875,-0.1054687 0.070312,-0.1640625 0.070312,-0.2460937 0,-0.2578125 -0.234375,-0.4335938 -0.4570312,-0.4335938 -0.3164063,0 -0.4101563,0.28125 -0.4453125,0.3867188 l -1.0078125,3.4335937 c -0.035156,0.09375 -0.035156,0.1171875 -0.035156,0.1289063 0,0.070312 0.046875,0.09375 0.1289063,0.1171875 0.1523437,0.058594 0.1640625,0.058594 0.1757812,0.058594 0.023437,0 0.070312,0 0.1289063,-0.1289062 z m 0,0"
         style="fill:#000000;fill-opacity:1;fill-rule:nonzero;stroke:none" />
    </g>
    <path
       id="path12"
       d="M -44.1202,1.61667 -8.81372,36.2249"
       style="fill:none;stroke:#000000;stroke-width:0.3985;stroke-linecap:butt;stroke-linejoin:miter;stroke-miterlimit:10;stroke-dasharray:none;stroke-opacity:1"
       transform="matrix(1.3333333,0,0,-1.3333333,723.95867,110.612)" />
    <path
       id="path13"
       d="M 5.10188,0 0.64343,1.67842 2.10616,0 0.64343,-1.67842 Z"
       style="fill:#000000;fill-opacity:1;fill-rule:nonzero;stroke:#000000;stroke-width:0.3985;stroke-linecap:butt;stroke-linejoin:miter;stroke-miterlimit:10;stroke-dasharray:none;stroke-opacity:1"
       transform="matrix(0.95213333,-0.93329333,-0.93329333,-0.95213333,710.29656,64.1848)" />
    <path
       id="path14"
       d="m 4.6749219,-3.5031094 c 0,-1.1484375 -0.8320313,-1.9804687 -1.9335938,-1.9804687 -0.7265625,0 -1.265625,0.1640625 -1.83984372,0.5039062 l 0.0703125,0.7851563 C 1.4991406,-4.5812344 2.0382031,-4.7921719 2.7413281,-4.7921719 c 0.5507813,0 1.0195313,0.4453125 1.0195313,1.3125 v 0.4921875 c -0.5390625,0.023437 -1.2539063,0.058594 -1.96875,0.2929688 -0.79687502,0.28125 -1.26562502,0.7265625 -1.26562502,1.3242187 0,0.52734377 0.3046875,1.48828127 1.32421872,1.48828127 0.65625,0 1.5,-0.1875 1.9335938,-0.5625 V 7.96875e-4 h 0.890625 z m -0.9140625,1.8984375 c 0,0.2460938 0,0.5273438 -0.3867188,0.77343752 -0.328125,0.19921875 -0.7382812,0.234375 -0.9140625,0.234375 -0.6445312,0 -1.0898437,-0.3515625 -1.0898437,-0.78515622 0,-0.8203125 1.6640625,-0.9960938 2.390625,-0.9960938 z m 0,0"
       style="fill:#000000;fill-opacity:1;fill-rule:nonzero;stroke:none"
       aria-label="a"
       transform="matrix(1.3333333,0,0,1.3333333,680.49333,80.288)" />
    <path
       id="path15"
       d="M -0.183,39.4861 40.57881,4.64375"
       style="fill:none;stroke:#000000;stroke-width:0.3985;stroke-linecap:butt;stroke-linejoin:miter;stroke-miterlimit:10;stroke-dasharray:none;stroke-opacity:1"
       transform="matrix(1.3333333,0,0,-1.3333333,723.95867,110.612)" />
    <path
       id="path16"
       d="M 5.10188,0 0.64343,1.67842 2.10616,0 0.64343,-1.67842 Z"
       style="fill:#000000;fill-opacity:1;fill-rule:nonzero;stroke:#000000;stroke-width:0.3985;stroke-linecap:butt;stroke-linejoin:miter;stroke-miterlimit:10;stroke-dasharray:none;stroke-opacity:1"
       transform="matrix(1.0134667,0.86629333,0.86629333,-1.0134667,776.0302,102.68207)" />
    <path
       id="path17"
       d="M 1.8163125,-8.2960781 H 0.93740625 V 7.96875e-4 H 1.83975 V -0.53826563 c 0.5507813,0.52734375 1.1367188,0.65625 1.5585938,0.65625 1.1367187,0 2.1679687,-1.16015627 2.1679687,-2.77734377 0,-1.4765625 -0.7851562,-2.765625 -1.8984375,-2.765625 -0.3398437,0 -1.1132812,0.070312 -1.8515625,0.6679688 z m 0.023437,4.265625 c 0.2109375,-0.328125 0.6445313,-0.6796875 1.2304688,-0.6796875 0.7265625,0 1.59375,0.5507812 1.59375,2.0507812 0,1.546875 -0.984375,2.06250002 -1.7109375,2.06250002 -0.3398438,0 -0.5625,-0.1171875 -0.7734375,-0.28125 C 1.886625,-1.1359219 1.83975,-1.3468594 1.83975,-1.5577969 Z m 0,0"
       style="fill:#000000;fill-opacity:1;fill-rule:nonzero;stroke:none"
       aria-label="b"
       transform="matrix(1.3333333,0,0,1.3333333,756.172,80.288)" />
    <path
       id="path18"
       d="M 61.14467,10.51659 56.95995,5.26126"
       style="fill:none;stroke:#000000;stroke-width:0.3985;stroke-linecap:butt;stroke-linejoin:miter;stroke-miterlimit:10;stroke-dasharray:none;stroke-opacity:1"
       transform="matrix(1.3333333,0,0,-1.3333333,723.95867,110.612)" />
    <path
       id="path19"
       d="M 5.10188,0 0.64343,1.67842 2.10616,0 0.64343,-1.67842 Z"
       style="fill:#000000;fill-opacity:1;fill-rule:nonzero;stroke:#000000;stroke-width:0.3985;stroke-linecap:butt;stroke-linejoin:miter;stroke-miterlimit:10;stroke-dasharray:none;stroke-opacity:1"
       transform="matrix(-0.83048,1.0430133,1.0430133,0.83048,801.57167,101.50413)" />
    <path
       id="path20"
       d="M 11.53778,62.9579 7.35306,57.70258"
       style="fill:none;stroke:#000000;stroke-width:0.3985;stroke-linecap:butt;stroke-linejoin:miter;stroke-miterlimit:10;stroke-dasharray:none;stroke-opacity:1"
       transform="matrix(1.3333333,0,0,-1.3333333,723.95867,110.612)" />
    <path
       id="path21"
       d="M 5.10188,0 0.64343,1.67842 2.10616,0 0.64343,-1.67842 Z"
       style="fill:#000000;fill-opacity:1;fill-rule:nonzero;stroke:#000000;stroke-width:0.3985;stroke-linecap:butt;stroke-linejoin:miter;stroke-miterlimit:10;stroke-dasharray:none;stroke-opacity:1"
       transform="matrix(-0.83048,1.0430133,1.0430133,0.83048,735.42915,31.582373)" />
    <path
       id="path22"
       d="m 3.223875,-5.2744375 c -0.2578125,-0.058594 -0.9960937,-0.328125 -0.9960937,-1.0195312 0,-1.0078125 1.0078125,-1.03125 1.4179687,-1.03125 0.6679688,0 1.265625,0.1523437 1.8515625,0.7265625 0.1992188,0.1757812 0.2109375,0.1875 0.2578125,0.1875 0.070312,0 0.1289063,-0.035156 0.1640625,-0.2109375 l 0.1757813,-1.0429688 c 0.023437,-0.09375 0.023437,-0.1171875 0.023437,-0.1523437 0,-0.09375 -0.011719,-0.1054688 -0.3046875,-0.2695313 -0.8554688,-0.4101562 -1.5585938,-0.46875 -2.1679688,-0.46875 -1.0664062,0 -2.91796875,0.2460938 -2.91796875,2.484375 0,0.84375 0.44531255,1.3945313 0.66796875,1.640625 0.609375,0.6210938 1.171875,0.7382813 2.109375,0.9492188 0.6679688,0.1523437 0.9257813,0.2226562 1.1953125,0.4570312 0.1171875,0.1171875 0.3632813,0.375 0.3632813,0.8203125 0,1.125 -1.0195313,1.1601563 -1.4179688,1.1601563 -1.0078125,0 -1.875,-0.3984375 -2.4726562,-0.9375 -0.140625,-0.1523438 -0.1640625,-0.1523438 -0.21093755,-0.1523438 -0.0820313,0 -0.140625,0.035156 -0.17578125,0.2226563 l -0.17578125,1.0429687 c -0.0234375,0.09375 -0.0234375,0.1171875 -0.0234375,0.15234375 0,0.24609375 1.24218755,0.6796875 1.30078125,0.703125 C 2.6965313,0.233375 3.3410625,0.2568125 3.64575,0.2568125 c 1.7929688,0 2.9179688,-0.796875 2.9179688,-2.6484375 0,-1.3359375 -0.9960938,-2.34375 -2.1914063,-2.6132812 z m 6.928711,1.5585938 h 3.140625 c 0.375,0 0.574219,-0.082031 0.574219,-0.5625 0,-0.4453125 -0.152344,-0.5625 -0.574219,-0.5625 h -3.140625 v -2.2148438 h 0.585937 c 0.925782,0 1.875,0.035156 2.800782,0.035156 0.421875,0 0.703125,0 0.703125,-0.5742188 V -7.6885 c 0,-0.3867187 -0.09375,-0.5742187 -0.574219,-0.5742187 H 8.9689922 c -0.4335938,0 -0.5742188,0.1289062 -0.5742188,0.5742187 v 7.11328125 C 8.3947734,-0.141625 8.5236797,-0.001 8.9689922,-0.001 h 4.8749998 c 0.457031,0 0.574219,-0.15234375 0.574219,-0.57421875 v -0.1640625 C 14.418211,-1.3135 14.136961,-1.3135 13.750242,-1.3135 c -0.621094,0 -1.230469,0.023437 -1.851562,0.023437 -0.304688,0 -1.535157,0.011719 -1.746094,0.023437 z M 21.610594,-3.9150625 C 21.3645,-3.3056875 20.919188,-2.204125 20.825438,-1.78225 h -0.01172 c -0.105469,-0.4335937 -0.597656,-1.6171875 -0.855469,-2.25 L 18.434813,-7.8056875 C 18.223875,-8.297875 17.848875,-8.297875 17.626219,-8.297875 h -0.984375 c -0.433594,0 -0.574219,0.1289063 -0.574219,0.5742188 v 7.14843745 c 0,0.43359375 0.128906,0.57421875 0.574219,0.57421875 h 0.316406 c 0.457031,0 0.574219,-0.15234375 0.574219,-0.57421875 V -6.751 h 0.01172 c 0.140625,0.5390625 0.667968,1.8632813 0.960937,2.5664063 l 1.382813,3.4101562 c 0.222656,0.515625 0.503906,0.515625 0.914062,0.515625 0.398438,0 0.691406,0 0.902344,-0.515625 L 23.2395,-4.5361562 c 0.117188,-0.28125 0.761719,-1.9101563 0.84375,-2.2148438 h 0.01172 v 6.17578125 C 24.094969,-0.1885 24.177,-0.001 24.669188,-0.001 h 0.328125 c 0.457031,0 0.574218,-0.15234375 0.574218,-0.57421875 V -7.7236562 c 0,-0.3867188 -0.08203,-0.5742188 -0.574218,-0.5742188 H 23.9895 c -0.292969,0 -0.597656,0.023437 -0.796875,0.515625 z M 31.401609,-1.6885 c 0,-0.6679687 -0.363281,-1.0898437 -0.574218,-1.2773437 C 30.346922,-3.3994375 29.925047,-3.46975 29.432859,-3.5635 c -0.65625,-0.1171875 -1.136718,-0.2109375 -1.136718,-0.6796875 0,-0.4921875 0.386718,-0.5859375 0.855468,-0.5859375 0.808594,0 1.230469,0.2929688 1.546875,0.5625 0.117188,0.1171875 0.140625,0.1171875 0.1875,0.1171875 0.117188,0 0.140625,-0.1054687 0.152344,-0.1523437 0.02344,-0.09375 0.152344,-0.7617188 0.152344,-0.8320313 0,-0.1875 -0.632813,-0.3515625 -0.773438,-0.3984375 -0.480468,-0.1289062 -0.855468,-0.1523437 -1.171875,-0.1523437 -0.539062,0 -2.132812,0 -2.132812,1.7109375 0,0.5859375 0.257812,0.9492187 0.585937,1.2304687 0.410157,0.3867188 0.878907,0.46875 1.558594,0.5976563 0.351563,0.070312 0.960938,0.1757812 0.960938,0.703125 0,0.56249995 -0.46875,0.6445312 -0.9375,0.6445312 -0.515625,0 -1.195313,-0.1640625 -1.757813,-0.8320312 -0.05859,-0.058594 -0.09375,-0.09375 -0.164062,-0.09375 -0.117188,0 -0.140625,0.1054687 -0.152344,0.1757812 -0.02344,0.1757813 -0.164063,0.85546875 -0.164063,0.97265625 0,0.2109375 0.878907,0.4921875 0.890625,0.50390625 0.65625,0.19921875 1.148438,0.19921875 1.347657,0.19921875 0.609375,0 2.121093,-0.046875 2.121093,-1.81640625 z m 13.283204,-3.4570312 c -0.03516,-0.328125 -0.246094,-0.328125 -0.621094,-0.328125 -0.5625,0 -0.703125,0.035156 -0.867188,0.65625 -0.269531,0.9140625 -0.785156,2.7890625 -0.972656,3.46875 L 41.216063,-4.9345937 C 41.134031,-5.204125 41.052,-5.4736562 40.501219,-5.4736562 c -0.175781,0 -0.445313,0 -0.621094,0.2695312 -0.105469,0.1875 -0.632812,2.25 -1.042969,3.6445313 l -0.960937,-3.375 C 37.759031,-5.34475 37.630125,-5.4736562 37.137938,-5.4736562 h -0.246094 c -0.222656,0 -0.46875,0 -0.515625,0.328125 l 1.277344,4.59374995 C 37.805906,-0.001 38.110594,-0.001 38.415281,-0.001 h 0.328125 c 0.5625,0 0.667969,-0.17578125 0.796875,-0.65625 0.269532,-0.9960937 0.703125,-2.4960937 0.75,-3.1171875 l 0.01172,-0.011719 c 0.07031,0.6796875 0.597656,2.5664062 0.75,3.1289062 0.140625,0.43359375 0.199219,0.65625 0.796875,0.65625 h 0.808594 c 0.515625,0 0.632812,-0.140625 0.75,-0.55078125 z m 1.529296,-3.1640625 c -0.386718,0 -0.574218,0.070312 -0.574218,0.5507812 v 0.5507813 c 0,0.3867187 0.117187,0.5390625 0.5625,0.5390625 h 0.621093 c 0.574219,0 0.574219,-0.2578125 0.574219,-0.8203125 0,-0.5625 0,-0.8203125 -0.574219,-0.8203125 z m 1.101563,3.4101562 c 0,-0.3867187 -0.08203,-0.5742187 -0.574219,-0.5742187 h -0.445312 c -0.433594,0 -0.574219,0.1289062 -0.574219,0.5742187 v 4.32421875 c 0,0.43359375 0.128906,0.57421875 0.574219,0.57421875 h 0.445312 c 0.457031,0 0.574219,-0.15234375 0.574219,-0.57421875 z m 3.336914,0.28125 h 1.066406 c 0.140625,0 0.574219,0 0.574219,-0.421875 0,-0.4335937 -0.433594,-0.4335937 -0.574219,-0.4335937 H 50.652586 V -6.46975 c 0,-0.375 -0.08203,-0.5742187 -0.574219,-0.5742187 h -0.363281 c -0.433594,0 -0.574219,0.1289062 -0.574219,0.5742187 v 0.9960938 h -0.28125 c -0.128906,0 -0.574219,0 -0.574219,0.4335937 0,0.421875 0.433594,0.421875 0.574219,0.421875 h 0.246094 V -1.59475 c 0,1.20703125 0.421875,1.72265625 1.253906,1.72265625 0.105469,0 0.632813,0 1.253906,-0.1875 0.199219,-0.05859375 0.890625,-0.28125 0.890625,-0.50390625 0,-0.0351563 -0.02344,-0.1171875 -0.09375,-0.375 -0.05859,-0.234375 -0.08203,-0.3046875 -0.1875,-0.3046875 -0.05859,0 -0.07031,0.011719 -0.140625,0.082031 -0.128906,0.09375 -0.457031,0.3632812 -0.960937,0.3632812 -0.28125,0 -0.46875,-0.2109375 -0.46875,-0.9960937 z m 8.208984,0.7265625 c 0,-1.2304687 -0.527343,-1.7109375 -1.746093,-1.7109375 -1.195313,0 -1.746094,0.8203125 -1.910157,1.1601563 H 55.1936 v -3.28125 c 0,-0.3867188 -0.08203,-0.5742188 -0.574219,-0.5742188 H 54.17407 c -0.433593,0 -0.574218,0.1289063 -0.574218,0.5742188 v 7.14843745 c 0,0.43359375 0.128906,0.57421875 0.574218,0.57421875 h 0.480469 c 0.457031,0 0.574219,-0.15234375 0.574219,-0.57421875 V -3.2119375 c 0,-1.0429687 0.691406,-1.5351562 1.3125,-1.5351562 0.574219,0 0.691406,0.28125 0.691406,0.890625 v 3.28124995 c 0,0.38671875 0.08203,0.57421875 0.574219,0.57421875 h 0.480469 c 0.457031,0 0.574218,-0.15234375 0.574218,-0.57421875 z m 7.426758,-3.8320312 c 0,-0.3867188 -0.08203,-0.5742188 -0.574219,-0.5742188 h -0.445312 c -0.433594,0 -0.574219,0.1289063 -0.574219,0.5742188 v 7.14843745 c 0,0.43359375 0.128906,0.57421875 0.574219,0.57421875 h 0.445312 c 0.457032,0 0.574219,-0.15234375 0.574219,-0.57421875 z m 6.27832,3.9492187 c 0,-1.8867187 -1.816406,-1.9101562 -2.414062,-1.9101562 -0.5625,0 -1.160156,0.058594 -1.957031,0.3867187 -0.246094,0.1054688 -0.316407,0.140625 -0.316407,0.28125 0,0.082031 0.08203,0.7734375 0.09375,0.8671875 0.01172,0.070312 0.07031,0.1289063 0.152344,0.1289063 0.05859,0 0.09375,-0.035156 0.128906,-0.070312 0.515625,-0.5390625 1.113282,-0.796875 1.851563,-0.796875 0.644531,0 0.84375,0.3867187 0.84375,1.1015625 V -3.376 c -0.421875,0 -3.550781,0.023437 -3.550781,1.78125 0,0.84375 0.667968,1.72265625 1.722656,1.72265625 0.398437,0 1.300781,-0.1171875 1.863281,-0.9375 v 0.234375 c 0,0.38671875 0.08203,0.57421875 0.574219,0.57421875 h 0.433594 c 0.457031,0 0.574218,-0.15234375 0.574218,-0.57421875 z m -1.617187,1.9335938 c 0,1.1132812 -1.136719,1.1132812 -1.171875,1.1132812 -0.503906,0 -0.832031,-0.4335937 -0.832031,-0.890625 0,-1.171875 1.664062,-1.2539062 2.003906,-1.265625 z m 7.939453,-3.0703125 c 0.05859,-0.1757813 0.05859,-0.1992188 0.05859,-0.234375 0,-0.328125 -0.292969,-0.328125 -0.46875,-0.328125 h -0.257813 c -0.503906,0 -0.632812,0.1757812 -0.738281,0.515625 l -1.183594,3.609375 -1.183593,-3.609375 c -0.08203,-0.2578125 -0.164063,-0.515625 -0.738282,-0.515625 h -0.292968 c -0.175782,0 -0.46875,0 -0.46875,0.328125 0,0.035156 0,0.058594 0.05859,0.234375 l 1.417969,4.40624995 C 75.256102,-0.001 75.631102,-0.001 75.842039,-0.001 h 0.878906 c 0.210938,0 0.585938,0 0.75,-0.50390625 z m 5.932617,1.1367187 c 0,-1.8867187 -1.816406,-1.9101562 -2.414062,-1.9101562 -0.5625,0 -1.160156,0.058594 -1.957031,0.3867187 -0.246094,0.1054688 -0.316407,0.140625 -0.316407,0.28125 0,0.082031 0.08203,0.7734375 0.09375,0.8671875 0.01172,0.070312 0.07031,0.1289063 0.152344,0.1289063 0.05859,0 0.09375,-0.035156 0.128906,-0.070312 0.515625,-0.5390625 1.113282,-0.796875 1.851563,-0.796875 0.644531,0 0.84375,0.3867187 0.84375,1.1015625 V -3.376 c -0.421875,0 -3.550781,0.023437 -3.550781,1.78125 0,0.84375 0.667968,1.72265625 1.722656,1.72265625 0.398437,0 1.300781,-0.1171875 1.863281,-0.9375 v 0.234375 C 83.2395,-0.1885 83.321531,-0.001 83.813719,-0.001 h 0.433594 c 0.457031,0 0.574218,-0.15234375 0.574218,-0.57421875 z m -1.617187,1.9335938 c 0,1.1132812 -1.136719,1.1132812 -1.171875,1.1132812 -0.503906,0 -0.832031,-0.4335937 -0.832031,-0.890625 0,-1.171875 1.664062,-1.2539062 2.003906,-1.265625 z m 7.892578,-1.9335938 c 0,-1.8867187 -1.816406,-1.9101562 -2.414063,-1.9101562 -0.5625,0 -1.160156,0.058594 -1.957031,0.3867187 -0.246094,0.1054688 -0.316406,0.140625 -0.316406,0.28125 0,0.082031 0.08203,0.7734375 0.09375,0.8671875 0.01172,0.070312 0.07031,0.1289063 0.152344,0.1289063 0.05859,0 0.09375,-0.035156 0.128906,-0.070312 0.515625,-0.5390625 1.113281,-0.796875 1.851562,-0.796875 0.644532,0 0.84375,0.3867187 0.84375,1.1015625 V -3.376 c -0.421875,0 -3.550781,0.023437 -3.550781,1.78125 0,0.84375 0.667969,1.72265625 1.722656,1.72265625 0.398438,0 1.300782,-0.1171875 1.863282,-0.9375 v 0.234375 c 0,0.38671875 0.08203,0.57421875 0.574218,0.57421875 h 0.433594 c 0.457031,0 0.574219,-0.15234375 0.574219,-0.57421875 z m -1.617188,1.9335938 c 0,1.1132812 -1.136718,1.1132812 -1.171875,1.1132812 -0.503906,0 -0.832031,-0.4335937 -0.832031,-0.890625 0,-1.171875 1.664063,-1.2539062 2.003906,-1.265625 z m 8.326172,-2.0507813 c 0,-1.2304687 -0.527343,-1.7109375 -1.746093,-1.7109375 -1.253907,0 -1.792969,0.9023438 -1.945313,1.2304688 H 94.10278 V -4.96975 c 0,-0.3867187 -0.08203,-0.5742187 -0.574218,-0.5742187 h -0.410157 c -0.433593,0 -0.574218,0.1289062 -0.574218,0.5742187 v 4.39453125 c 0,0.43359375 0.128906,0.57421875 0.574218,0.57421875 h 0.480469 c 0.457031,0 0.574219,-0.15234375 0.574219,-0.57421875 V -3.2119375 c 0,-1.0429687 0.691406,-1.5351562 1.3125,-1.5351562 0.574219,0 0.691406,0.28125 0.691406,0.890625 v 3.28124995 C 96.177,-0.1885 96.259031,-0.001 96.751219,-0.001 h 0.480469 c 0.457031,0 0.574218,-0.15234375 0.574218,-0.57421875 z m 0,0"
       style="fill:#ffffff;fill-opacity:1;fill-rule:nonzero;stroke:none"
       aria-label="SEMswithlavaan"
       transform="matrix(1.3333333,0,0,1.3333333,658.264,161.50133)" />
    <path
       id="path23"
       d="m 9.7616094,-8.0735078 0.058594,-0.035156 c 3.8554686,-1.3359375 3.8906246,-4.0078132 3.8906246,-4.4765632 0,-2.355468 -2.378906,-4.617187 -5.9531246,-4.617187 H 2.2030156 V 7.109375e-4 H 4.2420781 V -7.8508516 H 7.8866094 L 12.269422,7.109375e-4 h 2.085937 z M 4.2420781,-9.3625703 v -6.4453127 h 3.2460938 c 3.1406251,0 4.2656251,1.78125 4.2656251,3.222656 0,1.335938 -0.996094,3.2226567 -4.2656251,3.2226567 z m 20.4814449,3.9375 c 0,-0.8203125 -0.04687,-2.4023438 -0.84375,-3.7148438 -0.867187,-1.4179689 -2.285156,-1.8164059 -3.339843,-1.8164059 -2.578125,0 -4.769532,2.4257809 -4.769532,5.5781247 0,3.0703125 2.261719,5.57812499 5.109375,5.57812499 1.113282,0 2.484375,-0.328125 3.714844,-1.21874999 0,-0.09375 -0.04687,-0.6445313 -0.07031,-0.6679688 0,-0.046875 -0.07031,-0.8203125 -0.07031,-0.9140625 -1.195312,0.9609375 -2.554687,1.2890625 -3.550781,1.2890625 -1.582031,0 -3.292969,-1.3359375 -3.363281,-4.1132812 z m -6.984375,-1.3710938 c 0.316407,-1.359375 1.40625,-2.6484375 2.800782,-2.6484375 0.363281,0 2.097656,0.046875 2.542968,2.6484375 z m 11.387696,5.6835938 c 0.820312,0.79687499 1.933594,1.31249999 3.128906,1.31249999 2.308594,0 4.289063,-2.37890629 4.289063,-5.55468749 0,-2.9179688 -1.488282,-5.4960942 -3.621094,-5.4960942 -1.242188,0 -2.730469,0.445313 -3.84375,1.3359379 V -10.651633 H 27.251844 V 4.8288359 h 1.875 z m 0,-6.9375 c 0.199219,-0.3046875 1.042969,-1.2421875 2.414062,-1.2421875 1.734375,0 3.117188,1.78125 3.117188,3.9375 0,2.4609375 -1.6875,4.0429687 -3.351563,4.0429687 -0.492187,0 -1.007812,-0.1289062 -1.511718,-0.5507812 -0.667969,-0.5859375 -0.667969,-0.9609375 -0.667969,-1.3125 z m 11.302734,2.7773437 c 0,-2.3320312 1.710938,-3.9023437 3.890625,-3.9492187 v -1.6289067 c -1.582031,0.02344 -3.070312,0.808594 -3.960937,2.0976567 V -10.733664 H 38.601453 V 7.109375e-4 h 1.828125 z m 15.205078,-0.035156 c 0,-3.1640625 -2.355468,-5.6484374 -5.132812,-5.6484374 -2.847656,0 -5.15625,2.5546874 -5.15625,5.6484374 0,3.1523437 2.378906,5.50781249 5.132812,5.50781249 2.824219,0 5.15625,-2.42578129 5.15625,-5.50781249 z m -5.132812,3.9492187 c -1.757813,0 -3.269531,-1.4414062 -3.269531,-4.1484375 0,-2.8710937 1.757812,-3.9375 3.246093,-3.9375 1.605469,0 3.269532,1.171875 3.269532,3.9375 0,2.8007813 -1.605469,4.1484375 -3.246094,4.1484375 z M 67.092664,-17.202414 H 65.25282 v 7.5820312 c -0.761718,-0.6445312 -2.027343,-1.2304692 -3.410156,-1.2304692 -2.261719,0 -4.042969,2.4492192 -4.042969,5.5195317 0,3.0820312 1.757813,5.53124999 3.960938,5.53124999 1.710937,0 2.847656,-0.9140625 3.445312,-1.44140629 V 7.109375e-4 h 1.886719 z m -1.886719,13.8867187 c 0,0.3398437 0,0.7148437 -0.761718,1.3828125 -0.503907,0.421875 -1.089844,0.6210937 -1.664063,0.6210937 -1.335937,0 -3.09375,-0.9960937 -3.09375,-3.9960937 0,-3.1171875 1.980469,-4.03125 3.339844,-4.03125 0.914062,0 1.664062,0.4453125 2.179687,1.1835937 z m 13.904297,-7.3359377 h -1.886719 v 6.8320314 c 0,1.8398438 -1.335937,2.578125 -2.742187,2.578125 -1.640625,0 -1.792969,-0.5390625 -1.792969,-1.5585937 v -7.8515627 h -1.875 v 7.9804689 c 0,1.93359379 0.667969,2.87109379 2.378906,2.87109379 0.832032,0 2.742188,-0.1992187525 4.089844,-1.44140629 V 7.109375e-4 h 1.828125 z m 11.396485,0.7617189 c 0,-0.1757809 -1.136719,-0.6679689 -1.429688,-0.7617189 -0.820312,-0.304687 -1.863281,-0.304687 -2.132812,-0.304687 -3.222657,0 -5.15625,2.8007809 -5.15625,5.6249997 0,2.9765625 2.15625,5.53124999 5.050781,5.53124999 1.664062,0 2.847656,-0.55078125 3.820312,-1.1953125 L 90.506727,-2.6242891 c -1.066407,0.8203125 -2.296875,1.265625 -3.644532,1.265625 -1.933593,0 -3.1875,-1.6875 -3.1875,-3.9960937 0,-1.78125 0.808594,-4.0429688 3.292969,-4.0429688 1.359375,0 2.132813,0.28125 3.269531,1.0429688 z m 4.617187,-6.4218749 h -2.085937 v 2.085937 h 2.085937 z m -0.128906,5.660156 H 93.166883 V 7.109375e-4 h 1.828125 z m 11.985352,3.4101564 c 0,-1.5585937 -0.375,-3.6093754 -3.17578,-3.6093754 -1.58203,0 -2.625,0.808594 -3.31641,1.6523442 V -10.733664 H 98.683484 V 7.109375e-4 h 1.874996 V -5.9992891 c 0,-1.5585937 0.59766,-3.3398437 2.28516,-3.3398437 2.17969,0 2.25,1.453125 2.25,2.296875 V 7.109375e-4 h 1.88672 z m 12.88477,-3.6093754 c -1.40625,0.02344 -2.625,0.292969 -3.6211,0.761719 -0.80859,-0.644531 -1.65234,-0.761719 -2.22656,-0.761719 -2.15625,0 -3.79688,1.7812504 -3.79688,3.8671879 0,1.3359375 0.75,2.34375 0.79688,2.4023438 -0.44531,0.6210937 -0.69141,1.2890625 -0.69141,2.0273437 0,0.8671875 0.35157,1.4882813 0.6211,1.83984379 -1.28907,0.78515625 -1.46485,2.00390621 -1.46485,2.47265621 0,1.8164063 2.25,3.2929688 5.15625,3.2929688 2.91797,0 5.17969,-1.4765625 5.17969,-3.3164063 0,-3.421875 -3.79687,-3.4453125 -4.82812,-3.4453125 h -2.01563 c -0.375,0 -1.35937,0 -1.35937,-1.265625 0,-0.4921875 0.22265,-0.8203125 0.24609,-0.84375 0.375,0.28125 1.13672,0.703125 2.15625,0.703125 2.0625,0 3.77344,-1.7460937 3.77344,-3.8671875 0,-1.1953125 -0.55078,-2.0625 -0.77344,-2.3554687 h 0.0703 c 0.082,0 1.11328,-0.082031 1.48828,-0.082031 0.79688,0 0.86719,0.023437 1.5586,0.1054688 z m -5.84766,6.3632817 c -0.84375,0 -2.02734,-0.515625 -2.02734,-2.4960938 0,-2.15625 1.35937,-2.5078125 2.0039,-2.5078125 0.84375,0 2.02735,0.515625 2.02735,2.5078125 0,2.15625 -1.35938,2.4960938 -2.00391,2.4960938 z m 0.9375,4.58203124 c 0.59766,0 3.10547,0 3.10547,1.68749996 0,1.0664063 -1.53516,1.9101563 -3.39844,1.9101563 -1.88672,0 -3.42187,-0.8203125 -3.42187,-1.9335938 0,-0.1171875 0,-1.66406246 1.71093,-1.66406246 z m 17.0332,-1.20703124 c 0.82031,0.79687499 1.9336,1.31249999 3.12891,1.31249999 2.30859,0 4.28906,-2.37890629 4.28906,-5.55468749 0,-2.9179688 -1.48828,-5.4960942 -3.62109,-5.4960942 -1.24219,0 -2.73047,0.445313 -3.84375,1.3359379 v -1.1367189 h -1.82813 V 4.8288359 h 1.875 z m 0,-6.9375 c 0.19922,-0.3046875 1.04297,-1.2421875 2.41406,-1.2421875 1.73438,0 3.11719,1.78125 3.11719,3.9375 0,2.4609375 -1.6875,4.0429687 -3.35156,4.0429687 -0.49219,0 -1.00781,-0.1289062 -1.51172,-0.5507812 -0.66797,-0.5859375 -0.66797,-0.9609375 -0.66797,-1.3125 z m 18.39258,-2.6015627 h -1.88672 v 6.8320314 c 0,1.8398438 -1.33594,2.578125 -2.74219,2.578125 -1.64062,0 -1.79296,-0.5390625 -1.79296,-1.5585937 v -7.8515627 h -1.875 v 7.9804689 c 0,1.93359379 0.66796,2.87109379 2.3789,2.87109379 0.83203,0 2.74219,-0.1992187525 4.08985,-1.44140629 V 7.109375e-4 h 1.82812 z m 5.55176,-6.550781 h -1.82813 V 7.109375e-4 h 1.875 V -1.1125703 c 0.94922,0.91406249 2.08594,1.31249999 3.10547,1.31249999 2.37891,0 4.3125,-2.40234379 4.3125,-5.55468749 0,-2.8710938 -1.48828,-5.4960942 -3.6914,-5.4960942 -1.57032,0 -2.95313,0.644532 -3.77344,1.3125004 z m 0.0469,9.1289062 c 0.55078,-0.703125 1.3125,-1.265625 2.41407,-1.265625 1.45312,0 3.11718,1.0664062 3.11718,3.984375 0,3.1289062 -1.98047,4.0429687 -3.35156,4.0429687 -0.49219,0 -1.00781,-0.1289062 -1.51172,-0.5507812 -0.66797,-0.5859375 -0.66797,-0.9609375 -0.66797,-1.3125 z m 11.92383,-9.1289062 h -1.82812 V 7.109375e-4 h 1.82812 z m 5.64551,0.890625 h -2.08594 v 2.085937 h 2.08594 z m -0.12891,5.660156 h -1.82812 V 7.109375e-4 h 1.82812 z m 9.8291,0.445313 c -1.46484,-0.703125 -2.60156,-0.75 -3.33984,-0.75 -1.76953,0 -3.86719,0.621093 -3.86719,3.1289059 0,2.4960938 2.71875,3.046875 3.46875,3.1875 1.13672,0.234375 2.40235,0.4804688 2.40235,1.7109375 0,1.5703125 -1.78125,1.5703125 -2.10938,1.5703125 -0.99609,0 -2.35547,-0.28125 -3.59765,-1.171875 l -0.29297,1.66406254 c 1.41797,0.8203125 2.77734,1.06640625 3.91406,1.06640625 3.04687,0 3.82031,-1.86328129 3.82031,-3.26953129 0,-1.21875 -0.6914,-2.0390625 -1.17187,-2.4023437 -0.8086,-0.6445313 -1.11328,-0.7265625 -3.14063,-1.1484375 -0.35156,-0.046875 -1.55859,-0.3164063 -1.55859,-1.4296875 0,-1.4179688 1.55859,-1.4179688 1.89844,-1.4179688 1.61718,0 2.61328,0.4921875 3.28125,0.8671875 z m 11.0918,2.9648434 c 0,-1.5585937 -0.375,-3.6093754 -3.17578,-3.6093754 -1.55859,0 -2.57813,0.761719 -3.29297,1.6054692 v -7.9570312 h -1.82812 V 7.109375e-4 h 1.875 V -5.9992891 c 0,-1.5585937 0.59765,-3.3398437 2.28515,-3.3398437 2.17969,0 2.25,1.453125 2.25,2.296875 V 7.109375e-4 h 1.88672 z m 11.55176,1.8164063 c 0,-0.8203125 -0.0469,-2.4023438 -0.84375,-3.7148438 -0.86719,-1.4179689 -2.28516,-1.8164059 -3.33984,-1.8164059 -2.57813,0 -4.76954,2.4257809 -4.76954,5.5781247 0,3.0703125 2.26172,5.57812499 5.10938,5.57812499 1.11328,0 2.48437,-0.328125 3.71484,-1.21874999 0,-0.09375 -0.0469,-0.6445313 -0.0703,-0.6679688 0,-0.046875 -0.0703,-0.8203125 -0.0703,-0.9140625 -1.19531,0.9609375 -2.55469,1.2890625 -3.55078,1.2890625 -1.58203,0 -3.29297,-1.3359375 -3.36328,-4.1132812 z m -6.98438,-1.3710938 c 0.31641,-1.359375 1.40625,-2.6484375 2.80079,-2.6484375 0.36328,0 2.09765,0.046875 2.54296,2.6484375 z m 17.7627,-10.4062499 h -1.83984 v 7.5820312 c -0.76172,-0.6445312 -2.02735,-1.2304692 -3.41016,-1.2304692 -2.26172,0 -4.04297,2.4492192 -4.04297,5.5195317 0,3.0820312 1.75781,5.53124999 3.96094,5.53124999 1.71094,0 2.84765,-0.9140625 3.44531,-1.44140629 V 7.109375e-4 h 1.88672 z m -1.88672,13.8867187 c 0,0.3398437 0,0.7148437 -0.76172,1.3828125 -0.5039,0.421875 -1.08984,0.6210937 -1.66406,0.6210937 -1.33594,0 -3.09375,-0.9960937 -3.09375,-3.9960937 0,-3.1171875 1.98047,-4.03125 3.33984,-4.03125 0.91407,0 1.66407,0.4453125 2.17969,1.1835937 z M -14.05382,13.503641 c -1.089844,-0.644532 -2.273438,-1.21875 -4.289063,-1.21875 -3.1875,0 -5.25,2.355468 -5.25,4.757812 0,0.949219 0.269531,2.015625 1.242188,3.105469 0.960937,1.089844 2.050781,1.382812 3.445312,1.734375 0.5625,0.152344 1.535156,0.421875 1.710938,0.492187 1.382812,0.550782 2.050781,1.816407 2.050781,3 0,1.558594 -1.207031,3.222657 -3.363281,3.222657 -0.75,0 -2.929688,-0.128907 -4.992188,-2.003907 l -0.339844,1.957032 c 2.027344,1.488281 4.230469,1.734375 5.355469,1.734375 3.046875,0 5.226563,-2.402344 5.226563,-5.132813 0,-0.996094 -0.292969,-2.25 -1.335938,-3.421875 -1.019531,-1.113281 -1.910156,-1.359375 -3.949219,-1.910156 -1.160156,-0.292969 -1.898437,-0.492188 -2.519531,-1.265625 -0.421875,-0.539063 -0.644531,-1.066406 -0.644531,-1.734375 0,-1.382813 1.183594,-2.894531 3.363281,-2.894531 1.089844,0 2.507813,0.222656 3.949219,1.558593 z m 6.2548825,7.160156 h 3.2226563 V 19.234109 H -7.7989375 V 16.175516 H -9.55675 v 3.058593 h -1.957031 v 1.429688 h 1.910156 v 6.269531 c 0,1.417969 0.3164063,3.152344 1.9570313,3.152344 1.2421875,0 2.3789062,-0.351563 3.46875,-0.914063 l -0.3984375,-1.464843 c -0.5976563,0.515625 -1.3125,0.820312 -2.0859375,0.820312 -1.0898438,0 -1.1367188,-1.394531 -1.1367188,-2.015625 z m 7.97460938,3.949219 c 0,-2.332032 1.71093752,-3.902344 3.89062502,-3.949219 v -1.628906 c -1.5820313,0.02344 -3.07031252,0.808593 -3.96093752,2.097656 V 19.152078 H -1.6524531 V 29.886453 H 0.17567188 Z M 14.560438,19.234109 h -1.886719 v 6.832032 c 0,1.839843 -1.335938,2.578125 -2.7421877,2.578125 -1.640625,0 -1.7929688,-0.539063 -1.7929688,-1.558594 v -7.851563 h -1.875 v 7.980469 c 0,1.933594 0.6679688,2.871094 2.3789063,2.871094 0.8320312,0 2.7421872,-0.199219 4.0898442,-1.441406 v 1.242187 h 1.828125 z m 11.396484,0.761719 c 0,-0.175781 -1.136719,-0.667969 -1.429688,-0.761719 -0.820312,-0.304687 -1.863281,-0.304687 -2.132812,-0.304687 -3.222656,0 -5.15625,2.800781 -5.15625,5.625 0,2.976562 2.15625,5.53125 5.050781,5.53125 1.664063,0 2.847656,-0.550781 3.820313,-1.195313 l -0.152344,-1.628906 c -1.066406,0.820313 -2.296875,1.265625 -3.644531,1.265625 -1.933594,0 -3.1875,-1.6875 -3.1875,-3.996094 0,-1.78125 0.808593,-4.042968 3.292968,-4.042968 1.359375,0 2.132813,0.28125 3.269532,1.042968 z m 4.957031,0.667969 h 3.222656 v -1.429688 h -3.222656 v -3.058593 h -1.757812 v 3.058593 h -1.957032 v 1.429688 h 1.910157 v 6.269531 c 0,1.417969 0.316406,3.152344 1.957031,3.152344 1.242187,0 2.378906,-0.351563 3.46875,-0.914063 l -0.398438,-1.464843 c -0.597656,0.515625 -1.3125,0.820312 -2.085937,0.820312 -1.089844,0 -1.136719,-1.394531 -1.136719,-2.015625 z m 14.416992,-1.429688 h -1.886718 v 6.832032 c 0,1.839843 -1.335938,2.578125 -2.742188,2.578125 -1.640625,0 -1.792969,-0.539063 -1.792969,-1.558594 v -7.851563 h -1.875 v 7.980469 c 0,1.933594 0.667969,2.871094 2.378907,2.871094 0.832031,0 2.742187,-0.199219 4.089843,-1.441406 v 1.242187 h 1.828125 z m 5.548828,5.378907 c 0,-2.332032 1.710938,-3.902344 3.890625,-3.949219 v -1.628906 c -1.582031,0.02344 -3.070312,0.808593 -3.960937,2.097656 v -1.980469 h -1.757813 v 10.734375 h 1.828125 z m 13.564454,-1.746094 c 0,-2.320313 -1.652344,-3.9375 -3.890625,-3.9375 -1.089844,0 -2.273438,0.199219 -3.644532,0.996094 l 0.152344,1.628906 c 0.621094,-0.445313 1.6875,-1.160156 3.46875,-1.160156 1.265625,0 2.039063,0.960937 2.039063,2.507812 v 0.9375 c -3.972657,0.128906 -6.445313,1.265625 -6.445313,3.222656 0,1.019532 0.609375,3.023438 2.671875,3.023438 0.375,0 2.378906,-0.04687 3.820313,-1.113281 v 0.914062 h 1.828125 z m -1.875,3.75 c 0,0.445312 0,1.042969 -0.75,1.488281 -0.644532,0.421875 -1.464844,0.46875 -1.804688,0.46875 -1.242187,0 -2.085937,-0.691406 -2.085937,-1.558594 0,-1.734375 3.867187,-1.910156 4.640625,-1.933593 z m 7.40332,-13.933594 h -1.828125 v 17.203125 h 1.828125 z m 17.188476,15.515625 c -1.980468,0 -2.871093,0 -3.316406,0.02344 v -6.492188 h 7.675781 v -1.511719 h -7.675781 v -5.894531 h 3.199219 c 0.292969,0 0.585937,0.02344 0.890625,0.02344 H 92.16493 V 12.730203 H 81.75868 v 17.15625 H 92.493055 V 28.175516 Z M 103.5995,19.034891 h -1.83984 v 1.511718 c -0.0937,-0.128906 -1.23047,-1.511718 -3.164066,-1.511718 -2.261719,0 -4.289063,2.296875 -4.289063,5.542968 0,3 1.710938,5.507813 3.9375,5.507813 1.042969,0 2.355469,-0.375 3.468749,-1.441406 v 6.070312 h 1.88672 z m -1.83984,7.453125 c 0,0.328125 0,0.773437 -0.76172,1.417968 -0.19922,0.175782 -0.75,0.667969 -1.687502,0.667969 -1.757813,0 -3.117188,-1.839844 -3.117188,-3.996094 0,-2.402343 1.652344,-3.984375 3.339844,-3.984375 1.417966,0 2.226566,1.382813 2.226566,2.425782 z m 13.85742,-7.253907 h -1.88672 v 6.832032 c 0,1.839843 -1.33594,2.578125 -2.74219,2.578125 -1.64062,0 -1.79297,-0.539063 -1.79297,-1.558594 v -7.851563 h -1.875 v 7.980469 c 0,1.933594 0.66797,2.871094 2.37891,2.871094 0.83203,0 2.74219,-0.199219 4.08984,-1.441406 v 1.242187 h 1.82813 z m 11.17383,3.632813 c 0,-2.320313 -1.65235,-3.9375 -3.89063,-3.9375 -1.08984,0 -2.27344,0.199219 -3.64453,0.996094 l 0.15234,1.628906 c 0.6211,-0.445313 1.6875,-1.160156 3.46875,-1.160156 1.26563,0 2.03907,0.960937 2.03907,2.507812 v 0.9375 c -3.97266,0.128906 -6.44532,1.265625 -6.44532,3.222656 0,1.019532 0.60938,3.023438 2.67188,3.023438 0.375,0 2.37891,-0.04687 3.82031,-1.113281 v 0.914062 h 1.82813 z m -1.875,3.75 c 0,0.445312 0,1.042969 -0.75,1.488281 -0.64453,0.421875 -1.46485,0.46875 -1.80469,0.46875 -1.24219,0 -2.08594,-0.691406 -2.08594,-1.558594 0,-1.734375 3.86719,-1.910156 4.64063,-1.933593 z m 7.87207,-5.953125 h 3.22265 v -1.429688 h -3.22265 v -3.058593 h -1.75782 v 3.058593 h -1.95703 v 1.429688 h 1.91016 v 6.269531 c 0,1.417969 0.31641,3.152344 1.95703,3.152344 1.24219,0 2.37891,-0.351563 3.46875,-0.914063 l -0.39844,-1.464843 c -0.59765,0.515625 -1.3125,0.820312 -2.08593,0.820312 -1.08985,0 -1.13672,-1.394531 -1.13672,-2.015625 z m 8.07715,-7.089844 h -2.08594 v 2.085938 h 2.08594 z m -0.12891,5.660156 h -1.82813 v 10.652344 h 1.82813 z m 12.80566,5.34375 c 0,-3.164062 -2.35547,-5.648437 -5.13281,-5.648437 -2.84766,0 -5.15625,2.554687 -5.15625,5.648437 0,3.152344 2.37891,5.507813 5.13281,5.507813 2.82422,0 5.15625,-2.425781 5.15625,-5.507813 z m -5.13281,3.949219 c -1.75781,0 -3.26953,-1.441406 -3.26953,-4.148437 0,-2.871094 1.75781,-3.9375 3.24609,-3.9375 1.60547,0 3.26953,1.171875 3.26953,3.9375 0,2.800781 -1.60546,4.148437 -3.24609,4.148437 z m 15.96973,-5.882812 c 0,-1.558594 -0.375,-3.609375 -3.17578,-3.609375 -1.58204,0 -2.625,0.808593 -3.31641,1.652343 v -1.535156 h -1.80469 v 10.734375 h 1.875 v -6 c 0,-1.558594 0.59766,-3.339844 2.28516,-3.339844 2.17969,0 2.25,1.453125 2.25,2.296875 v 7.042969 h 1.88672 z m 22.00195,-2.003907 -1.18359,3.492188 c -0.19922,0.644531 -0.86719,2.660156 -1.01953,3.445312 h -0.0234 c -0.0703,-0.492187 -0.22266,-1.007812 -0.6211,-2.273437 -0.22265,-0.75 -0.46875,-1.511719 -0.71484,-2.214844 l -3.66797,-10.40625 h -2.90625 v 17.203125 h 1.9336 v -15.1875 h 0.0234 c 0,0.02344 0.22266,1.113281 1.73438,5.449219 l 3.28125,9.339844 h 1.82812 l 2.95313,-8.296875 c 0.19922,-0.574219 0.82031,-2.378907 1.08984,-3.246094 0.2461,-0.75 0.86719,-2.578125 1.01953,-3.304688 h 0.0234 v 15.246094 h 1.95703 V 12.683328 h -2.88281 z m 18.91406,3.9375 c 0,-3.164062 -2.35547,-5.648437 -5.13281,-5.648437 -2.84766,0 -5.15625,2.554687 -5.15625,5.648437 0,3.152344 2.37891,5.507813 5.13281,5.507813 2.82422,0 5.15625,-2.425781 5.15625,-5.507813 z m -5.13281,3.949219 c -1.75781,0 -3.26953,-1.441406 -3.26953,-4.148437 0,-2.871094 1.75781,-3.9375 3.24609,-3.9375 1.60547,0 3.26953,1.171875 3.26953,3.9375 0,2.800781 -1.60546,4.148437 -3.24609,4.148437 z m 16.59082,-15.84375 h -1.83984 v 7.582031 c -0.76172,-0.644531 -2.02735,-1.230468 -3.41016,-1.230468 -2.26172,0 -4.04297,2.449218 -4.04297,5.519531 0,3.082031 1.75781,5.53125 3.96094,5.53125 1.71094,0 2.84766,-0.914063 3.44531,-1.441406 v 1.242187 h 1.88672 z m -1.88672,13.886719 c 0,0.339844 0,0.714844 -0.76172,1.382812 -0.5039,0.421875 -1.08984,0.621094 -1.66406,0.621094 -1.33594,0 -3.09375,-0.996094 -3.09375,-3.996094 0,-3.117187 1.98047,-4.03125 3.33984,-4.03125 0.91407,0 1.66407,0.445313 2.17969,1.183594 z m 13.45899,-2.109375 c 0,-0.820313 -0.0469,-2.402344 -0.84375,-3.714844 -0.86719,-1.417969 -2.28516,-1.816406 -3.33985,-1.816406 -2.57812,0 -4.76953,2.425781 -4.76953,5.578125 0,3.070312 2.26172,5.578125 5.10938,5.578125 1.11328,0 2.48437,-0.328125 3.71484,-1.21875 0,-0.09375 -0.0469,-0.644531 -0.0703,-0.667969 0,-0.04687 -0.0703,-0.820312 -0.0703,-0.914062 -1.19531,0.960937 -2.55468,1.289062 -3.55078,1.289062 -1.58203,0 -3.29297,-1.335937 -3.36328,-4.113281 z m -6.98438,-1.371094 c 0.31641,-1.359375 1.40625,-2.648437 2.80078,-2.648437 0.36328,0 2.09766,0.04687 2.54297,2.648437 z m 11.31738,-10.40625 h -1.82812 v 17.203125 h 1.82812 z m 9.83204,6.996094 c -1.46485,-0.703125 -2.60157,-0.75 -3.33985,-0.75 -1.76953,0 -3.86719,0.621094 -3.86719,3.128906 0,2.496094 2.71875,3.046875 3.46875,3.1875 1.13672,0.234375 2.40235,0.480469 2.40235,1.710938 0,1.570312 -1.78125,1.570312 -2.10938,1.570312 -0.99609,0 -2.35547,-0.28125 -3.59765,-1.171875 l -0.29297,1.664063 c 1.41797,0.820312 2.77734,1.066406 3.91406,1.066406 3.04688,0 3.82031,-1.863281 3.82031,-3.269531 0,-1.21875 -0.6914,-2.039063 -1.17187,-2.402344 -0.8086,-0.644531 -1.11328,-0.726563 -3.14063,-1.148438 -0.35156,-0.04687 -1.55859,-0.316406 -1.55859,-1.429687 0,-1.417969 1.55859,-1.417969 1.89844,-1.417969 1.61718,0 2.61328,0.492188 3.28125,0.867188 z M 69.161023,49.122781 h -1.886718 l -1.3125,4.453125 c -0.269532,0.949219 -1.042969,3.550782 -1.136719,4.757813 h -0.02344 c -0.04687,-0.738281 -0.46875,-2.519531 -1.171875,-4.875 L 62.375867,49.122781 H 60.66493 l -1.242188,4.230469 c -0.621094,2.15625 -1.089844,3.996094 -1.136719,4.980469 h -0.02344 c -0.105469,-1.453125 -1.125,-4.875 -1.265625,-5.425781 l -1.125,-3.785157 h -1.933594 l 3.222656,10.652344 h 1.886719 c 1.289063,-4.265625 2.285156,-7.558594 2.355469,-9.222656 0.04687,0.820312 0.46875,2.578125 0.714844,3.445312 l 1.640625,5.777344 h 2.179687 z m 4.136719,-5.660156 h -2.085937 v 2.085938 h 2.085937 z m -0.128906,5.660156 h -1.828125 v 10.652344 h 1.828125 z m 5.985352,1.429688 h 3.222656 v -1.429688 h -3.222656 v -3.058593 h -1.757813 v 3.058593 h -1.957031 v 1.429688 H 77.3495 V 56.822 c 0,1.417969 0.316406,3.152344 1.957031,3.152344 1.242188,0 2.378907,-0.351563 3.46875,-0.914063 l -0.398437,-1.464843 c -0.597656,0.515625 -1.3125,0.820312 -2.085938,0.820312 -1.089843,0 -1.136718,-1.394531 -1.136718,-2.015625 z m 14.416992,1.980469 c 0,-1.558594 -0.375,-3.609375 -3.175782,-3.609375 -1.558593,0 -2.578125,0.761718 -3.292968,1.605468 V 42.572 h -1.828125 v 17.203125 h 1.875 v -6 c 0,-1.558594 0.597656,-3.339844 2.285156,-3.339844 2.179687,0 2.25,1.453125 2.25,2.296875 v 7.042969 H 93.57118 Z M 106.85731,42.572 h -1.82812 v 17.203125 h 1.82812 z m 11.16504,10.183594 c 0,-2.320313 -1.65234,-3.9375 -3.89062,-3.9375 -1.08985,0 -2.27344,0.199219 -3.64453,0.996094 l 0.15234,1.628906 c 0.62109,-0.445313 1.6875,-1.160156 3.46875,-1.160156 1.26562,0 2.03906,0.960937 2.03906,2.507812 v 0.9375 c -3.97265,0.128906 -6.44531,1.265625 -6.44531,3.222656 0,1.019532 0.60937,3.023438 2.67187,3.023438 0.375,0 2.37891,-0.04687 3.82032,-1.113281 v 0.914062 h 1.82812 z m -1.875,3.75 c 0,0.445312 0,1.042969 -0.75,1.488281 -0.64453,0.421875 -1.46484,0.46875 -1.80469,0.46875 -1.24218,0 -2.08593,-0.691406 -2.08593,-1.558594 0,-1.734375 3.86718,-1.910156 4.64062,-1.933593 z m 14.09473,-7.382813 h -1.9336 l -1.66406,4.628907 c -0.51562,1.511718 -1.2539,3.597656 -1.38281,4.664062 h -0.0234 c -0.0469,-0.445312 -0.24609,-1.089844 -0.375,-1.535156 -0.15234,-0.550781 -0.33984,-1.195313 -0.49219,-1.640625 l -2.17968,-6.117188 h -1.99219 l 3.92578,10.652344 h 2.20313 z m 9.65625,3.632813 c 0,-2.320313 -1.65235,-3.9375 -3.89063,-3.9375 -1.08984,0 -2.27343,0.199219 -3.64453,0.996094 l 0.15235,1.628906 c 0.62109,-0.445313 1.6875,-1.160156 3.46875,-1.160156 1.26562,0 2.03906,0.960937 2.03906,2.507812 v 0.9375 c -3.97266,0.128906 -6.44531,1.265625 -6.44531,3.222656 0,1.019532 0.60937,3.023438 2.67187,3.023438 0.375,0 2.37891,-0.04687 3.82031,-1.113281 v 0.914062 h 1.82813 z m -1.875,3.75 c 0,0.445312 0,1.042969 -0.75,1.488281 -0.64453,0.421875 -1.46485,0.46875 -1.80469,0.46875 -1.24219,0 -2.08594,-0.691406 -2.08594,-1.558594 0,-1.734375 3.86719,-1.910156 4.64063,-1.933593 z m 13.05176,-3.75 c 0,-2.320313 -1.65235,-3.9375 -3.89063,-3.9375 -1.08984,0 -2.27344,0.199219 -3.64453,0.996094 l 0.15234,1.628906 c 0.6211,-0.445313 1.6875,-1.160156 3.46875,-1.160156 1.26563,0 2.03907,0.960937 2.03907,2.507812 v 0.9375 c -3.97266,0.128906 -6.44532,1.265625 -6.44532,3.222656 0,1.019532 0.60938,3.023438 2.67188,3.023438 0.375,0 2.3789,-0.04687 3.82031,-1.113281 v 0.914062 h 1.82813 z m -1.875,3.75 c 0,0.445312 0,1.042969 -0.75,1.488281 -0.64454,0.421875 -1.46485,0.46875 -1.80469,0.46875 -1.24219,0 -2.08594,-0.691406 -2.08594,-1.558594 0,-1.734375 3.86719,-1.910156 4.64063,-1.933593 z m 13.87207,-3.972656 c 0,-1.558594 -0.375,-3.609375 -3.17578,-3.609375 -1.58204,0 -2.625,0.808593 -3.31641,1.652343 V 49.04075 h -1.80469 v 10.734375 h 1.875 v -6 c 0,-1.558594 0.59766,-3.339844 2.28516,-3.339844 2.17969,0 2.25,1.453125 2.25,2.296875 v 7.042969 h 1.88672 z m 0,0"
       style="fill:#cb6015;fill-opacity:1;fill-rule:nonzero;stroke:none"
       aria-label="Reproducingpublished&#10;StructuralEquationModels&#10;withlavaan"
       transform="matrix(1.3333333,0,0,1.3333333,49.117333,82.237333)" />
  </g>
</svg>
