<?xml version="1.0" encoding="UTF-8" standalone="no"?>
<!-- Created with Inkscape (http://www.inkscape.org/) -->

<svg
   version="1.1"
   id="svg1"
   width="867.09467"
   height="221.224"
   viewBox="0 0 867.09467 221.224"
   sodipodi:docname="Banner.svg"
   inkscape:version="1.3.2 (091e20e, 2023-11-25, custom)"
   xmlns:inkscape="http://www.inkscape.org/namespaces/inkscape"
   xmlns:sodipodi="http://sodipodi.sourceforge.net/DTD/sodipodi-0.dtd"
   xmlns="http://www.w3.org/2000/svg"
   xmlns:svg="http://www.w3.org/2000/svg">
  <defs
     id="defs1" />
  <sodipodi:namedview
     id="namedview1"
     pagecolor="#ffffff"
     bordercolor="#000000"
     borderopacity="0.25"
     inkscape:showpageshadow="2"
     inkscape:pageopacity="0.0"
     inkscape:pagecheckerboard="0"
     inkscape:deskcolor="#d1d1d1"
     showgrid="false"
     inkscape:zoom="1.1763422"
     inkscape:cx="433.54733"
     inkscape:cy="110.51206"
     inkscape:window-width="1920"
     inkscape:window-height="991"
     inkscape:window-x="-9"
     inkscape:window-y="-9"
     inkscape:window-maximized="1"
     inkscape:current-layer="g1">
    <inkscape:page
       x="0"
       y="0"
       inkscape:label="1"
       id="page1"
       width="867.09467"
       height="221.224"
       margin="0"
       bleed="0" />
  </sodipodi:namedview>
  <g
     id="g1"
     inkscape:groupmode="layer"
     inkscape:label="1">
    <path
       id="path1"
       d="m 0,72.00124 -62.3548,-36.00049 -1e-5,-72.00122 L 0,-72.00124 l 62.3548,36.00049 1e-5,72.00122 z"
       style="fill:#cb6015;fill-opacity:1;fill-rule:nonzero;stroke:#a6a6a6;stroke-width:1.99255;stroke-linecap:butt;stroke-linejoin:miter;stroke-miterlimit:10;stroke-dasharray:none;stroke-opacity:1"
       transform="matrix(1.3333333,0,0,-1.3333333,769.344,110.612)" />
    <path
       id="path2"
       d="m -53.85873,-12.75595 h 14.17337 V 1.41742 h -14.17337 z"
       style="fill:#ccccff;fill-opacity:1;fill-rule:nonzero;stroke:#000000;stroke-width:0.3985;stroke-linecap:butt;stroke-linejoin:miter;stroke-miterlimit:10;stroke-dasharray:none;stroke-opacity:1"
       transform="matrix(1.3333333,0,0,-1.3333333,769.344,110.612)" />
    <path
       id="path3"
       d="M 3.6797031,-3.6455937 6.0820469,-6.915125 H 5.1211094 l -1.875,2.6015625 L 1.3125156,-6.915125 H 0.28126563 L 2.8242344,-3.6455937 0.14064063,-0.0010625 H 1.1015781 l 2.1445313,-3.046875 2.2148437,3.046875 h 1.03125 z m 0,0"
       style="fill:#000000;fill-opacity:1;fill-rule:nonzero;stroke:none"
       aria-label="X"
       transform="matrix(1.3333333,0,0,1.3333333,702.55467,122.78267)" />
    <path
       id="path4"
       d="M 39.68535,-12.75595 H 53.85872 V 1.41742 H 39.68535 Z"
       style="fill:#ccccff;fill-opacity:1;fill-rule:nonzero;stroke:#000000;stroke-width:0.3985;stroke-linecap:butt;stroke-linejoin:miter;stroke-miterlimit:10;stroke-dasharray:none;stroke-opacity:1"
       transform="matrix(1.3333333,0,0,-1.3333333,769.344,110.612)" />
    <path
       id="path5"
       d="M 6.6083828,-6.915125 H 5.7294766 l -1.546875,2.25 c -0.046875,0.070312 -0.09375,0.1523438 -0.1640625,0.2578125 l -0.609375,0.9492188 c -0.1875,-0.3046875 -0.1875,-0.328125 -0.3632813,-0.5625 L 1.0771328,-6.915125 H 0.03416406 l 2.85937504,4.1484375 v 2.765625 h 0.8554687 v -2.7539062 z m 0,0"
       style="fill:#000000;fill-opacity:1;fill-rule:nonzero;stroke:none"
       aria-label="Y"
       transform="matrix(1.3333333,0,0,1.3333333,827.27867,122.78267)" />
    <path
       id="path6"
       d="M -9.92154,39.68535 H 4.25183 V 53.85872 H -9.92154 Z"
       style="fill:#ccccff;fill-opacity:1;fill-rule:nonzero;stroke:#000000;stroke-width:0.3985;stroke-linecap:butt;stroke-linejoin:miter;stroke-miterlimit:10;stroke-dasharray:none;stroke-opacity:1"
       transform="matrix(1.3333333,0,0,-1.3333333,769.344,110.612)" />
    <path
       id="path7"
       d="m 5.2855859,-3.5386016 c -0.3515625,0.9140625 -0.8203125,2.1445313 -0.9375,2.61328129 C 4.2894922,-1.1362578 4.1723047,-1.4995391 4.0199609,-1.9214141 l -1.5585937,-4.125 -0.3398438,-0.8671875 H 0.99652344 V 4.609375e-4 H 1.7699609 V -6.1753203 h 0.011719 c 0.058594,0.3164062 0.4570312,1.40625 0.7148437,2.0859375 l 1.4765625,3.86718749 H 4.6996484 L 6.0238672,-3.6909453 c 0.3164062,-0.8085938 0.4101562,-1.0546875 0.4804687,-1.2539063 0.1054688,-0.2929687 0.375,-1.0078125 0.421875,-1.2421875 l 0.011719,0.011719 V 4.609375e-4 H 7.7113672 V -6.9136016 H 6.5746484 Z m 0,0"
       style="fill:#000000;fill-opacity:1;fill-rule:nonzero;stroke:none"
       aria-label="M"
       transform="matrix(1.3333333,0,0,1.3333333,759.75333,52.862667)" />
    <path
       id="path8"
       d="M -39.4861,-5.66927 H 34.82701"
       style="fill:none;stroke:#000000;stroke-width:0.3985;stroke-linecap:butt;stroke-linejoin:miter;stroke-miterlimit:10;stroke-dasharray:none;stroke-opacity:1"
       transform="matrix(1.3333333,0,0,-1.3333333,769.344,110.612)" />
    <path
       id="path9"
       d="M 5.10188,0 0.64343,1.67842 2.10616,0 0.64343,-1.67842 Z"
       style="fill:#000000;fill-opacity:1;fill-rule:nonzero;stroke:#000000;stroke-width:0.3985;stroke-linecap:butt;stroke-linejoin:miter;stroke-miterlimit:10;stroke-dasharray:none;stroke-opacity:1"
       transform="matrix(1.3333333,0,0,-1.3333333,813.10463,118.17103)" />
    <g
       id="g9"
       aria-label="c&#10;′"
       transform="matrix(1.3333333,0,0,1.3333333,764.012,115.248)">
      <path
         id="path10"
         d="m 4.7927578,-1.2904922 c -0.5507812,0.44531251 -1.1601562,0.66796876 -1.828125,0.66796876 -0.9960937,0 -1.640625,-0.89062496 -1.640625,-2.03906246 0,-0.9960938 0.4804688,-2.0859375 1.6757813,-2.0859375 0.796875,0 1.1367187,0.1875 1.6523437,0.5390625 l 0.140625,-0.7734375 C 4.1013516,-5.3920547 3.7029141,-5.4858047 2.9997891,-5.4858047 c -1.6523438,0 -2.57812504,1.453125 -2.57812504,2.8242188 0,1.5234375 1.10156254,2.77734371 2.53125004,2.77734371 0.5859375,0 1.2539062,-0.140625 1.9101562,-0.62109375 0,-0.0351563 -0.035156,-0.41015625 -0.046875,-0.45703125 z m 0,0"
         style="fill:#000000;fill-opacity:1;fill-rule:nonzero;stroke:none" />
      <path
         id="path11"
         d="m 7.3122891,-8.1108047 c 0.046875,-0.1054687 0.070312,-0.1640625 0.070312,-0.2460937 0,-0.2578125 -0.234375,-0.4335938 -0.4570313,-0.4335938 -0.3164062,0 -0.4101562,0.28125 -0.4453125,0.3867188 l -1.0078125,3.4335937 c -0.035156,0.09375 -0.035156,0.1171875 -0.035156,0.1289063 0,0.070312 0.046875,0.09375 0.1289062,0.1171875 0.1523438,0.058594 0.1640625,0.058594 0.1757813,0.058594 0.023437,0 0.070312,0 0.1289062,-0.1289062 z m 0,0"
         style="fill:#000000;fill-opacity:1;fill-rule:nonzero;stroke:none" />
    </g>
    <path
       id="path12"
       d="M -44.1202,1.61667 -8.81372,36.2249"
       style="fill:none;stroke:#000000;stroke-width:0.3985;stroke-linecap:butt;stroke-linejoin:miter;stroke-miterlimit:10;stroke-dasharray:none;stroke-opacity:1"
       transform="matrix(1.3333333,0,0,-1.3333333,769.344,110.612)" />
    <path
       id="path13"
       d="M 5.10188,0 0.64343,1.67842 2.10616,0 0.64343,-1.67842 Z"
       style="fill:#000000;fill-opacity:1;fill-rule:nonzero;stroke:#000000;stroke-width:0.3985;stroke-linecap:butt;stroke-linejoin:miter;stroke-miterlimit:10;stroke-dasharray:none;stroke-opacity:1"
       transform="matrix(0.95213333,-0.93329333,-0.93329333,-0.95213333,755.68189,64.1848)" />
    <path
       id="path14"
       d="m 4.6759609,-3.5031094 c 0,-1.1484375 -0.8320312,-1.9804687 -1.9335937,-1.9804687 -0.7265625,0 -1.265625,0.1640625 -1.83984376,0.5039062 l 0.0703125,0.7851563 C 1.5001797,-4.5812344 2.0392422,-4.7921719 2.7423672,-4.7921719 c 0.5507812,0 1.0195312,0.4453125 1.0195312,1.3125 v 0.4921875 c -0.5390625,0.023437 -1.2539062,0.058594 -1.96875,0.2929688 -0.79687496,0.28125 -1.26562496,0.7265625 -1.26562496,1.3242187 0,0.52734377 0.3046875,1.48828127 1.32421876,1.48828127 0.65625,0 1.5,-0.1875 1.9335937,-0.5625 V 7.96875e-4 h 0.890625 z m -0.9140625,1.8984375 c 0,0.2460938 0,0.5273438 -0.3867187,0.77343752 -0.328125,0.19921875 -0.7382813,0.234375 -0.9140625,0.234375 -0.6445313,0 -1.0898438,-0.3515625 -1.0898438,-0.78515622 0,-0.8203125 1.6640625,-0.9960938 2.390625,-0.9960938 z m 0,0"
       style="fill:#000000;fill-opacity:1;fill-rule:nonzero;stroke:none"
       aria-label="a"
       transform="matrix(1.3333333,0,0,1.3333333,725.87867,80.288)" />
    <path
       id="path15"
       d="M -0.183,39.4861 40.57881,4.64375"
       style="fill:none;stroke:#000000;stroke-width:0.3985;stroke-linecap:butt;stroke-linejoin:miter;stroke-miterlimit:10;stroke-dasharray:none;stroke-opacity:1"
       transform="matrix(1.3333333,0,0,-1.3333333,769.344,110.612)" />
    <path
       id="path16"
       d="M 5.10188,0 0.64343,1.67842 2.10616,0 0.64343,-1.67842 Z"
       style="fill:#000000;fill-opacity:1;fill-rule:nonzero;stroke:#000000;stroke-width:0.3985;stroke-linecap:butt;stroke-linejoin:miter;stroke-miterlimit:10;stroke-dasharray:none;stroke-opacity:1"
       transform="matrix(1.0134667,0.86629333,0.86629333,-1.0134667,821.41553,102.68207)" />
    <path
       id="path17"
       d="M 1.8173516,-8.2960781 H 0.93844531 V 7.96875e-4 H 1.8407891 V -0.53826563 c 0.5507812,0.52734375 1.1367187,0.65625 1.5585937,0.65625 1.1367188,0 2.1679688,-1.16015627 2.1679688,-2.77734377 0,-1.4765625 -0.7851563,-2.765625 -1.8984375,-2.765625 -0.3398438,0 -1.1132813,0.070312 -1.8515625,0.6679688 z m 0.023437,4.265625 c 0.2109375,-0.328125 0.6445312,-0.6796875 1.2304687,-0.6796875 0.7265625,0 1.59375,0.5507812 1.59375,2.0507812 0,1.546875 -0.984375,2.06250002 -1.7109375,2.06250002 -0.3398437,0 -0.5625,-0.1171875 -0.7734375,-0.28125 C 1.8876641,-1.1359219 1.8407891,-1.3468594 1.8407891,-1.5577969 Z m 0,0"
       style="fill:#000000;fill-opacity:1;fill-rule:nonzero;stroke:none"
       aria-label="b"
       transform="matrix(1.3333333,0,0,1.3333333,801.55733,80.288)" />
    <path
       id="path18"
       d="M 61.14467,10.51659 56.95995,5.26126"
       style="fill:none;stroke:#000000;stroke-width:0.3985;stroke-linecap:butt;stroke-linejoin:miter;stroke-miterlimit:10;stroke-dasharray:none;stroke-opacity:1"
       transform="matrix(1.3333333,0,0,-1.3333333,769.344,110.612)" />
    <path
       id="path19"
       d="M 5.10188,0 0.64343,1.67842 2.10616,0 0.64343,-1.67842 Z"
       style="fill:#000000;fill-opacity:1;fill-rule:nonzero;stroke:#000000;stroke-width:0.3985;stroke-linecap:butt;stroke-linejoin:miter;stroke-miterlimit:10;stroke-dasharray:none;stroke-opacity:1"
       transform="matrix(-0.83048,1.0430133,1.0430133,0.83048,846.957,101.50413)" />
    <path
       id="path20"
       d="M 11.53778,62.9579 7.35306,57.70258"
       style="fill:none;stroke:#000000;stroke-width:0.3985;stroke-linecap:butt;stroke-linejoin:miter;stroke-miterlimit:10;stroke-dasharray:none;stroke-opacity:1"
       transform="matrix(1.3333333,0,0,-1.3333333,769.344,110.612)" />
    <path
       id="path21"
       d="M 5.10188,0 0.64343,1.67842 2.10616,0 0.64343,-1.67842 Z"
       style="fill:#000000;fill-opacity:1;fill-rule:nonzero;stroke:#000000;stroke-width:0.3985;stroke-linecap:butt;stroke-linejoin:miter;stroke-miterlimit:10;stroke-dasharray:none;stroke-opacity:1"
       transform="matrix(-0.83048,1.0430133,1.0430133,0.83048,780.81448,31.582373)" />
    <path
       id="path22"
       d="m 3.2219844,-5.2744375 c -0.2578125,-0.058594 -0.9960938,-0.328125 -0.9960938,-1.0195312 0,-1.0078125 1.0078125,-1.03125 1.4179688,-1.03125 0.6679687,0 1.265625,0.1523437 1.8515625,0.7265625 0.1992187,0.1757812 0.2109375,0.1875 0.2578125,0.1875 0.070312,0 0.1289062,-0.035156 0.1640625,-0.2109375 l 0.1757812,-1.0429688 c 0.023437,-0.09375 0.023437,-0.1171875 0.023437,-0.1523437 0,-0.09375 -0.011719,-0.1054688 -0.3046875,-0.2695313 -0.8554687,-0.4101562 -1.5585937,-0.46875 -2.1679687,-0.46875 -1.0664063,0 -2.91796878,0.2460938 -2.91796878,2.484375 0,0.84375 0.44531248,1.3945313 0.66796878,1.640625 0.609375,0.6210938 1.171875,0.7382813 2.109375,0.9492188 0.6679687,0.1523437 0.9257812,0.2226562 1.1953125,0.4570312 0.1171875,0.1171875 0.3632812,0.375 0.3632812,0.8203125 0,1.125 -1.0195312,1.1601563 -1.4179687,1.1601563 -1.0078125,0 -1.875,-0.3984375 -2.4726563,-0.9375 -0.140625,-0.1523438 -0.1640625,-0.1523438 -0.21093748,-0.1523438 -0.0820313,0 -0.140625,0.035156 -0.17578125,0.2226563 l -0.17578125,1.0429687 c -0.0234375,0.09375 -0.0234375,0.1171875 -0.0234375,0.15234375 0,0.24609375 1.24218748,0.6796875 1.30078128,0.703125 0.8085937,0.24609375 1.453125,0.26953125 1.7578125,0.26953125 1.7929687,0 2.9179687,-0.796875 2.9179687,-2.6484375 0,-1.3359375 -0.9960937,-2.34375 -2.1914062,-2.6132812 z m 6.9316406,1.5585938 h 3.140625 c 0.375,0 0.574219,-0.082031 0.574219,-0.5625 0,-0.4453125 -0.152344,-0.5625 -0.574219,-0.5625 h -3.140625 v -2.2148438 h 0.585937 c 0.925782,0 1.875,0.035156 2.800782,0.035156 0.421875,0 0.703125,0 0.703125,-0.5742188 V -7.6885 c 0,-0.3867187 -0.09375,-0.5742187 -0.574219,-0.5742187 H 8.9700312 c -0.4335937,0 -0.5742187,0.1289062 -0.5742187,0.5742187 v 7.11328125 C 8.3958125,-0.141625 8.5247187,-0.001 8.9700312,-0.001 h 4.8749998 c 0.457031,0 0.574219,-0.15234375 0.574219,-0.57421875 v -0.1640625 C 14.41925,-1.3135 14.138,-1.3135 13.751281,-1.3135 c -0.621094,0 -1.230469,0.023437 -1.851562,0.023437 -0.304688,0 -1.535157,0.011719 -1.746094,0.023437 z m 11.458008,-0.1992188 c -0.246094,0.609375 -0.691406,1.7109375 -0.785156,2.1328125 h -0.01172 c -0.105469,-0.4335937 -0.597656,-1.6171875 -0.855469,-2.25 L 18.435852,-7.8056875 C 18.224914,-8.297875 17.849914,-8.297875 17.627258,-8.297875 h -0.984375 c -0.433594,0 -0.574219,0.1289063 -0.574219,0.5742188 v 7.14843745 c 0,0.43359375 0.128906,0.57421875 0.574219,0.57421875 h 0.316406 c 0.457031,0 0.574219,-0.15234375 0.574219,-0.57421875 V -6.751 h 0.01172 c 0.140625,0.5390625 0.667968,1.8632813 0.960937,2.5664063 l 1.382813,3.4101562 c 0.222656,0.515625 0.503906,0.515625 0.914062,0.515625 0.398438,0 0.691406,0 0.902344,-0.515625 l 1.535156,-3.7617187 c 0.117188,-0.28125 0.761719,-1.9101563 0.84375,-2.2148438 h 0.01172 v 6.17578125 C 24.09601,-0.1885 24.17804,-0.001 24.670229,-0.001 h 0.328125 c 0.457031,0 0.574218,-0.15234375 0.574218,-0.57421875 V -7.7236562 c 0,-0.3867188 -0.08203,-0.5742188 -0.574218,-0.5742188 h -1.007813 c -0.292969,0 -0.597656,0.023437 -0.796875,0.515625 z M 31.402648,-1.6885 c 0,-0.6679687 -0.363281,-1.0898437 -0.574218,-1.2773437 C 30.347961,-3.3994375 29.926086,-3.46975 29.433898,-3.5635 28.777648,-3.6806875 28.29718,-3.7744375 28.29718,-4.2431875 c 0,-0.4921875 0.386718,-0.5859375 0.855468,-0.5859375 0.808594,0 1.230469,0.2929688 1.546875,0.5625 0.117188,0.1171875 0.140625,0.1171875 0.1875,0.1171875 0.117188,0 0.140625,-0.1054687 0.152344,-0.1523437 0.02344,-0.09375 0.152344,-0.7617188 0.152344,-0.8320313 0,-0.1875 -0.632813,-0.3515625 -0.773438,-0.3984375 -0.480468,-0.1289062 -0.855468,-0.1523437 -1.171875,-0.1523437 -0.539062,0 -2.132812,0 -2.132812,1.7109375 0,0.5859375 0.257812,0.9492187 0.585937,1.2304687 0.410157,0.3867188 0.878907,0.46875 1.558594,0.5976563 0.351563,0.070312 0.960938,0.1757812 0.960938,0.703125 0,0.56249995 -0.46875,0.6445312 -0.9375,0.6445312 -0.515625,0 -1.195313,-0.1640625 -1.757813,-0.8320312 -0.05859,-0.058594 -0.09375,-0.09375 -0.164062,-0.09375 -0.117188,0 -0.140625,0.1054687 -0.152344,0.1757812 -0.02344,0.1757813 -0.164063,0.85546875 -0.164063,0.97265625 0,0.2109375 0.878907,0.4921875 0.890625,0.50390625 0.65625,0.19921875 1.148438,0.19921875 1.347657,0.19921875 0.609375,0 2.121093,-0.046875 2.121093,-1.81640625 z m 13.283204,-3.4570312 c -0.03516,-0.328125 -0.246094,-0.328125 -0.621094,-0.328125 -0.5625,0 -0.703125,0.035156 -0.867188,0.65625 -0.269531,0.9140625 -0.785156,2.7890625 -0.972656,3.46875 l -1.007812,-3.5859375 c -0.08203,-0.2695313 -0.164063,-0.5390625 -0.714844,-0.5390625 -0.175781,0 -0.445313,0 -0.621094,0.2695312 -0.105469,0.1875 -0.632812,2.25 -1.042969,3.6445313 l -0.960937,-3.375 C 37.76007,-5.34475 37.631164,-5.4736562 37.138977,-5.4736562 h -0.246094 c -0.222656,0 -0.46875,0 -0.515625,0.328125 l 1.277344,4.59374995 C 37.806945,-0.001 38.111633,-0.001 38.41632,-0.001 h 0.328125 c 0.5625,0 0.667969,-0.17578125 0.796875,-0.65625 0.269532,-0.9960937 0.703125,-2.4960937 0.75,-3.1171875 l 0.01172,-0.011719 c 0.07031,0.6796875 0.597656,2.5664062 0.75,3.1289062 0.140625,0.43359375 0.199219,0.65625 0.796875,0.65625 h 0.808594 c 0.515625,0 0.632812,-0.140625 0.75,-0.55078125 z m 1.529296,-3.1640625 c -0.386718,0 -0.574218,0.070312 -0.574218,0.5507812 v 0.5507813 c 0,0.3867187 0.117187,0.5390625 0.5625,0.5390625 h 0.621093 c 0.574219,0 0.574219,-0.2578125 0.574219,-0.8203125 0,-0.5625 0,-0.8203125 -0.574219,-0.8203125 z m 1.101563,3.4101562 c 0,-0.3867187 -0.08203,-0.5742187 -0.574219,-0.5742187 H 46.29718 c -0.433594,0 -0.574219,0.1289062 -0.574219,0.5742187 v 4.32421875 c 0,0.43359375 0.128906,0.57421875 0.574219,0.57421875 h 0.445312 c 0.457031,0 0.574219,-0.15234375 0.574219,-0.57421875 z m 3.336914,0.28125 h 1.066406 c 0.140625,0 0.574219,0 0.574219,-0.421875 0,-0.4335937 -0.433594,-0.4335937 -0.574219,-0.4335937 H 50.653625 V -6.46975 c 0,-0.375 -0.08203,-0.5742187 -0.574219,-0.5742187 h -0.363281 c -0.433594,0 -0.574219,0.1289062 -0.574219,0.5742187 v 0.9960938 h -0.28125 c -0.128906,0 -0.574219,0 -0.574219,0.4335937 0,0.421875 0.433594,0.421875 0.574219,0.421875 H 49.10675 V -1.59475 c 0,1.20703125 0.421875,1.72265625 1.253906,1.72265625 0.105469,0 0.632813,0 1.253906,-0.1875 0.199219,-0.05859375 0.890625,-0.28125 0.890625,-0.50390625 0,-0.0351563 -0.02344,-0.1171875 -0.09375,-0.375 -0.05859,-0.234375 -0.08203,-0.3046875 -0.1875,-0.3046875 -0.05859,0 -0.07031,0.011719 -0.140625,0.082031 -0.128906,0.09375 -0.457031,0.3632812 -0.960937,0.3632812 -0.28125,0 -0.46875,-0.2109375 -0.46875,-0.9960937 z m 8.206055,0.7265625 c 0,-1.2304687 -0.527344,-1.7109375 -1.746094,-1.7109375 -1.195313,0 -1.746094,0.8203125 -1.910156,1.1601563 h -0.01172 v -3.28125 c 0,-0.3867188 -0.08203,-0.5742188 -0.574219,-0.5742188 H 54.17218 c -0.433594,0 -0.574219,0.1289063 -0.574219,0.5742188 v 7.14843745 c 0,0.43359375 0.128906,0.57421875 0.574219,0.57421875 h 0.480468 c 0.457032,0 0.574219,-0.15234375 0.574219,-0.57421875 V -3.2119375 c 0,-1.0429687 0.691406,-1.5351562 1.3125,-1.5351562 0.574219,0 0.691406,0.28125 0.691406,0.890625 v 3.28124995 c 0,0.38671875 0.08203,0.57421875 0.574219,0.57421875 h 0.480469 c 0.457031,0 0.574219,-0.15234375 0.574219,-0.57421875 z m 7.426757,-3.8320312 c 0,-0.3867188 -0.08203,-0.5742188 -0.574218,-0.5742188 h -0.445313 c -0.433594,0 -0.574219,0.1289063 -0.574219,0.5742188 v 7.14843745 c 0,0.43359375 0.128907,0.57421875 0.574219,0.57421875 h 0.445313 c 0.457031,0 0.574218,-0.15234375 0.574218,-0.57421875 z m 6.278321,3.9492187 c 0,-1.8867187 -1.816406,-1.9101562 -2.414063,-1.9101562 -0.5625,0 -1.160156,0.058594 -1.957031,0.3867187 -0.246094,0.1054688 -0.316406,0.140625 -0.316406,0.28125 0,0.082031 0.08203,0.7734375 0.09375,0.8671875 0.01172,0.070312 0.07031,0.1289063 0.152344,0.1289063 0.05859,0 0.09375,-0.035156 0.128906,-0.070312 0.515625,-0.5390625 1.113281,-0.796875 1.851562,-0.796875 0.644532,0 0.84375,0.3867187 0.84375,1.1015625 V -3.376 c -0.421875,0 -3.550781,0.023437 -3.550781,1.78125 0,0.84375 0.667969,1.72265625 1.722656,1.72265625 0.398438,0 1.300782,-0.1171875 1.863282,-0.9375 v 0.234375 c 0,0.38671875 0.08203,0.57421875 0.574218,0.57421875 h 0.433594 c 0.457031,0 0.574219,-0.15234375 0.574219,-0.57421875 z m -1.617188,1.9335938 c 0,1.1132812 -1.136718,1.1132812 -1.171875,1.1132812 -0.503906,0 -0.832031,-0.4335937 -0.832031,-0.890625 0,-1.171875 1.664063,-1.2539062 2.003906,-1.265625 z m 7.942383,-3.0703125 c 0.05859,-0.1757813 0.05859,-0.1992188 0.05859,-0.234375 0,-0.328125 -0.292969,-0.328125 -0.46875,-0.328125 H 78.22198 c -0.503906,0 -0.632812,0.1757812 -0.738281,0.515625 l -1.183594,3.609375 -1.183593,-3.609375 c -0.08203,-0.2578125 -0.164063,-0.515625 -0.738282,-0.515625 h -0.292968 c -0.175782,0 -0.46875,0 -0.46875,0.328125 0,0.035156 0,0.058594 0.05859,0.234375 l 1.417969,4.40624995 C 75.257141,-0.001 75.632141,-0.001 75.843078,-0.001 h 0.878906 c 0.210938,0 0.585938,0 0.75,-0.50390625 z m 5.929688,1.1367187 c 0,-1.8867187 -1.816407,-1.9101562 -2.414063,-1.9101562 -0.5625,0 -1.160156,0.058594 -1.957031,0.3867187 -0.246094,0.1054688 -0.316406,0.140625 -0.316406,0.28125 0,0.082031 0.08203,0.7734375 0.09375,0.8671875 0.01172,0.070312 0.07031,0.1289063 0.152343,0.1289063 0.05859,0 0.09375,-0.035156 0.128907,-0.070312 0.515625,-0.5390625 1.113281,-0.796875 1.851562,-0.796875 0.644531,0 0.84375,0.3867187 0.84375,1.1015625 V -3.376 c -0.421875,0 -3.550781,0.023437 -3.550781,1.78125 0,0.84375 0.667969,1.72265625 1.722656,1.72265625 0.398438,0 1.300781,-0.1171875 1.863281,-0.9375 v 0.234375 c 0,0.38671875 0.08203,0.57421875 0.574219,0.57421875 h 0.433594 c 0.457031,0 0.574219,-0.15234375 0.574219,-0.57421875 z m -1.617188,1.9335938 c 0,1.1132812 -1.136719,1.1132812 -1.171875,1.1132812 -0.503906,0 -0.832031,-0.4335937 -0.832031,-0.890625 0,-1.171875 1.664062,-1.2539062 2.003906,-1.265625 z m 7.895508,-1.9335938 c 0,-1.8867187 -1.816406,-1.9101562 -2.414063,-1.9101562 -0.5625,0 -1.160156,0.058594 -1.957031,0.3867187 -0.246094,0.1054688 -0.316406,0.140625 -0.316406,0.28125 0,0.082031 0.08203,0.7734375 0.09375,0.8671875 0.01172,0.070312 0.07031,0.1289063 0.152344,0.1289063 0.05859,0 0.09375,-0.035156 0.128906,-0.070312 0.515625,-0.5390625 1.113281,-0.796875 1.851562,-0.796875 0.644532,0 0.84375,0.3867187 0.84375,1.1015625 V -3.376 c -0.421875,0 -3.550781,0.023437 -3.550781,1.78125 0,0.84375 0.667969,1.72265625 1.722656,1.72265625 0.398438,0 1.300782,-0.1171875 1.863282,-0.9375 v 0.234375 C 89.51593,-0.1885 89.597961,-0.001 90.090148,-0.001 h 0.433594 c 0.457031,0 0.574219,-0.15234375 0.574219,-0.57421875 z m -1.617188,1.9335938 c 0,1.1132812 -1.136718,1.1132812 -1.171875,1.1132812 -0.503906,0 -0.832031,-0.4335937 -0.832031,-0.890625 0,-1.171875 1.664063,-1.2539062 2.003906,-1.265625 z m 8.326172,-2.0507813 c 0,-1.2304687 -0.527343,-1.7109375 -1.746093,-1.7109375 -1.253907,0 -1.792969,0.9023438 -1.945313,1.2304688 H 94.10382 V -4.96975 c 0,-0.3867187 -0.08203,-0.5742187 -0.574218,-0.5742187 h -0.410157 c -0.433593,0 -0.574218,0.1289062 -0.574218,0.5742187 v 4.39453125 c 0,0.43359375 0.128906,0.57421875 0.574218,0.57421875 h 0.480469 c 0.457031,0 0.574219,-0.15234375 0.574219,-0.57421875 V -3.2119375 c 0,-1.0429687 0.691406,-1.5351562 1.3125,-1.5351562 0.574219,0 0.691406,0.28125 0.691406,0.890625 v 3.28124995 C 96.178039,-0.1885 96.26007,-0.001 96.752258,-0.001 h 0.480469 c 0.457031,0 0.574218,-0.15234375 0.574218,-0.57421875 z m 0,0"
       style="fill:#ffffff;fill-opacity:1;fill-rule:nonzero;stroke:none"
       aria-label="SEMswithlavaan"
       transform="matrix(1.3333333,0,0,1.3333333,703.64933,161.50133)" />
    <path
       id="path23"
       d="M 9.769225,-8.0801312 9.8161,-8.1082562 c 3.8625,-1.33125 3.890625,-4.0124998 3.890625,-4.4812498 0,-2.353125 -2.38125,-4.6125 -5.94375,-4.6125 H 2.2036 V 0.00111875 H 4.237975 V -7.8551312 H 7.88485 l 4.3875,7.85624995 h 2.08125 z m -5.53125,-1.284375 v -6.4499998 h 3.24375 c 3.15,0 4.265625,1.78125 4.265625,3.225 0,1.340625 -0.99375,3.2249998 -4.265625,3.2249998 z m 20.486719,3.9375 c 0,-0.815625 -0.04687,-2.409375 -0.84375,-3.721875 -0.871875,-1.4062498 -2.278125,-1.8093748 -3.346875,-1.8093748 -2.578125,0 -4.7625,2.4281248 -4.7625,5.5781248 0,3.075 2.259375,5.57812495 5.109375,5.57812495 1.115625,0 2.475,-0.31875 3.721875,-1.20937495 0,-0.103125 -0.05625,-0.646875 -0.075,-0.675 0,-0.046875 -0.075,-0.815625 -0.075,-0.91875 -1.190625,0.965625 -2.559375,1.29375 -3.54375,1.29375 -1.59375,0 -3.3,-1.340625 -3.375,-4.115625 z m -6.99375,-1.359375 c 0.328125,-1.36875 1.415625,-2.653125 2.803125,-2.653125 0.375,0 2.109375,0.046875 2.55,2.653125 z m 11.4,5.671875 c 0.815625,0.79687495 1.93125,1.31249995 3.121875,1.31249995 2.30625,0 4.29375,-2.38124995 4.29375,-5.54999995 0,-2.925 -1.490625,-5.5031248 -3.61875,-5.5031248 -1.2375,0 -2.728125,0.45 -3.84375,1.3406248 v -1.1437498 h -1.8375 V 4.8386188 h 1.884375 z m 0,-6.9375 c 0.196875,-0.3 1.040625,-1.2375 2.409375,-1.2375 1.734375,0 3.121875,1.78125 3.121875,3.9375 0,2.45625 -1.6875,4.040625 -3.346875,4.040625 -0.496875,0 -1.0125,-0.121875 -1.509375,-0.54375 -0.675,-0.6 -0.675,-0.965625 -0.675,-1.3125 z m 11.301562,2.775 c 0,-2.334375 1.70625,-3.890625 3.890625,-3.946875 v -1.6312498 c -1.584375,0.02812 -3.075,0.815625 -3.965625,2.1093748 v -1.9874998 h -1.7625 V 0.00111875 h 1.8375 z m 15.20625,-0.028125 c 0,-3.16875 -2.3625,-5.6531248 -5.1375,-5.6531248 -2.85,0 -5.15625,2.5593748 -5.15625,5.6531248 0,3.15 2.38125,5.50312495 5.1375,5.50312495 2.821875,0 5.15625,-2.42812495 5.15625,-5.50312495 z m -5.1375,3.946875 c -1.753125,0 -3.271875,-1.44375 -3.271875,-4.14375 0,-2.878125 1.7625,-3.9375 3.253125,-3.9375 1.6125,0 3.271875,1.1625 3.271875,3.9375 0,2.803125 -1.6125,4.14375 -3.253125,4.14375 z M 67.092662,-17.202006 h -1.8375 v 7.5843748 c -0.76875,-0.6468748 -2.034375,-1.2374998 -3.421875,-1.2374998 -2.25,0 -4.040625,2.4562498 -4.040625,5.5312498 0,3.065625 1.7625,5.52187495 3.965625,5.52187495 1.715625,0 2.85,-0.91875 3.45,-1.43437495 v 1.23749995 h 1.884375 z m -1.884375,13.8843748 c 0,0.346875 0,0.7125 -0.76875,1.3875 -0.496875,0.421875 -1.0875,0.61875 -1.659375,0.61875 -1.340625,0 -3.103125,-0.99375 -3.103125,-3.99375 0,-3.121875 1.9875,-4.040625 3.346875,-4.040625 0.91875,0 1.659375,0.45 2.184375,1.190625 z M 79.106725,-10.658256 H 77.22235 v 6.8437498 c 0,1.828125 -1.33125,2.578125 -2.746875,2.578125 -1.640625,0 -1.78125,-0.54375 -1.78125,-1.565625 V -10.658256 H 70.80985 v 7.9781248 c 0,1.94062495 0.665625,2.87812495 2.371875,2.87812495 0.84375,0 2.75625,-0.196875 4.096875,-1.43437495 v 1.23749995 h 1.828125 z m 11.404687,0.7687498 c 0,-0.1687498 -1.14375,-0.6656248 -1.434375,-0.7687498 -0.825,-0.3 -1.865625,-0.3 -2.1375,-0.3 -3.225,0 -5.15625,2.8031248 -5.15625,5.6343748 0,2.971875 2.15625,5.52187495 5.0625,5.52187495 1.659375,0 2.85,-0.54375 3.815625,-1.190625 l -0.15,-1.63124995 c -1.06875,0.815625 -2.30625,1.265625 -3.646875,1.265625 -1.93125,0 -3.196875,-1.6875 -3.196875,-3.99375 0,-1.78125 0.815625,-4.040625 3.3,-4.040625 1.359375,0 2.128125,0.271875 3.271875,1.040625 z m 4.610157,-6.4218748 h -2.090625 v 2.08125 h 2.090625 z m -0.13125,5.653125 H 93.162194 V 0.00111875 h 1.828125 z m 11.988281,3.4218748 c 0,-1.565625 -0.36563,-3.6187498 -3.16875,-3.6187498 -1.58438,0 -2.625,0.815625 -3.31875,1.6593748 V -10.733256 H 98.681725 V 0.00111875 H 100.5661 V -5.9988812 c 0,-1.55625 0.59062,-3.346875 2.27812,-3.346875 2.18438,0 2.25,1.4625 2.25,2.30625 v 7.04062495 h 1.88438 z m 12.89297,-3.6187498 c -1.41563,0.02812 -2.63438,0.3 -3.61875,0.76875 -0.825,-0.646875 -1.66875,-0.76875 -2.23125,-0.76875 -2.15625,0 -3.79688,1.7812498 -3.79688,3.8624998 0,1.340625 0.74063,2.3625 0.79688,2.409375 -0.45,0.61875 -0.69375,1.284375 -0.69375,2.034375 0,0.8625 0.34687,1.48125 0.61875,1.82812495 -1.29375,0.796875 -1.4625,2.00625005 -1.4625,2.48437505 0,1.809375 2.25,3.290625 5.15625,3.290625 2.925,0 5.175,-1.48125 5.175,-3.31875 0,-3.421875 -3.7875,-3.440625 -4.82813,-3.440625 h -2.00625 c -0.375,0 -1.36875,0 -1.36875,-1.265625 0,-0.496875 0.225,-0.825 0.25313,-0.84375 0.36562,0.271875 1.13437,0.69375 2.15625,0.69375 2.05312,0 3.75937,-1.734375 3.75937,-3.871875 0,-1.190625 -0.54375,-2.053125 -0.75937,-2.353125 h 0.0656 c 0.075,0 1.11563,-0.075 1.49063,-0.075 0.79687,0 0.87187,0.028125 1.56562,0.103125 z m -5.85,6.3656248 c -0.84375,0 -2.03438,-0.515625 -2.03438,-2.503125 0,-2.15625 1.35938,-2.503125 2.00625,-2.503125 0.84375,0 2.03438,0.525 2.03438,2.503125 0,2.15625 -1.36875,2.503125 -2.00625,2.503125 z m 0.9375,4.59374995 c 0.6,0 3.10312,0 3.10312,1.67812505 0,1.06875 -1.5375,1.9125 -3.40312,1.9125 -1.88438,0 -3.42188,-0.815625 -3.42188,-1.93125 0,-0.121875 0,-1.65937505 1.71563,-1.65937505 z M 131.9911,-1.1145062 c 0.81562,0.79687495 1.93125,1.31249995 3.12187,1.31249995 2.30625,0 4.29375,-2.38124995 4.29375,-5.54999995 0,-2.925 -1.49062,-5.5031248 -3.61875,-5.5031248 -1.2375,0 -2.72812,0.45 -3.84375,1.3406248 v -1.1437498 h -1.8375 V 4.8386188 h 1.88438 z m 0,-6.9375 c 0.19687,-0.3 1.04062,-1.2375 2.40937,-1.2375 1.73438,0 3.12188,1.78125 3.12188,3.9375 0,2.45625 -1.6875,4.040625 -3.34688,4.040625 -0.49687,0 -1.0125,-0.121875 -1.50937,-0.54375 -0.675,-0.6 -0.675,-0.965625 -0.675,-1.3125 z m 18.38906,-2.6062498 h -1.88437 v 6.8437498 c 0,1.828125 -1.33125,2.578125 -2.74688,2.578125 -1.64062,0 -1.78125,-0.54375 -1.78125,-1.565625 v -7.8562498 h -1.88437 v 7.9781248 c 0,1.94062495 0.66562,2.87812495 2.37187,2.87812495 0.84375,0 2.75625,-0.196875 4.09688,-1.43437495 v 1.23749995 h 1.82812 z m 5.55235,-6.54375 h -1.8375 V 0.00111875 h 1.88437 V -1.1145062 c 0.94688,0.91874995 2.08125,1.31249995 3.10313,1.31249995 2.38125,0 4.3125,-2.39999995 4.3125,-5.54999995 0,-2.878125 -1.49063,-5.5031248 -3.69375,-5.5031248 -1.56563,0 -2.95313,0.646875 -3.76875,1.3124998 z m 0.0469,9.1218748 c 0.54375,-0.69375 1.3125,-1.265625 2.40938,-1.265625 1.4625,0 3.12187,1.06875 3.12187,3.99375 0,3.121875 -1.9875,4.040625 -3.34687,4.040625 -0.49688,0 -1.0125,-0.121875 -1.50938,-0.54375 -0.675,-0.6 -0.675,-0.965625 -0.675,-1.3125 z m 11.92031,-9.1218748 H 166.0716 V 0.00111875 h 1.82812 z m 5.64844,0.890625 h -2.09062 v 2.08125 h 2.09062 z m -0.13125,5.653125 h -1.82812 V 0.00111875 h 1.82812 z m 9.82969,0.45 c -1.4625,-0.69375 -2.59688,-0.75 -3.34688,-0.75 -1.75312,0 -3.8625,0.61875 -3.8625,3.1218748 0,2.5125 2.72813,3.05625 3.46875,3.20625 1.14375,0.215625 2.40938,0.46875 2.40938,1.70625 0,1.565625 -1.79063,1.565625 -2.10938,1.565625 -0.99375,0 -2.35312,-0.28125 -3.6,-1.171875 l -0.29062,1.65937495 c 1.40625,0.825 2.775,1.06875 3.90937,1.06875 3.05625,0 3.825,-1.85624995 3.825,-3.27187495 0,-1.209375 -0.69375,-2.034375 -1.17187,-2.4 -0.81563,-0.646875 -1.11563,-0.721875 -3.14063,-1.14375 -0.34687,-0.046875 -1.56562,-0.31875 -1.56562,-1.434375 0,-1.415625 1.56562,-1.415625 1.9125,-1.415625 1.60312,0 2.59687,0.496875 3.27187,0.871875 z m 11.09297,2.9718748 c 0,-1.565625 -0.36563,-3.6187498 -3.16875,-3.6187498 -1.56563,0 -2.57813,0.76875 -3.3,1.6124998 v -7.9593748 h -1.82813 V 0.00111875 h 1.88438 V -5.9988812 c 0,-1.55625 0.59062,-3.346875 2.27812,-3.346875 2.18438,0 2.25,1.4625 2.25,2.30625 v 7.04062495 h 1.88438 z m 11.55468,1.809375 c 0,-0.815625 -0.0469,-2.409375 -0.84375,-3.721875 -0.87187,-1.4062498 -2.27812,-1.8093748 -3.34687,-1.8093748 -2.57813,0 -4.7625,2.4281248 -4.7625,5.5781248 0,3.075 2.25937,5.57812495 5.10937,5.57812495 1.11563,0 2.475,-0.31875 3.72188,-1.20937495 0,-0.103125 -0.0562,-0.646875 -0.075,-0.675 0,-0.046875 -0.075,-0.815625 -0.075,-0.91875 -1.19063,0.965625 -2.55938,1.29375 -3.54375,1.29375 -1.59375,0 -3.3,-1.340625 -3.375,-4.115625 z m -6.99375,-1.359375 c 0.32813,-1.36875 1.41563,-2.653125 2.80313,-2.653125 0.375,0 2.10937,0.046875 2.55,2.653125 z m 17.77266,-10.4156248 h -1.8375 v 7.5843748 c -0.76875,-0.6468748 -2.03437,-1.2374998 -3.42187,-1.2374998 -2.25,0 -4.04063,2.4562498 -4.04063,5.5312498 0,3.065625 1.7625,5.52187495 3.96563,5.52187495 1.71562,0 2.85,-0.91875 3.45,-1.43437495 v 1.23749995 h 1.88437 z m -1.88437,13.8843748 c 0,0.346875 0,0.7125 -0.76875,1.3875 -0.49688,0.421875 -1.0875,0.61875 -1.65938,0.61875 -1.34062,0 -3.10312,-0.99375 -3.10312,-3.99375 0,-3.121875 1.9875,-4.040625 3.34687,-4.040625 0.91875,0 1.65938,0.45 2.18438,1.190625 z M -14.054994,13.501119 c -1.0875,-0.6375 -2.278125,-1.209375 -4.284375,-1.209375 -3.196875,0 -5.259375,2.353125 -5.259375,4.753125 0,0.946875 0.28125,2.015625 1.246875,3.103125 0.965625,1.0875 2.053125,1.3875 3.440625,1.734375 0.571875,0.15 1.5375,0.421875 1.715625,0.496875 1.3875,0.54375 2.053125,1.809375 2.053125,3 0,1.55625 -1.209375,3.225 -3.365625,3.225 -0.75,0 -2.925,-0.13125 -4.9875,-2.015625 l -0.346875,1.959375 c 2.034375,1.490625 4.2375,1.734375 5.353125,1.734375 3.046875,0 5.23125,-2.4 5.23125,-5.128125 0,-0.99375 -0.3,-2.259375 -1.340625,-3.421875 -1.0125,-1.115625 -1.903125,-1.359375 -3.9375,-1.903125 -1.1625,-0.3 -1.9125,-0.496875 -2.53125,-1.265625 -0.421875,-0.54375 -0.646875,-1.06875 -0.646875,-1.734375 0,-1.3875 1.190625,-2.90625 3.375,-2.90625 1.0875,0 2.503125,0.225 3.9375,1.565625 z m 6.2625002,7.1625 h 3.215625 v -1.434375 h -3.215625 v -3.046875 h -1.7625 v 3.046875 h -1.9593752 v 1.434375 h 1.9125002 v 6.271875 c 0,1.415625 0.31875,3.15 1.95,3.15 1.246875,0 2.38125,-0.346875 3.478125,-0.91875 l -0.403125,-1.4625 c -0.590625,0.525 -1.3125,0.825 -2.08125,0.825 -1.0875,0 -1.134375,-1.3875 -1.134375,-2.015625 z m 7.96875005,3.946875 c 0,-2.334375 1.70624995,-3.890625 3.89062495,-3.946875 v -1.63125 c -1.584375,0.02812 -3.07499995,0.815625 -3.96562495,2.109375 v -1.9875 H -1.6612438 V 29.888619 H 0.17625625 Z M 14.555162,19.229244 h -1.884375 v 6.84375 c 0,1.828125 -1.33125,2.578125 -2.7468745,2.578125 -1.640625,0 -1.78125,-0.54375 -1.78125,-1.565625 v -7.85625 h -1.884375 v 7.978125 c 0,1.940625 0.665625,2.878125 2.371875,2.878125 0.84375,0 2.7562495,-0.196875 4.0968745,-1.434375 v 1.2375 h 1.828125 z m 11.404688,0.76875 c 0,-0.16875 -1.14375,-0.665625 -1.434375,-0.76875 -0.825,-0.3 -1.865625,-0.3 -2.1375,-0.3 -3.225,0 -5.15625,2.803125 -5.15625,5.634375 0,2.971875 2.15625,5.521875 5.0625,5.521875 1.659375,0 2.85,-0.54375 3.815625,-1.190625 l -0.15,-1.63125 c -1.06875,0.815625 -2.30625,1.265625 -3.646875,1.265625 -1.93125,0 -3.196875,-1.6875 -3.196875,-3.99375 0,-1.78125 0.815625,-4.040625 3.3,-4.040625 1.359375,0 2.128125,0.271875 3.271875,1.040625 z m 4.959375,0.665625 h 3.215625 v -1.434375 h -3.215625 v -3.046875 h -1.7625 v 3.046875 H 27.19735 v 1.434375 h 1.9125 v 6.271875 c 0,1.415625 0.31875,3.15 1.95,3.15 1.246875,0 2.38125,-0.346875 3.478125,-0.91875 l -0.403125,-1.4625 c -0.590625,0.525 -1.3125,0.825 -2.08125,0.825 -1.0875,0 -1.134375,-1.3875 -1.134375,-2.015625 z m 14.407031,-1.434375 h -1.884375 v 6.84375 c 0,1.828125 -1.33125,2.578125 -2.746875,2.578125 -1.640625,0 -1.78125,-0.54375 -1.78125,-1.565625 v -7.85625 h -1.884375 v 7.978125 c 0,1.940625 0.665625,2.878125 2.371875,2.878125 0.84375,0 2.75625,-0.196875 4.096875,-1.434375 v 1.2375 h 1.828125 z m 5.554688,5.38125 c 0,-2.334375 1.70625,-3.890625 3.890625,-3.946875 v -1.63125 c -1.584375,0.02812 -3.075,0.815625 -3.965625,2.109375 v -1.9875 h -1.7625 v 10.734375 h 1.8375 z m 13.563281,-1.734375 c 0,-2.334375 -1.659375,-3.946875 -3.890625,-3.946875 -1.0875,0 -2.278125,0.20625 -3.646875,0.99375 l 0.15,1.640625 c 0.61875,-0.45 1.6875,-1.171875 3.46875,-1.171875 1.265625,0 2.034375,0.965625 2.034375,2.503125 v 0.946875 c -3.965625,0.121875 -6.440625,1.265625 -6.440625,3.225 0,1.0125 0.61875,3.01875 2.671875,3.01875 0.375,0 2.38125,-0.04687 3.815625,-1.115625 v 0.91875 h 1.8375 z m -1.884375,3.740625 c 0,0.45 0,1.040625 -0.740625,1.490625 -0.646875,0.421875 -1.4625,0.46875 -1.809375,0.46875 -1.2375,0 -2.08125,-0.69375 -2.08125,-1.565625 0,-1.734375 3.8625,-1.903125 4.63125,-1.93125 z m 7.408594,-13.93125 h -1.828125 v 17.203125 h 1.828125 z m 17.19375,15.515625 c -1.978125,0 -2.878125,0 -3.31875,0.02813 v -6.496875 h 7.678125 v -1.509375 h -7.678125 v -5.896875 h 3.196875 c 0.3,0 0.590625,0.01875 0.890625,0.01875 h 4.2375 v -1.6125 h -10.40625 v 17.15625 h 10.734375 v -1.70625 z m 16.436716,-9.16875 h -1.8375 v 1.509375 c -0.0937,-0.121875 -1.2375,-1.509375 -3.168748,-1.509375 -2.259375,0 -4.29375,2.30625 -4.29375,5.55 0,3 1.715625,5.503125 3.946875,5.503125 1.040625,0 2.353123,-0.375 3.468753,-1.434375 v 6.075 h 1.88437 z m -1.8375,7.4625 c 0,0.31875 0,0.76875 -0.76875,1.40625 -0.19687,0.178125 -0.74062,0.675 -1.687498,0.675 -1.753125,0 -3.121875,-1.8375 -3.121875,-3.99375 0,-2.4 1.659375,-3.984375 3.346875,-3.984375 1.415628,0 2.231248,1.3875 2.231248,2.428125 z m 13.85156,-7.265625 h -1.88437 v 6.84375 c 0,1.828125 -1.33125,2.578125 -2.74688,2.578125 -1.64062,0 -1.78125,-0.54375 -1.78125,-1.565625 v -7.85625 h -1.88437 v 7.978125 c 0,1.940625 0.66562,2.878125 2.37187,2.878125 0.84375,0 2.75625,-0.196875 4.09688,-1.434375 v 1.2375 h 1.82812 z m 11.17969,3.646875 c 0,-2.334375 -1.65937,-3.946875 -3.89062,-3.946875 -1.0875,0 -2.27813,0.20625 -3.64688,0.99375 l 0.15,1.640625 c 0.61875,-0.45 1.6875,-1.171875 3.46875,-1.171875 1.26563,0 2.03438,0.965625 2.03438,2.503125 v 0.946875 c -3.96563,0.121875 -6.44063,1.265625 -6.44063,3.225 0,1.0125 0.61875,3.01875 2.67188,3.01875 0.375,0 2.38125,-0.04687 3.81562,-1.115625 v 0.91875 h 1.8375 z m -1.88437,3.740625 c 0,0.45 0,1.040625 -0.74063,1.490625 -0.64687,0.421875 -1.4625,0.46875 -1.80937,0.46875 -1.2375,0 -2.08125,-0.69375 -2.08125,-1.565625 0,-1.734375 3.8625,-1.903125 4.63125,-1.93125 z m 7.88437,-5.953125 h 3.21563 v -1.434375 h -3.21563 v -3.046875 h -1.7625 v 3.046875 h -1.95937 v 1.434375 h 1.9125 v 6.271875 c 0,1.415625 0.31875,3.15 1.95,3.15 1.24687,0 2.38125,-0.346875 3.47812,-0.91875 l -0.40312,-1.4625 c -0.59063,0.525 -1.3125,0.825 -2.08125,0.825 -1.0875,0 -1.13438,-1.3875 -1.13438,-2.015625 z m 8.07188,-7.0875 h -2.09063 v 2.08125 h 2.09063 z m -0.13125,5.653125 h -1.82813 v 10.659375 h 1.82813 z m 12.81093,5.353125 c 0,-3.16875 -2.3625,-5.653125 -5.1375,-5.653125 -2.85,0 -5.15625,2.559375 -5.15625,5.653125 0,3.15 2.38125,5.503125 5.1375,5.503125 2.82188,0 5.15625,-2.428125 5.15625,-5.503125 z m -5.1375,3.946875 c -1.75312,0 -3.27187,-1.44375 -3.27187,-4.14375 0,-2.878125 1.7625,-3.9375 3.25312,-3.9375 1.6125,0 3.27188,1.1625 3.27188,3.9375 0,2.803125 -1.6125,4.14375 -3.25313,4.14375 z m 15.96797,-5.878125 c 0,-1.565625 -0.36562,-3.61875 -3.16875,-3.61875 -1.58437,0 -2.625,0.815625 -3.31875,1.659375 v -1.5375 h -1.80937 v 10.734375 h 1.88437 v -6 c 0,-1.55625 0.59063,-3.346875 2.27813,-3.346875 2.18437,0 2.25,1.4625 2.25,2.30625 v 7.040625 h 1.88437 z m 22.00782,-2.00625 -1.19063,3.496875 c -0.19687,0.6375 -0.8625,2.653125 -1.0125,3.440625 h -0.0281 c -0.075,-0.496875 -0.21563,-1.0125 -0.61875,-2.278125 -0.225,-0.740625 -0.46875,-1.509375 -0.7125,-2.203125 l -3.675,-10.415625 h -2.89688 v 17.203125 h 1.93125 V 14.691744 h 0.0281 c 0,0.02812 0.225,1.115625 1.73437,5.45625 l 3.27188,9.346875 h 1.8375 l 2.94375,-8.30625 c 0.19687,-0.571875 0.81562,-2.38125 1.09687,-3.24375 0.24375,-0.75 0.8625,-2.578125 1.0125,-3.3 h 0.0281 v 15.24375 h 1.95 V 12.685494 h -2.86875 z m 18.91406,3.9375 c 0,-3.16875 -2.3625,-5.653125 -5.1375,-5.653125 -2.85,0 -5.15625,2.559375 -5.15625,5.653125 0,3.15 2.38125,5.503125 5.1375,5.503125 2.82187,0 5.15625,-2.428125 5.15625,-5.503125 z m -5.1375,3.946875 c -1.75313,0 -3.27188,-1.44375 -3.27188,-4.14375 0,-2.878125 1.7625,-3.9375 3.25313,-3.9375 1.6125,0 3.27187,1.1625 3.27187,3.9375 0,2.803125 -1.6125,4.14375 -3.25312,4.14375 z m 16.59375,-15.84375 h -1.8375 v 7.584375 c -0.76875,-0.646875 -2.03438,-1.2375 -3.42188,-1.2375 -2.25,0 -4.04062,2.45625 -4.04062,5.53125 0,3.065625 1.7625,5.521875 3.96562,5.521875 1.71563,0 2.85,-0.91875 3.45,-1.434375 v 1.2375 h 1.88438 z m -1.88438,13.884375 c 0,0.346875 0,0.7125 -0.76875,1.3875 -0.49687,0.421875 -1.0875,0.61875 -1.65937,0.61875 -1.34063,0 -3.10313,-0.99375 -3.10313,-3.99375 0,-3.121875 1.9875,-4.040625 3.34688,-4.040625 0.91875,0 1.65937,0.45 2.18437,1.190625 z m 13.45782,-2.109375 c 0,-0.815625 -0.0469,-2.409375 -0.84375,-3.721875 -0.87188,-1.40625 -2.27813,-1.809375 -3.34688,-1.809375 -2.57812,0 -4.7625,2.428125 -4.7625,5.578125 0,3.075 2.25938,5.578125 5.10938,5.578125 1.11562,0 2.475,-0.31875 3.72187,-1.209375 0,-0.103125 -0.0562,-0.646875 -0.075,-0.675 0,-0.04687 -0.075,-0.815625 -0.075,-0.91875 -1.19062,0.965625 -2.55937,1.29375 -3.54375,1.29375 -1.59375,0 -3.3,-1.340625 -3.375,-4.115625 z m -6.99375,-1.359375 c 0.32812,-1.36875 1.41562,-2.653125 2.80312,-2.653125 0.375,0 2.10938,0.04687 2.55,2.653125 z m 11.32265,-10.415625 h -1.82812 v 17.203125 h 1.82812 z m 9.83203,6.99375 c -1.4625,-0.69375 -2.59687,-0.75 -3.34687,-0.75 -1.75313,0 -3.8625,0.61875 -3.8625,3.121875 0,2.5125 2.72812,3.05625 3.46875,3.20625 1.14375,0.215625 2.40937,0.46875 2.40937,1.70625 0,1.565625 -1.79062,1.565625 -2.10937,1.565625 -0.99375,0 -2.35313,-0.28125 -3.6,-1.171875 l -0.29063,1.659375 c 1.40625,0.825 2.775,1.06875 3.90938,1.06875 3.05625,0 3.825,-1.85625 3.825,-3.271875 0,-1.209375 -0.69375,-2.034375 -1.17188,-2.4 -0.81562,-0.646875 -1.11562,-0.721875 -3.14062,-1.14375 -0.34688,-0.04687 -1.56563,-0.31875 -1.56563,-1.434375 0,-1.415625 1.56563,-1.415625 1.9125,-1.415625 1.60313,0 2.59688,0.496875 3.27188,0.871875 z m -173.322653,29.4375 h -1.884375 l -1.3125,4.4625 c -0.271875,0.9375 -1.040625,3.54375 -1.14375,4.7625 h -0.02813 c -0.04687,-0.75 -0.46875,-2.53125 -1.1625,-4.884375 l -1.265625,-4.340625 h -1.70625 l -1.2375,4.2375 c -0.61875,2.15625 -1.096875,3.99375 -1.14375,4.9875 h -0.02812 c -0.09375,-1.4625 -1.115625,-4.884375 -1.25625,-5.428125 l -1.115625,-3.796875 h -1.940625 l 3.225,10.659375 h 1.884375 c 1.29375,-4.265625 2.278125,-7.55625 2.353125,-9.225 0.05625,0.825 0.46875,2.578125 0.721875,3.45 l 1.63125,5.775 h 2.184375 z m 4.132032,-5.653125 h -2.090625 v 2.08125 h 2.090625 z m -0.13125,5.653125 h -1.828125 v 10.659375 h 1.828125 z m 5.995312,1.434375 h 3.215625 v -1.434375 h -3.215625 v -3.046875 h -1.7625 v 3.046875 h -1.959375 v 1.434375 h 1.9125 v 6.271875 c 0,1.415625 0.31875,3.15 1.95,3.15 1.246875,0 2.38125,-0.346875 3.478125,-0.91875 l -0.403125,-1.4625 c -0.590625,0.525 -1.3125,0.825 -2.08125,0.825 -1.0875,0 -1.134375,-1.3875 -1.134375,-2.015625 z m 14.409375,1.9875 c 0,-1.565625 -0.365625,-3.61875 -3.16875,-3.61875 -1.565625,0 -2.578125,0.76875 -3.3,1.6125 v -7.959375 h -1.828125 v 17.203125 h 1.884375 v -6 c 0,-1.55625 0.590625,-3.346875 2.278125,-3.346875 2.184375,0 2.25,1.4625 2.25,2.30625 v 7.040625 h 1.884375 z m 13.284374,-9.965625 h -1.82812 v 17.203125 h 1.82812 z m 11.17031,10.190625 c 0,-2.334375 -1.65937,-3.946875 -3.89062,-3.946875 -1.0875,0 -2.27813,0.20625 -3.64688,0.99375 l 0.15,1.640625 c 0.61875,-0.45 1.6875,-1.171875 3.46875,-1.171875 1.26563,0 2.03438,0.965625 2.03438,2.503125 v 0.946875 c -3.96563,0.121875 -6.44063,1.265625 -6.44063,3.225 0,1.0125 0.61875,3.01875 2.67188,3.01875 0.375,0 2.38125,-0.04687 3.81562,-1.115625 v 0.91875 h 1.8375 z m -1.88437,3.740625 c 0,0.45 0,1.040625 -0.74063,1.490625 -0.64687,0.421875 -1.4625,0.46875 -1.80937,0.46875 -1.2375,0 -2.08125,-0.69375 -2.08125,-1.565625 0,-1.734375 3.8625,-1.903125 4.63125,-1.93125 z m 14.1,-7.3875 h -1.93125 l -1.65938,4.640625 c -0.525,1.509375 -1.26562,3.590625 -1.3875,4.659375 h -0.0281 c -0.0469,-0.45 -0.24375,-1.096875 -0.375,-1.5375 -0.14063,-0.553125 -0.34688,-1.190625 -0.4875,-1.640625 l -2.18438,-6.121875 h -1.9875 l 3.91875,10.659375 h 2.20313 z m 9.65859,3.646875 c 0,-2.334375 -1.65937,-3.946875 -3.89062,-3.946875 -1.0875,0 -2.27813,0.20625 -3.64688,0.99375 l 0.15,1.640625 c 0.61875,-0.45 1.6875,-1.171875 3.46875,-1.171875 1.26563,0 2.03438,0.965625 2.03438,2.503125 v 0.946875 c -3.96563,0.121875 -6.44063,1.265625 -6.44063,3.225 0,1.0125 0.61875,3.01875 2.67188,3.01875 0.375,0 2.38125,-0.04687 3.81562,-1.115625 v 0.91875 h 1.8375 z m -1.88437,3.740625 c 0,0.45 0,1.040625 -0.74063,1.490625 -0.64687,0.421875 -1.4625,0.46875 -1.80937,0.46875 -1.2375,0 -2.08125,-0.69375 -2.08125,-1.565625 0,-1.734375 3.8625,-1.903125 4.63125,-1.93125 z m 13.06172,-3.740625 c 0,-2.334375 -1.65938,-3.946875 -3.89063,-3.946875 -1.0875,0 -2.27812,0.20625 -3.64687,0.99375 l 0.15,1.640625 c 0.61875,-0.45 1.6875,-1.171875 3.46875,-1.171875 1.26562,0 2.03437,0.965625 2.03437,2.503125 v 0.946875 c -3.96562,0.121875 -6.44062,1.265625 -6.44062,3.225 0,1.0125 0.61875,3.01875 2.67187,3.01875 0.375,0 2.38125,-0.04687 3.81563,-1.115625 v 0.91875 h 1.8375 z m -1.88438,3.740625 c 0,0.45 0,1.040625 -0.74062,1.490625 -0.64688,0.421875 -1.4625,0.46875 -1.80938,0.46875 -1.2375,0 -2.08125,-0.69375 -2.08125,-1.565625 0,-1.734375 3.8625,-1.903125 4.63125,-1.93125 z m 13.875,-3.965625 c 0,-1.565625 -0.36562,-3.61875 -3.16875,-3.61875 -1.58437,0 -2.625,0.815625 -3.31875,1.659375 v -1.5375 h -1.80937 v 10.734375 h 1.88437 v -6 c 0,-1.55625 0.59063,-3.346875 2.27813,-3.346875 2.18437,0 2.25,1.4625 2.25,2.30625 v 7.040625 h 1.88437 z m 0,0"
       style="fill:#cb6015;fill-opacity:1;fill-rule:nonzero;stroke:none"
       aria-label="Reproducingpublished&#10;StructuralEquationModels&#10;withlavaan"
       transform="matrix(1.6666667,0,0,1.6666667,58.077333,75.142667)" />
  </g>
</svg>
