<?xml version="1.0" encoding="UTF-8" standalone="no"?>
<!-- Created with Inkscape (http://www.inkscape.org/) -->

<svg
   version="1.1"
   id="svg1"
   width="664.25336"
   height="240.424"
   viewBox="0 0 664.25336 240.424"
   sodipodi:docname="BannerN.svg"
   inkscape:version="1.3.2 (091e20e, 2023-11-25, custom)"
   xmlns:inkscape="http://www.inkscape.org/namespaces/inkscape"
   xmlns:sodipodi="http://sodipodi.sourceforge.net/DTD/sodipodi-0.dtd"
   xmlns="http://www.w3.org/2000/svg"
   xmlns:svg="http://www.w3.org/2000/svg">
  <defs
     id="defs1" />
  <sodipodi:namedview
     id="namedview1"
     pagecolor="#ffffff"
     bordercolor="#000000"
     borderopacity="0.25"
     inkscape:showpageshadow="2"
     inkscape:pageopacity="0.0"
     inkscape:pagecheckerboard="0"
     inkscape:deskcolor="#d1d1d1"
     showgrid="false"
     inkscape:zoom="1.5355587"
     inkscape:cx="332.12668"
     inkscape:cy="120.47732"
     inkscape:window-width="1920"
     inkscape:window-height="991"
     inkscape:window-x="-9"
     inkscape:window-y="-9"
     inkscape:window-maximized="1"
     inkscape:current-layer="g1">
    <inkscape:page
       x="0"
       y="0"
       inkscape:label="1"
       id="page1"
       width="664.25336"
       height="240.424"
       margin="0"
       bleed="0" />
  </sodipodi:namedview>
  <g
     id="g1"
     inkscape:groupmode="layer"
     inkscape:label="1">
    <path
       id="path1"
       d="m -5e-4,79.20088 -68.58963,-39.60072 5e-4,-79.20088 68.59013,-39.60016 68.58963,39.60072 -5e-4,79.20088 z"
       style="fill:#cb6015;fill-opacity:1;fill-rule:nonzero;stroke:#999999;stroke-width:1.99255;stroke-linecap:butt;stroke-linejoin:miter;stroke-miterlimit:10;stroke-dasharray:none;stroke-opacity:1"
       transform="matrix(1.3333333,0,0,-1.3333333,558.18933,120.212)" />
    <path
       id="path2"
       d="m -43.22891,2.12613 h -15.59081 v -15.59078 h 15.59081 z"
       style="fill:#ccccff;fill-opacity:1;fill-rule:nonzero;stroke:#000000;stroke-width:0.3985;stroke-linecap:butt;stroke-linejoin:miter;stroke-miterlimit:10;stroke-dasharray:none;stroke-opacity:1"
       transform="matrix(1.3333333,0,0,-1.3333333,558.18933,120.212)" />
    <path
       id="path3"
       d="M 3.6761506,-3.6445455 6.0731676,-6.915142 H 5.1250142 l -1.875,2.5994318 L 1.3110937,-6.915142 H 0.27771307 L 2.8238778,-3.6445455 0.13921875,-0.00107955 H 1.0980256 L 3.2500142,-3.0479545 5.4552699,-0.00107955 H 6.499304 Z m 0,0"
       style="fill:#000000;fill-opacity:1;fill-rule:nonzero;stroke:none"
       aria-label="X"
       transform="matrix(1.4666667,0,0,1.4666667,485.288,132.84533)" />
    <path
       id="path4"
       d="m 58.81973,2.12613 h -15.5908 v -15.59078 h 15.5908 z"
       style="fill:#ccccff;fill-opacity:1;fill-rule:nonzero;stroke:#000000;stroke-width:0.3985;stroke-linecap:butt;stroke-linejoin:miter;stroke-miterlimit:10;stroke-dasharray:none;stroke-opacity:1"
       transform="matrix(1.3333333,0,0,-1.3333333,558.18933,120.212)" />
    <path
       id="path5"
       d="M 6.6057244,-6.915142 H 5.7321449 L 4.1874006,-4.6672727 C 4.1341335,-4.5926989 4.0808665,-4.518125 4.016946,-4.4009375 L 3.4097017,-3.4527841 C 3.2179403,-3.761733 3.2179403,-3.7830398 3.0474858,-4.0280682 L 1.0766051,-6.915142 H 0.03257102 l 2.85511368,4.1441761 v 2.76988635 H 3.7506108 V -2.7603125 Z m 0,0"
       style="fill:#000000;fill-opacity:1;fill-rule:nonzero;stroke:none"
       aria-label="Y"
       transform="matrix(1.4666667,0,0,1.4666667,621.35067,132.84533)" />
    <path
       id="path6"
       d="M 4.96056,58.81973 H -10.63022 V 43.22894 H 4.96056 Z"
       style="fill:#ccccff;fill-opacity:1;fill-rule:nonzero;stroke:#000000;stroke-width:0.3985;stroke-linecap:butt;stroke-linejoin:miter;stroke-miterlimit:10;stroke-dasharray:none;stroke-opacity:1"
       transform="matrix(1.3333333,0,0,-1.3333333,558.18933,120.212)" />
    <path
       id="path7"
       d="M 5.2829261,-3.5374503 C 4.9313636,-2.6319105 4.4626136,-1.3961151 4.3560795,-0.92736506 H 4.3454261 C 4.2921591,-1.1404332 4.1749716,-1.5026491 4.0258239,-1.9181321 L 2.4597727,-6.0516548 2.1188636,-6.914581 H 0.98960227 V -5.1846591e-4 H 1.7673011 V -6.1794957 h 0.010653 c 0.06392,0.3196022 0.4580966,1.40625 0.7244319,2.0880681 l 1.4701704,3.86718754 H 4.6969886 L 6.0286648,-3.686598 c 0.3196022,-0.8203125 0.4048295,-1.0653409 0.4794034,-1.2677557 0.095881,-0.287642 0.3622159,-1.0014204 0.4154829,-1.2357954 l 0.010653,0.010653 V -5.1846591e-4 H 7.7119034 V -6.914581 H 6.5719886 Z m 0,0"
       style="fill:#000000;fill-opacity:1;fill-rule:nonzero;stroke:none"
       aria-label="M"
       transform="matrix(1.4666667,0,0,1.4666667,548.01733,57.254667)" />
    <path
       id="path8"
       d="M -43.00974,-5.66927 H 38.35068"
       style="fill:none;stroke:#000000;stroke-width:0.3985;stroke-linecap:butt;stroke-linejoin:miter;stroke-miterlimit:10;stroke-dasharray:none;stroke-opacity:1"
       transform="matrix(1.3333333,0,0,-1.3333333,558.18933,120.212)" />
    <path
       id="path9"
       d="M 5.10188,0 0.64343,1.67842 2.10616,0 0.64343,-1.67842 Z"
       style="fill:#000000;fill-opacity:1;fill-rule:nonzero;stroke:#000000;stroke-width:0.3985;stroke-linecap:butt;stroke-linejoin:miter;stroke-miterlimit:10;stroke-dasharray:none;stroke-opacity:1"
       transform="matrix(1.3333333,0,0,-1.3333333,606.64817,127.77103)" />
    <g
       id="g9"
       aria-label="c&#10;′"
       transform="matrix(1.4666667,0,0,1.4666667,552.32533,124.556)">
      <path
         id="path10"
         d="m 4.7932741,-1.2899574 c -0.5539772,0.43678979 -1.1612215,0.67116479 -1.8323863,0.67116479 -0.9907671,0 -1.6299716,-0.88423299 -1.6299716,-2.04545459 0,-0.990767 0.46875,-2.0774147 1.6725852,-2.0774147 0.7990057,0 1.1292614,0.1917613 1.640625,0.5326704 L 4.7932741,-4.9866903 C 4.1008026,-5.3915199 3.7066264,-5.4874006 3.0035014,-5.4874006 c -1.6512784,0 -2.58877839,1.4595171 -2.58877839,2.8231534 0,1.5234375 1.09730109,2.78053981 2.53551139,2.78053981 0.5859375,0 1.2571022,-0.13849431 1.9176136,-0.61789772 0,-0.0319602 -0.042614,-0.40482955 -0.053267,-0.45809659 z m 0,0"
         style="fill:#000000;fill-opacity:1;fill-rule:nonzero;stroke:none" />
      <path
         id="path11"
         d="m 7.310142,-8.1187926 c 0.042614,-0.095881 0.074574,-0.1598011 0.074574,-0.234375 0,-0.2663352 -0.234375,-0.4367898 -0.4580966,-0.4367898 -0.3196023,0 -0.4154829,0.2769887 -0.4474432,0.3941762 l -1.0120738,3.4303977 c -0.03196,0.095881 -0.03196,0.1171875 -0.03196,0.1278409 0,0.074574 0.053267,0.085227 0.127841,0.1065341 0.1491477,0.06392 0.1598011,0.06392 0.1811079,0.06392 0.021307,0 0.074574,0 0.1278409,-0.1278409 z m 0,0"
         style="fill:#000000;fill-opacity:1;fill-rule:nonzero;stroke:none" />
    </g>
    <path
       id="path12"
       d="M -48.10727,2.3453 -9.11263,39.78319"
       style="fill:none;stroke:#000000;stroke-width:0.3985;stroke-linecap:butt;stroke-linejoin:miter;stroke-miterlimit:10;stroke-dasharray:none;stroke-opacity:1"
       transform="matrix(1.3333333,0,0,-1.3333333,558.18933,120.212)" />
    <path
       id="path13"
       d="M 5.10188,0 0.64343,1.67842 2.10616,0 0.64343,-1.67842 Z"
       style="fill:#000000;fill-opacity:1;fill-rule:nonzero;stroke:#000000;stroke-width:0.3985;stroke-linecap:butt;stroke-linejoin:miter;stroke-miterlimit:10;stroke-dasharray:none;stroke-opacity:1"
       transform="matrix(0.96177333,-0.92338667,-0.92338667,-0.96177333,544.10936,69.020547)" />
    <path
       id="path14"
       d="m 4.6774574,-3.5047088 c 0,-1.1399148 -0.8309659,-1.9815341 -1.9389205,-1.9815341 -0.7137784,0 -1.2571022,0.1704545 -1.84303974,0.5007102 l 0.0745739,0.7883523 C 1.4920881,-4.5807031 2.0460653,-4.7937713 2.7385369,-4.7937713 c 0.5539773,0 1.0227273,0.4474432 1.0227273,1.3103693 v 0.5007102 c -0.5326705,0.021307 -1.2464489,0.053267 -1.9708807,0.2982955 -0.79900566,0.2663352 -1.26775566,0.7137784 -1.26775566,1.3103693 0,0.52201706 0.31960227,1.49147728 1.33167616,1.49147728 0.6605113,0 1.4914772,-0.19176136 1.9389204,-0.56463068 V 2.6278409e-4 h 0.884233 z m -0.9161932,1.9069602 c 0,0.234375 0,0.5220171 -0.3941761,0.75639207 -0.3196023,0.21306818 -0.7244319,0.2450284 -0.9055398,0.2450284 -0.6392046,0 -1.0866477,-0.3515625 -1.0866477,-0.78835227 0,-0.8096591 1.6619318,-0.990767 2.3863636,-0.990767 z m 0,0"
       style="fill:#000000;fill-opacity:1;fill-rule:nonzero;stroke:none"
       aria-label="a"
       transform="matrix(1.4666667,0,0,1.4666667,510.85067,86.761333)" />
    <path
       id="path15"
       d="M 0.0822,43.00977 44.55182,5.35583"
       style="fill:none;stroke:#000000;stroke-width:0.3985;stroke-linecap:butt;stroke-linejoin:miter;stroke-miterlimit:10;stroke-dasharray:none;stroke-opacity:1"
       transform="matrix(1.3333333,0,0,-1.3333333,558.18933,120.212)" />
    <path
       id="path16"
       d="M 5.10188,0 0.64343,1.67842 2.10616,0 0.64343,-1.67842 Z"
       style="fill:#000000;fill-opacity:1;fill-rule:nonzero;stroke:#000000;stroke-width:0.3985;stroke-linecap:butt;stroke-linejoin:miter;stroke-miterlimit:10;stroke-dasharray:none;stroke-opacity:1"
       transform="matrix(1.0174933,0.86154667,0.86154667,-1.0174933,615.55011,111.34215)" />
    <path
       id="path17"
       d="M 1.8221307,-8.2987429 H 0.93789773 V 2.6278409e-4 H 1.8434375 V -0.53240767 c 0.5433239,0.52201704 1.1292614,0.64985795 1.5553977,0.64985795 1.1292614,0 2.1732955,-1.16122158 2.1732955,-2.78053978 0,-1.4701704 -0.7883523,-2.7592329 -1.9069602,-2.7592329 -0.3409091,0 -1.1079546,0.06392 -1.8430398,0.6605113 z m 0.021307,4.272017 c 0.2130682,-0.340909 0.6392045,-0.6818181 1.225142,-0.6818181 0.7350853,0 1.5980114,0.5539772 1.5980114,2.0454545 0,1.5553977 -0.9801136,2.06676137 -1.7151989,2.06676137 -0.3302556,0 -0.5646306,-0.1171875 -0.7776988,-0.28764204 C 1.8860511,-1.139652 1.8434375,-1.3527202 1.8434375,-1.5551349 Z m 0,0"
       style="fill:#000000;fill-opacity:1;fill-rule:nonzero;stroke:none"
       aria-label="b"
       transform="matrix(1.4666667,0,0,1.4666667,593.53067,86.761333)" />
    <path
       id="path18"
       d="M 66.12561,11.41978 61.90648,6.01727"
       style="fill:none;stroke:#000000;stroke-width:0.3985;stroke-linecap:butt;stroke-linejoin:miter;stroke-miterlimit:10;stroke-dasharray:none;stroke-opacity:1"
       transform="matrix(1.3333333,0,0,-1.3333333,558.18933,120.212)" />
    <path
       id="path19"
       d="M 5.10188,0 0.64343,1.67842 2.10616,0 0.64343,-1.67842 Z"
       style="fill:#000000;fill-opacity:1;fill-rule:nonzero;stroke:#000000;stroke-width:0.3985;stroke-linecap:butt;stroke-linejoin:miter;stroke-miterlimit:10;stroke-dasharray:none;stroke-opacity:1"
       transform="matrix(-0.82064,1.05084,1.05084,0.82064,642.37793,110.08043)" />
    <path
       id="path20"
       d="M 12.26642,68.11339 8.0473,62.71088"
       style="fill:none;stroke:#000000;stroke-width:0.3985;stroke-linecap:butt;stroke-linejoin:miter;stroke-miterlimit:10;stroke-dasharray:none;stroke-opacity:1"
       transform="matrix(1.3333333,0,0,-1.3333333,558.18933,120.212)" />
    <path
       id="path21"
       d="M 5.10188,0 0.64343,1.67842 2.10616,0 0.64343,-1.67842 Z"
       style="fill:#000000;fill-opacity:1;fill-rule:nonzero;stroke:#000000;stroke-width:0.3985;stroke-linecap:butt;stroke-linejoin:miter;stroke-miterlimit:10;stroke-dasharray:none;stroke-opacity:1"
       transform="matrix(-0.82064,1.05084,1.05084,0.82064,570.56569,34.488933)" />
    <path
       id="path22"
       d="M 3.2282884,-5.272358 C 2.9619531,-5.325625 2.2268679,-5.6026136 2.2268679,-6.2844318 c 0,-1.0227273 1.0120739,-1.0440341 1.4169034,-1.0440341 0.6711648,0 1.2677557,0.1598011 1.8536932,0.7350852 0.1917614,0.1704546 0.2024148,0.1917614 0.2556818,0.1917614 0.063921,0 0.1278409,-0.042614 0.1598011,-0.2237216 l 0.181108,-1.0333807 c 0.021307,-0.095881 0.021307,-0.1171875 0.021307,-0.1598011 0,-0.095881 -0.010653,-0.1065341 -0.3089488,-0.2556818 C 4.964794,-8.5003409 4.2510156,-8.553608 3.6437713,-8.553608 c -1.0653409,0 -2.91903408,0.2450285 -2.91903408,2.4822444 0,0.8522727 0.44744318,1.3955966 0.67116478,1.640625 0.6072443,0.6178977 1.171875,0.7350852 2.109375,0.9481534 0.6711648,0.1598011 0.9268466,0.2237216 1.1931818,0.4580966 0.1171875,0.1171875 0.3728693,0.3728693 0.3728693,0.8309659 0,1.1186079 -1.0333807,1.1505682 -1.4275568,1.1505682 -1.0014204,0 -1.875,-0.4048296 -2.4715909,-0.9375 -0.1491477,-0.1491478 -0.1704545,-0.1491478 -0.21306818,-0.1491478 -0.0745739,0 -0.13849432,0.042614 -0.17045455,0.2130682 L 0.60754972,-0.8725 c -0.0213068,0.0958807 -0.0213068,0.1171875 -0.0213068,0.15980114 0,0.24502841 1.24644888,0.68181818 1.29971588,0.703125 0.7990057,0.24502841 1.4488636,0.27698863 1.7578125,0.27698863 1.8004261,0 2.9190341,-0.79900568 2.9190341,-2.65269887 0,-1.3423295 -0.990767,-2.34375 -2.1839489,-2.6207386 z m 6.9220526,1.5553978 h 3.142756 c 0.372869,0 0.575284,-0.085227 0.575284,-0.5646307 0,-0.4367898 -0.159801,-0.5539773 -0.575284,-0.5539773 h -3.142756 v -2.2159091 h 0.585937 c 0.9375,0 1.875,0.03196 2.8125,0.03196 0.415483,0 0.692472,0 0.692472,-0.5646307 v -0.095881 c 0,-0.3835227 -0.08523,-0.5752841 -0.575284,-0.5752841 H 8.9678125 c -0.4261364,0 -0.5752841,0.1278409 -0.5752841,0.5752841 v 7.10582385 c 0,0.43678978 0.1278409,0.5752841 0.5752841,0.5752841 h 4.8792615 c 0.447443,0 0.575284,-0.15980114 0.575284,-0.5752841 v -0.17045454 c 0,-0.56463071 -0.276989,-0.56463071 -0.671165,-0.56463071 -0.628551,0 -1.235795,0.021307 -1.853693,0.021307 -0.298295,0 -1.534091,0.010654 -1.747159,0.021307 z m 11.463068,-0.1917614 c -0.255682,0.6072443 -0.692472,1.7151989 -0.788352,2.1306818 h -0.01065 C 20.697216,-2.2148295 20.207159,-3.397358 19.962131,-4.0259091 L 18.42804,-7.8078693 c -0.202415,-0.4900568 -0.585938,-0.4900568 -0.799006,-0.4900568 h -0.990767 c -0.426136,0 -0.575284,0.1384943 -0.575284,0.5752841 v 7.14843745 c 0,0.43678978 0.127841,0.5752841 0.575284,0.5752841 h 0.319602 c 0.458097,0 0.575284,-0.15980114 0.575284,-0.5752841 V -6.7531818 h 0.01065 c 0.138494,0.5433238 0.671165,1.8643466 0.958807,2.5674716 l 1.384943,3.40909088 c 0.213068,0.51136364 0.50071,0.51136364 0.90554,0.51136364 0.415483,0 0.692471,0 0.916193,-0.51136364 L 23.232727,-4.5266193 C 23.360568,-4.8142614 23.999773,-6.444233 24.085,-6.7531818 h 0.01065 v 6.17897725 c 0,0.38352273 0.08523,0.5752841 0.575284,0.5752841 h 0.319603 c 0.458096,0 0.575284,-0.15980114 0.575284,-0.5752841 V -7.722642 c 0,-0.3835228 -0.08523,-0.5752841 -0.575284,-0.5752841 h -1.001421 c -0.298295,0 -0.596591,0.03196 -0.799005,0.522017 z m 9.785156,2.2265625 c 0,-0.6711648 -0.351562,-1.0866477 -0.575284,-1.2784091 -0.46875,-0.4367898 -0.894886,-0.5007102 -1.395596,-0.5965909 -0.660512,-0.1278409 -1.129262,-0.2237216 -1.129262,-0.6818182 0,-0.4900568 0.394176,-0.5859375 0.852273,-0.5859375 0.809659,0 1.235795,0.2982955 1.544744,0.5539773 0.117188,0.1278409 0.149148,0.1278409 0.191762,0.1278409 0.117187,0 0.149147,-0.1065341 0.159801,-0.1598011 0.02131,-0.095881 0.138494,-0.7670455 0.138494,-0.8203125 0,-0.1917614 -0.628551,-0.3622159 -0.767045,-0.4048296 -0.479404,-0.1384943 -0.852273,-0.1491477 -1.171875,-0.1491477 -0.532671,0 -2.130682,0 -2.130682,1.7045455 0,0.5859375 0.255682,0.9481534 0.575284,1.2357954 0.426136,0.3835227 0.894886,0.46875 1.566051,0.5965909 0.351563,0.063921 0.958807,0.1704546 0.958807,0.6924716 0,0.56463069 -0.46875,0.64985796 -0.926847,0.64985796 -0.53267,0 -1.193181,-0.15980113 -1.757812,-0.83096586 -0.06392,-0.053267 -0.09588,-0.095881 -0.170455,-0.095881 -0.117187,0 -0.138494,0.1171875 -0.159801,0.1811079 -0.02131,0.1704546 -0.159801,0.85227275 -0.159801,0.96946025 0,0.21306819 0.884233,0.49005682 0.894886,0.50071023 0.660512,0.20241477 1.150569,0.20241477 1.352983,0.20241477 0.607245,0 2.109375,-0.04261363 2.109375,-1.81107925 z M 44.69402,-5.1338636 c -0.04261,-0.3409091 -0.255682,-0.3409091 -0.628551,-0.3409091 -0.553978,0 -0.703125,0.03196 -0.87358,0.6605113 -0.255682,0.9161932 -0.788352,2.7805398 -0.958807,3.462358 l -1.022727,-3.5795455 c -0.07457,-0.2663352 -0.149148,-0.5433238 -0.703125,-0.5433238 -0.181108,0 -0.458096,0 -0.617898,0.2769886 -0.106534,0.181108 -0.639204,2.2478693 -1.054687,3.6434659 L 37.875838,-4.9314489 C 37.758651,-5.3469318 37.63081,-5.4747727 37.140753,-5.4747727 h -0.245029 c -0.223721,0 -0.479403,0 -0.511363,0.3409091 l 1.267755,4.58096587 c 0.149148,0.55397728 0.46875,0.55397728 0.767046,0.55397728 h 0.330256 c 0.56463,0 0.660511,-0.18110796 0.788352,-0.66051137 0.276989,-0.99076708 0.703125,-2.49289768 0.756392,-3.12144888 l 0.01065,-0.010653 c 0.07457,0.6818182 0.596591,2.578125 0.756392,3.13210228 0.127841,0.43678977 0.191762,0.66051137 0.788353,0.66051137 h 0.809659 c 0.511363,0 0.628551,-0.13849432 0.756392,-0.55397728 z m 1.515447,-3.1747159 c -0.372869,0 -0.56463,0.074574 -0.56463,0.5539772 v 0.5433239 c 0,0.3835227 0.117187,0.5433239 0.553977,0.5433239 h 0.628551 c 0.575284,0 0.575284,-0.2556819 0.575284,-0.8096591 0,-0.5752841 0,-0.8309659 -0.575284,-0.8309659 z m 1.107955,3.4090909 c 0,-0.3835228 -0.08523,-0.5752841 -0.575284,-0.5752841 h -0.447443 c -0.426137,0 -0.575284,0.1278409 -0.575284,0.5752841 v 4.32528405 c 0,0.43678978 0.138494,0.5752841 0.575284,0.5752841 h 0.447443 c 0.447443,0 0.575284,-0.15980114 0.575284,-0.5752841 z m 3.34517,0.287642 h 1.054688 c 0.149148,0 0.575284,0 0.575284,-0.4261364 0,-0.4367897 -0.426136,-0.4367897 -0.575284,-0.4367897 h -1.054688 v -0.9907671 c 0,-0.3835227 -0.08523,-0.5752841 -0.575284,-0.5752841 h -0.372869 c -0.426136,0 -0.575284,0.1278409 -0.575284,0.5752841 v 0.9907671 h -0.276989 c -0.127841,0 -0.575284,0 -0.575284,0.4367897 0,0.4261364 0.43679,0.4261364 0.575284,0.4261364 h 0.245029 v 3.0255682 c 0,1.20383522 0.426136,1.71519885 1.257102,1.71519885 0.106534,0 0.628551,0 1.246449,-0.19176136 0.202415,-0.05326704 0.90554,-0.26633523 0.90554,-0.50071023 0,-0.0319602 -0.03196,-0.1171875 -0.09588,-0.37286931 -0.06392,-0.23437505 -0.08523,-0.30894885 -0.191762,-0.30894885 -0.06392,0 -0.07457,0.010653 -0.149147,0.085227 -0.127841,0.095881 -0.458097,0.36221586 -0.958807,0.36221586 -0.287642,0 -0.458097,-0.20241476 -0.458097,-0.99076706 z m 8.197799,0.7244318 c 0,-1.225142 -0.522017,-1.7151988 -1.747159,-1.7151988 -1.193182,0 -1.74716,0.8203125 -1.906961,1.1612216 h -0.01065 v -3.28125 c 0,-0.3835228 -0.08523,-0.5752841 -0.575284,-0.5752841 h -0.447443 c -0.426137,0 -0.575284,0.1384943 -0.575284,0.5752841 v 7.14843745 c 0,0.43678978 0.138494,0.5752841 0.575284,0.5752841 h 0.479403 c 0.458097,0 0.575284,-0.15980114 0.575284,-0.5752841 V -3.21625 c 0,-1.0333807 0.692472,-1.5234375 1.310369,-1.5234375 0.575285,0 0.692472,0.2663352 0.692472,0.884233 v 3.28124995 c 0,0.38352273 0.08523,0.5752841 0.575284,0.5752841 h 0.479404 c 0.458096,0 0.575284,-0.15980114 0.575284,-0.5752841 z m 7.430752,-3.8352272 c 0,-0.3835228 -0.08523,-0.5752841 -0.575284,-0.5752841 h -0.447443 c -0.426136,0 -0.575284,0.1384943 -0.575284,0.5752841 v 7.14843745 c 0,0.43678978 0.138494,0.5752841 0.575284,0.5752841 h 0.447443 c 0.447444,0 0.575284,-0.15980114 0.575284,-0.5752841 z m 6.282848,3.9417613 c 0,-1.8856534 -1.821732,-1.8963068 -2.418323,-1.8963068 -0.564631,0 -1.161222,0.053267 -1.960228,0.3835227 -0.255681,0.1065341 -0.308949,0.1384943 -0.308949,0.2769887 0,0.085227 0.07457,0.7776988 0.08523,0.8735795 0.01065,0.063921 0.06392,0.1278409 0.149147,0.1278409 0.06392,0 0.09588,-0.03196 0.138495,-0.074574 0.511363,-0.5326705 1.107954,-0.7990057 1.84304,-0.7990057 0.649858,0 0.841619,0.3941761 0.841619,1.0973011 v 0.4261364 c -0.415483,0 -3.547585,0.021307 -3.547585,1.7791193 0,0.8309659 0.671164,1.71519885 1.715199,1.71519885 0.404829,0 1.310369,-0.1171875 1.864346,-0.9375 v 0.234375 c 0,0.38352273 0.08523,0.5752841 0.575284,0.5752841 h 0.447443 c 0.447444,0 0.575284,-0.15980114 0.575284,-0.5752841 z m -1.629971,1.9389205 c 0,1.11860793 -1.139915,1.11860793 -1.171875,1.11860793 -0.50071,0 -0.820313,-0.43678973 -0.820313,-0.88423293 0,-1.171875 1.661932,-1.2571023 1.992188,-1.2677557 z m 7.947443,-3.0681818 c 0.06392,-0.1704546 0.06392,-0.1917614 0.06392,-0.2237216 0,-0.3409091 -0.298296,-0.3409091 -0.479404,-0.3409091 h -0.255682 c -0.50071,0 -0.628551,0.1811079 -0.735085,0.5113636 l -1.182528,3.6115057 -1.182529,-3.6115057 c -0.08523,-0.2450284 -0.170454,-0.5113636 -0.745738,-0.5113636 h -0.287642 c -0.181108,0 -0.479404,0 -0.479404,0.3409091 0,0.03196 0,0.053267 0.06392,0.2237216 l 1.416903,4.41051132 c 0.170455,0.50071023 0.543324,0.50071023 0.756392,0.50071023 h 0.87358 c 0.213068,0 0.585937,0 0.756392,-0.50071023 z m 5.936612,1.1292613 c 0,-1.8856534 -1.821733,-1.8963068 -2.418324,-1.8963068 -0.56463,0 -1.161221,0.053267 -1.960227,0.3835227 -0.255682,0.1065341 -0.308949,0.1384943 -0.308949,0.2769887 0,0.085227 0.07457,0.7776988 0.08523,0.8735795 0.01065,0.063921 0.06392,0.1278409 0.149147,0.1278409 0.06392,0 0.09588,-0.03196 0.138495,-0.074574 0.511363,-0.5326705 1.107954,-0.7990057 1.843039,-0.7990057 0.649858,0 0.84162,0.3941761 0.84162,1.0973011 v 0.4261364 c -0.415483,0 -3.547586,0.021307 -3.547586,1.7791193 0,0.8309659 0.671165,1.71519885 1.715199,1.71519885 0.40483,0 1.31037,-0.1171875 1.864347,-0.9375 v 0.234375 c 0,0.38352273 0.08523,0.5752841 0.575284,0.5752841 h 0.447443 c 0.447443,0 0.575284,-0.15980114 0.575284,-0.5752841 z m -1.629971,1.9389205 c 0,1.11860793 -1.139915,1.11860793 -1.171875,1.11860793 -0.500711,0 -0.820313,-0.43678973 -0.820313,-0.88423293 0,-1.171875 1.661932,-1.2571023 1.992188,-1.2677557 z m 7.904829,-1.9389205 c 0,-1.8856534 -1.821733,-1.8963068 -2.418324,-1.8963068 -0.56463,0 -1.161221,0.053267 -1.960227,0.3835227 -0.255682,0.1065341 -0.308949,0.1384943 -0.308949,0.2769887 0,0.085227 0.07457,0.7776988 0.08523,0.8735795 0.01065,0.063921 0.06392,0.1278409 0.149147,0.1278409 0.06392,0 0.09588,-0.03196 0.138495,-0.074574 0.511363,-0.5326705 1.107954,-0.7990057 1.843039,-0.7990057 0.649858,0 0.84162,0.3941761 0.84162,1.0973011 v 0.4261364 c -0.415483,0 -3.547586,0.021307 -3.547586,1.7791193 0,0.8309659 0.671165,1.71519885 1.715199,1.71519885 0.40483,0 1.31037,-0.1171875 1.864347,-0.9375 v 0.234375 c 0,0.38352273 0.08523,0.5752841 0.575284,0.5752841 h 0.447443 c 0.447443,0 0.575284,-0.15980114 0.575284,-0.5752841 z m -1.629971,1.9389205 c 0,1.11860793 -1.139915,1.11860793 -1.171875,1.11860793 -0.500711,0 -0.820313,-0.43678973 -0.820313,-0.88423293 0,-1.171875 1.661932,-1.2571023 1.992188,-1.2677557 z m 8.333629,-2.0454546 c 0,-1.225142 -0.522017,-1.7151988 -1.747159,-1.7151988 -1.257102,0 -1.789773,0.9055397 -1.949574,1.225142 h -0.01065 v -0.5965909 c 0,-0.3835227 -0.08523,-0.5752841 -0.575285,-0.5752841 h -0.404829 c -0.426136,0 -0.575284,0.1384943 -0.575284,0.5752841 v 4.39985795 c 0,0.43678978 0.138494,0.5752841 0.575284,0.5752841 h 0.479403 c 0.458097,0 0.575284,-0.15980114 0.575284,-0.5752841 V -3.21625 c 0,-1.0333807 0.692472,-1.5234375 1.31037,-1.5234375 0.575284,0 0.692471,0.2663352 0.692471,0.884233 v 3.28124995 c 0,0.38352273 0.08523,0.5752841 0.575284,0.5752841 h 0.479404 c 0.458096,0 0.575284,-0.15980114 0.575284,-0.5752841 z m 0,0"
       style="fill:#ffffff;fill-opacity:1;fill-rule:nonzero;stroke:none"
       aria-label="SEMswithlavaan"
       transform="matrix(1.4666667,0,0,1.4666667,485.92533,171.65467)" />
    <path
       id="path23"
       d="m 8.1395497,-6.7340966 0.042614,-0.021307 c 3.2279823,-1.118608 3.2492893,-3.3558234 3.2492893,-3.7499994 0,-1.960228 -1.9815337,-3.835228 -4.9644882,-3.835228 H 1.8433849 V -0.00114205 H 3.537277 V -6.5529886 h 3.0362216 l 3.6541194,6.55184655 h 1.736506 z M 3.537277,-7.8100909 v -5.3799721 h 2.7059659 c 2.6207386,0 3.5582386,1.491478 3.5582386,2.68466 0,1.1186075 -0.8309659,2.6953121 -3.5582386,2.6953121 z m 17.077415,3.28125 c 0,-0.6818182 -0.04261,-2.0028409 -0.703125,-3.1001421 -0.724432,-1.171875 -1.90696,-1.5021306 -2.791193,-1.5021306 -2.151989,0 -3.973722,2.0241477 -3.973722,4.6448863 0,2.5674716 1.885653,4.6555398 4.261364,4.6555398 0.926846,0 2.066761,-0.27698864 3.100142,-1.02272727 0,-0.0745739 -0.04261,-0.53267043 -0.06392,-0.55397723 0,-0.042614 -0.06392,-0.6818182 -0.06392,-0.7670455 -0.990767,0.8096591 -2.130682,1.0759943 -2.950995,1.0759943 -1.321022,0 -2.748579,-1.1186079 -2.8125,-3.4303977 z m -5.838068,-1.1399148 c 0.276988,-1.1292613 1.182528,-2.2052557 2.34375,-2.2052557 0.308948,0 1.757812,0.042614 2.130681,2.2052557 z m 9.508167,4.74076706 c 0.681818,0.66051137 1.608665,1.09730114 2.599432,1.09730114 1.928267,0 3.579545,-1.9921875 3.579545,-4.634233 0,-2.4396306 -1.235795,-4.5916193 -3.014914,-4.5916193 -1.033381,0 -2.27983,0.3728693 -3.206676,1.118608 V -8.8860852 H 22.71874 V 4.0258466 h 1.566051 z m 0,-5.79545456 c 0.159801,-0.2450284 0.862926,-1.0333807 2.002841,-1.0333807 1.448864,0 2.610085,1.4914773 2.610085,3.2919034 0,2.0454546 -1.40625,3.3664773 -2.791193,3.3664773 -0.415483,0 -0.852273,-0.1065341 -1.267756,-0.4580966 -0.553977,-0.4900568 -0.553977,-0.7990057 -0.553977,-1.0866477 z M 33.705068,-4.401 c 0,-1.9495739 1.427557,-3.2492898 3.24929,-3.2919034 v -1.3636364 c -1.331676,0.021307 -2.567472,0.6818182 -3.31321,1.7578125 v -1.6512784 h -1.459517 v 8.94886365 h 1.523437 z m 12.669567,-0.021307 c 0,-2.6420455 -1.960227,-4.7088068 -4.272017,-4.7088068 -2.37571,0 -4.303977,2.1200284 -4.303977,4.7088068 0,2.6207386 1.992187,4.5916193 4.28267,4.5916193 2.354403,0 4.293324,-2.0348011 4.293324,-4.5916193 z m -4.272017,3.28125 c -1.470171,0 -2.727273,-1.1931818 -2.727273,-3.4517046 0,-2.397017 1.470171,-3.28125 2.705966,-3.28125 1.34233,0 2.727273,0.9694603 2.727273,3.28125 0,2.34375 -1.34233,3.4517046 -2.705966,3.4517046 z m 13.830788,-13.199574 h -1.534091 v 6.3174719 c -0.639204,-0.5326704 -1.693892,-1.0333807 -2.855113,-1.0333807 -1.875,0 -3.366478,2.0454546 -3.366478,4.6129262 0,2.5568181 1.470171,4.6129261 3.302557,4.6129261 1.427557,0 2.386364,-0.76704545 2.876421,-1.2038352 v 1.03338065 h 1.576704 z m -1.576704,11.5696026 c 0,0.287642 0,0.5965909 -0.639205,1.1612216 -0.415483,0.3515625 -0.90554,0.5113636 -1.384943,0.5113636 -1.118608,0 -2.588778,-0.8203125 -2.588778,-3.3238636 0,-2.6100852 1.661931,-3.3664773 2.791193,-3.3664773 0.767045,0 1.384943,0.3728693 1.821733,0.9907671 z m 11.588245,-6.1150568 h -1.566051 v 5.6995738 c 0,1.5340909 -1.118608,2.1519887 -2.290483,2.1519887 -1.363636,0 -1.491477,-0.4580966 -1.491477,-1.2997159 v -6.5518466 h -1.566051 v 6.6477272 c 0,1.61931823 0.553977,2.4076705 1.981534,2.4076705 0.703125,0 2.290483,-0.17045455 3.409091,-1.2038352 v 1.03338065 h 1.523437 z m 9.508168,0.6392045 c 0,-0.1491477 -0.948153,-0.5539773 -1.203835,-0.6392045 -0.681818,-0.2450284 -1.544744,-0.2450284 -1.768466,-0.2450284 -2.695313,0 -4.303977,2.3330966 -4.303977,4.6875 0,2.4822443 1.800426,4.6129261 4.21875,4.6129261 1.384943,0 2.37571,-0.45809659 3.185369,-1.00142045 L 75.453115,-2.1957443 c -0.894886,0.6818182 -1.928267,1.0546875 -3.036222,1.0546875 -1.619318,0 -2.674005,-1.40625 -2.674005,-3.3238637 0,-1.4914772 0.681818,-3.3664772 2.748579,-3.3664772 1.139915,0 1.77912,0.2237216 2.737926,0.8629261 z m 3.840554,-5.3586643 h -1.736506 v 1.736505 h 1.736506 z m -0.106534,4.7194598 h -1.523438 v 8.88494315 h 1.523438 z m 9.990234,2.8551136 c 0,-1.3103693 -0.308949,-3.0255682 -2.642045,-3.0255682 -1.321023,0 -2.183949,0.6818182 -2.769887,1.3849432 v -1.2784091 h -1.50213 v 8.94886365 h 1.566051 V -4.9975909 c 0,-1.3103693 0.50071,-2.7911932 1.896307,-2.7911932 1.821733,0 1.885653,1.2144886 1.885653,1.9176136 v 5.87002845 h 1.566051 z m 10.743963,-3.0255682 c -1.171875,0.021307 -2.183948,0.2556818 -3.014914,0.6392046 -0.681819,-0.5326705 -1.384944,-0.6392046 -1.864347,-0.6392046 -1.789773,0 -3.153409,1.4914773 -3.153409,3.227983 0,1.1186079 0.617898,1.9602273 0.660511,2.0028409 -0.372869,0.522017 -0.585937,1.0759943 -0.585937,1.693892 0,0.7244319 0.298295,1.2464489 0.522017,1.53409095 -1.075994,0.66051136 -1.225142,1.67258525 -1.225142,2.06676135 0,1.5021307 1.885653,2.7485796 4.303977,2.7485796 2.439631,0 4.314631,-1.2464489 4.314631,-2.7698864 0,-2.8551136 -3.153409,-2.8764205 -4.026989,-2.8764205 h -1.672585 c -0.308949,0 -1.139915,0 -1.139915,-1.0546875 0,-0.4154829 0.191761,-0.6818181 0.213068,-0.703125 0.308949,0.234375 0.948154,0.5859375 1.789773,0.5859375 1.715199,0 3.142756,-1.4488636 3.142756,-3.2279829 0,-0.9907671 -0.447443,-1.7151989 -0.639205,-1.9602273 h 0.06392 c 0.06392,0 0.926846,-0.06392 1.235795,-0.06392 0.671165,0 0.724432,0.021307 1.310373,0.085227 z m -4.879261,5.3160512 c -0.692472,0 -1.693892,-0.4367898 -1.693892,-2.0880682 0,-1.8004262 1.139915,-2.0880682 1.683239,-2.0880682 0.692471,0 1.693892,0.4367898 1.693892,2.0880682 0,1.8004261 -1.139915,2.0880682 -1.683239,2.0880682 z m 0.788352,3.82457383 c 0.500711,0 2.588779,0 2.588779,1.40624997 0,0.884233 -1.289063,1.587358 -2.833807,1.587358 -1.576705,0 -2.855114,-0.6818182 -2.855114,-1.6086648 0,-0.1065341 0,-1.38494317 1.427557,-1.38494317 z m 14.200997,-1.01207387 c 0.68182,0.66051137 1.60866,1.09730114 2.59943,1.09730114 1.92827,0 3.57954,-1.9921875 3.57954,-4.634233 0,-2.4396306 -1.23579,-4.5916193 -3.01491,-4.5916193 -1.03338,0 -2.27983,0.3728693 -3.20668,1.118608 v -0.9481534 h -1.52343 V 4.0258466 h 1.56605 z m 0,-5.79545456 c 0.1598,-0.2450284 0.86292,-1.0333807 2.00284,-1.0333807 1.44886,0 2.61008,1.4914773 2.61008,3.2919034 0,2.0454546 -1.40625,3.3664773 -2.79119,3.3664773 -0.41548,0 -0.85227,-0.1065341 -1.26776,-0.4580966 -0.55397,-0.4900568 -0.55397,-0.7990057 -0.55397,-1.0866477 z m 15.32493,-2.162642 h -1.56605 v 5.6995738 c 0,1.5340909 -1.11861,2.1519887 -2.29049,2.1519887 -1.36363,0 -1.49147,-0.4580966 -1.49147,-1.2997159 v -6.5518466 h -1.56606 v 6.6477272 c 0,1.61931823 0.55398,2.4076705 1.98154,2.4076705 0.70312,0 2.29048,-0.17045455 3.40909,-1.2038352 v 1.03338065 h 1.52344 z m 4.6289,-5.4545458 h -1.52343 v 14.33948895 h 1.56605 v -0.92684659 c 0.78835,0.75639205 1.7365,1.09730114 2.57812,1.09730114 1.99219,0 3.60085,-2.0134943 3.60085,-4.634233 0,-2.397017 -1.23579,-4.5916193 -3.07883,-4.5916193 -1.29972,0 -2.46094,0.5433239 -3.14276,1.0973012 z m 0.0426,7.6065344 c 0.45809,-0.5859375 1.0973,-1.0546875 2.00284,-1.0546875 1.22514,0 2.61008,0.884233 2.61008,3.3238636 0,2.5994319 -1.66193,3.3664773 -2.79119,3.3664773 -0.41548,0 -0.85227,-0.1065341 -1.26776,-0.4580966 -0.55397,-0.4900568 -0.55397,-0.7990057 -0.55397,-1.0866477 z m 9.9343,-7.6065344 h -1.52344 v 14.33948895 h 1.52344 z m 4.70614,0.735086 h -1.7365 v 1.736505 h 1.7365 z m -0.10653,4.7194598 h -1.52344 v 8.88494315 h 1.52344 z m 8.20046,0.3728693 c -1.22514,-0.5859375 -2.17329,-0.6178977 -2.79119,-0.6178977 -1.47017,0 -3.22798,0.5113636 -3.22798,2.5994318 0,2.0880682 2.27982,2.5461648 2.89772,2.6633523 0.94816,0.1917613 2.00284,0.3941761 2.00284,1.4275568 0,1.2997159 -1.49147,1.2997159 -1.75781,1.2997159 -0.83096,0 -1.96023,-0.2237216 -2.99361,-0.9694602 l -0.25568,1.38494314 c 1.18253,0.68181818 2.32244,0.89488636 3.2706,0.89488636 2.54616,0 3.18537,-1.5553977 3.18537,-2.7379261 0,-1.0120739 -0.58594,-1.6938921 -0.96946,-2.0028409 -0.68182,-0.5326705 -0.9375,-0.596591 -2.6314,-0.9481535 -0.28764,-0.042614 -1.29971,-0.2663352 -1.29971,-1.2038352 0,-1.171875 1.29971,-1.171875 1.58736,-1.171875 1.34233,0 2.17329,0.415483 2.72727,0.7244318 z m 9.23917,2.4822443 c 0,-1.3103693 -0.30895,-3.0255682 -2.64204,-3.0255682 -1.29972,0 -2.15199,0.6392046 -2.74858,1.3423296 v -6.6264208 h -1.52344 v 14.33948895 h 1.56605 V -4.9975909 c 0,-1.3103693 0.50071,-2.7911932 1.89631,-2.7911932 1.82173,0 1.88565,1.2144886 1.88565,1.9176136 v 5.87002845 h 1.56605 z m 9.63601,1.5021307 c 0,-0.6818182 -0.0426,-2.0028409 -0.70313,-3.1001421 -0.72443,-1.171875 -1.90696,-1.5021306 -2.79119,-1.5021306 -2.15199,0 -3.97372,2.0241477 -3.97372,4.6448863 0,2.5674716 1.88565,4.6555398 4.26136,4.6555398 0.92685,0 2.06676,-0.27698864 3.10014,-1.02272727 0,-0.0745739 -0.0426,-0.53267043 -0.0639,-0.55397723 0,-0.042614 -0.0639,-0.6818182 -0.0639,-0.7670455 -0.99076,0.8096591 -2.13068,1.0759943 -2.95099,1.0759943 -1.32102,0 -2.74858,-1.1186079 -2.8125,-3.4303977 z m -5.83807,-1.1399148 c 0.27699,-1.1292613 1.18253,-2.2052557 2.34375,-2.2052557 0.30895,0 1.75781,0.042614 2.13068,2.2052557 z m 14.82422,-8.6718753 h -1.53409 v 6.3174719 c -0.63921,-0.5326704 -1.69389,-1.0333807 -2.85511,-1.0333807 -1.875,0 -3.36648,2.0454546 -3.36648,4.6129262 0,2.5568181 1.47017,4.6129261 3.30255,4.6129261 1.42756,0 2.38637,-0.76704545 2.87643,-1.2038352 v 1.03338065 h 1.5767 z m -1.5767,11.5696026 c 0,0.287642 0,0.5965909 -0.63921,1.1612216 -0.41548,0.3515625 -0.90554,0.5113636 -1.38494,0.5113636 -1.11861,0 -2.58878,-0.8203125 -2.58878,-3.3238636 0,-2.6100852 1.66193,-3.3664773 2.79119,-3.3664773 0.76705,0 1.38495,0.3728693 1.82174,0.9907671 z M -11.707751,11.248858 c -0.916194,-0.543324 -1.906961,-1.012074 -3.579546,-1.012074 -2.663352,0 -4.378551,1.960227 -4.378551,3.963068 0,0.788353 0.223722,1.672585 1.033381,2.588779 0.809659,0.905539 1.715199,1.150568 2.87642,1.43821 0.46875,0.127841 1.278409,0.351562 1.416904,0.415483 1.161221,0.458096 1.715198,1.512784 1.715198,2.503551 0,1.299716 -1.012073,2.684659 -2.801846,2.684659 -0.628551,0 -2.439631,-0.106534 -4.15483,-1.672585 l -0.298295,1.629971 c 1.704545,1.246449 3.536932,1.448864 4.474432,1.448864 2.535511,0 4.357244,-2.002841 4.357244,-4.28267 0,-0.820313 -0.245028,-1.875 -1.118608,-2.844461 -0.841619,-0.9375 -1.587358,-1.139914 -3.28125,-1.598011 -0.980114,-0.245028 -1.598011,-0.40483 -2.109375,-1.054687 -0.351563,-0.447444 -0.543324,-0.884233 -0.543324,-1.438211 0,-1.161221 0.990767,-2.418324 2.8125,-2.418324 0.916193,0 2.088068,0.181108 3.291904,1.299716 z m 5.2095166,5.965909 h 2.6846591 V 16.021585 H -6.4982344 V 13.47542 h -1.4701704 v 2.546165 h -1.6299716 v 1.193182 h 1.5873579 v 5.230824 c 0,1.182528 0.2769887,2.631392 1.640625,2.631392 1.0333807,0 1.9815341,-0.298296 2.8870739,-0.767046 l -0.3302557,-1.225142 c -0.4900568,0.43679 -1.0973011,0.681819 -1.7365057,0.681819 -0.9055397,0 -0.9481534,-1.150569 -0.9481534,-1.672586 z m 6.64506395,3.291903 c 0,-1.949573 1.42755685,-3.249289 3.24928975,-3.291903 v -1.363636 c -1.3316761,0.02131 -2.56747157,0.681818 -3.31321021,1.757812 V 15.957665 H -1.376608 v 8.948863 H 0.14682955 Z M 12.134578,16.021585 h -1.566051 v 5.699574 c 0,1.534091 -1.118608,2.151989 -2.290483,2.151989 -1.3636363,0 -1.4914772,-0.458097 -1.4914772,-1.299716 V 16.021585 H 5.2205156 v 6.647727 c 0,1.619319 0.5539773,2.407671 1.9815341,2.407671 0.703125,0 2.290483,-0.170455 3.4090913,-1.203835 v 1.03338 h 1.523437 z m 9.508168,0.639205 c 0,-0.149148 -0.948154,-0.553978 -1.203835,-0.639205 -0.681819,-0.245028 -1.544745,-0.245028 -1.768466,-0.245028 -2.695313,0 -4.303978,2.333096 -4.303978,4.6875 0,2.482244 1.800426,4.612926 4.21875,4.612926 1.384944,0 2.375711,-0.458097 3.18537,-1.001421 l -0.127841,-1.363636 c -0.894887,0.681818 -1.928267,1.054688 -3.036222,1.054688 -1.619318,0 -2.674006,-1.40625 -2.674006,-3.323864 0,-1.491477 0.681819,-3.366477 2.74858,-3.366477 1.139915,0 1.779119,0.223721 2.737926,0.862926 z m 4.128196,0.553977 h 2.684659 V 16.021585 H 25.770942 V 13.47542 h -1.470171 v 2.546165 H 22.6708 v 1.193182 h 1.587358 v 5.230824 c 0,1.182528 0.276988,2.631392 1.640625,2.631392 1.03338,0 1.981534,-0.298296 2.887074,-0.767046 l -0.330256,-1.225142 c -0.490057,0.43679 -1.097301,0.681819 -1.736506,0.681819 -0.90554,0 -0.948153,-1.150569 -0.948153,-1.672586 z m 12.014382,-1.193182 h -1.566051 v 5.699574 c 0,1.534091 -1.118608,2.151989 -2.290483,2.151989 -1.363637,0 -1.491478,-0.458097 -1.491478,-1.299716 v -6.551847 h -1.566051 v 6.647727 c 0,1.619319 0.553978,2.407671 1.981534,2.407671 0.703125,0 2.290483,-0.170455 3.409091,-1.203835 v 1.03338 h 1.523438 z m 4.628906,4.485085 c 0,-1.949573 1.427557,-3.249289 3.24929,-3.291903 v -1.363636 c -1.331676,0.02131 -2.567472,0.681818 -3.31321,1.757812 v -1.651278 h -1.459517 v 8.948863 h 1.523437 z m 11.305931,-1.448863 c 0,-1.938921 -1.384944,-3.28125 -3.238637,-3.28125 -0.90554,0 -1.90696,0.159801 -3.036221,0.820312 l 0.117187,1.363637 c 0.522017,-0.37287 1.40625,-0.969461 2.897727,-0.969461 1.054688,0 1.693892,0.80966 1.693892,2.088069 v 0.788352 c -3.302556,0.09588 -5.369318,1.054687 -5.369318,2.684659 0,0.841619 0.511364,2.524858 2.226563,2.524858 0.308949,0 1.981534,-0.04261 3.185369,-0.9375 v 0.767045 h 1.523438 z m -1.566052,3.121449 c 0,0.372869 0,0.862926 -0.617897,1.235795 -0.543324,0.351563 -1.225142,0.394176 -1.512784,0.394176 -1.033381,0 -1.736506,-0.575284 -1.736506,-1.299716 0,-1.448863 3.227983,-1.587358 3.867187,-1.608664 z M 58.32776,10.56704 h -1.523438 v 14.339488 h 1.523438 z m 14.336825,12.933238 c -1.661932,0 -2.397017,0 -2.769886,0.02131 v -5.411932 h 6.402699 v -1.267755 h -6.402699 v -4.911222 h 2.663352 c 0.245029,0 0.50071,0.02131 0.745739,0.02131 h 3.536932 v -1.34233 h -8.682529 v 14.296875 h 8.948864 v -1.427556 z m 13.702948,-7.649147 h -1.534091 v 1.267755 c -0.08523,-0.106534 -1.033381,-1.267755 -2.642046,-1.267755 -1.885653,0 -3.579545,1.928267 -3.579545,4.634233 0,2.503551 1.427557,4.591619 3.28125,4.591619 0.873579,0 1.970881,-0.319602 2.897727,-1.203835 v 5.060369 h 1.576705 z m -1.534091,6.221591 c 0,0.266335 0,0.639204 -0.639205,1.182528 -0.170454,0.138494 -0.617898,0.553977 -1.40625,0.553977 -1.47017,0 -2.610085,-1.523437 -2.610085,-3.323863 0,-2.002841 1.384943,-3.334517 2.791193,-3.334517 1.182529,0 1.864347,1.161221 1.864347,2.034801 z m 11.542969,-6.051137 h -1.566052 v 5.699574 c 0,1.534091 -1.118608,2.151989 -2.290483,2.151989 -1.363636,0 -1.491477,-0.458097 -1.491477,-1.299716 v -6.551847 h -1.566051 v 6.647727 c 0,1.619319 0.553977,2.407671 1.981534,2.407671 0.703125,0 2.290483,-0.170455 3.409091,-1.203835 v 1.03338 h 1.523438 z m 9.316409,3.036222 c 0,-1.938921 -1.38495,-3.28125 -3.23864,-3.28125 -0.90554,0 -1.90696,0.159801 -3.036221,0.820312 l 0.117187,1.363637 c 0.522014,-0.37287 1.406254,-0.969461 2.897724,-0.969461 1.05469,0 1.6939,0.80966 1.6939,2.088069 v 0.788352 c -3.30256,0.09588 -5.369323,1.054687 -5.369323,2.684659 0,0.841619 0.511364,2.524858 2.226563,2.524858 0.30895,0 1.98153,-0.04261 3.18537,-0.9375 v 0.767045 h 1.52344 z m -1.56605,3.121449 c 0,0.372869 0,0.862926 -0.6179,1.235795 -0.54333,0.351563 -1.22514,0.394176 -1.51279,0.394176 -1.03338,0 -1.7365,-0.575284 -1.7365,-1.299716 0,-1.448863 3.22798,-1.587358 3.86719,-1.608664 z m 6.56782,-4.964489 h 2.68466 v -1.193182 h -2.68466 V 13.47542 h -1.47017 v 2.546165 h -1.62997 v 1.193182 h 1.58736 v 5.230824 c 0,1.182528 0.27699,2.631392 1.64062,2.631392 1.03338,0 1.98154,-0.298296 2.88708,-0.767046 l -0.33026,-1.225142 c -0.49006,0.43679 -1.0973,0.681819 -1.7365,0.681819 -0.90554,0 -0.94816,-1.150569 -0.94816,-1.672586 z m 6.73029,-5.912642 h -1.7365 v 1.736506 h 1.7365 z m -0.10653,4.71946 h -1.52344 v 8.884943 h 1.52344 z m 10.66939,4.463779 c 0,-2.642046 -1.96023,-4.708807 -4.27202,-4.708807 -2.37571,0 -4.30398,2.120028 -4.30398,4.708807 0,2.620738 1.99219,4.591619 4.28267,4.591619 2.35441,0 4.29333,-2.034801 4.29333,-4.591619 z m -4.27202,3.28125 c -1.47017,0 -2.72727,-1.193182 -2.72727,-3.451705 0,-2.397017 1.47017,-3.28125 2.70596,-3.28125 1.34233,0 2.72728,0.96946 2.72728,3.28125 0,2.34375 -1.34233,3.451705 -2.70597,3.451705 z m 13.30611,-4.889915 c 0,-1.310369 -0.30895,-3.025568 -2.64205,-3.025568 -1.32102,0 -2.18394,0.681818 -2.76988,1.384943 v -1.278409 h -1.50213 v 8.948863 h 1.56605 V 19.91008 c 0,-1.31037 0.50071,-2.791194 1.8963,-2.791194 1.82174,0 1.88566,1.214489 1.88566,1.917614 v 5.870028 h 1.56605 z m 18.35316,-1.683239 -0.99077,2.919034 c -0.17045,0.532671 -0.72443,2.205256 -0.85227,2.876421 h -0.0213 c -0.0533,-0.415483 -0.1811,-0.852273 -0.51136,-1.90696 -0.18111,-0.617898 -0.39418,-1.257103 -0.59659,-1.84304 l -3.05753,-8.671875 h -2.41832 v 14.339488 h 1.60866 V 12.239625 h 0.0213 c 0,0.02131 0.18111,0.926847 1.44886,4.549006 l 2.72727,7.787642 h 1.52344 l 2.46094,-6.924716 c 0.17045,-0.479404 0.68182,-1.981534 0.91619,-2.705966 0.20242,-0.617898 0.71378,-2.151989 0.84162,-2.74858 h 0.0213 v 12.709517 h 1.62997 V 10.56704 h -2.39702 z m 15.75639,3.291904 c 0,-2.642046 -1.96023,-4.708807 -4.27201,-4.708807 -2.37572,0 -4.30398,2.120028 -4.30398,4.708807 0,2.620738 1.99219,4.591619 4.28267,4.591619 2.3544,0 4.29332,-2.034801 4.29332,-4.591619 z m -4.27201,3.28125 c -1.47018,0 -2.72728,-1.193182 -2.72728,-3.451705 0,-2.397017 1.47017,-3.28125 2.70597,-3.28125 1.34233,0 2.72727,0.96946 2.72727,3.28125 0,2.34375 -1.34233,3.451705 -2.70596,3.451705 z M 180.69015,10.56704 h -1.53409 v 6.317471 c -0.6392,-0.53267 -1.69389,-1.03338 -2.85511,-1.03338 -1.875,0 -3.36648,2.045454 -3.36648,4.612926 0,2.556818 1.47017,4.612926 3.30256,4.612926 1.42756,0 2.38636,-0.767046 2.87642,-1.203835 v 1.03338 h 1.5767 z m -1.5767,11.569602 c 0,0.287642 0,0.596591 -0.63921,1.161222 -0.41548,0.351562 -0.90554,0.511363 -1.38494,0.511363 -1.11861,0 -2.58878,-0.820312 -2.58878,-3.323863 0,-2.610086 1.66193,-3.366478 2.7912,-3.366478 0.76704,0 1.38494,0.37287 1.82173,0.990767 z m 11.22337,-1.757812 c 0,-0.681819 -0.0426,-2.002841 -0.70313,-3.100143 -0.72443,-1.171875 -1.90696,-1.50213 -2.79119,-1.50213 -2.15199,0 -3.97372,2.024148 -3.97372,4.644886 0,2.567472 1.88565,4.65554 4.26136,4.65554 0.92685,0 2.06676,-0.276989 3.10014,-1.022727 0,-0.07457 -0.0426,-0.532671 -0.0639,-0.553978 0,-0.04261 -0.0639,-0.681818 -0.0639,-0.767045 -0.99077,0.809659 -2.13068,1.075994 -2.95099,1.075994 -1.32103,0 -2.74858,-1.118608 -2.8125,-3.430397 z m -5.83807,-1.139915 c 0.27699,-1.129262 1.18253,-2.205256 2.34375,-2.205256 0.30895,0 1.75781,0.04261 2.13068,2.205256 z m 9.44424,-8.671875 h -1.52343 v 14.339488 h 1.52343 z m 8.20047,5.827415 c -1.22515,-0.585938 -2.1733,-0.617898 -2.7912,-0.617898 -1.47017,0 -3.22798,0.511363 -3.22798,2.599432 0,2.088068 2.27983,2.546164 2.89773,2.663352 0.94815,0.191761 2.00284,0.394176 2.00284,1.427557 0,1.299716 -1.49148,1.299716 -1.75781,1.299716 -0.83097,0 -1.96023,-0.223722 -2.99361,-0.969461 l -0.25568,1.384944 c 1.18252,0.681818 2.32244,0.894886 3.27059,0.894886 2.54617,0 3.18537,-1.555398 3.18537,-2.737926 0,-1.012074 -0.58594,-1.693892 -0.96946,-2.002841 -0.68182,-0.532671 -0.9375,-0.596591 -2.63139,-0.948154 -0.28764,-0.04261 -1.29972,-0.266335 -1.29972,-1.203835 0,-1.171875 1.29972,-1.171875 1.58736,-1.171875 1.34233,0 2.1733,0.415483 2.72727,0.724432 z M 57.653932,40.929256 h -1.566051 l -1.097301,3.718039 c -0.223722,0.788353 -0.862927,2.950995 -0.948154,3.963069 h -0.02131 c -0.04261,-0.617898 -0.394176,-2.098722 -0.96946,-4.069603 l -1.054687,-3.611505 h -1.427557 l -1.033381,3.536931 c -0.522017,1.789773 -0.90554,3.323864 -0.948153,4.144177 h -0.02131 c -0.08523,-1.214489 -0.9375,-4.069603 -1.054688,-4.517046 l -0.92684,-3.164062 h -1.619318 l 2.684659,8.884943 h 1.576704 c 1.075995,-3.558239 1.896307,-6.306818 1.960227,-7.691762 0.04261,0.681819 0.394177,2.151989 0.596591,2.876421 l 1.363637,4.815341 h 1.821733 z m 3.446378,-4.719461 h -1.736506 v 1.736506 h 1.736506 z m -0.106534,4.719461 h -1.523438 v 8.884943 h 1.523438 z m 4.993785,1.193181 h 2.684659 v -1.193181 h -2.684659 v -2.546165 h -1.47017 v 2.546165 h -1.629972 v 1.193181 h 1.587358 v 5.230824 c 0,1.182529 0.276989,2.631392 1.640625,2.631392 1.033381,0 1.981534,-0.298295 2.887074,-0.767045 L 68.67222,47.992466 c -0.490057,0.43679 -1.097301,0.681818 -1.736506,0.681818 -0.905539,0 -0.948153,-1.150568 -0.948153,-1.672585 z m 12.011719,1.661932 c 0,-1.310369 -0.308949,-3.025568 -2.642046,-3.025568 -1.299716,0 -2.151988,0.639205 -2.748579,1.34233 V 35.47471 h -1.523438 v 14.339489 h 1.566051 V 44.81775 c 0,-1.310369 0.500711,-2.791193 1.896307,-2.791193 1.821733,0 1.885654,1.214488 1.885654,1.917613 v 5.870029 H 77.99928 Z M 89.076162,35.47471 h -1.523438 v 14.339489 h 1.523438 z m 9.308416,8.490767 c 0,-1.93892 -1.384943,-3.28125 -3.238636,-3.28125 -0.90554,0 -1.90696,0.159801 -3.036222,0.820313 l 0.117188,1.363636 c 0.522017,-0.372869 1.40625,-0.96946 2.897727,-0.96946 1.054687,0 1.693892,0.809659 1.693892,2.088068 v 0.788352 c -3.302557,0.09588 -5.369318,1.054688 -5.369318,2.684659 0,0.84162 0.511363,2.524858 2.226562,2.524858 0.308949,0 1.981534,-0.04261 3.18537,-0.9375 v 0.767046 h 1.523437 z m -1.566051,3.121449 c 0,0.372869 0,0.862926 -0.617898,1.235796 -0.543324,0.351562 -1.225142,0.394176 -1.512784,0.394176 -1.033381,0 -1.736506,-0.575284 -1.736506,-1.299716 0,-1.448864 3.227983,-1.587358 3.867188,-1.608665 z m 11.756033,-6.15767 h -1.60866 l -1.38494,3.867187 c -0.43679,1.257102 -1.05469,2.993608 -1.16123,3.877841 h -0.0213 c -0.0426,-0.372869 -0.20242,-0.90554 -0.30895,-1.278409 -0.12784,-0.458097 -0.28764,-0.990767 -0.41548,-1.363636 l -1.82174,-5.102983 h -1.65128 l 3.2706,8.884943 h 1.83239 z m 8.04333,3.036221 c 0,-1.93892 -1.38495,-3.28125 -3.23864,-3.28125 -0.90554,0 -1.90696,0.159801 -3.03622,0.820313 l 0.11719,1.363636 c 0.52201,-0.372869 1.40625,-0.96946 2.89772,-0.96946 1.05469,0 1.6939,0.809659 1.6939,2.088068 v 0.788352 c -3.30256,0.09588 -5.36932,1.054688 -5.36932,2.684659 0,0.84162 0.51136,2.524858 2.22656,2.524858 0.30895,0 1.98154,-0.04261 3.18537,-0.9375 v 0.767046 h 1.52344 z m -1.56605,3.121449 c 0,0.372869 0,0.862926 -0.6179,1.235796 -0.54332,0.351562 -1.22514,0.394176 -1.51279,0.394176 -1.03338,0 -1.7365,-0.575284 -1.7365,-1.299716 0,-1.448864 3.22798,-1.587358 3.86719,-1.608665 z m 10.88245,-3.121449 c 0,-1.93892 -1.38494,-3.28125 -3.23863,-3.28125 -0.90554,0 -1.90696,0.159801 -3.03622,0.820313 l 0.11718,1.363636 c 0.52202,-0.372869 1.40625,-0.96946 2.89773,-0.96946 1.05469,0 1.69389,0.809659 1.69389,2.088068 v 0.788352 c -3.30255,0.09588 -5.36932,1.054688 -5.36932,2.684659 0,0.84162 0.51137,2.524858 2.22657,2.524858 0.30895,0 1.98153,-0.04261 3.18537,-0.9375 v 0.767046 h 1.52343 z m -1.56605,3.121449 c 0,0.372869 0,0.862926 -0.61789,1.235796 -0.54333,0.351562 -1.22515,0.394176 -1.51279,0.394176 -1.03338,0 -1.7365,-0.575284 -1.7365,-1.299716 0,-1.448864 3.22798,-1.587358 3.86718,-1.608665 z m 11.56428,-3.302557 c 0,-1.310369 -0.30895,-3.025568 -2.64205,-3.025568 -1.32102,0 -2.18395,0.681818 -2.76988,1.384943 v -1.278409 h -1.50213 v 8.948864 h 1.56605 V 44.81775 c 0,-1.310369 0.50071,-2.791193 1.8963,-2.791193 1.82174,0 1.88566,1.214488 1.88566,1.917613 v 5.870029 h 1.56605 z m 0,0"
       style="fill:#cb6015;fill-opacity:1;fill-rule:nonzero;stroke:none"
       aria-label="Reproducingpublished&#10;StructuralEquationModels&#10;withlavaan"
       transform="matrix(1.4666667,0,0,1.4666667,46.6284,94.2048)" />
  </g>
</svg>
