<?xml version="1.0" encoding="UTF-8" standalone="no"?>
<!-- Created with Inkscape (http://www.inkscape.org/) -->

<svg
   version="1.1"
   id="svg1"
   width="912.47998"
   height="221.224"
   viewBox="0 0 912.47998 221.224"
   sodipodi:docname="Banner.svg"
   inkscape:version="1.3.2 (091e20e, 2023-11-25, custom)"
   xmlns:inkscape="http://www.inkscape.org/namespaces/inkscape"
   xmlns:sodipodi="http://sodipodi.sourceforge.net/DTD/sodipodi-0.dtd"
   xmlns="http://www.w3.org/2000/svg"
   xmlns:svg="http://www.w3.org/2000/svg">
  <defs
     id="defs1" />
  <sodipodi:namedview
     id="namedview1"
     pagecolor="#ffffff"
     bordercolor="#000000"
     borderopacity="0.25"
     inkscape:showpageshadow="2"
     inkscape:pageopacity="0.0"
     inkscape:pagecheckerboard="0"
     inkscape:deskcolor="#d1d1d1"
     showgrid="false"
     inkscape:zoom="1.1178327"
     inkscape:cx="456.23999"
     inkscape:cy="110.92894"
     inkscape:window-width="1920"
     inkscape:window-height="991"
     inkscape:window-x="-9"
     inkscape:window-y="-9"
     inkscape:window-maximized="1"
     inkscape:current-layer="g1">
    <inkscape:page
       x="0"
       y="0"
       inkscape:label="1"
       id="page1"
       width="912.47998"
       height="221.224"
       margin="0"
       bleed="0" />
  </sodipodi:namedview>
  <g
     id="g1"
     inkscape:groupmode="layer"
     inkscape:label="1">
    <path
       id="path1"
       d="m 0,72.00124 -62.3548,-36.00049 -1e-5,-72.00122 L 0,-72.00124 l 62.3548,36.00049 1e-5,72.00122 z"
       style="fill:#cb6015;fill-opacity:1;fill-rule:nonzero;stroke:#a6a6a6;stroke-width:1.99255;stroke-linecap:butt;stroke-linejoin:miter;stroke-miterlimit:10;stroke-dasharray:none;stroke-opacity:1"
       transform="matrix(1.3333333,0,0,-1.3333333,814.72933,110.612)" />
    <path
       id="path2"
       d="m -53.85873,-12.75595 h 14.17337 V 1.41742 h -14.17337 z"
       style="fill:#ccccff;fill-opacity:1;fill-rule:nonzero;stroke:#000000;stroke-width:0.3985;stroke-linecap:butt;stroke-linejoin:miter;stroke-miterlimit:10;stroke-dasharray:none;stroke-opacity:1"
       transform="matrix(1.3333333,0,0,-1.3333333,814.72933,110.612)" />
    <path
       id="path3"
       d="M 3.6807422,-3.6455937 6.0830859,-6.915125 H 5.1221484 l -1.875,2.6015625 L 1.3135547,-6.915125 H 0.28230469 L 2.8252734,-3.6455937 0.14167969,-0.0010625 H 1.1026172 l 2.1445312,-3.046875 2.2148438,3.046875 h 1.03125 z m 0,0"
       style="fill:#000000;fill-opacity:1;fill-rule:nonzero;stroke:none"
       aria-label="X"
       transform="matrix(1.3333333,0,0,1.3333333,747.94,122.78267)" />
    <path
       id="path4"
       d="M 39.68535,-12.75595 H 53.85872 V 1.41742 H 39.68535 Z"
       style="fill:#ccccff;fill-opacity:1;fill-rule:nonzero;stroke:#000000;stroke-width:0.3985;stroke-linecap:butt;stroke-linejoin:miter;stroke-miterlimit:10;stroke-dasharray:none;stroke-opacity:1"
       transform="matrix(1.3333333,0,0,-1.3333333,814.72933,110.612)" />
    <path
       id="path5"
       d="M 6.6094219,-6.915125 H 5.7305156 l -1.546875,2.25 c -0.046875,0.070312 -0.09375,0.1523438 -0.1640625,0.2578125 l -0.609375,0.9492188 c -0.1875,-0.3046875 -0.1875,-0.328125 -0.3632812,-0.5625 L 1.0781719,-6.915125 H 0.03520313 l 2.85937497,4.1484375 v 2.765625 h 0.8554688 v -2.7539062 z m 0,0"
       style="fill:#000000;fill-opacity:1;fill-rule:nonzero;stroke:none"
       aria-label="Y"
       transform="matrix(1.3333333,0,0,1.3333333,872.664,122.78267)" />
    <path
       id="path6"
       d="M -9.92154,39.68535 H 4.25183 V 53.85872 H -9.92154 Z"
       style="fill:#ccccff;fill-opacity:1;fill-rule:nonzero;stroke:#000000;stroke-width:0.3985;stroke-linecap:butt;stroke-linejoin:miter;stroke-miterlimit:10;stroke-dasharray:none;stroke-opacity:1"
       transform="matrix(1.3333333,0,0,-1.3333333,814.72933,110.612)" />
    <path
       id="path7"
       d="m 5.2836953,-3.5386016 c -0.3515625,0.9140625 -0.8203125,2.1445313 -0.9375,2.61328129 C 4.2876016,-1.1362578 4.1704141,-1.4995391 4.0180703,-1.9214141 l -1.5585937,-4.125 -0.3398438,-0.8671875 H 0.99463281 V 4.609375e-4 H 1.7680703 V -6.1753203 h 0.011719 c 0.058594,0.3164062 0.4570312,1.40625 0.7148437,2.0859375 l 1.4765625,3.86718749 H 4.6977578 L 6.0219766,-3.6909453 c 0.3164062,-0.8085938 0.4101562,-1.0546875 0.4804687,-1.2539063 0.1054688,-0.2929687 0.375,-1.0078125 0.421875,-1.2421875 l 0.011719,0.011719 V 4.609375e-4 H 7.7094766 V -6.9136016 H 6.5727578 Z m 0,0"
       style="fill:#000000;fill-opacity:1;fill-rule:nonzero;stroke:none"
       aria-label="M"
       transform="matrix(1.3333333,0,0,1.3333333,805.13867,52.862667)" />
    <path
       id="path8"
       d="M -39.4861,-5.66927 H 34.82701"
       style="fill:none;stroke:#000000;stroke-width:0.3985;stroke-linecap:butt;stroke-linejoin:miter;stroke-miterlimit:10;stroke-dasharray:none;stroke-opacity:1"
       transform="matrix(1.3333333,0,0,-1.3333333,814.72933,110.612)" />
    <path
       id="path9"
       d="M 5.10188,0 0.64343,1.67842 2.10616,0 0.64343,-1.67842 Z"
       style="fill:#000000;fill-opacity:1;fill-rule:nonzero;stroke:#000000;stroke-width:0.3985;stroke-linecap:butt;stroke-linejoin:miter;stroke-miterlimit:10;stroke-dasharray:none;stroke-opacity:1"
       transform="matrix(1.3333333,0,0,-1.3333333,858.48996,118.17103)" />
    <g
       id="g9"
       aria-label="c&#10;′"
       transform="matrix(1.3333333,0,0,1.3333333,809.39733,115.248)">
      <path
         id="path10"
         d="m 4.7937969,-1.2904922 c -0.5507813,0.44531251 -1.1601563,0.66796876 -1.828125,0.66796876 -0.9960938,0 -1.640625,-0.89062496 -1.640625,-2.03906246 0,-0.9960938 0.4804687,-2.0859375 1.6757812,-2.0859375 0.796875,0 1.1367188,0.1875 1.6523438,0.5390625 l 0.140625,-0.7734375 C 4.1023906,-5.3920547 3.7039531,-5.4858047 3.0008281,-5.4858047 c -1.6523437,0 -2.57812497,1.453125 -2.57812497,2.8242188 0,1.5234375 1.10156247,2.77734371 2.53124997,2.77734371 0.5859375,0 1.2539063,-0.140625 1.9101563,-0.62109375 0,-0.0351563 -0.035156,-0.41015625 -0.046875,-0.45703125 z m 0,0"
         style="fill:#000000;fill-opacity:1;fill-rule:nonzero;stroke:none" />
      <path
         id="path11"
         d="m 7.3133281,-8.1108047 c 0.046875,-0.1054687 0.070312,-0.1640625 0.070312,-0.2460937 0,-0.2578125 -0.234375,-0.4335938 -0.4570312,-0.4335938 -0.3164063,0 -0.4101563,0.28125 -0.4453125,0.3867188 l -1.0078125,3.4335937 c -0.035156,0.09375 -0.035156,0.1171875 -0.035156,0.1289063 0,0.070312 0.046875,0.09375 0.1289063,0.1171875 0.1523437,0.058594 0.1640625,0.058594 0.1757812,0.058594 0.023437,0 0.070312,0 0.1289063,-0.1289062 z m 0,0"
         style="fill:#000000;fill-opacity:1;fill-rule:nonzero;stroke:none" />
    </g>
    <path
       id="path12"
       d="M -44.1202,1.61667 -8.81372,36.2249"
       style="fill:none;stroke:#000000;stroke-width:0.3985;stroke-linecap:butt;stroke-linejoin:miter;stroke-miterlimit:10;stroke-dasharray:none;stroke-opacity:1"
       transform="matrix(1.3333333,0,0,-1.3333333,814.72933,110.612)" />
    <path
       id="path13"
       d="M 5.10188,0 0.64343,1.67842 2.10616,0 0.64343,-1.67842 Z"
       style="fill:#000000;fill-opacity:1;fill-rule:nonzero;stroke:#000000;stroke-width:0.3985;stroke-linecap:butt;stroke-linejoin:miter;stroke-miterlimit:10;stroke-dasharray:none;stroke-opacity:1"
       transform="matrix(0.95213333,-0.93329333,-0.93329333,-0.95213333,801.06723,64.1848)" />
    <path
       id="path14"
       d="m 4.677,-3.5031094 c 0,-1.1484375 -0.8320312,-1.9804687 -1.9335937,-1.9804687 -0.7265625,0 -1.265625,0.1640625 -1.8398438,0.5039062 l 0.0703125,0.7851563 c 0.5273438,-0.3867188 1.0664063,-0.5976563 1.7695313,-0.5976563 0.5507812,0 1.0195312,0.4453125 1.0195312,1.3125 v 0.4921875 c -0.5390625,0.023437 -1.2539062,0.058594 -1.96875,0.2929688 -0.796875,0.28125 -1.265625,0.7265625 -1.265625,1.3242187 0,0.52734377 0.3046875,1.48828127 1.3242188,1.48828127 0.65625,0 1.5,-0.1875 1.9335937,-0.5625 V 7.96875e-4 H 4.677 Z m -0.9140625,1.8984375 c 0,0.2460938 0,0.5273438 -0.3867187,0.77343752 -0.328125,0.19921875 -0.7382813,0.234375 -0.9140625,0.234375 -0.6445313,0 -1.0898438,-0.3515625 -1.0898438,-0.78515622 0,-0.8203125 1.6640625,-0.9960938 2.390625,-0.9960938 z m 0,0"
       style="fill:#000000;fill-opacity:1;fill-rule:nonzero;stroke:none"
       aria-label="a"
       transform="matrix(1.3333333,0,0,1.3333333,771.264,80.288)" />
    <path
       id="path15"
       d="M -0.183,39.4861 40.57881,4.64375"
       style="fill:none;stroke:#000000;stroke-width:0.3985;stroke-linecap:butt;stroke-linejoin:miter;stroke-miterlimit:10;stroke-dasharray:none;stroke-opacity:1"
       transform="matrix(1.3333333,0,0,-1.3333333,814.72933,110.612)" />
    <path
       id="path16"
       d="M 5.10188,0 0.64343,1.67842 2.10616,0 0.64343,-1.67842 Z"
       style="fill:#000000;fill-opacity:1;fill-rule:nonzero;stroke:#000000;stroke-width:0.3985;stroke-linecap:butt;stroke-linejoin:miter;stroke-miterlimit:10;stroke-dasharray:none;stroke-opacity:1"
       transform="matrix(1.0134667,0.86629333,0.86629333,-1.0134667,866.80087,102.68207)" />
    <path
       id="path17"
       d="M 1.8154609,-8.2960781 H 0.93655469 V 7.96875e-4 H 1.8388984 V -0.53826563 c 0.5507813,0.52734375 1.1367188,0.65625 1.5585938,0.65625 1.1367187,0 2.1679687,-1.16015627 2.1679687,-2.77734377 0,-1.4765625 -0.7851562,-2.765625 -1.8984375,-2.765625 -0.3398437,0 -1.1132812,0.070312 -1.8515625,0.6679688 z m 0.023437,4.265625 c 0.2109375,-0.328125 0.6445313,-0.6796875 1.2304688,-0.6796875 0.7265625,0 1.59375,0.5507812 1.59375,2.0507812 0,1.546875 -0.984375,2.06250002 -1.7109375,2.06250002 -0.3398438,0 -0.5625,-0.1171875 -0.7734375,-0.28125 C 1.8857734,-1.1359219 1.8388984,-1.3468594 1.8388984,-1.5577969 Z m 0,0"
       style="fill:#000000;fill-opacity:1;fill-rule:nonzero;stroke:none"
       aria-label="b"
       transform="matrix(1.3333333,0,0,1.3333333,846.94267,80.288)" />
    <path
       id="path18"
       d="M 61.14467,10.51659 56.95995,5.26126"
       style="fill:none;stroke:#000000;stroke-width:0.3985;stroke-linecap:butt;stroke-linejoin:miter;stroke-miterlimit:10;stroke-dasharray:none;stroke-opacity:1"
       transform="matrix(1.3333333,0,0,-1.3333333,814.72933,110.612)" />
    <path
       id="path19"
       d="M 5.10188,0 0.64343,1.67842 2.10616,0 0.64343,-1.67842 Z"
       style="fill:#000000;fill-opacity:1;fill-rule:nonzero;stroke:#000000;stroke-width:0.3985;stroke-linecap:butt;stroke-linejoin:miter;stroke-miterlimit:10;stroke-dasharray:none;stroke-opacity:1"
       transform="matrix(-0.83048,1.0430133,1.0430133,0.83048,892.34233,101.50413)" />
    <path
       id="path20"
       d="M 11.53778,62.9579 7.35306,57.70258"
       style="fill:none;stroke:#000000;stroke-width:0.3985;stroke-linecap:butt;stroke-linejoin:miter;stroke-miterlimit:10;stroke-dasharray:none;stroke-opacity:1"
       transform="matrix(1.3333333,0,0,-1.3333333,814.72933,110.612)" />
    <path
       id="path21"
       d="M 5.10188,0 0.64343,1.67842 2.10616,0 0.64343,-1.67842 Z"
       style="fill:#000000;fill-opacity:1;fill-rule:nonzero;stroke:#000000;stroke-width:0.3985;stroke-linecap:butt;stroke-linejoin:miter;stroke-miterlimit:10;stroke-dasharray:none;stroke-opacity:1"
       transform="matrix(-0.83048,1.0430133,1.0430133,0.83048,826.19981,31.582373)" />
    <path
       id="path22"
       d="m 3.2220234,-5.2744375 c -0.2578125,-0.058594 -0.9960937,-0.328125 -0.9960937,-1.0195312 0,-1.0078125 1.0078125,-1.03125 1.4179687,-1.03125 0.6679688,0 1.265625,0.1523437 1.8515625,0.7265625 0.1992188,0.1757812 0.2109375,0.1875 0.2578125,0.1875 0.070312,0 0.1289063,-0.035156 0.1640625,-0.2109375 l 0.1757813,-1.0429688 c 0.023437,-0.09375 0.023437,-0.1171875 0.023437,-0.1523437 0,-0.09375 -0.011719,-0.1054688 -0.3046875,-0.2695313 -0.8554688,-0.4101562 -1.5585938,-0.46875 -2.1679688,-0.46875 -1.0664062,0 -2.91796871,0.2460938 -2.91796871,2.484375 0,0.84375 0.44531251,1.3945313 0.66796871,1.640625 0.609375,0.6210938 1.171875,0.7382813 2.109375,0.9492188 0.6679688,0.1523437 0.9257813,0.2226562 1.1953125,0.4570312 0.1171875,0.1171875 0.3632813,0.375 0.3632813,0.8203125 0,1.125 -1.0195313,1.1601563 -1.4179688,1.1601563 -1.0078125,0 -1.875,-0.3984375 -2.4726562,-0.9375 -0.140625,-0.1523438 -0.1640625,-0.1523438 -0.21093751,-0.1523438 -0.0820313,0 -0.140625,0.035156 -0.17578125,0.2226563 l -0.17578125,1.0429687 c -0.0234375,0.09375 -0.0234375,0.1171875 -0.0234375,0.15234375 0,0.24609375 1.24218751,0.6796875 1.30078121,0.703125 0.8085938,0.24609375 1.453125,0.26953125 1.7578125,0.26953125 1.7929688,0 2.9179688,-0.796875 2.9179688,-2.6484375 0,-1.3359375 -0.9960938,-2.34375 -2.1914063,-2.6132812 z m 6.9316406,1.5585938 h 3.140625 c 0.375,0 0.574219,-0.082031 0.574219,-0.5625 0,-0.4453125 -0.152344,-0.5625 -0.574219,-0.5625 h -3.140625 v -2.2148438 h 0.585938 c 0.925781,0 1.875,0.035156 2.800781,0.035156 0.421875,0 0.703125,0 0.703125,-0.5742188 V -7.6885 c 0,-0.3867187 -0.09375,-0.5742187 -0.574219,-0.5742187 H 8.9700703 c -0.4335937,0 -0.5742187,0.1289062 -0.5742187,0.5742187 v 7.11328125 C 8.3958516,-0.141625 8.5247578,-0.001 8.9700703,-0.001 H 13.84507 c 0.457032,0 0.574219,-0.15234375 0.574219,-0.57421875 v -0.1640625 C 14.419289,-1.3135 14.138039,-1.3135 13.75132,-1.3135 c -0.621093,0 -1.230468,0.023437 -1.851562,0.023437 -0.304688,0 -1.535156,0.011719 -1.746094,0.023437 z m 11.458008,-0.1992188 c -0.246094,0.609375 -0.691406,1.7109375 -0.785156,2.1328125 h -0.01172 c -0.105469,-0.4335937 -0.597656,-1.6171875 -0.855469,-2.25 L 18.435891,-7.8056875 C 18.224953,-8.297875 17.849953,-8.297875 17.627297,-8.297875 h -0.984375 c -0.433594,0 -0.574219,0.1289063 -0.574219,0.5742188 v 7.14843745 c 0,0.43359375 0.128906,0.57421875 0.574219,0.57421875 h 0.316406 c 0.457031,0 0.574219,-0.15234375 0.574219,-0.57421875 V -6.751 h 0.01172 c 0.140625,0.5390625 0.667968,1.8632813 0.960937,2.5664063 l 1.382813,3.4101562 c 0.222656,0.515625 0.503906,0.515625 0.914062,0.515625 0.398438,0 0.691406,0 0.902344,-0.515625 l 1.535156,-3.7617187 c 0.117188,-0.28125 0.761719,-1.9101563 0.84375,-2.2148438 h 0.01172 v 6.17578125 c 0,0.38671875 0.08203,0.57421875 0.574219,0.57421875 h 0.328125 c 0.457031,0 0.574218,-0.15234375 0.574218,-0.57421875 V -7.7236562 c 0,-0.3867188 -0.08203,-0.5742188 -0.574218,-0.5742188 H 23.99058 c -0.292969,0 -0.597656,0.023437 -0.796875,0.515625 z M 31.402688,-1.6885 c 0,-0.6679687 -0.363282,-1.0898437 -0.574219,-1.2773437 C 30.348,-3.3994375 29.926125,-3.46975 29.433938,-3.5635 c -0.65625,-0.1171875 -1.136719,-0.2109375 -1.136719,-0.6796875 0,-0.4921875 0.386719,-0.5859375 0.855469,-0.5859375 0.808593,0 1.230468,0.2929688 1.546875,0.5625 0.117187,0.1171875 0.140625,0.1171875 0.1875,0.1171875 0.117187,0 0.140625,-0.1054687 0.152343,-0.1523437 0.02344,-0.09375 0.152344,-0.7617188 0.152344,-0.8320313 0,-0.1875 -0.632812,-0.3515625 -0.773437,-0.3984375 -0.480469,-0.1289062 -0.855469,-0.1523437 -1.171875,-0.1523437 -0.539063,0 -2.132813,0 -2.132813,1.7109375 0,0.5859375 0.257813,0.9492187 0.585938,1.2304687 0.410156,0.3867188 0.878906,0.46875 1.558593,0.5976563 0.351563,0.070312 0.960938,0.1757812 0.960938,0.703125 0,0.56249995 -0.46875,0.6445312 -0.9375,0.6445312 -0.515625,0 -1.195313,-0.1640625 -1.757813,-0.8320312 -0.05859,-0.058594 -0.09375,-0.09375 -0.164062,-0.09375 -0.117188,0 -0.140625,0.1054687 -0.152344,0.1757812 -0.02344,0.1757813 -0.164062,0.85546875 -0.164062,0.97265625 0,0.2109375 0.878906,0.4921875 0.890625,0.50390625 0.65625,0.19921875 1.148437,0.19921875 1.347656,0.19921875 0.609375,0 2.121094,-0.046875 2.121094,-1.81640625 z m 13.283203,-3.4570312 c -0.03516,-0.328125 -0.246094,-0.328125 -0.621094,-0.328125 -0.5625,0 -0.703125,0.035156 -0.867188,0.65625 -0.269531,0.9140625 -0.785156,2.7890625 -0.972656,3.46875 l -1.007812,-3.5859375 c -0.08203,-0.2695313 -0.164063,-0.5390625 -0.714844,-0.5390625 -0.175781,0 -0.445313,0 -0.621094,0.2695312 -0.105469,0.1875 -0.632812,2.25 -1.042969,3.6445313 l -0.960937,-3.375 C 37.760109,-5.34475 37.631203,-5.4736562 37.139016,-5.4736562 h -0.246094 c -0.222656,0 -0.46875,0 -0.515625,0.328125 l 1.277344,4.59374995 C 37.806984,-0.001 38.111672,-0.001 38.416359,-0.001 h 0.328125 c 0.5625,0 0.667969,-0.17578125 0.796875,-0.65625 0.269532,-0.9960937 0.703125,-2.4960937 0.75,-3.1171875 l 0.01172,-0.011719 c 0.07031,0.6796875 0.597656,2.5664062 0.75,3.1289062 0.140625,0.43359375 0.199219,0.65625 0.796875,0.65625 h 0.808594 c 0.515625,0 0.632812,-0.140625 0.75,-0.55078125 z m 1.529297,-3.1640625 c -0.386719,0 -0.574219,0.070312 -0.574219,0.5507812 v 0.5507813 c 0,0.3867187 0.117187,0.5390625 0.5625,0.5390625 h 0.621094 c 0.574218,0 0.574218,-0.2578125 0.574218,-0.8203125 0,-0.5625 0,-0.8203125 -0.574218,-0.8203125 z m 1.101562,3.4101562 c 0,-0.3867187 -0.08203,-0.5742187 -0.574219,-0.5742187 h -0.445312 c -0.433594,0 -0.574219,0.1289062 -0.574219,0.5742187 v 4.32421875 C 45.723,-0.141625 45.851906,-0.001 46.297219,-0.001 h 0.445312 c 0.457032,0 0.574219,-0.15234375 0.574219,-0.57421875 z m 3.336914,0.28125 h 1.066406 c 0.140625,0 0.574219,0 0.574219,-0.421875 0,-0.4335937 -0.433594,-0.4335937 -0.574219,-0.4335937 H 50.653664 V -6.46975 c 0,-0.375 -0.08203,-0.5742187 -0.574219,-0.5742187 h -0.363281 c -0.433594,0 -0.574219,0.1289062 -0.574219,0.5742187 v 0.9960938 h -0.28125 c -0.128906,0 -0.574218,0 -0.574218,0.4335937 0,0.421875 0.433593,0.421875 0.574218,0.421875 h 0.246094 V -1.59475 c 0,1.20703125 0.421875,1.72265625 1.253906,1.72265625 0.105469,0 0.632813,0 1.253907,-0.1875 0.199218,-0.05859375 0.890625,-0.28125 0.890625,-0.50390625 0,-0.0351563 -0.02344,-0.1171875 -0.09375,-0.375 -0.05859,-0.234375 -0.08203,-0.3046875 -0.1875,-0.3046875 -0.05859,0 -0.07031,0.011719 -0.140625,0.082031 -0.128907,0.09375 -0.457032,0.3632812 -0.960938,0.3632812 -0.28125,0 -0.46875,-0.2109375 -0.46875,-0.9960937 z m 8.206055,0.7265625 c 0,-1.2304687 -0.527344,-1.7109375 -1.746094,-1.7109375 -1.195312,0 -1.746094,0.8203125 -1.910156,1.1601563 h -0.01172 v -3.28125 c 0,-0.3867188 -0.08203,-0.5742188 -0.574219,-0.5742188 h -0.445312 c -0.433594,0 -0.574219,0.1289063 -0.574219,0.5742188 v 7.14843745 C 53.598,-0.141625 53.726906,-0.001 54.172219,-0.001 h 0.480469 c 0.457031,0 0.574218,-0.15234375 0.574218,-0.57421875 V -3.2119375 c 0,-1.0429687 0.691407,-1.5351562 1.3125,-1.5351562 0.574219,0 0.691407,0.28125 0.691407,0.890625 v 3.28124995 C 57.230813,-0.1885 57.312844,-0.001 57.805031,-0.001 H 58.2855 c 0.457031,0 0.574219,-0.15234375 0.574219,-0.57421875 z m 7.426758,-3.8320312 c 0,-0.3867188 -0.08203,-0.5742188 -0.574219,-0.5742188 h -0.445313 c -0.433593,0 -0.574218,0.1289063 -0.574218,0.5742188 v 7.14843745 c 0,0.43359375 0.128906,0.57421875 0.574218,0.57421875 h 0.445313 c 0.457031,0 0.574219,-0.15234375 0.574219,-0.57421875 z m 6.27832,3.9492187 c 0,-1.8867187 -1.816406,-1.9101562 -2.414063,-1.9101562 -0.5625,0 -1.160156,0.058594 -1.957031,0.3867187 -0.246094,0.1054688 -0.316406,0.140625 -0.316406,0.28125 0,0.082031 0.08203,0.7734375 0.09375,0.8671875 0.01172,0.070312 0.07031,0.1289063 0.152344,0.1289063 0.05859,0 0.09375,-0.035156 0.128906,-0.070312 0.515625,-0.5390625 1.113281,-0.796875 1.851562,-0.796875 0.644532,0 0.84375,0.3867187 0.84375,1.1015625 V -3.376 c -0.421875,0 -3.550781,0.023437 -3.550781,1.78125 0,0.84375 0.667969,1.72265625 1.722656,1.72265625 0.398438,0 1.300782,-0.1171875 1.863282,-0.9375 v 0.234375 c 0,0.38671875 0.08203,0.57421875 0.574218,0.57421875 h 0.433594 c 0.457031,0 0.574219,-0.15234375 0.574219,-0.57421875 z m -1.617188,1.9335938 c 0,1.1132812 -1.136718,1.1132812 -1.171875,1.1132812 -0.503906,0 -0.832031,-0.4335937 -0.832031,-0.890625 0,-1.171875 1.664063,-1.2539062 2.003906,-1.265625 z m 7.942383,-3.0703125 c 0.05859,-0.1757813 0.05859,-0.1992188 0.05859,-0.234375 0,-0.328125 -0.292969,-0.328125 -0.46875,-0.328125 h -0.257813 c -0.503906,0 -0.632812,0.1757812 -0.738281,0.515625 l -1.183594,3.609375 -1.183593,-3.609375 c -0.08203,-0.2578125 -0.164063,-0.515625 -0.738282,-0.515625 h -0.292968 c -0.175782,0 -0.46875,0 -0.46875,0.328125 0,0.035156 0,0.058594 0.05859,0.234375 l 1.417969,4.40624995 C 75.25718,-0.001 75.63218,-0.001 75.843117,-0.001 h 0.878906 c 0.210938,0 0.585938,0 0.75,-0.50390625 z m 5.929688,1.1367187 c 0,-1.8867187 -1.816407,-1.9101562 -2.414063,-1.9101562 -0.5625,0 -1.160156,0.058594 -1.957031,0.3867187 -0.246094,0.1054688 -0.316406,0.140625 -0.316406,0.28125 0,0.082031 0.08203,0.7734375 0.09375,0.8671875 0.01172,0.070312 0.07031,0.1289063 0.152343,0.1289063 0.05859,0 0.09375,-0.035156 0.128907,-0.070312 0.515625,-0.5390625 1.113281,-0.796875 1.851562,-0.796875 0.644531,0 0.84375,0.3867187 0.84375,1.1015625 V -3.376 c -0.421875,0 -3.550781,0.023437 -3.550781,1.78125 0,0.84375 0.667969,1.72265625 1.722656,1.72265625 0.398438,0 1.300781,-0.1171875 1.863281,-0.9375 v 0.234375 C 83.237648,-0.1885 83.31968,-0.001 83.811867,-0.001 h 0.433594 c 0.457031,0 0.574219,-0.15234375 0.574219,-0.57421875 z m -1.617188,1.9335938 c 0,1.1132812 -1.136719,1.1132812 -1.171875,1.1132812 -0.503906,0 -0.832031,-0.4335937 -0.832031,-0.890625 0,-1.171875 1.664062,-1.2539062 2.003906,-1.265625 z M 91.098,-3.7744375 c 0,-1.8867187 -1.816406,-1.9101562 -2.414062,-1.9101562 -0.5625,0 -1.160157,0.058594 -1.957032,0.3867187 -0.246093,0.1054688 -0.316406,0.140625 -0.316406,0.28125 0,0.082031 0.08203,0.7734375 0.09375,0.8671875 0.01172,0.070312 0.07031,0.1289063 0.152344,0.1289063 0.05859,0 0.09375,-0.035156 0.128906,-0.070312 0.515625,-0.5390625 1.113281,-0.796875 1.851563,-0.796875 0.644531,0 0.84375,0.3867187 0.84375,1.1015625 V -3.376 c -0.421875,0 -3.550782,0.023437 -3.550782,1.78125 0,0.84375 0.667969,1.72265625 1.722657,1.72265625 0.398437,0 1.300781,-0.1171875 1.863281,-0.9375 v 0.234375 C 89.515969,-0.1885 89.598,-0.001 90.090188,-0.001 h 0.433593 c 0.457032,0 0.574219,-0.15234375 0.574219,-0.57421875 z m -1.617187,1.9335938 c 0,1.1132812 -1.136719,1.1132812 -1.171875,1.1132812 -0.503907,0 -0.832032,-0.4335937 -0.832032,-0.890625 0,-1.171875 1.664063,-1.2539062 2.003907,-1.265625 z m 8.326171,-2.0507813 c 0,-1.2304687 -0.527343,-1.7109375 -1.746093,-1.7109375 -1.253907,0 -1.792969,0.9023438 -1.945313,1.2304688 h -0.01172 V -4.96975 c 0,-0.3867187 -0.08203,-0.5742187 -0.574218,-0.5742187 h -0.410157 c -0.433593,0 -0.574218,0.1289062 -0.574218,0.5742187 v 4.39453125 c 0,0.43359375 0.128906,0.57421875 0.574218,0.57421875 h 0.480469 c 0.457031,0 0.574219,-0.15234375 0.574219,-0.57421875 V -3.2119375 c 0,-1.0429687 0.691406,-1.5351562 1.3125,-1.5351562 0.574219,0 0.691406,0.28125 0.691406,0.890625 v 3.28124995 c 0,0.38671875 0.08203,0.57421875 0.574219,0.57421875 h 0.480469 c 0.457031,0 0.574218,-0.15234375 0.574218,-0.57421875 z m 0,0"
       style="fill:#ffffff;fill-opacity:1;fill-rule:nonzero;stroke:none"
       aria-label="SEMswithlavaan"
       transform="matrix(1.3333333,0,0,1.3333333,749.036,161.50133)" />
    <path
       id="path23"
       d="m 9.7652031,-8.077401 0.054687,-0.03125 c 3.8593759,-1.3359375 3.8906259,-4.015625 3.8906259,-4.484375 0,-2.351563 -2.382814,-4.609375 -5.9531259,-4.609375 H 2.2027031 V 7.2395833e-4 H 4.2417656 V -7.858651 h 3.640625 L 12.273016,7.2395833e-4 h 2.078125 z M 4.2417656,-9.3664635 v -6.4453125 h 3.2421875 c 3.1484379,0 4.2656249,1.78125 4.2656249,3.21875 0,1.335937 -0.992187,3.2265625 -4.2656249,3.2265625 z m 20.4843754,3.9375 c 0,-0.8203125 -0.05469,-2.40625 -0.84375,-3.71875 -0.867188,-1.4140625 -2.28125,-1.8046875 -3.351563,-1.8046875 -2.578125,0 -4.757812,2.421875 -4.757812,5.5703125 0,3.078125 2.257812,5.57812496 5.109375,5.57812496 1.117187,0 2.476562,-0.3203125 3.71875,-1.21093746 0,-0.1015625 -0.05469,-0.6484375 -0.07813,-0.671875 0,-0.046875 -0.07031,-0.8125 -0.07031,-0.9140625 -1.195312,0.96875 -2.554687,1.2890625 -3.546875,1.2890625 -1.585937,0 -3.296875,-1.34375 -3.375,-4.1171875 z m -6.992188,-1.359375 c 0.320313,-1.3671875 1.414063,-2.65625 2.796875,-2.65625 0.375,0 2.109375,0.046875 2.554688,2.65625 z m 11.398438,5.671875 c 0.820312,0.79687496 1.9375,1.31249996 3.125,1.31249996 2.304687,0 4.289062,-2.37499996 4.289062,-5.54687496 0,-2.9296875 -1.492187,-5.5078125 -3.617187,-5.5078125 -1.242188,0 -2.726563,0.445312 -3.84375,1.34375 v -1.140625 H 27.249578 V 4.8366615 h 1.882813 z m 0,-6.9375 c 0.203125,-0.296875 1.039062,-1.2421875 2.40625,-1.2421875 1.734375,0 3.125,1.7890625 3.125,3.9453125 0,2.453125 -1.6875,4.0390625 -3.351563,4.0390625 -0.492187,0 -1.015625,-0.125 -1.507812,-0.546875 -0.671875,-0.59375 -0.671875,-0.96875 -0.671875,-1.3125 z m 11.302734,2.7734375 c 0,-2.328125 1.710938,-3.890625 3.890625,-3.9375 v -1.640625 c -1.585937,0.02344 -3.078125,0.820312 -3.96875,2.109375 v -1.984375 H 38.599188 V 7.2395833e-4 h 1.835937 z m 15.197266,-0.023437 c 0,-3.171875 -2.351563,-5.648438 -5.125,-5.648438 -2.851563,0 -5.15625,2.5468755 -5.15625,5.648438 0,3.1484375 2.375,5.49999996 5.125,5.49999996 2.828125,0 5.15625,-2.42968746 5.15625,-5.49999996 z m -5.125,3.9375 c -1.765625,0 -3.273438,-1.4375 -3.273438,-4.1328125 0,-2.875 1.757813,-3.9453125 3.242188,-3.9453125 1.617187,0 3.273437,1.1640625 3.273437,3.9453125 0,2.796875 -1.609375,4.1328125 -3.242187,4.1328125 z M 67.095281,-17.2024 h -1.835937 v 7.585937 c -0.773438,-0.648438 -2.03125,-1.242188 -3.421875,-1.242188 -2.257813,0 -4.039063,2.4531255 -4.039063,5.5312505 0,3.0703125 1.757813,5.52343746 3.960938,5.52343746 1.710937,0 2.851562,-0.9140625 3.445312,-1.43749996 V 7.2395833e-4 h 1.890625 z m -1.890625,13.882812 c 0,0.34375 0,0.71875 -0.765625,1.390625 -0.492187,0.4140625 -1.09375,0.6171875 -1.664062,0.6171875 -1.335938,0 -3.09375,-0.9921875 -3.09375,-3.9921875 0,-3.125 1.984375,-4.0390625 3.34375,-4.0390625 0.921875,0 1.664062,0.4453125 2.179687,1.1875 z m 13.908203,-7.335938 h -1.882812 v 6.835938 c 0,1.8359375 -1.34375,2.578125 -2.757813,2.578125 -1.632812,0 -1.78125,-0.5390625 -1.78125,-1.5625 v -7.851563 h -1.882812 v 7.976563 c 0,1.93749996 0.664062,2.87499996 2.375,2.87499996 0.84375,0 2.757812,-0.19531250167 4.09375,-1.43749996 V 7.2395833e-4 h 1.835937 z m 11.400391,0.7656255 c 0,-0.1718755 -1.140625,-0.6718755 -1.4375,-0.7656255 -0.820312,-0.296875 -1.859375,-0.296875 -2.132812,-0.296875 -3.226563,0 -5.15625,2.7968755 -5.15625,5.6250005 0,2.9765625 2.15625,5.52343746 5.054687,5.52343746 1.664063,0 2.851563,-0.5390625 3.820313,-1.1875 L 90.51325,-2.624276 c -1.070312,0.8125 -2.304687,1.2578125 -3.648437,1.2578125 -1.929688,0 -3.195313,-1.6796875 -3.195313,-3.984375 0,-1.7890625 0.820313,-4.046875 3.296875,-4.046875 1.359375,0 2.132813,0.2734375 3.273438,1.046875 z m 4.601563,-6.4218745 h -2.078125 v 2.085936 h 2.078125 z m -0.117188,5.656249 H 93.161688 V 7.2395833e-4 h 1.835937 z m 11.986325,3.414063 c 0,-1.5546875 -0.375,-3.617188 -3.17187,-3.617188 -1.58594,0 -2.63281,0.820312 -3.32813,1.664063 v -1.539063 H 98.679266 V 7.2395833e-4 h 1.882814 V -5.999276 c 0,-1.5625 0.59375,-3.34375 2.28125,-3.34375 2.17969,0 2.25781,1.4609375 2.25781,2.3046875 V 7.2395833e-4 h 1.88281 z m 12.88477,-3.617188 c -1.41406,0.02344 -2.625,0.296875 -3.61719,0.773437 -0.82031,-0.648437 -1.66406,-0.773437 -2.23437,-0.773437 -2.15625,0 -3.78907,1.789063 -3.78907,3.867188 0,1.34375 0.74219,2.359375 0.78907,2.40625 -0.44532,0.6171875 -0.69532,1.2890625 -0.69532,2.03125 0,0.8671875 0.35157,1.4921875 0.625,1.83593746 -1.28906,0.796875 -1.46875,2.00781254 -1.46875,2.47656254 0,1.8125 2.25782,3.296875 5.15625,3.296875 2.92969,0 5.1875,-1.484375 5.1875,-3.3203125 0,-3.421875 -3.79687,-3.4453125 -4.83593,-3.4453125 h -2.00782 c -0.375,0 -1.36718,0 -1.36718,-1.265625 0,-0.4921875 0.22656,-0.8125 0.25,-0.84375 0.375,0.2734375 1.14062,0.6953125 2.15625,0.6953125 2.0625,0 3.76562,-1.734375 3.76562,-3.8671875 0,-1.1875 -0.53906,-2.0546875 -0.76562,-2.3515625 h 0.0781 c 0.0703,0 1.10938,-0.078125 1.48438,-0.078125 0.79687,0 0.86718,0.023437 1.5625,0.1015625 z m -5.85156,6.3750005 c -0.84375,0 -2.03125,-0.5234375 -2.03125,-2.5078125 0,-2.15625 1.35937,-2.5 2.00781,-2.5 0.84375,0 2.03125,0.515625 2.03125,2.5 0,2.15625 -1.35938,2.5078125 -2.00781,2.5078125 z m 0.94531,4.58593746 c 0.59375,0 3.09375,0 3.09375,1.67968754 0,1.0703125 -1.53125,1.9140625 -3.39063,1.9140625 -1.88281,0 -3.42187,-0.8203125 -3.42187,-1.9375 0,-0.125 0,-1.65625004 1.71094,-1.65625004 z M 131.99372,-1.116463 c 0.82031,0.79687496 1.9375,1.31249996 3.125,1.31249996 2.30469,0 4.28906,-2.37499996 4.28906,-5.54687496 0,-2.9296875 -1.49219,-5.507813 -3.61719,-5.507813 -1.24218,0 -2.72656,0.445312 -3.84375,1.3437505 v -1.1406255 h -1.83593 V 4.8366615 h 1.88281 z m 0,-6.9375 c 0.20312,-0.296875 1.03906,-1.2421875 2.40625,-1.2421875 1.73437,0 3.125,1.7890625 3.125,3.9453125 0,2.453125 -1.6875,4.0390625 -3.35156,4.0390625 -0.49219,0 -1.01563,-0.125 -1.50782,-0.546875 -0.67187,-0.59375 -0.67187,-0.96875 -0.67187,-1.3125 z m 18.39258,-2.601563 h -1.88282 v 6.835938 c 0,1.8359375 -1.34375,2.578125 -2.75781,2.578125 -1.63281,0 -1.78125,-0.5390625 -1.78125,-1.5625 v -7.851563 h -1.88281 v 7.976563 c 0,1.93749996 0.66406,2.87499996 2.375,2.87499996 0.84375,0 2.75781,-0.19531250167 4.09375,-1.43749996 V 7.2395833e-4 h 1.83594 z m 5.54883,-6.546874 h -1.83594 V 7.2395833e-4 H 155.982 V -1.1164635 c 0.94531,0.92187496 2.08594,1.31249996 3.10156,1.31249996 2.375,0 4.3125,-2.39843746 4.3125,-5.54687496 0,-2.875 -1.49218,-5.5078125 -3.69531,-5.5078125 -1.5625,0 -2.95312,0.648437 -3.76562,1.3125 z m 0.0469,9.1249995 c 0.54688,-0.6953125 1.3125,-1.265625 2.40625,-1.265625 1.46094,0 3.125,1.0625 3.125,3.9921875 0,3.1171875 -1.98437,4.0390625 -3.35156,4.0390625 -0.49219,0 -1.01563,-0.125 -1.50781,-0.546875 -0.67188,-0.59375 -0.67188,-0.96875 -0.67188,-1.3125 z M 167.90586,-17.2024 h -1.83594 V 7.2395833e-4 h 1.83594 z m 5.63476,0.890625 h -2.07812 v 2.085936 h 2.07812 z m -0.11718,5.656249 H 171.5875 V 7.2395833e-4 h 1.83594 z m 9.83007,0.445312 c -1.46093,-0.695312 -2.60156,-0.742187 -3.35156,-0.742187 -1.75781,0 -3.86719,0.617187 -3.86719,3.117188 0,2.5078125 2.72657,3.0546875 3.47657,3.203125 1.14062,0.21875 2.39843,0.46875 2.39843,1.7109375 0,1.5546875 -1.78125,1.5546875 -2.10156,1.5546875 -0.99219,0 -2.35937,-0.265625 -3.59375,-1.1640625 l -0.30469,1.66406246 c 1.41407,0.8203125 2.78125,1.0625 3.92188,1.0625 3.04687,0 3.8125,-1.85937496 3.8125,-3.26562496 0,-1.21875 -0.6875,-2.0390625 -1.16406,-2.40625 -0.8125,-0.6484375 -1.10938,-0.71875 -3.14844,-1.140625 -0.34375,-0.054687 -1.5625,-0.3203125 -1.5625,-1.4375 0,-1.4140625 1.5625,-1.4140625 1.91406,-1.4140625 1.60938,0 2.60156,0.4921875 3.27344,0.8671875 z m 11.0918,2.968751 c 0,-1.5546875 -0.375,-3.617188 -3.17187,-3.617188 -1.5625,0 -2.57813,0.773437 -3.29688,1.6093755 V -17.2024 h -1.83594 V 7.2395833e-4 h 1.88282 V -5.999276 c 0,-1.5625 0.59375,-3.34375 2.28125,-3.34375 2.17968,0 2.25781,1.4609375 2.25781,2.3046875 V 7.2395833e-4 h 1.88281 z m 11.55078,1.8125 c 0,-0.8203125 -0.0547,-2.40625 -0.84375,-3.71875 -0.86718,-1.414063 -2.28125,-1.804688 -3.35156,-1.804688 -2.57812,0 -4.75781,2.4218755 -4.75781,5.570313 0,3.078125 2.25781,5.57812496 5.10937,5.57812496 1.11719,0 2.47657,-0.3203125 3.71875,-1.21093746 0,-0.1015625 -0.0547,-0.6484375 -0.0781,-0.671875 0,-0.046875 -0.0703,-0.8125 -0.0703,-0.9140625 -1.19532,0.96875 -2.55469,1.2890625 -3.54688,1.2890625 -1.58594,0 -3.29687,-1.34375 -3.375,-4.1171875 z m -6.99218,-1.359375 c 0.32031,-1.3671875 1.41406,-2.65625 2.79687,-2.65625 0.375,0 2.10938,0.046875 2.55469,2.65625 z M 216.67539,-17.2024 h -1.83594 v 7.585937 c -0.77344,-0.648438 -2.03125,-1.242188 -3.42187,-1.242188 -2.25782,0 -4.03907,2.4531255 -4.03907,5.5312505 0,3.0703125 1.75782,5.52343746 3.96094,5.52343746 1.71094,0 2.85156,-0.9140625 3.44531,-1.43749996 V 7.2395833e-4 h 1.89063 z m -1.89063,13.882812 c 0,0.34375 0,0.71875 -0.76562,1.390625 -0.49219,0.4140625 -1.09375,0.6171875 -1.66406,0.6171875 -1.33594,0 -3.09375,-0.9921875 -3.09375,-3.9921875 0,-3.125 1.98437,-4.0390625 3.34375,-4.0390625 0.92187,0 1.66406,0.4453125 2.17968,1.1875 z M -14.047297,13.50463 c -1.09375,-0.648437 -2.28125,-1.21875 -4.289062,-1.21875 -3.203125,0 -5.257813,2.359375 -5.257813,4.757813 0,0.945312 0.273438,2.007812 1.242188,3.101562 0.960937,1.09375 2.054687,1.390625 3.445312,1.734375 0.570313,0.148438 1.53125,0.421875 1.710938,0.5 1.382812,0.539063 2.054687,1.804688 2.054687,3 0,1.554688 -1.210937,3.21875 -3.375,3.21875 -0.742187,0 -2.921875,-0.125 -4.976562,-2.007812 l -0.351563,1.960937 c 2.03125,1.484375 4.242188,1.734375 5.359375,1.734375 3.046875,0 5.226563,-2.40625 5.226563,-5.132812 0,-0.992188 -0.296875,-2.257813 -1.335938,-3.421875 -1.015625,-1.117188 -1.914062,-1.359375 -3.945312,-1.90625 -1.164063,-0.296875 -1.90625,-0.5 -2.523438,-1.265625 -0.421875,-0.546875 -0.648437,-1.070313 -0.648437,-1.734375 0,-1.390625 1.1875,-2.898438 3.375,-2.898438 1.085937,0 2.5,0.21875 3.9375,1.554688 z m 6.2519533,7.164063 h 3.21875 v -1.4375 h -3.21875 v -3.054688 h -1.7578125 v 3.054688 h -1.9609378 v 1.4375 h 1.9062503 v 6.265625 c 0,1.414062 0.328125,3.148437 1.9609375,3.148437 1.2421875,0 2.3828125,-0.34375 3.46875,-0.914062 l -0.3984375,-1.460938 c -0.59375,0.515625 -1.3125,0.8125 -2.078125,0.8125 -1.09375,0 -1.140625,-1.382812 -1.140625,-2.007812 z m 7.9726562,3.9375 c 0,-2.328125 1.7109375,-3.890625 3.890625,-3.9375 V 19.028068 C 2.482,19.051505 0.9898125,19.84838 0.0991875,21.137443 V 19.153068 H -1.658625 v 10.734375 h 1.8359375 z m 14.3847655,-5.375 h -1.882812 v 6.835937 c 0,1.835938 -1.34375,2.578125 -2.7578129,2.578125 -1.6328125,0 -1.78125,-0.539062 -1.78125,-1.5625 V 19.231193 H 6.2573906 v 7.976562 c 0,1.9375 0.6640625,2.875 2.375,2.875 0.84375,0 2.7578124,-0.195312 4.0937504,-1.4375 v 1.242188 h 1.835937 z m 11.400391,0.765625 c 0,-0.171875 -1.140625,-0.671875 -1.4375,-0.765625 -0.820313,-0.296875 -1.859375,-0.296875 -2.132813,-0.296875 -3.226562,0 -5.15625,2.796875 -5.15625,5.625 0,2.976562 2.15625,5.523437 5.054688,5.523437 1.664062,0 2.851562,-0.539062 3.820312,-1.1875 l -0.148437,-1.632812 c -1.070313,0.8125 -2.304688,1.257812 -3.648438,1.257812 -1.929687,0 -3.195312,-1.679687 -3.195312,-3.984375 0,-1.789062 0.820312,-4.046875 3.296875,-4.046875 1.359375,0 2.132812,0.273438 3.273437,1.046875 z m 4.953125,0.671875 h 3.21875 v -1.4375 h -3.21875 v -3.054688 h -1.757813 v 3.054688 h -1.960937 v 1.4375 h 1.90625 v 6.265625 c 0,1.414062 0.328125,3.148437 1.960937,3.148437 1.242188,0 2.382813,-0.34375 3.46875,-0.914062 l -0.398437,-1.460938 c -0.59375,0.515625 -1.3125,0.8125 -2.078125,0.8125 -1.09375,0 -1.140625,-1.382812 -1.140625,-2.007812 z m 14.417969,-1.4375 H 43.45075 v 6.835937 c 0,1.835938 -1.34375,2.578125 -2.757812,2.578125 -1.632813,0 -1.78125,-0.539062 -1.78125,-1.5625 v -7.851562 h -1.882813 v 7.976562 c 0,1.9375 0.664063,2.875 2.375,2.875 0.84375,0 2.757813,-0.195312 4.09375,-1.4375 v 1.242188 h 1.835938 z m 5.548828,5.375 c 0,-2.328125 1.710937,-3.890625 3.890625,-3.9375 v -1.640625 c -1.585938,0.02344 -3.078125,0.820312 -3.96875,2.109375 v -1.984375 h -1.757813 v 10.734375 h 1.835938 z m 13.564453,-1.734375 c 0,-2.328125 -1.664063,-3.9375 -3.890625,-3.9375 -1.09375,0 -2.28125,0.195312 -3.648438,0.984375 l 0.148438,1.640625 c 0.625,-0.445313 1.6875,-1.164063 3.476562,-1.164063 1.265625,0 2.03125,0.960938 2.03125,2.5 v 0.945313 c -3.96875,0.125 -6.445312,1.265625 -6.445312,3.21875 0,1.015625 0.617187,3.023437 2.679687,3.023437 0.367188,0 2.375,-0.04687 3.8125,-1.109375 v 0.914063 h 1.835938 z m -1.882813,3.742187 c 0,0.445313 0,1.039063 -0.742187,1.492188 -0.648438,0.414062 -1.460938,0.46875 -1.8125,0.46875 -1.242188,0 -2.078125,-0.695313 -2.078125,-1.5625 0,-1.734375 3.867187,-1.90625 4.632812,-1.9375 z M 69.974188,12.684318 H 68.13825 v 17.203125 h 1.835938 z m 17.191406,15.515625 c -1.984375,0 -2.875,0 -3.320313,0.02344 v -6.492187 h 7.679688 V 20.22338 h -7.679688 v -5.90625 h 3.195313 c 0.296875,0 0.59375,0.03125 0.890625,0.03125 h 4.242187 V 12.731193 H 81.759344 v 17.15625 h 10.734375 v -1.710938 z m 16.435546,-9.171875 h -1.83594 v 1.515625 c -0.10156,-0.125 -1.24218,-1.515625 -3.171872,-1.515625 -2.257812,0 -4.289062,2.304687 -4.289062,5.554687 0,3 1.710937,5.5 3.9375,5.5 1.039062,0 2.359374,-0.367187 3.468754,-1.4375 v 6.078125 h 1.89062 z m -1.83594,7.460937 c 0,0.328125 0,0.773438 -0.77343,1.414063 -0.19532,0.171875 -0.74219,0.671875 -1.679692,0.671875 -1.765625,0 -3.125,-1.835938 -3.125,-3.992188 0,-2.40625 1.65625,-3.992187 3.34375,-3.992187 1.414062,0 2.234372,1.390625 2.234372,2.429687 z m 13.85352,-7.257812 h -1.88281 v 6.835937 c 0,1.835938 -1.34375,2.578125 -2.75782,2.578125 -1.63281,0 -1.78125,-0.539062 -1.78125,-1.5625 v -7.851562 h -1.88281 v 7.976562 c 0,1.9375 0.66406,2.875 2.375,2.875 0.84375,0 2.75781,-0.195312 4.09375,-1.4375 v 1.242188 h 1.83594 z m 11.17578,3.640625 c 0,-2.328125 -1.66406,-3.9375 -3.89062,-3.9375 -1.09375,0 -2.28125,0.195312 -3.64844,0.984375 l 0.14844,1.640625 c 0.625,-0.445313 1.6875,-1.164063 3.47656,-1.164063 1.26562,0 2.03125,0.960938 2.03125,2.5 v 0.945313 c -3.96875,0.125 -6.44531,1.265625 -6.44531,3.21875 0,1.015625 0.61718,3.023437 2.67968,3.023437 0.36719,0 2.375,-0.04687 3.8125,-1.109375 v 0.914063 h 1.83594 z m -1.88281,3.742187 c 0,0.445313 0,1.039063 -0.74219,1.492188 -0.64844,0.414062 -1.46094,0.46875 -1.8125,0.46875 -1.24219,0 -2.07812,-0.695313 -2.07812,-1.5625 0,-1.734375 3.86718,-1.90625 4.63281,-1.9375 z m 7.8789,-5.945312 h 3.21875 v -1.4375 h -3.21875 v -3.054688 h -1.75781 v 3.054688 h -1.96094 v 1.4375 h 1.90625 v 6.265625 c 0,1.414062 0.32813,3.148437 1.96094,3.148437 1.24219,0 2.38281,-0.34375 3.46875,-0.914062 l -0.39844,-1.460938 c -0.59375,0.515625 -1.3125,0.8125 -2.07812,0.8125 -1.09375,0 -1.14063,-1.382812 -1.14063,-2.007812 z m 8.06641,-7.09375 h -2.07812 v 2.085937 h 2.07812 z m -0.11719,5.65625 h -1.83593 v 10.65625 h 1.83593 z m 12.79883,5.351562 c 0,-3.171875 -2.35156,-5.648437 -5.125,-5.648437 -2.85156,0 -5.15625,2.546875 -5.15625,5.648437 0,3.148438 2.375,5.5 5.125,5.5 2.82813,0 5.15625,-2.429687 5.15625,-5.5 z m -5.125,3.9375 c -1.76562,0 -3.27344,-1.4375 -3.27344,-4.132812 0,-2.875 1.75782,-3.945313 3.24219,-3.945313 1.61719,0 3.27344,1.164063 3.27344,3.945313 0,2.796875 -1.60938,4.132812 -3.24219,4.132812 z m 15.9668,-5.875 c 0,-1.554687 -0.375,-3.617187 -3.17188,-3.617187 -1.58593,0 -2.63281,0.820312 -3.32812,1.664062 v -1.539062 h -1.80469 v 10.734375 h 1.88281 v -6 c 0,-1.5625 0.59375,-3.34375 2.28125,-3.34375 2.17969,0 2.25782,1.460937 2.25782,2.304687 v 7.039063 h 1.88281 z m 22.0039,-2.007812 -1.1875,3.5 c -0.19531,0.640625 -0.86718,2.648437 -1.01562,3.445312 h -0.0234 c -0.0781,-0.5 -0.22656,-1.015625 -0.625,-2.28125 -0.21875,-0.742187 -0.46875,-1.515625 -0.71875,-2.203125 l -3.66406,-10.414062 h -2.89844 v 17.203125 h 1.92969 V 14.69213 h 0.0234 c 0,0.02344 0.22656,1.117188 1.73437,5.453125 l 3.27344,9.34375 h 1.83594 l 2.95312,-8.304687 c 0.19531,-0.570313 0.8125,-2.375 1.08594,-3.242188 0.25,-0.75 0.86719,-2.578125 1.01562,-3.296875 h 0.0234 v 15.242188 h 1.96094 V 12.684318 h -2.875 z m 18.90625,3.945312 c 0,-3.171875 -2.35156,-5.648437 -5.125,-5.648437 -2.85156,0 -5.15625,2.546875 -5.15625,5.648437 0,3.148438 2.375,5.5 5.125,5.5 2.82813,0 5.15625,-2.429687 5.15625,-5.5 z m -5.125,3.9375 c -1.76562,0 -3.27343,-1.4375 -3.27343,-4.132812 0,-2.875 1.75781,-3.945313 3.24218,-3.945313 1.61719,0 3.27344,1.164063 3.27344,3.945313 0,2.796875 -1.60937,4.132812 -3.24219,4.132812 z m 16.58985,-15.835937 h -1.83594 v 7.585937 c -0.77344,-0.648437 -2.03125,-1.242187 -3.42187,-1.242187 -2.25782,0 -4.03907,2.453125 -4.03907,5.53125 0,3.070312 1.75782,5.523437 3.96094,5.523437 1.71094,0 2.85156,-0.914062 3.44531,-1.4375 v 1.242188 h 1.89063 z m -1.89063,13.882812 c 0,0.34375 0,0.71875 -0.76562,1.390625 -0.49219,0.414063 -1.09375,0.617188 -1.66406,0.617188 -1.33594,0 -3.09375,-0.992188 -3.09375,-3.992188 0,-3.125 1.98437,-4.039062 3.34375,-4.039062 0.92187,0 1.66406,0.445312 2.17968,1.1875 z m 13.46289,-2.109375 c 0,-0.820312 -0.0547,-2.40625 -0.84375,-3.71875 -0.86718,-1.414062 -2.28125,-1.804687 -3.35156,-1.804687 -2.57812,0 -4.75781,2.421875 -4.75781,5.570312 0,3.078125 2.25781,5.578125 5.10937,5.578125 1.11719,0 2.47657,-0.320312 3.71875,-1.210937 0,-0.101563 -0.0547,-0.648438 -0.0781,-0.671875 0,-0.04687 -0.0703,-0.8125 -0.0703,-0.914063 -1.19532,0.96875 -2.55469,1.289063 -3.54688,1.289063 -1.58594,0 -3.29687,-1.34375 -3.375,-4.117188 z m -6.99218,-1.359375 c 0.32031,-1.367187 1.41406,-2.65625 2.79687,-2.65625 0.375,0 2.10938,0.04687 2.55469,2.65625 z m 11.32617,-10.414062 h -1.83594 v 17.203125 h 1.83594 z m 9.83008,6.992187 c -1.46094,-0.695312 -2.60157,-0.742187 -3.35157,-0.742187 -1.75781,0 -3.86718,0.617187 -3.86718,3.117187 0,2.507813 2.72656,3.054688 3.47656,3.203125 1.14062,0.21875 2.39844,0.46875 2.39844,1.710938 0,1.554687 -1.78125,1.554687 -2.10157,1.554687 -0.99218,0 -2.35937,-0.265625 -3.59375,-1.164062 l -0.30468,1.664062 c 1.41406,0.820313 2.78125,1.0625 3.92187,1.0625 3.04688,0 3.8125,-1.859375 3.8125,-3.265625 0,-1.21875 -0.6875,-2.039062 -1.16406,-2.40625 -0.8125,-0.648437 -1.10938,-0.71875 -3.14844,-1.140625 -0.34375,-0.05469 -1.5625,-0.320312 -1.5625,-1.4375 0,-1.414062 1.5625,-1.414062 1.91406,-1.414062 1.60938,0 2.60157,0.492187 3.27344,0.867187 z M 69.159734,49.119865 h -1.882812 l -1.3125,4.460937 c -0.273438,0.9375 -1.039063,3.539063 -1.140625,4.757813 h -0.02344 c -0.04687,-0.742188 -0.46875,-2.53125 -1.164062,-4.882813 L 62.37067,49.119865 h -1.710938 l -1.242187,4.234375 c -0.617188,2.15625 -1.085938,3.992187 -1.132813,4.984375 h -0.03125 c -0.09375,-1.460938 -1.109375,-4.882813 -1.257812,-5.429688 l -1.117188,-3.789062 h -1.9375 l 3.226563,10.65625 h 1.882812 c 1.289063,-4.265625 2.28125,-7.5625 2.351563,-9.21875 0.05469,0.8125 0.476562,2.578125 0.71875,3.445312 l 1.640625,5.773438 h 2.179687 z m 4.128907,-5.65625 h -2.078125 v 2.085937 h 2.078125 z m -0.117188,5.65625 h -1.835937 v 10.65625 h 1.835937 z m 5.986328,1.4375 h 3.21875 v -1.4375 h -3.21875 v -3.054688 h -1.757812 v 3.054688 h -1.960938 v 1.4375 h 1.90625 v 6.265625 c 0,1.414062 0.328125,3.148437 1.960938,3.148437 1.242187,0 2.382812,-0.34375 3.46875,-0.914062 l -0.398438,-1.460938 c -0.59375,0.515625 -1.3125,0.8125 -2.078125,0.8125 -1.09375,0 -1.140625,-1.382812 -1.140625,-2.007812 z m 14.417969,1.976562 c 0,-1.554687 -0.375,-3.617187 -3.171875,-3.617187 -1.5625,0 -2.578125,0.773437 -3.296875,1.609375 V 42.57299 h -1.835937 v 17.203125 h 1.882812 v -6 c 0,-1.5625 0.59375,-3.34375 2.28125,-3.34375 2.179688,0 2.257813,1.460937 2.257813,2.304687 v 7.039063 h 1.882812 z m 13.2832,-9.960937 h -1.83593 v 17.203125 h 1.83593 z m 11.16602,10.1875 c 0,-2.328125 -1.66406,-3.9375 -3.89063,-3.9375 -1.09375,0 -2.28125,0.195312 -3.64843,0.984375 l 0.14843,1.640625 c 0.625,-0.445313 1.6875,-1.164063 3.47657,-1.164063 1.26562,0 2.03125,0.960938 2.03125,2.5 v 0.945313 c -3.96875,0.125 -6.44532,1.265625 -6.44532,3.21875 0,1.015625 0.61719,3.023437 2.67969,3.023437 0.36719,0 2.375,-0.04687 3.8125,-1.109375 v 0.914063 h 1.83594 z m -1.88281,3.742187 c 0,0.445313 0,1.039063 -0.74219,1.492188 -0.64844,0.414062 -1.46094,0.46875 -1.8125,0.46875 -1.24219,0 -2.07813,-0.695313 -2.07813,-1.5625 0,-1.734375 3.86719,-1.90625 4.63282,-1.9375 z m 14.09961,-7.382812 h -1.92969 l -1.66406,4.632812 c -0.51563,1.515625 -1.26563,3.59375 -1.38282,4.65625 h -0.0312 c -0.0469,-0.445312 -0.24218,-1.085937 -0.36718,-1.53125 -0.14844,-0.546875 -0.35157,-1.195312 -0.5,-1.640625 l -2.17969,-6.117187 h -1.98438 l 3.92188,10.65625 h 2.20312 z m 9.6582,3.640625 c 0,-2.328125 -1.66406,-3.9375 -3.89063,-3.9375 -1.09375,0 -2.28125,0.195312 -3.64843,0.984375 l 0.14843,1.640625 c 0.625,-0.445313 1.6875,-1.164063 3.47657,-1.164063 1.26562,0 2.03125,0.960938 2.03125,2.5 v 0.945313 c -3.96875,0.125 -6.44532,1.265625 -6.44532,3.21875 0,1.015625 0.61719,3.023437 2.67969,3.023437 0.36719,0 2.375,-0.04687 3.8125,-1.109375 v 0.914063 h 1.83594 z m -1.88281,3.742187 c 0,0.445313 0,1.039063 -0.74219,1.492188 -0.64844,0.414062 -1.46094,0.46875 -1.8125,0.46875 -1.24219,0 -2.07813,-0.695313 -2.07813,-1.5625 0,-1.734375 3.86719,-1.90625 4.63282,-1.9375 z M 151.0777,52.76049 c 0,-2.328125 -1.66406,-3.9375 -3.89062,-3.9375 -1.09375,0 -2.28125,0.195312 -3.64844,0.984375 l 0.14844,1.640625 c 0.625,-0.445313 1.6875,-1.164063 3.47656,-1.164063 1.26563,0 2.03125,0.960938 2.03125,2.5 v 0.945313 c -3.96875,0.125 -6.44531,1.265625 -6.44531,3.21875 0,1.015625 0.61719,3.023437 2.67969,3.023437 0.36718,0 2.375,-0.04687 3.8125,-1.109375 v 0.914063 h 1.83593 z m -1.88281,3.742187 c 0,0.445313 0,1.039063 -0.74219,1.492188 -0.64843,0.414062 -1.46093,0.46875 -1.8125,0.46875 -1.24218,0 -2.07812,-0.695313 -2.07812,-1.5625 0,-1.734375 3.86719,-1.90625 4.63281,-1.9375 z m 13.87891,-3.96875 c 0,-1.554687 -0.375,-3.617187 -3.17188,-3.617187 -1.58594,0 -2.63281,0.820312 -3.32812,1.664062 V 49.04174 h -1.80469 v 10.734375 h 1.88281 v -6 c 0,-1.5625 0.59375,-3.34375 2.28125,-3.34375 2.17969,0 2.25781,1.460937 2.25781,2.304687 v 7.039063 h 1.88282 z m 0,0"
       style="fill:#cb6015;fill-opacity:1;fill-rule:nonzero;stroke:none"
       aria-label="Reproducingpublished&#10;StructuralEquationModels&#10;withlavaan"
       transform="matrix(2,0,0,2,67.036,68.049333)" />
  </g>
</svg>
