<?xml version="1.0" encoding="UTF-8" standalone="no"?>
<!-- Created with Inkscape (http://www.inkscape.org/) -->

<svg
   version="1.1"
   id="svg1"
   width="754.14801"
   height="221.224"
   viewBox="0 0 754.14801 221.224"
   sodipodi:docname="Banner.svg"
   inkscape:version="1.3.2 (091e20e, 2023-11-25, custom)"
   xmlns:inkscape="http://www.inkscape.org/namespaces/inkscape"
   xmlns:sodipodi="http://sodipodi.sourceforge.net/DTD/sodipodi-0.dtd"
   xmlns="http://www.w3.org/2000/svg"
   xmlns:svg="http://www.w3.org/2000/svg">
  <defs
     id="defs1" />
  <sodipodi:namedview
     id="namedview1"
     pagecolor="#ffffff"
     bordercolor="#000000"
     borderopacity="0.25"
     inkscape:showpageshadow="2"
     inkscape:pageopacity="0.0"
     inkscape:pagecheckerboard="0"
     inkscape:deskcolor="#d1d1d1"
     showgrid="false"
     inkscape:zoom="1.3525196"
     inkscape:cx="377.07401"
     inkscape:cy="110.90412"
     inkscape:window-width="1920"
     inkscape:window-height="991"
     inkscape:window-x="-9"
     inkscape:window-y="-9"
     inkscape:window-maximized="1"
     inkscape:current-layer="g1">
    <inkscape:page
       x="0"
       y="0"
       inkscape:label="1"
       id="page1"
       width="754.14801"
       height="221.224"
       margin="0"
       bleed="0" />
  </sodipodi:namedview>
  <g
     id="g1"
     inkscape:groupmode="layer"
     inkscape:label="1">
    <path
       id="path1"
       d="m 0,72.00124 -62.3548,-36.00049 -1e-5,-72.00122 L 0,-72.00124 l 62.3548,36.00049 1e-5,72.00122 z"
       style="fill:#cb6015;fill-opacity:1;fill-rule:nonzero;stroke:#999999;stroke-width:1.99255;stroke-linecap:butt;stroke-linejoin:miter;stroke-miterlimit:10;stroke-dasharray:none;stroke-opacity:1"
       transform="matrix(1.3333333,0,0,-1.3333333,656.39733,110.612)" />
    <path
       id="path2"
       d="M -55.27617,-12.75595 H -41.1028 V 1.41742 h -14.17337 z"
       style="fill:#ccccff;fill-opacity:1;fill-rule:nonzero;stroke:#000000;stroke-width:0.3985;stroke-linecap:butt;stroke-linejoin:miter;stroke-miterlimit:10;stroke-dasharray:none;stroke-opacity:1"
       transform="matrix(1.3333333,0,0,-1.3333333,656.39733,110.612)" />
    <path
       id="path3"
       d="M 3.68075,-3.6455937 6.0830938,-6.915125 H 5.1221563 l -1.875,2.6015625 -1.9335938,-2.6015625 h -1.03125 l 2.5429688,3.2695313 -2.6835938,3.6445312 H 1.102625 L 3.2471563,-3.0479375 5.462,-0.0010625 h 1.03125 z m 0,0"
       style="fill:#000000;fill-opacity:1;fill-rule:nonzero;stroke:none"
       aria-label="X"
       transform="matrix(1.3333333,0,0,1.3333333,587.71733,122.78267)" />
    <path
       id="path4"
       d="M 41.10278,-12.75595 H 55.27615 V 1.41742 H 41.10278 Z"
       style="fill:#ccccff;fill-opacity:1;fill-rule:nonzero;stroke:#000000;stroke-width:0.3985;stroke-linecap:butt;stroke-linejoin:miter;stroke-miterlimit:10;stroke-dasharray:none;stroke-opacity:1"
       transform="matrix(1.3333333,0,0,-1.3333333,656.39733,110.612)" />
    <path
       id="path5"
       d="M 6.6103672,-6.915125 H 5.7314609 l -1.546875,2.25 c -0.046875,0.070312 -0.09375,0.1523438 -0.1640625,0.2578125 l -0.609375,0.9492188 c -0.1875,-0.3046875 -0.1875,-0.328125 -0.3632812,-0.5625 L 1.0791172,-6.915125 H 0.03614844 l 2.85937496,4.1484375 v 2.765625 h 0.8554688 v -2.7539062 z m 0,0"
       style="fill:#000000;fill-opacity:1;fill-rule:nonzero;stroke:none"
       aria-label="Y"
       transform="matrix(1.3333333,0,0,1.3333333,716.22133,122.78267)" />
    <path
       id="path6"
       d="M -9.92154,41.10278 H 4.25183 V 55.27615 H -9.92154 Z"
       style="fill:#ccccff;fill-opacity:1;fill-rule:nonzero;stroke:#000000;stroke-width:0.3985;stroke-linecap:butt;stroke-linejoin:miter;stroke-miterlimit:10;stroke-dasharray:none;stroke-opacity:1"
       transform="matrix(1.3333333,0,0,-1.3333333,656.39733,110.612)" />
    <path
       id="path7"
       d="m 5.2846719,-3.5385703 c -0.3515625,0.9140625 -0.8203125,2.1445312 -0.9375,2.61328124 C 4.2885781,-1.1362266 4.1713906,-1.4995078 4.0190469,-1.9213828 l -1.5585938,-4.125 -0.3398437,-0.8671875 H 0.99560938 V 4.921875e-4 H 1.7690469 V -6.1752891 h 0.011719 c 0.058594,0.3164063 0.4570313,1.40625 0.7148438,2.0859375 l 1.4765625,3.86718754 H 4.6987344 L 6.0229531,-3.6909141 c 0.3164063,-0.8085937 0.4101563,-1.0546875 0.4804688,-1.2539062 0.1054687,-0.2929688 0.375,-1.0078125 0.421875,-1.2421875 l 0.011719,0.011719 V 4.921875e-4 H 7.7104531 V -6.9135703 H 6.5737344 Z m 0,0"
       style="fill:#000000;fill-opacity:1;fill-rule:nonzero;stroke:none"
       aria-label="M"
       transform="matrix(1.3333333,0,0,1.3333333,646.80533,50.972)" />
    <path
       id="path8"
       d="M -40.90353,-5.66927 H 36.24445"
       style="fill:none;stroke:#000000;stroke-width:0.3985;stroke-linecap:butt;stroke-linejoin:miter;stroke-miterlimit:10;stroke-dasharray:none;stroke-opacity:1"
       transform="matrix(1.3333333,0,0,-1.3333333,656.39733,110.612)" />
    <path
       id="path9"
       d="M 5.10188,0 0.64343,1.67842 2.10616,0 0.64343,-1.67842 Z"
       style="fill:#000000;fill-opacity:1;fill-rule:nonzero;stroke:#000000;stroke-width:0.3985;stroke-linecap:butt;stroke-linejoin:miter;stroke-miterlimit:10;stroke-dasharray:none;stroke-opacity:1"
       transform="matrix(1.3333333,0,0,-1.3333333,702.04787,118.17103)" />
    <g
       id="g9"
       aria-label="c&#10;′"
       transform="matrix(1.3333333,0,0,1.3333333,651.06533,115.248)">
      <path
         id="path10"
         d="m 4.7937734,-1.2904922 c -0.5507812,0.44531251 -1.1601562,0.66796876 -1.828125,0.66796876 -0.9960937,0 -1.640625,-0.89062496 -1.640625,-2.03906246 0,-0.9960938 0.4804688,-2.0859375 1.6757813,-2.0859375 0.796875,0 1.1367187,0.1875 1.6523437,0.5390625 l 0.140625,-0.7734375 C 4.1023672,-5.3920547 3.7039297,-5.4858047 3.0008047,-5.4858047 c -1.6523438,0 -2.57812501,1.453125 -2.57812501,2.8242188 0,1.5234375 1.10156251,2.77734371 2.53125001,2.77734371 0.5859375,0 1.2539062,-0.140625 1.9101562,-0.62109375 0,-0.0351563 -0.035156,-0.41015625 -0.046875,-0.45703125 z m 0,0"
         style="fill:#000000;fill-opacity:1;fill-rule:nonzero;stroke:none" />
      <path
         id="path11"
         d="m 7.3133047,-8.1108047 c 0.046875,-0.1054687 0.070312,-0.1640625 0.070312,-0.2460937 0,-0.2578125 -0.234375,-0.4335938 -0.4570313,-0.4335938 -0.3164062,0 -0.4101562,0.28125 -0.4453125,0.3867188 l -1.0078125,3.4335937 c -0.035156,0.09375 -0.035156,0.1171875 -0.035156,0.1289063 0,0.070312 0.046875,0.09375 0.1289062,0.1171875 0.1523438,0.058594 0.1640625,0.058594 0.1757813,0.058594 0.023437,0 0.070312,0 0.1289062,-0.1289062 z m 0,0"
         style="fill:#000000;fill-opacity:1;fill-rule:nonzero;stroke:none" />
    </g>
    <path
       id="path12"
       d="M -45.53763,1.61667 -8.8125,37.64113"
       style="fill:none;stroke:#000000;stroke-width:0.3985;stroke-linecap:butt;stroke-linejoin:miter;stroke-miterlimit:10;stroke-dasharray:none;stroke-opacity:1"
       transform="matrix(1.3333333,0,0,-1.3333333,656.39733,110.612)" />
    <path
       id="path13"
       d="M 5.10188,0 0.64343,1.67842 2.10616,0 0.64343,-1.67842 Z"
       style="fill:#000000;fill-opacity:1;fill-rule:nonzero;stroke:#000000;stroke-width:0.3985;stroke-linecap:butt;stroke-linejoin:miter;stroke-miterlimit:10;stroke-dasharray:none;stroke-opacity:1"
       transform="matrix(0.95178667,-0.93364,-0.93364,-0.95178667,642.73755,62.2972)" />
    <path
       id="path14"
       d="m 4.6769922,-3.5030938 c 0,-1.1484375 -0.8320313,-1.9804687 -1.9335938,-1.9804687 -0.7265625,0 -1.265625,0.1640625 -1.83984371,0.5039062 L 0.97386719,-4.1945 C 1.5012109,-4.5812188 2.0402734,-4.7921563 2.7433984,-4.7921563 c 0.5507813,0 1.0195313,0.4453125 1.0195313,1.3125 v 0.4921875 c -0.5390625,0.023437 -1.2539063,0.058594 -1.96875,0.2929688 -0.79687501,0.28125 -1.26562501,0.7265625 -1.26562501,1.3242187 0,0.5273438 0.3046875,1.4882813 1.32421871,1.4882813 0.65625,0 1.5,-0.1875 1.9335938,-0.5625 V 8.125e-4 h 0.890625 z m -0.9140625,1.8984375 c 0,0.2460938 0,0.5273438 -0.3867188,0.77343755 -0.328125,0.19921875 -0.7382812,0.234375 -0.9140625,0.234375 -0.6445312,0 -1.0898437,-0.3515625 -1.0898437,-0.78515625 0,-0.8203125 1.6640625,-0.9960938 2.390625,-0.9960938 z m 0,0"
       style="fill:#000000;fill-opacity:1;fill-rule:nonzero;stroke:none"
       aria-label="a"
       transform="matrix(1.3333333,0,0,1.3333333,611.98667,79.342667)" />
    <path
       id="path15"
       d="M -0.183,40.90353 42.00407,4.653"
       style="fill:none;stroke:#000000;stroke-width:0.3985;stroke-linecap:butt;stroke-linejoin:miter;stroke-miterlimit:10;stroke-dasharray:none;stroke-opacity:1"
       transform="matrix(1.3333333,0,0,-1.3333333,656.39733,110.612)" />
    <path
       id="path16"
       d="M 5.10188,0 0.64343,1.67842 2.10616,0 0.64343,-1.67842 Z"
       style="fill:#000000;fill-opacity:1;fill-rule:nonzero;stroke:#000000;stroke-width:0.3985;stroke-linecap:butt;stroke-linejoin:miter;stroke-miterlimit:10;stroke-dasharray:none;stroke-opacity:1"
       transform="matrix(1.0112267,0.86893333,0.86893333,-1.0112267,710.37369,102.66445)" />
    <path
       id="path17"
       d="M 1.8154219,-8.2960625 H 0.93651563 V 8.125e-4 H 1.8388594 V -0.53825 C 2.3896406,-0.01090625 2.9755781,0.118 3.3974531,0.118 c 1.1367188,0 2.1679688,-1.1601563 2.1679688,-2.7773438 0,-1.4765625 -0.7851563,-2.765625 -1.8984375,-2.765625 -0.3398438,0 -1.1132813,0.070312 -1.8515625,0.6679688 z m 0.023437,4.265625 c 0.2109375,-0.328125 0.6445312,-0.6796875 1.2304687,-0.6796875 0.7265625,0 1.59375,0.5507812 1.59375,2.0507812 0,1.546875 -0.984375,2.06250005 -1.7109375,2.06250005 -0.3398437,0 -0.5625,-0.1171875 -0.7734375,-0.28125 C 1.8857344,-1.1359063 1.8388594,-1.3468438 1.8388594,-1.5577813 Z m 0,0"
       style="fill:#000000;fill-opacity:1;fill-rule:nonzero;stroke:none"
       aria-label="b"
       transform="matrix(1.3333333,0,0,1.3333333,689.556,79.342667)" />
    <path
       id="path18"
       d="M 62.5621,10.51659 58.37738,5.26126"
       style="fill:none;stroke:#000000;stroke-width:0.3985;stroke-linecap:butt;stroke-linejoin:miter;stroke-miterlimit:10;stroke-dasharray:none;stroke-opacity:1"
       transform="matrix(1.3333333,0,0,-1.3333333,656.39733,110.612)" />
    <path
       id="path19"
       d="M 5.10188,0 0.64343,1.67842 2.10616,0 0.64343,-1.67842 Z"
       style="fill:#000000;fill-opacity:1;fill-rule:nonzero;stroke:#000000;stroke-width:0.3985;stroke-linecap:butt;stroke-linejoin:miter;stroke-miterlimit:10;stroke-dasharray:none;stroke-opacity:1"
       transform="matrix(-0.83048,1.0430133,1.0430133,0.83048,735.90024,101.50413)" />
    <path
       id="path20"
       d="M 11.53778,64.37534 7.35306,59.12001"
       style="fill:none;stroke:#000000;stroke-width:0.3985;stroke-linecap:butt;stroke-linejoin:miter;stroke-miterlimit:10;stroke-dasharray:none;stroke-opacity:1"
       transform="matrix(1.3333333,0,0,-1.3333333,656.39733,110.612)" />
    <path
       id="path21"
       d="M 5.10188,0 0.64343,1.67842 2.10616,0 0.64343,-1.67842 Z"
       style="fill:#000000;fill-opacity:1;fill-rule:nonzero;stroke:#000000;stroke-width:0.3985;stroke-linecap:butt;stroke-linejoin:miter;stroke-miterlimit:10;stroke-dasharray:none;stroke-opacity:1"
       transform="matrix(-0.83048,1.0430133,1.0430133,0.83048,667.86781,29.692467)" />
    <path
       id="path22"
       d="m 3.223,-5.2744375 c -0.2578125,-0.058594 -0.9960937,-0.328125 -0.9960937,-1.0195312 0,-1.0078125 1.0078125,-1.03125 1.4179687,-1.03125 0.6679688,0 1.265625,0.1523437 1.8515625,0.7265625 0.1992188,0.1757812 0.2109375,0.1875 0.2578125,0.1875 0.070312,0 0.1289063,-0.035156 0.1640625,-0.2109375 l 0.1757813,-1.0429688 c 0.023437,-0.09375 0.023437,-0.1171875 0.023437,-0.1523437 0,-0.09375 -0.011719,-0.1054688 -0.3046875,-0.2695313 -0.8554688,-0.4101562 -1.5585938,-0.46875 -2.1679688,-0.46875 -1.0664062,0 -2.91796875,0.2460938 -2.91796875,2.484375 0,0.84375 0.44531255,1.3945313 0.66796875,1.640625 0.609375,0.6210938 1.171875,0.7382813 2.109375,0.9492188 0.6679688,0.1523437 0.9257813,0.2226562 1.1953125,0.4570312 0.1171875,0.1171875 0.3632813,0.375 0.3632813,0.8203125 0,1.125 -1.0195313,1.1601563 -1.4179688,1.1601563 -1.0078125,0 -1.875,-0.3984375 -2.4726562,-0.9375 -0.140625,-0.1523438 -0.1640625,-0.1523438 -0.21093755,-0.1523438 -0.0820313,0 -0.140625,0.035156 -0.17578125,0.2226563 l -0.17578125,1.0429687 c -0.0234375,0.09375 -0.0234375,0.1171875 -0.0234375,0.15234375 0,0.24609375 1.24218755,0.6796875 1.30078125,0.703125 0.8085938,0.24609375 1.453125,0.26953125 1.7578125,0.26953125 1.7929688,0 2.9179688,-0.796875 2.9179688,-2.6484375 0,-1.3359375 -0.9960938,-2.34375 -2.1914063,-2.6132812 z m 6.931641,1.5585938 h 3.140625 c 0.375,0 0.574218,-0.082031 0.574218,-0.5625 0,-0.4453125 -0.152343,-0.5625 -0.574218,-0.5625 h -3.140625 v -2.2148438 h 0.585937 c 0.925781,0 1.875,0.035156 2.800781,0.035156 0.421875,0 0.703125,0 0.703125,-0.5742188 V -7.6885 c 0,-0.3867187 -0.09375,-0.5742187 -0.574218,-0.5742187 H 8.9710469 c -0.4335938,0 -0.5742188,0.1289062 -0.5742188,0.5742187 v 7.11328125 C 8.3968281,-0.141625 8.5257344,-0.001 8.9710469,-0.001 h 4.8750001 c 0.457031,0 0.574219,-0.15234375 0.574219,-0.57421875 v -0.1640625 C 14.420266,-1.3135 14.139016,-1.3135 13.752297,-1.3135 c -0.621094,0 -1.230469,0.023437 -1.851563,0.023437 -0.304687,0 -1.535156,0.011719 -1.746093,0.023437 z m 11.455078,-0.1992188 c -0.246094,0.609375 -0.691406,1.7109375 -0.785156,2.1328125 h -0.01172 c -0.105469,-0.4335937 -0.597656,-1.6171875 -0.855469,-2.25 L 18.433938,-7.8056875 C 18.223,-8.297875 17.848,-8.297875 17.625344,-8.297875 h -0.984375 c -0.433594,0 -0.574219,0.1289063 -0.574219,0.5742188 v 7.14843745 c 0,0.43359375 0.128906,0.57421875 0.574219,0.57421875 h 0.316406 c 0.457031,0 0.574219,-0.15234375 0.574219,-0.57421875 V -6.751 h 0.01172 c 0.140625,0.5390625 0.667968,1.8632813 0.960937,2.5664063 l 1.382813,3.4101562 c 0.222656,0.515625 0.503906,0.515625 0.914062,0.515625 0.398438,0 0.691406,0 0.902344,-0.515625 l 1.535156,-3.7617187 c 0.117188,-0.28125 0.761719,-1.9101563 0.84375,-2.2148438 h 0.01172 v 6.17578125 c 0,0.38671875 0.08203,0.57421875 0.574219,0.57421875 h 0.328125 c 0.457031,0 0.574218,-0.15234375 0.574218,-0.57421875 V -7.7236562 c 0,-0.3867188 -0.08203,-0.5742188 -0.574218,-0.5742188 h -1.007813 c -0.292969,0 -0.597656,0.023437 -0.796875,0.515625 z M 31.400734,-1.6885 c 0,-0.6679687 -0.363281,-1.0898437 -0.574218,-1.2773437 C 30.346047,-3.3994375 29.924172,-3.46975 29.431984,-3.5635 c -0.65625,-0.1171875 -1.136718,-0.2109375 -1.136718,-0.6796875 0,-0.4921875 0.386718,-0.5859375 0.855468,-0.5859375 0.808594,0 1.230469,0.2929688 1.546875,0.5625 0.117188,0.1171875 0.140625,0.1171875 0.1875,0.1171875 0.117188,0 0.140625,-0.1054687 0.152344,-0.1523437 0.02344,-0.09375 0.152344,-0.7617188 0.152344,-0.8320313 0,-0.1875 -0.632813,-0.3515625 -0.773438,-0.3984375 -0.480468,-0.1289062 -0.855468,-0.1523437 -1.171875,-0.1523437 -0.539062,0 -2.132812,0 -2.132812,1.7109375 0,0.5859375 0.257812,0.9492187 0.585937,1.2304687 0.410157,0.3867188 0.878907,0.46875 1.558594,0.5976563 0.351563,0.070312 0.960938,0.1757812 0.960938,0.703125 0,0.56249995 -0.46875,0.6445312 -0.9375,0.6445312 -0.515625,0 -1.195313,-0.1640625 -1.757813,-0.8320312 -0.05859,-0.058594 -0.09375,-0.09375 -0.164062,-0.09375 -0.117188,0 -0.140625,0.1054687 -0.152344,0.1757812 -0.02344,0.1757813 -0.164063,0.85546875 -0.164063,0.97265625 0,0.2109375 0.878907,0.4921875 0.890625,0.50390625 0.65625,0.19921875 1.148438,0.19921875 1.347657,0.19921875 0.609375,0 2.121093,-0.046875 2.121093,-1.81640625 z m 13.286133,-3.4570312 c -0.03516,-0.328125 -0.246094,-0.328125 -0.621094,-0.328125 -0.5625,0 -0.703125,0.035156 -0.867187,0.65625 -0.269531,0.9140625 -0.785156,2.7890625 -0.972656,3.46875 l -1.007813,-3.5859375 c -0.08203,-0.2695313 -0.164062,-0.5390625 -0.714844,-0.5390625 -0.175781,0 -0.445312,0 -0.621093,0.2695312 -0.105469,0.1875 -0.632813,2.25 -1.042969,3.6445313 l -0.960938,-3.375 C 37.761086,-5.34475 37.63218,-5.4736562 37.139992,-5.4736562 h -0.246094 c -0.222656,0 -0.46875,0 -0.515625,0.328125 l 1.277344,4.59374995 C 37.807961,-0.001 38.112648,-0.001 38.417336,-0.001 h 0.328125 c 0.5625,0 0.667969,-0.17578125 0.796875,-0.65625 0.269531,-0.9960937 0.703125,-2.4960937 0.75,-3.1171875 l 0.01172,-0.011719 c 0.07031,0.6796875 0.597656,2.5664062 0.75,3.1289062 0.140625,0.43359375 0.199218,0.65625 0.796875,0.65625 h 0.808593 c 0.515625,0 0.632813,-0.140625 0.75,-0.55078125 z m 1.526367,-3.1640625 c -0.386718,0 -0.574218,0.070312 -0.574218,0.5507812 v 0.5507813 c 0,0.3867187 0.117187,0.5390625 0.5625,0.5390625 h 0.621093 c 0.574219,0 0.574219,-0.2578125 0.574219,-0.8203125 0,-0.5625 0,-0.8203125 -0.574219,-0.8203125 z m 1.101563,3.4101562 c 0,-0.3867187 -0.08203,-0.5742187 -0.574219,-0.5742187 h -0.445312 c -0.433594,0 -0.574219,0.1289062 -0.574219,0.5742187 v 4.32421875 c 0,0.43359375 0.128906,0.57421875 0.574219,0.57421875 h 0.445312 c 0.457031,0 0.574219,-0.15234375 0.574219,-0.57421875 z m 3.336914,0.28125 h 1.066406 c 0.140625,0 0.574219,0 0.574219,-0.421875 0,-0.4335937 -0.433594,-0.4335937 -0.574219,-0.4335937 H 50.651711 V -6.46975 c 0,-0.375 -0.08203,-0.5742187 -0.574219,-0.5742187 h -0.363281 c -0.433594,0 -0.574219,0.1289062 -0.574219,0.5742187 v 0.9960938 h -0.28125 c -0.128906,0 -0.574219,0 -0.574219,0.4335937 0,0.421875 0.433594,0.421875 0.574219,0.421875 h 0.246094 V -1.59475 c 0,1.20703125 0.421875,1.72265625 1.253906,1.72265625 0.105469,0 0.632813,0 1.253906,-0.1875 0.199219,-0.05859375 0.890625,-0.28125 0.890625,-0.50390625 0,-0.0351563 -0.02344,-0.1171875 -0.09375,-0.375 -0.05859,-0.234375 -0.08203,-0.3046875 -0.1875,-0.3046875 -0.05859,0 -0.07031,0.011719 -0.140625,0.082031 -0.128906,0.09375 -0.457031,0.3632812 -0.960937,0.3632812 -0.28125,0 -0.46875,-0.2109375 -0.46875,-0.9960937 z m 8.208984,0.7265625 c 0,-1.2304687 -0.527343,-1.7109375 -1.746093,-1.7109375 -1.195313,0 -1.746094,0.8203125 -1.910157,1.1601563 h -0.01172 v -3.28125 c 0,-0.3867188 -0.08203,-0.5742188 -0.574219,-0.5742188 h -0.445313 c -0.433593,0 -0.574218,0.1289063 -0.574218,0.5742188 v 7.14843745 c 0,0.43359375 0.128906,0.57421875 0.574218,0.57421875 h 0.480469 c 0.457031,0 0.574219,-0.15234375 0.574219,-0.57421875 V -3.2119375 c 0,-1.0429687 0.691406,-1.5351562 1.3125,-1.5351562 0.574219,0 0.691406,0.28125 0.691406,0.890625 v 3.28124995 C 57.231789,-0.1885 57.31382,-0.001 57.806008,-0.001 h 0.480469 c 0.457031,0 0.574218,-0.15234375 0.574218,-0.57421875 z m 7.426758,-3.8320312 c 0,-0.3867188 -0.08203,-0.5742188 -0.574219,-0.5742188 h -0.445312 c -0.433594,0 -0.574219,0.1289063 -0.574219,0.5742188 v 7.14843745 c 0,0.43359375 0.128906,0.57421875 0.574219,0.57421875 h 0.445312 c 0.457032,0 0.574219,-0.15234375 0.574219,-0.57421875 z m 6.27832,3.9492187 c 0,-1.8867187 -1.816406,-1.9101562 -2.414062,-1.9101562 -0.5625,0 -1.160156,0.058594 -1.957031,0.3867187 -0.246094,0.1054688 -0.316407,0.140625 -0.316407,0.28125 0,0.082031 0.08203,0.7734375 0.09375,0.8671875 0.01172,0.070312 0.07031,0.1289063 0.152344,0.1289063 0.05859,0 0.09375,-0.035156 0.128906,-0.070312 0.515625,-0.5390625 1.113282,-0.796875 1.851563,-0.796875 0.644531,0 0.84375,0.3867187 0.84375,1.1015625 V -3.376 c -0.421875,0 -3.550781,0.023437 -3.550781,1.78125 0,0.84375 0.667968,1.72265625 1.722656,1.72265625 0.398437,0 1.300781,-0.1171875 1.863281,-0.9375 v 0.234375 c 0,0.38671875 0.08203,0.57421875 0.574219,0.57421875 h 0.433594 c 0.457031,0 0.574218,-0.15234375 0.574218,-0.57421875 z m -1.617187,1.9335938 c 0,1.1132812 -1.136719,1.1132812 -1.171875,1.1132812 -0.503906,0 -0.832031,-0.4335937 -0.832031,-0.890625 0,-1.171875 1.664062,-1.2539062 2.003906,-1.265625 z m 7.942383,-3.0703125 c 0.05859,-0.1757813 0.05859,-0.1992188 0.05859,-0.234375 0,-0.328125 -0.292969,-0.328125 -0.46875,-0.328125 H 78.223 c -0.503906,0 -0.632812,0.1757812 -0.738281,0.515625 l -1.183594,3.609375 -1.183594,-3.609375 c -0.08203,-0.2578125 -0.164062,-0.515625 -0.738281,-0.515625 h -0.292969 c -0.175781,0 -0.46875,0 -0.46875,0.328125 0,0.035156 0,0.058594 0.05859,0.234375 l 1.417969,4.40624995 C 75.258156,-0.001 75.633156,-0.001 75.844094,-0.001 H 76.723 c 0.210938,0 0.585938,0 0.75,-0.50390625 z m 5.929687,1.1367187 c 0,-1.8867187 -1.816406,-1.9101562 -2.414062,-1.9101562 -0.5625,0 -1.160156,0.058594 -1.957031,0.3867187 -0.246094,0.1054688 -0.316407,0.140625 -0.316407,0.28125 0,0.082031 0.08203,0.7734375 0.09375,0.8671875 0.01172,0.070312 0.07031,0.1289063 0.152344,0.1289063 0.05859,0 0.09375,-0.035156 0.128906,-0.070312 0.515625,-0.5390625 1.113282,-0.796875 1.851563,-0.796875 0.644531,0 0.84375,0.3867187 0.84375,1.1015625 V -3.376 c -0.421875,0 -3.550781,0.023437 -3.550781,1.78125 0,0.84375 0.667968,1.72265625 1.722656,1.72265625 0.398437,0 1.300781,-0.1171875 1.863281,-0.9375 v 0.234375 c 0,0.38671875 0.08203,0.57421875 0.574219,0.57421875 h 0.433594 c 0.457031,0 0.574218,-0.15234375 0.574218,-0.57421875 z m -1.617187,1.9335938 c 0,1.1132812 -1.136719,1.1132812 -1.171875,1.1132812 -0.503906,0 -0.832031,-0.4335937 -0.832031,-0.890625 0,-1.171875 1.664062,-1.2539062 2.003906,-1.265625 z m 7.892578,-1.9335938 c 0,-1.8867187 -1.816406,-1.9101562 -2.414063,-1.9101562 -0.5625,0 -1.160156,0.058594 -1.957031,0.3867187 -0.246094,0.1054688 -0.316406,0.140625 -0.316406,0.28125 0,0.082031 0.08203,0.7734375 0.09375,0.8671875 0.01172,0.070312 0.07031,0.1289063 0.152344,0.1289063 0.05859,0 0.09375,-0.035156 0.128906,-0.070312 0.515625,-0.5390625 1.113281,-0.796875 1.851562,-0.796875 0.644532,0 0.84375,0.3867187 0.84375,1.1015625 V -3.376 c -0.421875,0 -3.550781,0.023437 -3.550781,1.78125 0,0.84375 0.667969,1.72265625 1.722656,1.72265625 0.398438,0 1.300782,-0.1171875 1.863282,-0.9375 v 0.234375 c 0,0.38671875 0.08203,0.57421875 0.574218,0.57421875 h 0.433594 c 0.457031,0 0.574219,-0.15234375 0.574219,-0.57421875 z m -1.617188,1.9335938 c 0,1.1132812 -1.136718,1.1132812 -1.171875,1.1132812 -0.503906,0 -0.832031,-0.4335937 -0.832031,-0.890625 0,-1.171875 1.664063,-1.2539062 2.003906,-1.265625 z m 8.329102,-2.0507813 c 0,-1.2304687 -0.527344,-1.7109375 -1.746094,-1.7109375 -1.253906,0 -1.792969,0.9023438 -1.945312,1.2304688 h -0.01172 V -4.96975 c 0,-0.3867187 -0.08203,-0.5742187 -0.574219,-0.5742187 H 93.12046 c -0.433594,0 -0.574219,0.1289062 -0.574219,0.5742187 v 4.39453125 c 0,0.43359375 0.128906,0.57421875 0.574219,0.57421875 h 0.480469 c 0.457031,0 0.574218,-0.15234375 0.574218,-0.57421875 V -3.2119375 c 0,-1.0429687 0.691407,-1.5351562 1.3125,-1.5351562 0.574219,0 0.691407,0.28125 0.691407,0.890625 v 3.28124995 c 0,0.38671875 0.08203,0.57421875 0.574218,0.57421875 h 0.480469 c 0.457031,0 0.574219,-0.15234375 0.574219,-0.57421875 z m 0,0"
       style="fill:#ffffff;fill-opacity:1;fill-rule:nonzero;stroke:none"
       aria-label="SEMswithlavaan"
       transform="matrix(1.3333333,0,0,1.3333333,590.70267,161.50133)" />
    <path
       id="path23"
       d="m 8.1447734,-6.7387188 0.035156,-0.023437 C 11.402586,-7.8754375 11.426023,-10.102 11.426023,-10.500438 c 0,-1.957031 -1.9804683,-3.84375 -4.9570308,-3.84375 H 1.8400859 V -4.375e-4 h 1.6875 v -6.5507813 h 3.046875 l 3.6562501,6.5507813 h 1.734375 z M 3.5275859,-7.805125 v -5.378906 h 2.7070313 c 2.625,0 3.5625,1.488281 3.5625,2.683593 0,1.1250005 -0.8320313,2.695313 -3.5625,2.695313 z m 17.0771481,3.28125 c 0,-0.6796875 -0.03516,-2.0039063 -0.703125,-3.1054688 -0.714843,-1.171875 -1.898437,-1.5 -2.789062,-1.5 -2.144531,0 -3.960938,2.0273438 -3.960938,4.640625 0,2.5664063 1.875,4.6523438 4.253907,4.6523438 0.925781,0 2.0625,-0.26953125 3.105468,-1.0078125 0,-0.0820313 -0.04687,-0.5390625 -0.07031,-0.5625 0,-0.035156 -0.05859,-0.6796875 -0.05859,-0.7617188 -0.996094,0.8085938 -2.132812,1.078125 -2.953125,1.078125 -1.324219,0 -2.753906,-1.125 -2.8125,-3.4335937 z m -5.824218,-1.1367188 c 0.269531,-1.1367187 1.183593,-2.2148437 2.332031,-2.2148437 0.316406,0 1.757812,0.046875 2.132812,2.2148437 z m 9.500976,4.73437505 c 0.679688,0.65625 1.617188,1.08984375 2.601563,1.08984375 1.921875,0 3.574218,-1.9804688 3.574218,-4.6289063 0,-2.4375 -1.230468,-4.5820312 -3.011718,-4.5820312 -1.03125,0 -2.273438,0.375 -3.199219,1.1132812 V -8.88325 H 22.71118 V 4.0308125 h 1.570312 z m 0,-5.78906255 c 0.164063,-0.2460937 0.867188,-1.03125 2.003906,-1.03125 1.453125,0 2.601563,1.4882813 2.601563,3.28125 0,2.0507813 -1.40625,3.375 -2.789063,3.375 -0.410156,0 -0.84375,-0.1054687 -1.253906,-0.4570312 -0.5625,-0.5039063 -0.5625,-0.8085938 -0.5625,-1.1015625 z m 9.427735,2.3085938 c 0,-1.9335938 1.417968,-3.234375 3.234375,-3.28125 v -1.359375 c -1.3125,0.023437 -2.554688,0.6796875 -3.304688,1.7578125 V -8.9418438 H 32.17407 v 8.9414063 h 1.535157 z m 12.665039,-0.011719 c 0,-2.6484375 -1.957032,-4.7109375 -4.277344,-4.7109375 -2.367188,0 -4.289063,2.1210938 -4.289063,4.7109375 0,2.625 1.980469,4.5820313 4.277344,4.5820313 2.355469,0 4.289063,-2.0273438 4.289063,-4.5820313 z m -4.277344,3.28125 c -1.464844,0 -2.71875,-1.1953125 -2.71875,-3.4453125 0,-2.4023437 1.464844,-3.2929687 2.707031,-3.2929687 1.335938,0 2.71875,0.9726562 2.71875,3.2929687 0,2.3320313 -1.335937,3.4453125 -2.707031,3.4453125 z M 55.922117,-14.344188 H 54.39868 v 6.3281255 c -0.644532,-0.5390625 -1.699219,-1.03125 -2.847657,-1.03125 -1.886718,0 -3.375,2.0390625 -3.375,4.6054687 0,2.5664063 1.464844,4.6054688 3.304688,4.6054688 1.429687,0 2.378906,-0.76171875 2.871094,-1.1953125 v 1.03125 h 1.570312 z m -1.570312,11.5781255 c 0,0.28125 0,0.5976562 -0.632813,1.1484375 -0.421875,0.3515625 -0.914062,0.5273437 -1.382812,0.5273437 -1.125,0 -2.589844,-0.8320312 -2.589844,-3.328125 0,-2.6015625 1.652344,-3.375 2.789062,-3.375 0.761719,0 1.382813,0.375 1.816407,0.9960938 z M 65.944578,-8.88325 h -1.570312 v 5.6953125 c 0,1.5351562 -1.113282,2.15625 -2.296875,2.15625 -1.359375,0 -1.488282,-0.4570313 -1.488282,-1.3007813 V -8.88325 H 59.018797 V -2.227 c 0,1.60546875 0.5625,2.390625 1.992187,2.390625 0.703125,0 2.285157,-0.1640625 3.410157,-1.1953125 v 1.03125 h 1.523437 z m 9.506836,0.6445312 c 0,-0.1523437 -0.949219,-0.5625 -1.195312,-0.6445312 -0.691407,-0.2460938 -1.558594,-0.2460938 -1.78125,-0.2460938 -2.683594,0 -4.300782,2.3320313 -4.300782,4.6875 0,2.484375 1.804688,4.6054688 4.21875,4.6054688 1.382813,0 2.378907,-0.45703125 3.175782,-0.99609375 L 75.451414,-2.1918438 c -0.890625,0.6796875 -1.921875,1.0546875 -3.035156,1.0546875 -1.617188,0 -2.671875,-1.40625 -2.671875,-3.328125 0,-1.4882812 0.679687,-3.3632812 2.753906,-3.3632812 1.136719,0 1.769531,0.2226562 2.71875,0.8671875 z m 3.84082,-5.3554692 h -1.734375 v 1.734375 h 1.734375 z m -0.105468,4.710938 h -1.535157 v 8.8828125 h 1.535157 z M 89.177,-6.0355938 c 0,-1.3007812 -0.304687,-3.0117187 -2.648437,-3.0117187 -1.3125,0 -2.179688,0.6796875 -2.765625,1.3828125 v -1.2773438 h -1.511719 v 8.9414063 h 1.570312 v -5.0039063 c 0,-1.3007812 0.503907,-2.7890625 1.910157,-2.7890625 1.816406,0 1.875,1.21875 1.875,1.921875 V -4.375e-4 H 89.177 Z m 10.749023,-3.0117187 c -1.183593,0.023437 -2.191406,0.2460937 -3.023437,0.6328125 -0.679688,-0.5273438 -1.382813,-0.6328125 -1.863281,-0.6328125 -1.792969,0 -3.152344,1.4882812 -3.152344,3.2226562 0,1.1132813 0.621094,1.9570313 0.65625,2.0039063 -0.375,0.515625 -0.574219,1.078125 -0.574219,1.6875 0,0.7265625 0.28125,1.2421875 0.515625,1.53515625 -1.078125,0.65625 -1.21875,1.67578125 -1.21875,2.06249995 0,1.5117188 1.875,2.7539063 4.300781,2.7539063 2.4375,0 4.3125,-1.2421875 4.3125,-2.7773438 0,-2.8476562 -3.164062,-2.8710937 -4.03125,-2.8710937 h -1.675781 c -0.304687,0 -1.136719,0 -1.136719,-1.0546875 0,-0.4101563 0.1875,-0.6796875 0.210938,-0.703125 0.316406,0.234375 0.949219,0.5859375 1.792969,0.5859375 1.722656,0 3.140625,-1.453125 3.140625,-3.2226563 0,-0.9960937 -0.445313,-1.7109375 -0.632813,-1.96875 h 0.05859 c 0.05859,0 0.925781,-0.058594 1.242187,-0.058594 0.65625,0 0.726563,0.023437 1.300786,0.082031 z m -4.886718,5.3085937 c -0.691407,0 -1.6875,-0.4335937 -1.6875,-2.0859375 0,-1.8046875 1.136718,-2.0859375 1.675781,-2.0859375 0.703125,0 1.6875,0.4335938 1.6875,2.0859375 0,1.7929688 -1.136719,2.0859375 -1.675781,2.0859375 z m 0.785156,3.82031255 c 0.503906,0 2.589844,0 2.589844,1.40624995 0,0.890625 -1.277344,1.59375 -2.835938,1.59375 -1.570312,0 -2.847656,-0.6796875 -2.847656,-1.6171875 0,-0.1054687 0,-1.38281245 1.429687,-1.38281245 z m 14.203129,-1.0078125 c 0.67968,0.65625 1.61718,1.08984375 2.60156,1.08984375 1.92187,0 3.57422,-1.9804688 3.57422,-4.6289063 0,-2.4375 -1.23047,-4.5820312 -3.01172,-4.5820312 -1.03125,0 -2.27344,0.375 -3.19922,1.1132812 V -8.88325 h -1.53516 V 4.0308125 h 1.57032 z m 0,-5.78906255 c 0.16406,-0.2460937 0.86718,-1.03125 2.0039,-1.03125 1.45313,0 2.60156,1.4882813 2.60156,3.28125 0,2.0507813 -1.40625,3.375 -2.78906,3.375 -0.41015,0 -0.84375,-0.1054687 -1.2539,-0.4570312 -0.5625,-0.5039063 -0.5625,-0.8085938 -0.5625,-1.1015625 z M 125.35864,-8.88325 h -1.57031 v 5.6953125 c 0,1.5351562 -1.11328,2.15625 -2.29688,2.15625 -1.35937,0 -1.48828,-0.4570313 -1.48828,-1.3007813 V -8.88325 h -1.57031 V -2.227 c 0,1.60546875 0.5625,2.390625 1.99219,2.390625 0.70312,0 2.28515,-0.1640625 3.41015,-1.1953125 v 1.03125 h 1.52344 z m 4.63184,-5.460938 h -1.53516 V -4.375e-4 h 1.57031 v -0.92578125 c 0.78516,0.76171875 1.73438,1.08984375 2.58985,1.08984375 1.98047,0 3.58593,-2.0039063 3.58593,-4.6289063 0,-2.390625 -1.23046,-4.5820312 -3.07031,-4.5820312 -1.30078,0 -2.46094,0.5390625 -3.14062,1.0898437 z m 0.0352,7.6054692 c 0.45703,-0.5742187 1.10157,-1.0546875 2.00391,-1.0546875 1.21875,0 2.60156,0.890625 2.60156,3.328125 0,2.6015625 -1.65234,3.375 -2.78906,3.375 -0.41016,0 -0.84375,-0.1054687 -1.25391,-0.4570312 -0.5625,-0.5039063 -0.5625,-0.8085938 -0.5625,-1.1015625 z m 9.9375,-7.6054692 h -1.53515 V -4.375e-4 h 1.53515 z m 4.70508,0.75 h -1.73437 v 1.734375 h 1.73437 z m -0.10547,4.710938 h -1.53515 v 8.8828125 h 1.53515 z m 8.19727,0.375 c -1.21875,-0.5859375 -2.16797,-0.6210938 -2.78906,-0.6210938 -1.46485,0 -3.22266,0.515625 -3.22266,2.6015625 0,2.0859375 2.27344,2.5429688 2.88281,2.6601563 0.96094,0.1875 2.00391,0.3984375 2.00391,1.4296875 0,1.3007812 -1.47656,1.3007812 -1.7461,1.3007812 -0.83203,0 -1.96875,-0.2226562 -3,-0.9726562 L 146.64282,-0.727 c 1.17188,0.6796875 2.30859,0.890625 3.25781,0.890625 2.54297,0 3.1875,-1.546875 3.1875,-2.7304688 0,-1.0078125 -0.57422,-1.6875 -0.97265,-2.0039062 -0.67969,-0.5273438 -0.92578,-0.5976563 -2.625,-0.9492188 -0.29297,-0.035156 -1.30078,-0.2695312 -1.30078,-1.1953125 0,-1.171875 1.30078,-1.171875 1.59375,-1.171875 1.33593,0 2.16796,0.4101563 2.73046,0.7148438 z m 9.24316,2.4726562 c 0,-1.3007812 -0.30469,-3.0117187 -2.64844,-3.0117187 -1.30078,0 -2.14453,0.6328125 -2.74218,1.3359375 v -6.632813 h -1.53516 V -4.375e-4 h 1.57031 v -5.0039063 c 0,-1.3007812 0.50391,-2.7890625 1.91016,-2.7890625 1.81641,0 1.875,1.21875 1.875,1.921875 v 5.8710938 h 1.57031 z m 9.62403,1.5117188 c 0,-0.6796875 -0.0352,-2.0039063 -0.70313,-3.1054688 -0.71484,-1.171875 -1.89844,-1.5 -2.78906,-1.5 -2.14453,0 -3.96094,2.0273438 -3.96094,4.640625 0,2.5664063 1.875,4.6523438 4.25391,4.6523438 0.92578,0 2.0625,-0.26953125 3.10547,-1.0078125 0,-0.0820313 -0.0469,-0.5390625 -0.0703,-0.5625 0,-0.035156 -0.0586,-0.6796875 -0.0586,-0.7617188 -0.99609,0.8085938 -2.13281,1.078125 -2.95313,1.078125 -1.32421,0 -2.7539,-1.125 -2.8125,-3.4335937 z m -5.82422,-1.1367188 c 0.26953,-1.1367187 1.18359,-2.2148437 2.33203,-2.2148437 0.3164,0 1.75781,0.046875 2.13281,2.2148437 z m 14.80957,-8.6835942 h -1.52344 v 6.3281255 c -0.64453,-0.5390625 -1.69922,-1.03125 -2.84766,-1.03125 -1.88672,0 -3.375,2.0390625 -3.375,4.6054687 0,2.5664063 1.46485,4.6054688 3.30469,4.6054688 1.42969,0 2.37891,-0.76171875 2.87109,-1.1953125 v 1.03125 h 1.57032 z m -1.57032,11.5781255 c 0,0.28125 0,0.5976562 -0.63281,1.1484375 -0.42187,0.3515625 -0.91406,0.5273437 -1.38281,0.5273437 -1.125,0 -2.58984,-0.8320312 -2.58984,-3.328125 0,-2.6015625 1.65234,-3.375 2.78906,-3.375 0.76172,0 1.38281,0.375 1.8164,0.9960938 z M -11.718508,11.252492 c -0.902344,-0.539062 -1.898437,-1.019531 -3.574219,-1.019531 -2.660156,0 -4.371093,1.96875 -4.371093,3.972656 0,0.785156 0.222656,1.675781 1.03125,2.578125 0.808593,0.914063 1.710937,1.160156 2.871093,1.453125 0.46875,0.117188 1.277344,0.351563 1.429688,0.410156 1.148437,0.457032 1.710937,1.511719 1.710937,2.496094 0,1.300781 -1.019531,2.683594 -2.8125,2.683594 -0.621093,0 -2.4375,-0.09375 -4.148437,-1.664063 l -0.292969,1.628907 c 1.699219,1.242187 3.539063,1.441406 4.464844,1.441406 2.542969,0 4.359375,-2.003906 4.359375,-4.277344 0,-0.820312 -0.246094,-1.875 -1.113281,-2.847656 -0.855469,-0.925781 -1.59375,-1.136719 -3.292969,-1.59375 -0.972656,-0.246094 -1.582031,-0.410156 -2.097656,-1.054688 -0.351563,-0.445312 -0.539063,-0.890625 -0.539063,-1.441406 0,-1.160156 0.984375,-2.414062 2.800781,-2.414062 0.914063,0 2.085938,0.175781 3.292969,1.300781 z m 5.2148439,5.964844 h 2.6953125 v -1.195313 h -2.6953125 v -2.542968 h -1.4648437 v 2.542968 h -1.6289063 v 1.195313 h 1.59375 v 5.226562 c 0,1.183594 0.2695313,2.625 1.6289063,2.625 1.03125,0 1.9804687,-0.292968 2.8945312,-0.761718 l -0.328125,-1.21875 c -0.5039062,0.433593 -1.1015625,0.679687 -1.734375,0.679687 -0.9140625,0 -0.9609375,-1.160156 -0.9609375,-1.675781 z m 6.65332035,3.28125 c 0,-1.933594 1.41796875,-3.234375 3.23437505,-3.28125 v -1.359375 c -1.3125,0.02344 -2.55468755,0.679687 -3.30468755,1.757812 V 15.96343 H -1.3855 v 8.941406 H 0.14965625 Z M 12.135008,16.022023 h -1.570313 v 5.695313 c 0,1.535156 -1.1132809,2.15625 -2.2968747,2.15625 -1.359375,0 -1.4882812,-0.457031 -1.4882812,-1.300781 V 16.022023 H 5.2092266 v 6.65625 c 0,1.605469 0.5625,2.390625 1.9921875,2.390625 0.703125,0 2.2851562,-0.164062 3.4101559,-1.195312 v 1.03125 h 1.523438 z m 9.506836,0.644532 c 0,-0.152344 -0.949219,-0.5625 -1.195313,-0.644532 -0.691406,-0.246093 -1.558593,-0.246093 -1.78125,-0.246093 -2.683593,0 -4.300781,2.332031 -4.300781,4.6875 0,2.484375 1.804688,4.605468 4.21875,4.605468 1.382813,0 2.378906,-0.457031 3.175781,-0.996093 L 21.641844,22.71343 c -0.890625,0.679687 -1.921875,1.054687 -3.035156,1.054687 -1.617188,0 -2.671875,-1.40625 -2.671875,-3.328125 0,-1.488281 0.679687,-3.363281 2.753906,-3.363281 1.136719,0 1.769531,0.222656 2.71875,0.867187 z m 4.12207,0.550781 h 2.695313 V 16.022023 H 25.763914 V 13.479055 H 24.29907 v 2.542968 h -1.628906 v 1.195313 h 1.59375 v 5.226562 c 0,1.183594 0.269531,2.625 1.628906,2.625 1.03125,0 1.980469,-0.292968 2.894532,-0.761718 l -0.328125,-1.21875 c -0.503907,0.433593 -1.101563,0.679687 -1.734375,0.679687 -0.914063,0 -0.960938,-1.160156 -0.960938,-1.675781 z m 12.023438,-1.195313 h -1.570313 v 5.695313 c 0,1.535156 -1.113281,2.15625 -2.296875,2.15625 -1.359375,0 -1.488281,-0.457031 -1.488281,-1.300781 V 16.022023 H 30.86157 v 6.65625 c 0,1.605469 0.5625,2.390625 1.992188,2.390625 0.703125,0 2.285156,-0.164062 3.410156,-1.195312 v 1.03125 h 1.523438 z m 4.628906,4.476563 c 0,-1.933594 1.417969,-3.234375 3.234375,-3.28125 v -1.359375 c -1.3125,0.02344 -2.554688,0.679687 -3.304688,1.757812 V 15.96343 h -1.464843 v 8.941406 h 1.535156 z M 53.721922,19.05718 c 0,-1.945313 -1.382813,-3.28125 -3.246094,-3.28125 -0.902344,0 -1.898437,0.164062 -3.035156,0.820312 l 0.128906,1.371094 c 0.515625,-0.375 1.394531,-0.972656 2.882813,-0.972656 1.054687,0 1.699218,0.808593 1.699218,2.085937 v 0.785156 c -3.304687,0.105469 -5.367187,1.054688 -5.367187,2.683594 0,0.84375 0.515625,2.519531 2.226562,2.519531 0.304688,0 1.980469,-0.03516 3.175782,-0.925781 v 0.761719 h 1.535156 z m -1.570313,3.117187 c 0,0.375 0,0.867188 -0.621093,1.242188 -0.539063,0.351562 -1.21875,0.398437 -1.511719,0.398437 -1.03125,0 -1.734375,-0.585937 -1.734375,-1.3125 0,-1.441406 3.222656,-1.582031 3.867187,-1.605469 z m 6.175782,-11.613281 h -1.535157 v 14.34375 h 1.535157 z m 14.326172,12.9375 c -1.652344,0 -2.390625,0 -2.765625,0.02344 v -5.414062 h 6.410156 V 16.842336 H 69.887938 V 11.93218 h 2.671875 c 0.246093,0 0.492187,0.02344 0.738281,0.02344 h 3.539062 v -1.347656 h -8.683593 v 14.296875 h 8.953125 v -1.429688 z m 13.702148,-7.640625 h -1.523438 v 1.253906 c -0.08203,-0.09375 -1.03125,-1.253906 -2.648437,-1.253906 -1.875,0 -3.574219,1.921875 -3.574219,4.628906 0,2.496094 1.429688,4.582031 3.28125,4.582031 0.878906,0 1.96875,-0.304687 2.894531,-1.195312 v 5.0625 h 1.570313 z m -1.523438,6.210937 c 0,0.269532 0,0.644532 -0.644531,1.183594 -0.164062,0.140625 -0.621094,0.5625 -1.40625,0.5625 -1.464844,0 -2.601562,-1.535156 -2.601562,-3.328125 0,-2.003906 1.382812,-3.328125 2.789062,-3.328125 1.183594,0 1.863281,1.160156 1.863281,2.027344 z M 96.375242,16.022023 H 94.80493 v 5.695313 c 0,1.535156 -1.113282,2.15625 -2.296875,2.15625 -1.359375,0 -1.488282,-0.457031 -1.488282,-1.300781 v -6.550782 h -1.570312 v 6.65625 c 0,1.605469 0.5625,2.390625 1.992187,2.390625 0.703125,0 2.285157,-0.164062 3.410157,-1.195312 v 1.03125 h 1.523437 z m 9.319338,3.035157 c 0,-1.945313 -1.38281,-3.28125 -3.2461,-3.28125 -0.90234,0 -1.89843,0.164062 -3.035152,0.820312 l 0.128906,1.371094 c 0.515626,-0.375 1.394536,-0.972656 2.882816,-0.972656 1.05468,0 1.69922,0.808593 1.69922,2.085937 v 0.785156 c -3.30469,0.105469 -5.367192,1.054688 -5.367192,2.683594 0,0.84375 0.515625,2.519531 2.226562,2.519531 0.30469,0 1.98047,-0.03516 3.17578,-0.925781 v 0.761719 h 1.53516 z m -1.57031,3.117187 c 0,0.375 0,0.867188 -0.6211,1.242188 -0.53906,0.351562 -1.21875,0.398437 -1.51172,0.398437 -1.03125,0 -1.73437,-0.585937 -1.73437,-1.3125 0,-1.441406 3.22265,-1.582031 3.86719,-1.605469 z m 6.5625,-4.957031 h 2.69531 v -1.195313 h -2.69531 v -2.542968 h -1.46485 v 2.542968 h -1.6289 v 1.195313 h 1.59375 v 5.226562 c 0,1.183594 0.26953,2.625 1.6289,2.625 1.03125,0 1.98047,-0.292968 2.89453,-0.761718 l -0.32812,-1.21875 c -0.50391,0.433593 -1.10156,0.679687 -1.73438,0.679687 -0.91406,0 -0.96093,-1.160156 -0.96093,-1.675781 z m 6.73828,-5.90625 h -1.73438 v 1.734375 h 1.73438 z m -0.10547,4.710937 h -1.53516 v 8.882813 h 1.53516 z m 10.66699,4.464844 c 0,-2.648437 -1.95703,-4.710937 -4.27734,-4.710937 -2.36719,0 -4.28907,2.121093 -4.28907,4.710937 0,2.625 1.98047,4.582031 4.27735,4.582031 2.35547,0 4.28906,-2.027343 4.28906,-4.582031 z m -4.27734,3.28125 c -1.46485,0 -2.71875,-1.195312 -2.71875,-3.445312 0,-2.402344 1.46484,-3.292969 2.70703,-3.292969 1.33594,0 2.71875,0.972656 2.71875,3.292969 0,2.332031 -1.33594,3.445312 -2.70703,3.445312 z m 13.31543,-4.898437 c 0,-1.300782 -0.30469,-3.011719 -2.64844,-3.011719 -1.3125,0 -2.17969,0.679687 -2.76563,1.382812 V 15.96343 h -1.51171 v 8.941406 h 1.57031 V 19.90093 c 0,-1.300782 0.5039,-2.789063 1.91015,-2.789063 1.81641,0 1.875,1.21875 1.875,1.921875 v 5.871094 h 1.57032 z m 18.34863,-1.675782 -0.99609,2.917969 c -0.16407,0.539063 -0.72657,2.214844 -0.84375,2.871094 h -0.0234 c -0.0586,-0.410156 -0.1875,-0.84375 -0.51563,-1.898438 -0.1875,-0.621093 -0.39843,-1.265625 -0.59765,-1.839843 l -3.0586,-8.683594 h -2.41406 v 14.34375 h 1.60547 V 12.236867 h 0.0234 c 0,0.02344 0.1875,0.9375 1.4414,4.546875 l 2.73047,7.792969 h 1.53516 l 2.44922,-6.925781 c 0.16406,-0.46875 0.6914,-1.980469 0.91406,-2.707032 0.21094,-0.621093 0.72656,-2.144531 0.84375,-2.742187 h 0.0234 v 12.703125 h 1.6289 v -14.34375 h -2.39062 z m 15.75586,3.292969 c 0,-2.648437 -1.95703,-4.710937 -4.27735,-4.710937 -2.36718,0 -4.28906,2.121093 -4.28906,4.710937 0,2.625 1.98047,4.582031 4.27735,4.582031 2.35546,0 4.28906,-2.027343 4.28906,-4.582031 z m -4.27735,3.28125 c -1.46484,0 -2.71875,-1.195312 -2.71875,-3.445312 0,-2.402344 1.46485,-3.292969 2.70704,-3.292969 1.33593,0 2.71875,0.972656 2.71875,3.292969 0,2.332031 -1.33594,3.445312 -2.70704,3.445312 z m 13.82813,-13.207031 h -1.52344 v 6.328125 c -0.64453,-0.539063 -1.69922,-1.03125 -2.84765,-1.03125 -1.88672,0 -3.375,2.039062 -3.375,4.605469 0,2.566406 1.46484,4.605468 3.30468,4.605468 1.42969,0 2.37891,-0.761718 2.8711,-1.195312 v 1.03125 h 1.57031 z m -1.57031,11.578125 c 0,0.28125 0,0.597656 -0.63282,1.148437 -0.42187,0.351563 -0.91406,0.527344 -1.38281,0.527344 -1.125,0 -2.58984,-0.832031 -2.58984,-3.328125 0,-2.601562 1.65234,-3.375 2.78906,-3.375 0.76172,0 1.38281,0.375 1.81641,0.996094 z m 11.21484,-1.757813 c 0,-0.679687 -0.0352,-2.003906 -0.70312,-3.105468 -0.71485,-1.171875 -1.89844,-1.5 -2.78907,-1.5 -2.14453,0 -3.96093,2.027343 -3.96093,4.640625 0,2.566406 1.875,4.652343 4.2539,4.652343 0.92578,0 2.0625,-0.269531 3.10547,-1.007812 0,-0.08203 -0.0469,-0.539063 -0.0703,-0.5625 0,-0.03516 -0.0586,-0.679688 -0.0586,-0.761719 -0.99609,0.808594 -2.13281,1.078125 -2.95312,1.078125 -1.32422,0 -2.75391,-1.125 -2.8125,-3.433594 z m -5.82422,-1.136718 c 0.26953,-1.136719 1.1836,-2.214844 2.33203,-2.214844 0.31641,0 1.75782,0.04687 2.13282,2.214844 z m 9.44531,-8.683594 h -1.53515 v 14.34375 h 1.53515 z m 8.19727,5.835937 c -1.21875,-0.585937 -2.16797,-0.621093 -2.78906,-0.621093 -1.46485,0 -3.22266,0.515625 -3.22266,2.601562 0,2.085938 2.27344,2.542969 2.88281,2.660156 0.96094,0.1875 2.00391,0.398438 2.00391,1.429688 0,1.300781 -1.47656,1.300781 -1.74609,1.300781 -0.83203,0 -1.96875,-0.222656 -3,-0.972656 l -0.2461,1.382812 c 1.17188,0.679688 2.3086,0.890625 3.25782,0.890625 2.54296,0 3.1875,-1.546875 3.1875,-2.730468 0,-1.007813 -0.57422,-1.6875 -0.97266,-2.003907 -0.67969,-0.527343 -0.92578,-0.597656 -2.625,-0.949218 -0.29297,-0.03516 -1.30078,-0.269532 -1.30078,-1.195313 0,-1.171875 1.30078,-1.171875 1.59375,-1.171875 1.33594,0 2.16797,0.410156 2.73047,0.714844 z M 57.647703,40.930227 h -1.570312 l -1.089844,3.714843 c -0.222656,0.785157 -0.867188,2.953125 -0.949219,3.972657 h -0.02344 c -0.03516,-0.621094 -0.386719,-2.109375 -0.972657,-4.078125 l -1.054687,-3.609375 h -1.417969 l -1.03125,3.527343 c -0.527344,1.804688 -0.914062,3.328125 -0.960937,4.160157 h -0.01172 c -0.08203,-1.21875 -0.9375,-4.078125 -1.054688,-4.523438 l -0.9375,-3.164062 h -1.605468 l 2.683593,8.882812 h 1.570313 c 1.078125,-3.550781 1.898437,-6.304687 1.96875,-7.6875 0.03516,0.679688 0.386719,2.15625 0.597656,2.871094 l 1.359375,4.816406 h 1.816406 z m 3.451172,-4.710938 H 59.3645 v 1.734375 h 1.734375 z m -0.105469,4.710938 H 59.45825 v 8.882812 h 1.535156 z m 4.986328,1.195312 h 2.695313 v -1.195312 h -2.695313 v -2.542969 h -1.464843 v 2.542969 h -1.628907 v 1.195312 h 1.59375 v 5.226563 c 0,1.183593 0.269532,2.625 1.628907,2.625 1.03125,0 1.980468,-0.292969 2.894531,-0.761719 l -0.328125,-1.21875 c -0.503906,0.433594 -1.101563,0.679687 -1.734375,0.679687 -0.914063,0 -0.960938,-1.160156 -0.960938,-1.675781 z m 12.020508,1.652344 c 0,-1.300781 -0.304687,-3.011719 -2.648437,-3.011719 -1.300782,0 -2.144532,0.632813 -2.742188,1.335938 v -6.632813 h -1.535156 v 14.34375 h 1.570312 v -5.003906 c 0,-1.300781 0.503907,-2.789063 1.910157,-2.789063 1.816406,0 1.875,1.21875 1.875,1.921875 v 5.871094 h 1.570312 z m 11.077149,-8.308594 h -1.535157 v 14.34375 h 1.535157 z m 9.310547,8.496094 c 0,-1.945313 -1.382813,-3.28125 -3.246094,-3.28125 -0.902344,0 -1.898438,0.164062 -3.035156,0.820312 l 0.128906,1.371094 c 0.515625,-0.375 1.394531,-0.972656 2.882812,-0.972656 1.054688,0 1.699219,0.808594 1.699219,2.085937 v 0.785157 c -3.304687,0.105468 -5.367187,1.054687 -5.367187,2.683593 0,0.84375 0.515625,2.519532 2.226562,2.519532 0.304688,0 1.980469,-0.03516 3.175781,-0.925782 v 0.761719 h 1.535157 z m -1.570313,3.117187 c 0,0.375 0,0.867188 -0.621094,1.242188 -0.539062,0.351562 -1.21875,0.398437 -1.511718,0.398437 -1.03125,0 -1.734375,-0.585937 -1.734375,-1.3125 0,-1.441406 3.222656,-1.582031 3.867187,-1.605468 z m 11.753905,-6.152343 h -1.61719 l -1.38281,3.867187 c -0.43359,1.253906 -1.05469,2.988281 -1.14844,3.878906 h -0.0234 c -0.0469,-0.375 -0.21094,-0.914062 -0.31641,-1.277343 -0.11719,-0.457032 -0.28125,-0.996094 -0.41016,-1.371094 l -1.8164,-5.097656 h -1.65235 l 3.25782,8.882812 h 1.83984 z m 8.05078,3.035156 c 0,-1.945313 -1.38281,-3.28125 -3.24609,-3.28125 -0.90234,0 -1.89844,0.164062 -3.03516,0.820312 l 0.12891,1.371094 c 0.51562,-0.375 1.39453,-0.972656 2.88281,-0.972656 1.05469,0 1.69922,0.808594 1.69922,2.085937 v 0.785157 c -3.30469,0.105468 -5.36719,1.054687 -5.36719,2.683593 0,0.84375 0.51563,2.519532 2.22657,2.519532 0.30468,0 1.98046,-0.03516 3.17578,-0.925782 v 0.761719 h 1.53515 z M 115.052,47.08257 c 0,0.375 0,0.867188 -0.62109,1.242188 -0.53907,0.351562 -1.21875,0.398437 -1.51172,0.398437 -1.03125,0 -1.73438,-0.585937 -1.73438,-1.3125 0,-1.441406 3.22266,-1.582031 3.86719,-1.605468 z m 10.88672,-3.117187 c 0,-1.945313 -1.38281,-3.28125 -3.24609,-3.28125 -0.90235,0 -1.89844,0.164062 -3.03516,0.820312 l 0.12891,1.371094 c 0.51562,-0.375 1.39453,-0.972656 2.88281,-0.972656 1.05469,0 1.69922,0.808594 1.69922,2.085937 v 0.785157 c -3.30469,0.105468 -5.36719,1.054687 -5.36719,2.683593 0,0.84375 0.51562,2.519532 2.22656,2.519532 0.30469,0 1.98047,-0.03516 3.17578,-0.925782 v 0.761719 h 1.53516 z m -1.57031,3.117187 c 0,0.375 0,0.867188 -0.6211,1.242188 -0.53906,0.351562 -1.21875,0.398437 -1.51172,0.398437 -1.03125,0 -1.73437,-0.585937 -1.73437,-1.3125 0,-1.441406 3.22266,-1.582031 3.86719,-1.605468 z m 11.5664,-3.304687 c 0,-1.300781 -0.30468,-3.011719 -2.64843,-3.011719 -1.3125,0 -2.17969,0.679688 -2.76563,1.382813 v -1.277344 h -1.51172 v 8.941406 h 1.57031 v -5.003906 c 0,-1.300781 0.50391,-2.789063 1.91016,-2.789063 1.81641,0 1.875,1.21875 1.875,1.921875 v 5.871094 h 1.57031 z m 0,0"
       style="fill:#cb6015;fill-opacity:1;fill-rule:nonzero;stroke:none"
       aria-label="Reproducingpublished&#10;StructuralEquationModels&#10;withlavaan"
       transform="matrix(1.3333333,0,0,1.3333333,43.597333,86.969333)" />
  </g>
</svg>
