<?xml version="1.0" encoding="UTF-8" standalone="no"?>
<!-- Created with Inkscape (http://www.inkscape.org/) -->

<svg
   version="1.1"
   id="svg1"
   width="349.42667"
   height="281.34399"
   viewBox="0 0 349.42667 281.34399"
   sodipodi:docname="Mediation.pdf"
   xmlns:inkscape="http://www.inkscape.org/namespaces/inkscape"
   xmlns:sodipodi="http://sodipodi.sourceforge.net/DTD/sodipodi-0.dtd"
   xmlns="http://www.w3.org/2000/svg"
   xmlns:svg="http://www.w3.org/2000/svg">
  <defs
     id="defs1" />
  <sodipodi:namedview
     id="namedview1"
     pagecolor="#ffffff"
     bordercolor="#000000"
     borderopacity="0.25"
     inkscape:showpageshadow="2"
     inkscape:pageopacity="0.0"
     inkscape:pagecheckerboard="0"
     inkscape:deskcolor="#d1d1d1">
    <inkscape:page
       x="0"
       y="0"
       inkscape:label="1"
       id="page1"
       width="349.42667"
       height="281.34399"
       margin="0"
       bleed="0" />
  </sodipodi:namedview>
  <g
     id="g1"
     inkscape:groupmode="layer"
     inkscape:label="1">
    <path
       id="path1"
       d="M 21.26009,21.26009 H -21.26009 V -21.26009 H 21.26009 Z"
       style="fill:#ccccff;fill-opacity:1;fill-rule:nonzero;stroke:#000000;stroke-width:1.19553;stroke-linecap:butt;stroke-linejoin:miter;stroke-miterlimit:10;stroke-dasharray:none;stroke-opacity:1"
       transform="matrix(1.3333333,0,0,-1.3333333,42.426667,238.91733)" />
    <path
       id="path2"
       d="m 4.2809531,-4.3749583 2.796875,-3.921875 H 5.9606406 l -2.1875,3.1328125 -2.2421875,-3.1328125 H 0.32001563 L 3.2731406,-4.3749583 0.16376563,4.1666667e-5 H 1.2653281 L 3.7731406,-3.6562083 6.3590781,4.1666667e-5 h 1.1953125 z m 0,0"
       style="fill:#000000;fill-opacity:1;fill-rule:nonzero;stroke:none"
       aria-label="X"
       transform="matrix(2,0,0,2,34.692,247.21867)" />
    <path
       id="path3"
       d="m 207.30765,21.26009 h -42.52017 v -42.52018 h 42.52017 z"
       style="fill:#ccccff;fill-opacity:1;fill-rule:nonzero;stroke:#000000;stroke-width:1.19553;stroke-linecap:butt;stroke-linejoin:miter;stroke-miterlimit:10;stroke-dasharray:none;stroke-opacity:1"
       transform="matrix(1.3333333,0,0,-1.3333333,42.426667,238.91733)" />
    <path
       id="path4"
       d="m 7.6884531,-8.2968333 h -1.03125 l -2.0546875,3.09375 c -0.2265625,0.3359375 -0.46875,0.7109375 -0.65625,1.03125 -0.039063,-0.0625 -0.171875,-0.296875 -0.6796875,-1.078125 l -2.03125,-3.046875 H 0.04001563 L 3.3603281,-3.3202708 V 4.1666667e-5 h 1 V -3.3202708 Z m 0,0"
       style="fill:#000000;fill-opacity:1;fill-rule:nonzero;stroke:none"
       aria-label="Y"
       transform="matrix(2,0,0,2,282.752,247.21867)" />
    <path
       id="path5"
       d="M 104.98091,150.61398 H 62.46074 v -42.52017 h 42.52017 z"
       style="fill:#ccccff;fill-opacity:1;fill-rule:nonzero;stroke:#000000;stroke-width:1.19553;stroke-linecap:butt;stroke-linejoin:miter;stroke-miterlimit:10;stroke-dasharray:none;stroke-opacity:1"
       transform="matrix(1.3333333,0,0,-1.3333333,42.426667,238.91733)" />
    <path
       id="path6"
       d="M 2.5005521,-8.2965417 H 1.1333646 V 3.3333333e-4 h 0.921875 V -7.3746667 h 0.015625 c 0.1640625,0.8125 2.1015625,5.9296875 2.5546875,7.12500003 h 0.875 C 5.8911771,-1.2809167 7.8677396,-6.4918542 8.0786771,-7.3902917 h 0.015625 V 3.3333333e-4 h 0.921875 V -8.2965417 H 7.6489896 l -1.359375,3.6796875 c -0.625,1.6796875 -1.0859375,2.9296875 -1.2109375,3.484375 h -0.00781 c -0.039063,-0.203125 -0.1953125,-0.6484375 -0.3515625,-1.1171875 -0.2109375,-0.640625 -0.2109375,-0.6640625 -0.40625,-1.15625 z m 0,0"
       style="fill:#000000;fill-opacity:1;fill-rule:nonzero;stroke:none"
       aria-label="M"
       transform="matrix(2,0,0,2,143.89733,74.749333)" />
    <path
       id="path7"
       d="m 22.15672,0 h 133.5763"
       style="fill:none;stroke:#000000;stroke-width:1.19553;stroke-linecap:butt;stroke-linejoin:miter;stroke-miterlimit:10;stroke-dasharray:none;stroke-opacity:1"
       transform="matrix(1.3333333,0,0,-1.3333333,42.426667,238.91733)" />
    <path
       id="path8"
       d="M 9.63629,0 1.93044,2.90932 4.47603,0 1.93044,-2.90932 Z"
       style="fill:#000000;fill-opacity:1;fill-rule:nonzero;stroke:#000000;stroke-width:1.19553;stroke-linecap:butt;stroke-linejoin:miter;stroke-miterlimit:10;stroke-dasharray:none;stroke-opacity:1"
       transform="matrix(1.3333333,0,0,-1.3333333,244.50113,238.91733)" />
    <g
       id="g8"
       aria-label="c&#10;′"
       transform="matrix(2,0,0,2,155.476,233.736)">
      <path
         id="path9"
         d="m 6.6330938,-6.868 c 0,-0.125 -0.796875,-0.46875 -1,-0.5390625 -0.5703125,-0.203125 -1.296875,-0.203125 -1.484375,-0.203125 -2.234375,0 -3.57812505,1.9453125 -3.57812505,3.90625 0,2.0703125 1.49218755,3.84375 3.50781255,3.84375 1.15625,0 1.984375,-0.3828125 2.65625,-0.828125 l -0.1015625,-1.140625 c -0.7421875,0.5703125 -1.6015625,0.8828125 -2.53125,0.8828125 -1.34375,0 -2.2265625,-1.171875 -2.2265625,-2.7734375 0,-1.2421875 0.5703125,-2.8046875 2.2890625,-2.8046875 0.953125,0 1.484375,0.1875 2.2734375,0.71875 z m 0,0"
         style="fill:#000000;fill-opacity:1;fill-rule:nonzero;stroke:none" />
      <path
         id="path10"
         d="m 10.219031,-11.926594 c 0.0625,-0.140625 0.109375,-0.25 0.109375,-0.367187 0,-0.351563 -0.3125,-0.632813 -0.6796872,-0.632813 -0.3359375,0 -0.5546875,0.226563 -0.6328125,0.539063 l -1.4296875,5.2187497 c 0,0.023437 -0.046875,0.15625 -0.046875,0.171875 0,0.125 0.3125,0.2109375 0.40625,0.2109375 0.078125,0 0.085937,-0.03125 0.15625,-0.1875 z m 0,0"
         style="fill:#000000;fill-opacity:1;fill-rule:nonzero;stroke:none" />
    </g>
    <path
       id="path11"
       d="m 8.06432,22.15672 62.51657,78.65459"
       style="fill:none;stroke:#000000;stroke-width:1.19553;stroke-linecap:butt;stroke-linejoin:miter;stroke-miterlimit:10;stroke-dasharray:none;stroke-opacity:1"
       transform="matrix(1.3333333,0,0,-1.3333333,42.426667,238.91733)" />
    <path
       id="path12"
       d="M 9.63629,0 1.93044,2.90932 4.47603,0 1.93044,-2.90932 Z"
       style="fill:#000000;fill-opacity:1;fill-rule:nonzero;stroke:#000000;stroke-width:1.19553;stroke-linecap:butt;stroke-linejoin:miter;stroke-miterlimit:10;stroke-dasharray:none;stroke-opacity:1"
       transform="matrix(0.82957333,-1.04372,-1.04372,-0.82957333,133.06928,108.86208)" />
    <path
       id="path13"
       d="m 6.4768073,-4.8756667 c 0,-1.6171875 -1.15625,-2.734375 -2.703125,-2.734375 -0.7578125,0 -1.5859375,0.1328125 -2.53125,0.6875 l 0.1015625,1.1328125 c 0.4296875,-0.3046875 1.171875,-0.8046875 2.40625,-0.8046875 0.8828125,0 1.4140625,0.671875 1.4140625,1.734375 v 0.65625 c -2.75,0.085937 -4.47656251,0.8828125 -4.47656251,2.2421875 0,0.703125 0.42968751,2.10156253 1.85937501,2.10156253 0.2578125,0 1.65625,-0.0390625 2.65625,-0.78125 v 0.64062500333 h 1.2734375 z m -1.3125,2.6015625 c 0,0.3125 0,0.7265625 -0.515625,1.03125 -0.4453125,0.29687503 -1.015625,0.32812503 -1.2578125,0.32812503 -0.859375,0 -1.4453125,-0.48437503 -1.4453125,-1.08593753 0,-1.203125 2.6875,-1.3203125 3.21875,-1.34375 z m 0,0"
       style="fill:#000000;fill-opacity:1;fill-rule:nonzero;stroke:none"
       aria-label="a"
       transform="matrix(2,0,0,2,77.534667,147.50133)" />
    <path
       id="path14"
       d="M 91.78516,107.19717 172.17621,27.88571"
       style="fill:none;stroke:#000000;stroke-width:1.19553;stroke-linecap:butt;stroke-linejoin:miter;stroke-miterlimit:10;stroke-dasharray:none;stroke-opacity:1"
       transform="matrix(1.3333333,0,0,-1.3333333,42.426667,238.91733)" />
    <path
       id="path15"
       d="M 9.63629,0 1.93044,2.90932 4.47603,0 1.93044,-2.90932 Z"
       style="fill:#000000;fill-opacity:1;fill-rule:nonzero;stroke:#000000;stroke-width:1.19553;stroke-linecap:butt;stroke-linejoin:miter;stroke-miterlimit:10;stroke-dasharray:none;stroke-opacity:1"
       transform="matrix(0.94912,0.93636,0.93636,-0.94912,268.03031,197.82503)" />
    <path
       id="path16"
       d="M 2.561776,-11.953792 H 1.2883385 V -6.6666667e-4 h 1.3125 V -0.77410417 c 0.65625,0.6328125 1.4453125,0.9140625 2.1484375,0.9140625 1.65625,0 3,-1.67187503 3,-3.85937503 0,-2 -1.03125,-3.8203125 -2.5703125,-3.8203125 -1.078125,0 -2.046875,0.4453125 -2.6171875,0.90625 z m 0.039063,6.3359378 c 0.375,-0.4765625 0.9140625,-0.875 1.671875,-0.875 1.015625,0 2.1640625,0.7421875 2.1640625,2.7734375 0,2.171875 -1.375,2.80468753 -2.3203125,2.80468753 -0.34375,0 -0.7109375,-0.0859375 -1.0546875,-0.37500003 C 2.600839,-1.7037917 2.600839,-1.9616042 2.600839,-2.2037917 Z m 0,0"
       style="fill:#000000;fill-opacity:1;fill-rule:nonzero;stroke:none"
       aria-label="b"
       transform="matrix(2,0,0,2,227.45067,147.50133)" />
    <path
       id="path17"
       d="m 219.54301,36.22104 -6.21879,-7.71367"
       style="fill:none;stroke:#000000;stroke-width:1.19553;stroke-linecap:butt;stroke-linejoin:miter;stroke-miterlimit:10;stroke-dasharray:none;stroke-opacity:1"
       transform="matrix(1.3333333,0,0,-1.3333333,42.426667,238.91733)" />
    <path
       id="path18"
       d="M 9.63629,0 1.93044,2.90932 4.47603,0 1.93044,-2.90932 Z"
       style="fill:#000000;fill-opacity:1;fill-rule:nonzero;stroke:#000000;stroke-width:1.19553;stroke-linecap:butt;stroke-linejoin:miter;stroke-miterlimit:10;stroke-dasharray:none;stroke-opacity:1"
       transform="matrix(-0.83681333,1.03796,1.03796,0.83681333,330.35447,196.57177)" />
    <path
       id="path19"
       d="m 117.21628,165.57494 -6.2188,-7.71367"
       style="fill:none;stroke:#000000;stroke-width:1.19553;stroke-linecap:butt;stroke-linejoin:miter;stroke-miterlimit:10;stroke-dasharray:none;stroke-opacity:1"
       transform="matrix(1.3333333,0,0,-1.3333333,42.426667,238.91733)" />
    <path
       id="path20"
       d="M 9.63629,0 1.93044,2.90932 4.47603,0 1.93044,-2.90932 Z"
       style="fill:#000000;fill-opacity:1;fill-rule:nonzero;stroke:#000000;stroke-width:1.19553;stroke-linecap:butt;stroke-linejoin:miter;stroke-miterlimit:10;stroke-dasharray:none;stroke-opacity:1"
       transform="matrix(-0.83681333,1.03796,1.03796,0.83681333,193.91881,24.099893)" />
  </g>
</svg>
