<?xml version="1.0" encoding="UTF-8" standalone="no"?>
<!-- Created with Inkscape (http://www.inkscape.org/) -->

<svg
   version="1.1"
   id="svg1"
   width="349.42667"
   height="281.34399"
   viewBox="0 0 349.42667 281.34399"
   sodipodi:docname="Mediation.pdf"
   xmlns:inkscape="http://www.inkscape.org/namespaces/inkscape"
   xmlns:sodipodi="http://sodipodi.sourceforge.net/DTD/sodipodi-0.dtd"
   xmlns="http://www.w3.org/2000/svg"
   xmlns:svg="http://www.w3.org/2000/svg">
  <defs
     id="defs1" />
  <sodipodi:namedview
     id="namedview1"
     pagecolor="#ffffff"
     bordercolor="#000000"
     borderopacity="0.25"
     inkscape:showpageshadow="2"
     inkscape:pageopacity="0.0"
     inkscape:pagecheckerboard="0"
     inkscape:deskcolor="#d1d1d1">
    <inkscape:page
       x="0"
       y="0"
       inkscape:label="1"
       id="page1"
       width="349.42667"
       height="281.34399"
       margin="0"
       bleed="0" />
  </sodipodi:namedview>
  <g
     id="g1"
     inkscape:groupmode="layer"
     inkscape:label="1">
    <path
       id="path1"
       d="M 21.26009,21.2601 H -21.26009 V -21.26009 H 21.26009 Z"
       style="fill:#ccccff;fill-opacity:1;fill-rule:nonzero;stroke:#000000;stroke-width:1.19553;stroke-linecap:butt;stroke-linejoin:miter;stroke-miterlimit:10;stroke-dasharray:none;stroke-opacity:1"
       transform="matrix(1.3333333,0,0,-1.3333333,42.426667,238.91733)" />
    <path
       id="path2"
       d="m 3.6717865,-3.6484688 2.40625,-3.265625 H 5.117099 l -1.8671875,2.6015625 -1.9375,-2.6015625 H 0.28116146 L 2.820224,-3.6484688 0.14053646,-3.125e-5 H 1.0936615 L 3.2499115,-3.0469063 5.460849,-3.125e-5 h 1.03125 z m 0,0"
       style="fill:#000000;fill-opacity:1;fill-rule:nonzero;stroke:none"
       aria-label="X"
       transform="matrix(2,0,0,2,35.785333,245.836)" />
    <path
       id="path3"
       d="m 207.30765,21.2601 h -42.52017 v -42.52019 h 42.52017 z"
       style="fill:#ccccff;fill-opacity:1;fill-rule:nonzero;stroke:#000000;stroke-width:1.19553;stroke-linecap:butt;stroke-linejoin:miter;stroke-miterlimit:10;stroke-dasharray:none;stroke-opacity:1"
       transform="matrix(1.3333333,0,0,-1.3333333,42.426667,238.91733)" />
    <path
       id="path4"
       d="m 6.6007708,-6.9140938 h -0.875 l -1.546875,2.25 c -0.046875,0.070312 -0.09375,0.1484375 -0.1640625,0.2578125 l -0.609375,0.953125 c -0.1875,-0.3125 -0.1875,-0.328125 -0.359375,-0.5703125 l -1.96875,-2.890625 H 0.03045833 L 2.8898333,-2.7656563 V -3.125e-5 H 3.7413958 V -2.7578438 Z m 0,0"
       style="fill:#000000;fill-opacity:1;fill-rule:nonzero;stroke:none"
       aria-label="Y"
       transform="matrix(2,0,0,2,283.84533,245.836)" />
    <path
       id="path5"
       d="M 104.98093,150.61398 H 62.46074 V 108.0938 h 42.52019 z"
       style="fill:#ccccff;fill-opacity:1;fill-rule:nonzero;stroke:#000000;stroke-width:1.19553;stroke-linecap:butt;stroke-linejoin:miter;stroke-miterlimit:10;stroke-dasharray:none;stroke-opacity:1"
       transform="matrix(1.3333333,0,0,-1.3333333,42.426667,238.91733)" />
    <path
       id="path6"
       d="m 5.2812188,-3.5381354 c -0.3515625,0.90625 -0.8203125,2.1484375 -0.9296875,2.60937498 h -0.00781 C 4.2968438,-1.1318854 4.1718438,-1.5068854 4.0234063,-1.9209479 l -1.5625,-4.125 -0.3359375,-0.8671875 H 0.99215625 V 9.2708333e-4 H 1.7734063 V -6.1709479 h 0.00781 c 0.0625,0.3125 0.4609375,1.3984375 0.71875,2.078125 l 1.4765625,3.87499998 h 0.726565 L 6.0234063,-3.6865729 c 0.3203125,-0.8125 0.4140625,-1.0625 0.484375,-1.265625 0.09375,-0.2890625 0.3671875,-1 0.4140625,-1.234375 l 0.00781,0.015625 V 9.2708333e-4 h 0.78125 V -6.9131354 h -1.140625 z m 0,0"
       style="fill:#000000;fill-opacity:1;fill-rule:nonzero;stroke:none"
       aria-label="M"
       transform="matrix(2,0,0,2,145.336,73.365333)" />
    <path
       id="path7"
       d="m 22.15672,0 h 133.5763"
       style="fill:none;stroke:#000000;stroke-width:1.19553;stroke-linecap:butt;stroke-linejoin:miter;stroke-miterlimit:10;stroke-dasharray:none;stroke-opacity:1"
       transform="matrix(1.3333333,0,0,-1.3333333,42.426667,238.91733)" />
    <path
       id="path8"
       d="M 9.63629,0 1.93044,2.90932 4.47603,0 1.93044,-2.90932 Z"
       style="fill:#000000;fill-opacity:1;fill-rule:nonzero;stroke:#000000;stroke-width:1.19553;stroke-linecap:butt;stroke-linejoin:miter;stroke-miterlimit:10;stroke-dasharray:none;stroke-opacity:1"
       transform="matrix(1.3333333,0,0,-1.3333333,244.50113,238.91733)" />
    <g
       id="g8"
       aria-label="c&#10;′"
       transform="matrix(2,0,0,2,158.45867,233.736)">
      <path
         id="path9"
         d="m 4.7960573,-1.289875 c -0.5546875,0.4375 -1.1640625,0.6640625 -1.8359375,0.6640625 -0.9921875,0 -1.6328125,-0.8828125 -1.6328125,-2.0390625 0,-0.9921875 0.4765625,-2.078125 1.671875,-2.078125 0.8046875,0 1.1328125,0.1875 1.6484375,0.53125 l 0.1484375,-0.7734375 c -0.6953125,-0.40625 -1.09375,-0.5 -1.796875,-0.5 -1.6484375,0 -2.57812501,1.453125 -2.57812501,2.8203125 0,1.53125 1.09375001,2.78125 2.53125001,2.78125 0.5859375,0 1.2578125,-0.140625 1.9140625,-0.6171875 0,-0.0390625 -0.039063,-0.40625 -0.046875,-0.453125 z m 0,0"
         style="fill:#000000;fill-opacity:1;fill-rule:nonzero;stroke:none" />
      <path
         id="path10"
         d="m 7.3116823,-8.1121406 c 0.039063,-0.109375 0.070312,-0.1640625 0.070312,-0.2421875 0,-0.265625 -0.234375,-0.4375 -0.4609375,-0.4375 -0.3125,0 -0.40625,0.28125 -0.4375,0.390625 l -1.0078125,3.4296875 c -0.03125,0.1015625 -0.03125,0.125 -0.03125,0.1328125 0,0.070312 0.046875,0.085937 0.125,0.109375 0.140625,0.0625 0.15625,0.0625 0.171875,0.0625 0.023437,0 0.078125,0 0.1328125,-0.1328125 z m 0,0"
         style="fill:#000000;fill-opacity:1;fill-rule:nonzero;stroke:none" />
    </g>
    <path
       id="path11"
       d="m 8.06432,22.15672 62.51657,78.65459"
       style="fill:none;stroke:#000000;stroke-width:1.19553;stroke-linecap:butt;stroke-linejoin:miter;stroke-miterlimit:10;stroke-dasharray:none;stroke-opacity:1"
       transform="matrix(1.3333333,0,0,-1.3333333,42.426667,238.91733)" />
    <path
       id="path12"
       d="M 9.63629,0 1.93044,2.90932 4.47603,0 1.93044,-2.90932 Z"
       style="fill:#000000;fill-opacity:1;fill-rule:nonzero;stroke:#000000;stroke-width:1.19553;stroke-linecap:butt;stroke-linejoin:miter;stroke-miterlimit:10;stroke-dasharray:none;stroke-opacity:1"
       transform="matrix(0.82957333,-1.04372,-1.04372,-0.82957333,133.06928,108.86208)" />
    <path
       id="path13"
       d="m 4.6716563,-3.5006667 c 0,-1.1484375 -0.8203125,-1.984375 -1.9375,-1.984375 -0.7109375,0 -1.25,0.1640625 -1.83593755,0.5 l 0.0703125,0.7890625 C 1.4919688,-4.5787917 2.0466563,-4.7975417 2.7341563,-4.7975417 c 0.5546875,0 1.03125,0.4453125 1.03125,1.3203125 v 0.4921875 c -0.5390625,0.023437 -1.2578125,0.054687 -1.9765625,0.296875 -0.79687505,0.2734375 -1.26562505,0.71875 -1.26562505,1.3125 0,0.52343753 0.3125,1.49218753 1.32812505,1.49218753 0.65625,0 1.4921875,-0.1875 1.9375,-0.5625 v 0.44531250333 h 0.8828125 z m -0.90625,1.8984375 c 0,0.2421875 0,0.5234375 -0.3984375,0.76562503 -0.3203125,0.203125 -0.7265625,0.2421875 -0.90625,0.2421875 -0.640625,0 -1.0859375,-0.3515625 -1.0859375,-0.78906253 0,-0.8203125 1.6640625,-0.9921875 2.390625,-0.9921875 z m 0,0"
       style="fill:#000000;fill-opacity:1;fill-rule:nonzero;stroke:none"
       aria-label="a"
       transform="matrix(2,0,0,2,81.852,147.50133)" />
    <path
       id="path14"
       d="M 91.78517,107.19717 172.17621,27.88571"
       style="fill:none;stroke:#000000;stroke-width:1.19553;stroke-linecap:butt;stroke-linejoin:miter;stroke-miterlimit:10;stroke-dasharray:none;stroke-opacity:1"
       transform="matrix(1.3333333,0,0,-1.3333333,42.426667,238.91733)" />
    <path
       id="path15"
       d="M 9.63629,0 1.93044,2.90932 4.47603,0 1.93044,-2.90932 Z"
       style="fill:#000000;fill-opacity:1;fill-rule:nonzero;stroke:#000000;stroke-width:1.19553;stroke-linecap:butt;stroke-linejoin:miter;stroke-miterlimit:10;stroke-dasharray:none;stroke-opacity:1"
       transform="matrix(0.94912,0.93636,0.93636,-0.94912,268.03031,197.82503)" />
    <path
       id="path16"
       d="M 1.8195885,-8.2975417 H 0.92896354 V -6.6666667e-4 H 1.843026 V -0.53972917 c 0.546875,0.5234375 1.1328125,0.65625 1.5546875,0.65625 1.1328125,0 2.171875,-1.15625003 2.171875,-2.78125003 0,-1.46875 -0.7890625,-2.765625 -1.8984375,-2.765625 -0.3515625,0 -1.1171875,0.078125 -1.8515625,0.671875 z m 0.023437,4.265625 c 0.2109375,-0.328125 0.640625,-0.6796875 1.2265625,-0.6796875 0.734375,0 1.59375,0.5546875 1.59375,2.046875 0,1.5546875 -0.984375,2.07031253 -1.7109375,2.07031253 -0.3359375,0 -0.5625,-0.125 -0.78125,-0.2890625 C 1.889901,-1.1334792 1.843026,-1.3522292 1.843026,-1.5553542 Z m 0,0"
       style="fill:#000000;fill-opacity:1;fill-rule:nonzero;stroke:none"
       aria-label="b"
       transform="matrix(2,0,0,2,227.45067,147.50133)" />
    <path
       id="path17"
       d="m 219.54301,36.22104 -6.21879,-7.71367"
       style="fill:none;stroke:#000000;stroke-width:1.19553;stroke-linecap:butt;stroke-linejoin:miter;stroke-miterlimit:10;stroke-dasharray:none;stroke-opacity:1"
       transform="matrix(1.3333333,0,0,-1.3333333,42.426667,238.91733)" />
    <path
       id="path18"
       d="M 9.63629,0 1.93044,2.90932 4.47603,0 1.93044,-2.90932 Z"
       style="fill:#000000;fill-opacity:1;fill-rule:nonzero;stroke:#000000;stroke-width:1.19553;stroke-linecap:butt;stroke-linejoin:miter;stroke-miterlimit:10;stroke-dasharray:none;stroke-opacity:1"
       transform="matrix(-0.83681333,1.03796,1.03796,0.83681333,330.35447,196.57177)" />
    <path
       id="path19"
       d="m 117.21628,165.57492 -6.2188,-7.71367"
       style="fill:none;stroke:#000000;stroke-width:1.19553;stroke-linecap:butt;stroke-linejoin:miter;stroke-miterlimit:10;stroke-dasharray:none;stroke-opacity:1"
       transform="matrix(1.3333333,0,0,-1.3333333,42.426667,238.91733)" />
    <path
       id="path20"
       d="M 9.63629,0 1.93044,2.90932 4.47603,0 1.93044,-2.90932 Z"
       style="fill:#000000;fill-opacity:1;fill-rule:nonzero;stroke:#000000;stroke-width:1.19553;stroke-linecap:butt;stroke-linejoin:miter;stroke-miterlimit:10;stroke-dasharray:none;stroke-opacity:1"
       transform="matrix(-0.83681333,1.03796,1.03796,0.83681333,193.91881,24.099907)" />
  </g>
</svg>
