<?xml version="1.0" encoding="UTF-8" standalone="no"?>
<!-- Created with Inkscape (http://www.inkscape.org/) -->

<svg
   version="1.1"
   id="svg1"
   width="372.23199"
   height="310.51599"
   viewBox="0 0 372.23199 310.51599"
   sodipodi:docname="Mediation.pdf"
   xmlns:inkscape="http://www.inkscape.org/namespaces/inkscape"
   xmlns:sodipodi="http://sodipodi.sourceforge.net/DTD/sodipodi-0.dtd"
   xmlns="http://www.w3.org/2000/svg"
   xmlns:svg="http://www.w3.org/2000/svg">
  <defs
     id="defs1" />
  <sodipodi:namedview
     id="namedview1"
     pagecolor="#ffffff"
     bordercolor="#000000"
     borderopacity="0.25"
     inkscape:showpageshadow="2"
     inkscape:pageopacity="0.0"
     inkscape:pagecheckerboard="0"
     inkscape:deskcolor="#d1d1d1">
    <inkscape:page
       x="0"
       y="0"
       inkscape:label="1"
       id="page1"
       width="372.23199"
       height="310.51599"
       margin="0"
       bleed="0" />
  </sodipodi:namedview>
  <g
     id="g1"
     inkscape:groupmode="layer"
     inkscape:label="1">
    <path
       id="path1"
       d="M 22.58794,15.5908 H -22.58794 V -15.5908 H 22.58794 Z"
       style="fill:none;stroke:#000000;stroke-width:0.3985;stroke-linecap:butt;stroke-linejoin:miter;stroke-miterlimit:10;stroke-dasharray:none;stroke-opacity:1"
       transform="matrix(1.3333333,0,0,-1.3333333,43.666667,274.4)" />
    <path
       id="path2"
       d="M 3.7505469,-6.9148935 H 2.8769673 L 0.27753551,-8.3096591e-4 H 1.0126207 L 1.7796662,-2.0356321 h 2.8977273 l 0.7670454,2.03480113409 h 0.9161932 z m 0.7137784,4.3252841 H 1.9927344 L 2.6425923,-4.3900355 C 2.8450071,-4.975973 3.153956,-5.8282457 3.2285298,-6.2011151 h 0.010653 c 0.021307,0.1491478 0.085227,0.3941762 0.3196023,1.0546875 z m 6.5145597,-0.3835227 c 0,-0.649858 -0.149148,-1.5553977 -1.3636364,-1.5553977 -0.9055398,0 -1.3849432,0.6711647 -1.4488637,0.756392 V -4.4859162 H 7.4526065 V -8.3096591e-4 H 8.2303054 V -2.4404616 c 0,-0.6605114 0.2450284,-1.4808239 1.0014205,-1.4808239 0.9588071,0 0.9694601,0.703125 0.9694601,1.0227273 v 2.89772723409 h 0.777699 z m 3.398437,0.6924716 1.821733,-2.1413352 h -0.809659 l -1.342329,1.640625 -1.37429,-1.640625 h -0.820313 l 1.864347,2.1413352 -1.928267,2.27982953409 h 0.820313 L 14.047067,-1.875831 15.538544,-8.3096591e-4 h 0.830966 z m 3.624823,-4.4957386 h -0.884233 v 0.8842329 h 0.884233 z m -0.06392,2.3544034 h -0.745738 v 4.42116473409 h 0.745738 z m 4.948509,2.2372159 c 0,-0.3409091 -0.01065,-1.0866478 -0.394176,-1.6832387 -0.415483,-0.6178977 -1.022727,-0.7244318 -1.37429,-0.7244318 -1.107954,0 -2.002841,1.0546875 -2.002841,2.34375 0,1.31036933 0.948154,2.35440342 2.151989,2.35440342 0.628551,0 1.193182,-0.234375 1.576704,-0.51136363 L 22.79085,-1.0555185 c -0.628551,0.52201708 -1.289062,0.55397731 -1.512784,0.55397731 -0.799005,0 -1.43821,-0.70312501 -1.47017,-1.68323861 z m -3.025568,-0.5433239 c 0.159801,-0.756392 0.681818,-1.2571023 1.257102,-1.2571023 0.511364,0 1.075994,0.3409091 1.203835,1.2571023 z m 5.076349,-1.1186079 h 1.395597 v -0.5752841 h -1.395597 v -1.2677557 h -0.692471 v 1.2677557 h -0.862927 v 0.5752841 h 0.830966 v 2.6633522 c 0,0.59659093 0.138495,1.28906252 0.830966,1.28906252 0.692472,0 1.203836,-0.2450284 1.448864,-0.37286931 l -0.159801,-0.5859375 c -0.255682,0.20241477 -0.575284,0.31960227 -0.894887,0.31960227 -0.362215,0 -0.50071,-0.29829546 -0.50071,-0.82031248 z m 6.01385,-0.5752841 h -0.745739 c -1.299716,3.1640625 -1.321023,3.62215905 -1.321023,3.85653405 h -0.01065 C 28.810028,-1.2366264 28.011023,-3.0903196 27.968409,-3.1755469 l -0.53267,-1.2464488 h -0.788353 l 1.928267,4.42116473409 C 28.458466,0.3081179 28.266705,0.80882812 28.224091,0.8940554 27.968409,1.4693395 27.797955,1.4693395 27.65946,1.4693395 c -0.159801,0 -0.479403,-0.03196 -0.777699,-0.1598011 l 0.05327,0.6498579 c 0.223722,0.053267 0.500711,0.085227 0.724432,0.085227 0.340909,0 0.713779,-0.1278409 1.118608,-1.13991479 z m 0,0"
       style="fill:#000000;fill-opacity:1;fill-rule:nonzero;stroke:none"
       aria-label="Anxiety"
       transform="matrix(1.4666667,0,0,1.4666667,20.854667,278.052)" />
    <path
       id="path3"
       d="M 211.24533,16.9257 H 164.7604 v -33.8514 h 46.48493 z"
       style="fill:none;stroke:#000000;stroke-width:0.3985;stroke-linecap:butt;stroke-linejoin:miter;stroke-miterlimit:10;stroke-dasharray:none;stroke-opacity:1"
       transform="matrix(1.3333333,0,0,-1.3333333,43.666667,274.4)" />
    <path
       id="path4"
       d="M 4.6347656,-6.6376491 C 4.0807884,-6.9679048 3.5374645,-7.127706 2.8130327,-7.127706 c -1.3849432,0 -2.25852276,0.9694603 -2.25852276,1.9602273 0,0.4261364 0.13849432,0.8416193 0.54332386,1.2571023 0.415483,0.4580966 0.8522727,0.5752841 1.4382102,0.7137784 0.8522728,0.2130682 0.9481534,0.234375 1.2251421,0.4900568 0.2024148,0.1704546 0.4261363,0.4900568 0.4261363,0.9268466 0,0.649858 -0.5539772,1.31036932 -1.459517,1.31036932 -0.4048295,0 -1.2997159,-0.0958807 -2.14133523,-0.80965912 L 0.43732244,-0.46932528 C 1.310902,0.07399858 2.1099077,0.22314631 2.7384588,0.22314631 c 1.3210227,0 2.2372159,-1.01207387 2.2372159,-2.10937501 0,-0.6392045 -0.3089488,-1.1186079 -0.5326704,-1.3636364 -0.46875,-0.5007102 -0.7990057,-0.5859375 -1.7151989,-0.809659 -0.5752841,-0.1491478 -0.7350852,-0.181108 -1.0333807,-0.4474432 -0.074574,-0.053267 -0.3515625,-0.3409091 -0.3515625,-0.7776989 0,-0.5965909 0.5433239,-1.1931818 1.4595171,-1.1931818 0.8309659,0 1.3103693,0.3302557 1.6832386,0.6392045 z m 5.0230824,4.453125 c 0,-0.3409091 -0.010653,-1.0866478 -0.3941761,-1.6832387 -0.415483,-0.6178977 -1.0227273,-0.7244318 -1.3742898,-0.7244318 -1.1079545,0 -2.0028409,1.0546875 -2.0028409,2.34375 0,1.31036932 0.9481534,2.35440341 2.1519886,2.35440341 0.6285512,0 1.1931818,-0.234375 1.5767046,-0.51136364 L 9.5619673,-1.0552628 c -0.6285511,0.52201706 -1.2890625,0.55397729 -1.5127841,0.55397729 -0.7990056,0 -1.4382102,-0.70312499 -1.4701704,-1.68323859 z M 6.6322798,-2.727848 c 0.1598012,-0.7563921 0.6818182,-1.2571023 1.2571023,-1.2571023 0.5113636,0 1.0759943,0.3409091 1.2038352,1.2571023 z m 4.8845882,-4.1867898 h -0.745739 v 6.91406251591 h 0.745739 z m 2.583452,3.0681818 h 1.086647 v -0.5752841 h -1.118608 v -1.1825284 c 0,-0.7457386 0.660512,-0.8096591 0.926847,-0.8096591 0.191761,0 0.46875,0.021307 0.799006,0.1704546 v -0.6711648 c -0.117188,-0.03196 -0.426137,-0.1065341 -0.788353,-0.1065341 -0.9375,0 -1.661931,0.703125 -1.661931,1.7045455 v 0.8948863 h -0.735086 v 0.5752841 h 0.735086 V -5.7528409e-4 H 14.10032 Z M -3.3419744,8.6739631 V 8.0667187 H -6.6338778 V 5.7123153 h 1.3742897 c 0.1171875,0 0.2450284,0.010653 0.3622159,0.010653 h 1.821733 V 5.0731108 h -4.4424716 v 6.8821022 h 4.5809659 v -0.703125 h -1.2571023 c -0.1171875,0 -0.234375,0.01065 -0.3515625,0.01065 H -6.6338778 V 8.6739631 Z M 4.8132102,5.0304972 H 3.9928977 V 5.8614631 H 4.8132102 Z M 4.7705966,7.5340483 H 4.024858 V 11.955213 H 4.7705966 Z M 2.0113636,8.1093324 H 3.193892 V 7.5340483 H 1.9900568 V 6.3302131 c 0,-0.6392046 0.3515625,-0.7883523 0.6072443,-0.7883523 0.2024148,0 0.415483,0.053267 0.5965909,0.1704545 V 5.0304972 C 2.9701705,4.9559233 2.90625,4.9346165 2.5973011,4.9346165 c -0.7350852,0 -1.3316761,0.6924716 -1.3316761,1.693892 v 5.3267045 h 0.7457386 z m -2.75923292,0 h 1.171875 V 7.5340483 H -0.77982955 V 6.3408665 c 0,-0.703125 0.50071023,-0.7990057 0.75639205,-0.7990057 0.15980114,0 0.40482955,0.021307 0.69247159,0.1704545 V 5.0411506 C 0.46661932,4.9772301 0.2109375,4.9346165 -0.01278409,4.9346165 c -0.84161932,0 -1.49147731,0.6924716 -1.49147731,1.7045454 v 0.8948864 h -0.7350852 v 0.5752841 h 0.7350852 v 3.8458806 h 0.75639208 z M 9.6844815,7.7897301 C 9.098544,7.448821 8.7576349,7.3635937 8.1503906,7.3635937 c -1.3849432,0 -2.1839488,1.2038353 -2.1839488,2.3757103 0,1.235795 0.9055397,2.322443 2.1519886,2.322443 0.5326705,0 1.0866477,-0.138494 1.6193182,-0.50071 l -0.063921,-0.671165 c -0.5007102,0.394176 -1.0440341,0.532671 -1.5447443,0.532671 -0.8309659,0 -1.3849432,-0.713779 -1.3849432,-1.6938924 0,-0.7670455 0.3622159,-1.7258523 1.4169034,-1.7258523 0.5220171,0 0.8629262,0.074574 1.40625,0.4367898 z m 4.3199575,1.2890625 c 0,-1.0227273 -0.724432,-1.7151989 -1.640625,-1.7151989 -0.649858,0 -1.097301,0.1598012 -1.566051,0.4261364 l 0.06392,0.6605114 c 0.511364,-0.3728693 1.012074,-0.5007103 1.502131,-0.5007103 0.46875,0 0.862926,0.4048296 0.862926,1.1399148 v 0.4261364 c -1.491477,0.021307 -2.759233,0.4367898 -2.759233,1.3103696 0,0.436789 0.266335,1.235795 1.139915,1.235795 0.138494,0 1.075994,-0.02131 1.651278,-0.46875 v 0.362216 h 0.745739 z M 13.22674,10.644844 c 0,0.181108 0,0.43679 -0.340909,0.617897 -0.287642,0.181108 -0.660511,0.191762 -0.777699,0.191762 -0.46875,0 -0.926846,-0.223722 -0.926846,-0.649858 0,-0.692472 1.619318,-0.767046 2.045454,-0.777699 z M 18.89968,7.7897301 C 18.313743,7.448821 17.972834,7.3635937 17.365589,7.3635937 c -1.384943,0 -2.183948,1.2038353 -2.183948,2.3757103 0,1.235795 0.905539,2.322443 2.151988,2.322443 0.532671,0 1.086648,-0.138494 1.619318,-0.50071 l -0.06392,-0.671165 c -0.50071,0.394176 -1.044034,0.532671 -1.544744,0.532671 -0.830966,0 -1.384944,-0.713779 -1.384944,-1.6938924 0,-0.7670455 0.362216,-1.7258523 1.416904,-1.7258523 0.522017,0 0.862926,0.074574 1.40625,0.4367898 z m 4.788708,-0.2556818 h -0.745739 c -1.299716,3.1640627 -1.321023,3.6221587 -1.321023,3.8565337 h -0.01065 C 21.547056,10.719418 20.74805,8.8657244 20.705436,8.7804972 l -0.53267,-1.2464489 h -0.788352 l 1.928267,4.4211647 c -0.117188,0.308949 -0.308949,0.809659 -0.351563,0.894886 -0.255682,0.575285 -0.426136,0.575285 -0.564631,0.575285 -0.159801,0 -0.479403,-0.03196 -0.777698,-0.159802 l 0.05327,0.649858 c 0.223721,0.05327 0.50071,0.08523 0.724431,0.08523 0.340909,0 0.713779,-0.127841 1.118608,-1.139915 z m 0,0"
       style="fill:#000000;fill-opacity:1;fill-rule:nonzero;stroke:none"
       aria-label="Self&#10;Efcacy"
       transform="matrix(1.4666667,0,0,1.4666667,283.05,269.286)" />
    <path
       id="path5"
       d="M 118.32455,170.62003 H 69.67828 v -31.18164 h 48.64627 z"
       style="fill:none;stroke:#000000;stroke-width:0.3985;stroke-linecap:butt;stroke-linejoin:miter;stroke-miterlimit:10;stroke-dasharray:none;stroke-opacity:1"
       transform="matrix(1.3333333,0,0,-1.3333333,43.666667,274.4)" />
    <path
       id="path6"
       d="M 3.7502273,-6.9148366 H 2.8766477 L 0.27721591,-7.7414773e-4 H 1.0123011 L 1.7793466,-2.0355753 h 2.8977273 l 0.7670454,2.03480115227 h 0.9161932 z m 0.7137784,4.325284 H 1.9924148 l 0.6498579,-1.8004261 c 0.2024148,-0.5859375 0.5113637,-1.4382102 0.5859375,-1.8110795 h 0.010653 c 0.021307,0.1491477 0.085227,0.3941761 0.3196023,1.0546875 z M 8.1101349,-3.8466548 H 9.5057315 V -4.4219389 H 8.1101349 V -5.6896946 H 7.4176634 v 1.2677557 H 6.5547372 v 0.5752841 h 0.8309659 v 2.6633522 c 0,0.59659095 0.1384943,1.28906254 0.8309659,1.28906254 0.6924716,0 1.2038353,-0.24502841 1.4488637,-0.37286932 L 9.5057315,-0.85304688 C 9.2500497,-0.6506321 8.9304474,-0.5334446 8.6108452,-0.5334446 c -0.3622159,0 -0.5007103,-0.29829546 -0.5007103,-0.8203125 z m 3.5981891,0 h 1.395596 v -0.5752841 h -1.395596 v -1.2677557 h -0.692472 v 1.2677557 h -0.862926 v 0.5752841 h 0.830966 v 2.6633522 c 0,0.59659095 0.138494,1.28906254 0.830966,1.28906254 0.692472,0 1.203835,-0.24502841 1.448864,-0.37286932 l -0.159802,-0.5859375 c -0.255681,0.20241478 -0.575284,0.31960228 -0.894886,0.31960228 -0.362216,0 -0.50071,-0.29829546 -0.50071,-0.8203125 z m 3.470348,-2.9296875 h -0.884233 v 0.8842329 h 0.884233 z m -0.06392,2.3544034 h -0.745738 v 4.42116475227 h 0.745738 z m 2.570135,0.5752841 h 1.395597 v -0.5752841 h -1.395597 v -1.2677557 h -0.692471 v 1.2677557 H 16.12949 v 0.5752841 h 0.830966 v 2.6633522 c 0,0.59659095 0.138494,1.28906254 0.830965,1.28906254 0.692472,0 1.203836,-0.24502841 1.448864,-0.37286932 l -0.159801,-0.5859375 c -0.255682,0.20241478 -0.575284,0.31960228 -0.894886,0.31960228 -0.362216,0 -0.500711,-0.29829546 -0.500711,-0.8203125 z m 6.186968,-0.5752841 h -0.777699 v 2.8870738 c 0,0.74573868 -0.564631,1.09730118 -1.193182,1.09730118 -0.713778,0 -0.777699,-0.25568182 -0.777699,-0.69247158 v -3.2919034 h -0.777699 v 3.334517 c 0,0.71377843 0.223722,1.19318184 1.054688,1.19318184 0.522017,0 1.235795,-0.15980113 1.725852,-0.5859375 v 0.47940341227 h 0.745739 z m 5.137606,-2.4928977 h -0.745738 v 2.9296875 c -0.532671,-0.4367898 -1.086648,-0.5433239 -1.459517,-0.5433239 -0.980114,0 -1.757813,1.0333807 -1.757813,2.3117898 0,1.31036928 0.767046,2.32244314 1.704546,2.32244314 0.330255,0 0.916193,-0.08522727 1.480823,-0.62855113 v 0.52201704227 h 0.777699 z m -0.777699,5.5291193 c 0,0.1384943 -0.01065,0.3196022 -0.330255,0.60724429 -0.234375,0.20241477 -0.479404,0.27698863 -0.735086,0.27698863 -0.617897,0 -1.342329,-0.46875 -1.342329,-1.70454542 0,-1.3103693 0.852273,-1.7151989 1.43821,-1.7151989 0.447443,0 0.745739,0.2237216 0.96946,0.5433239 z m 5.720881,-0.7990057 c 0,-0.3409091 -0.01065,-1.0866477 -0.394176,-1.6832386 -0.415483,-0.6178978 -1.022727,-0.7244319 -1.37429,-0.7244319 -1.107954,0 -2.002841,1.0546875 -2.002841,2.34375 0,1.31036935 0.948154,2.35440344 2.151989,2.35440344 0.628551,0 1.193182,-0.234375 1.576704,-0.51136363 l -0.05327,-0.64985791 c -0.628551,0.522017 -1.289062,0.55397722 -1.512784,0.55397722 -0.799005,0 -1.43821,-0.70312502 -1.47017,-1.68323862 z m -3.025568,-0.5433239 c 0.159801,-0.756392 0.681818,-1.2571022 1.257102,-1.2571022 0.511364,0 1.075994,0.340909 1.203835,1.2571022 z m 0,0"
       style="fill:#000000;fill-opacity:1;fill-rule:nonzero;stroke:none"
       aria-label="Attitude"
       transform="matrix(1.4666667,0,0,1.4666667,143.87467,72.770667)" />
    <path
       id="path7"
       d="M 22.80713,0 H 160.83887"
       style="fill:none;stroke:#000000;stroke-width:0.3985;stroke-linecap:butt;stroke-linejoin:miter;stroke-miterlimit:10;stroke-dasharray:none;stroke-opacity:1"
       transform="matrix(1.3333333,0,0,-1.3333333,43.666667,274.4)" />
    <path
       id="path8"
       d="M 3.68454,0 0.6434,1.14696 1.64552,0 0.6434,-1.14696 Z"
       style="fill:#000000;fill-opacity:1;fill-rule:nonzero;stroke:#000000;stroke-width:0.3985;stroke-linecap:butt;stroke-linejoin:miter;stroke-miterlimit:10;stroke-dasharray:none;stroke-opacity:1"
       transform="matrix(1.3333333,0,0,-1.3333333,256.05727,274.4)" />
    <g
       id="g8"
       aria-label="c&#10;′"
       transform="matrix(1.4666667,0,0,1.4666667,163.26667,271.18533)">
      <path
         id="path9"
         d="M 4.0795455,-4.166669 C 3.493608,-4.5075781 3.1526989,-4.5928054 2.5454545,-4.5928054 c -1.3849431,0 -2.18394882,1.2038352 -2.18394882,2.3757102 0,1.23579548 0.90553982,2.32244321 2.15198862,2.32244321 0.5326705,0 1.0866477,-0.13849432 1.6193182,-0.50071023 L 4.068892,-1.066527 c -0.5007102,0.39417615 -1.044034,0.53267047 -1.5447443,0.53267047 -0.8309659,0 -1.3849432,-0.71377837 -1.3849432,-1.69389207 0,-0.7670454 0.362216,-1.7258523 1.4169035,-1.7258523 0.522017,0 0.8629261,0.074574 1.40625,0.4367898 z m 0,0"
         style="fill:#000000;fill-opacity:1;fill-rule:nonzero;stroke:none" />
      <path
         id="path10"
         d="m 6.4525923,-6.9072585 c 0.053267,-0.1171875 0.063921,-0.181108 0.063921,-0.2237216 0,-0.2130682 -0.1917614,-0.3835227 -0.415483,-0.3835227 -0.2663352,0 -0.3515625,0.2130681 -0.3835227,0.3302556 l -0.9161932,3.0149148 c -0.010653,0.021307 -0.042614,0.1065341 -0.042614,0.1171875 0,0.085227 0.2237216,0.1491477 0.2769886,0.1491477 0.053267,0 0.053267,-0.010653 0.1065341,-0.1171875 z m 0,0"
         style="fill:#000000;fill-opacity:1;fill-rule:nonzero;stroke:none" />
    </g>
    <path
       id="path11"
       d="M 5.7543,15.80998 86.1898,136.14133"
       style="fill:none;stroke:#000000;stroke-width:0.3985;stroke-linecap:butt;stroke-linejoin:miter;stroke-miterlimit:10;stroke-dasharray:none;stroke-opacity:1"
       transform="matrix(1.3333333,0,0,-1.3333333,43.666667,274.4)" />
    <path
       id="path12"
       d="M 3.68454,0 0.6434,1.14696 1.64552,0 0.6434,-1.14696 Z"
       style="fill:#000000;fill-opacity:1;fill-rule:nonzero;stroke:#000000;stroke-width:0.3985;stroke-linecap:butt;stroke-linejoin:miter;stroke-miterlimit:10;stroke-dasharray:none;stroke-opacity:1"
       transform="matrix(0.74090667,-1.10844,-1.10844,-0.74090667,157.441,94.591773)" />
    <path
       id="path13"
       d="m 3.9748509,-2.8773082 c 0,-1.0227273 -0.7244319,-1.7151989 -1.640625,-1.7151989 -0.649858,0 -1.0973012,0.1598011 -1.56605118,0.4261364 l 0.0639205,0.6605113 C 1.3434588,-3.8787287 1.844169,-4.0065696 2.3342259,-4.0065696 c 0.46875,0 0.8629261,0.4048295 0.8629261,1.1399148 v 0.4261363 c -1.4914773,0.021307 -2.75923297,0.4367898 -2.75923297,1.3103694 0,0.43678972 0.26633523,1.23579541 1.13991477,1.23579541 0.1384943,0 1.0759943,-0.02130682 1.6512784,-0.46875 V -8.8778409e-4 H 3.9748509 Z M 3.197152,-1.3112571 c 0,0.181108 0,0.43678977 -0.3409091,0.61789772 -0.287642,0.18110796 -0.6605114,0.19176137 -0.7776989,0.19176137 -0.46875,0 -0.9268466,-0.22372159 -0.9268466,-0.64985799 0,-0.6924716 1.6193182,-0.7670454 2.0454546,-0.7776988 z m 0,0"
       style="fill:#000000;fill-opacity:1;fill-rule:nonzero;stroke:none"
       aria-label="a"
       transform="matrix(1.4666667,0,0,1.4666667,96.096,167.83333)" />
    <path
       id="path14"
       d="M 99.75574,139.21921 179.69823,20.21808"
       style="fill:none;stroke:#000000;stroke-width:0.3985;stroke-linecap:butt;stroke-linejoin:miter;stroke-miterlimit:10;stroke-dasharray:none;stroke-opacity:1"
       transform="matrix(1.3333333,0,0,-1.3333333,43.666667,274.4)" />
    <path
       id="path15"
       d="M 3.68454,0 0.6434,1.14696 1.64552,0 0.6434,-1.14696 Z"
       style="fill:#000000;fill-opacity:1;fill-rule:nonzero;stroke:#000000;stroke-width:0.3985;stroke-linecap:butt;stroke-linejoin:miter;stroke-miterlimit:10;stroke-dasharray:none;stroke-opacity:1"
       transform="matrix(0.74346667,1.1067467,1.1067467,-0.74346667,282.11497,245.7316)" />
    <path
       id="path16"
       d="M 1.5669105,-6.9131676 H 0.82117188 V 8.9488636e-4 H 1.5988707 V -0.4572017 c 0.234375,0.22372159 0.6605114,0.56463068 1.3316762,0.56463068 0.990767,0 1.8536932,-0.99076705 1.8536932,-2.33309658 0,-1.2251421 -0.6818182,-2.3011364 -1.6193182,-2.3011364 -0.3835228,0 -1.0014205,0.095881 -1.5980114,0.5859375 z m 0.03196,3.5795454 c 0.1598012,-0.2450284 0.5113637,-0.5859375 1.0653409,-0.5859375 0.5859375,0 1.3423296,0.4261364 1.3423296,1.6938921 0,1.2997159 -0.8416193,1.72585226 -1.4488636,1.72585226 -0.3835228,0 -0.7137785,-0.18110796 -0.9588069,-0.63920456 z m 0,0"
       style="fill:#000000;fill-opacity:1;fill-rule:nonzero;stroke:none"
       aria-label="b"
       transform="matrix(1.4666667,0,0,1.4666667,234.55733,166.944)" />
    <path
       id="path17"
       d="m 236.26575,34.15074 c 0,4.30531 -3.49007,7.79538 -7.7954,7.79538 -4.30531,0 -7.79538,-3.49007 -7.79538,-7.79538 0,-4.30533 3.49007,-7.79539 7.79538,-7.79539 4.30533,0 7.7954,3.49006 7.7954,7.79539 z"
       style="fill:none;stroke:#000000;stroke-width:0.3985;stroke-linecap:butt;stroke-linejoin:miter;stroke-miterlimit:10;stroke-dasharray:none;stroke-opacity:1"
       transform="matrix(1.3333333,0,0,-1.3333333,43.666667,274.4)" />
    <g
       id="g17"
       aria-label="e&#10;2"
       transform="matrix(1.4666667,0,0,1.4666667,341.96,231.01733)">
      <path
         id="path18"
         d="m 4.1235085,-2.1851136 c 0,-0.3409091 -0.010653,-1.0866478 -0.3941761,-1.6832387 -0.415483,-0.6178977 -1.0227273,-0.7244318 -1.3742898,-0.7244318 -1.1079545,0 -2.0028409,1.0546875 -2.0028409,2.34375 0,1.31036933 0.9481534,2.35440342 2.1519886,2.35440342 0.6285512,0 1.1931819,-0.234375 1.5767046,-0.51136364 L 4.0276278,-1.0558523 c -0.6285511,0.52201707 -1.2890625,0.5539773 -1.512784,0.5539773 -0.7990057,0 -1.4382103,-0.703125 -1.4701705,-1.6832386 z M 1.0979403,-2.7284375 c 0.1598012,-0.756392 0.6818182,-1.2571023 1.2571023,-1.2571023 0.5113637,0 1.0759943,0.3409091 1.2038352,1.2571023 z m 0,0"
         style="fill:#000000;fill-opacity:1;fill-rule:nonzero;stroke:none" />
      <path
         id="path19"
         d="m 6.3980114,0.9603054 c -0.074574,0 -0.1598012,0 -0.2450284,0 H 5.3539773 L 6.440625,0.00149858 c 0.1171875,-0.10653409 0.46875,-0.36221591 0.5965909,-0.47940341 0.3089489,-0.27698864 0.7137784,-0.63920457 0.7137784,-1.24644887 0,-0.7883523 -0.5859375,-1.5021307 -1.5767045,-1.5021307 -0.7457387,0 -1.2038353,0.3941762 -1.4382103,1.1079546 l 0.3302557,0.4048295 c 0.1598012,-0.5859375 0.4048296,-1.0333807 1.0120739,-1.0333807 0.5859375,0 1.0333807,0.4048296 1.0333807,1.0333807 0,0.5859375 -0.3515625,0.9161932 -0.7670455,1.31036933 C 6.20625,-0.26483665 5.8333807,0.04411222 5.684233,0.19325994 5.4818182,0.3743679 5.0024148,0.83246449 4.8,1.0135724 V 1.4929759 H 7.7509943 V 0.9603054 Z m 0,0"
         style="fill:#000000;fill-opacity:1;fill-rule:nonzero;stroke:none" />
    </g>
    <path
       id="path20"
       d="m 143.345,187.84505 c 0,4.30533 -3.49008,7.79539 -7.7954,7.79539 -4.30532,0 -7.79539,-3.49006 -7.79539,-7.79539 0,-4.30533 3.49007,-7.7954 7.79539,-7.7954 4.30532,0 7.7954,3.49007 7.7954,7.7954 z"
       style="fill:none;stroke:#000000;stroke-width:0.3985;stroke-linecap:butt;stroke-linejoin:miter;stroke-miterlimit:10;stroke-dasharray:none;stroke-opacity:1"
       transform="matrix(1.3333333,0,0,-1.3333333,43.666667,274.4)" />
    <g
       id="g20"
       aria-label="e&#10;1"
       transform="matrix(1.4666667,0,0,1.4666667,218.06667,26.093333)">
      <path
         id="path21"
         d="m 4.1226918,-2.1836648 c 0,-0.3409091 -0.010653,-1.0866477 -0.3941762,-1.6832386 -0.4154829,-0.6178977 -1.0227272,-0.7244318 -1.3742897,-0.7244318 -1.1079546,0 -2.00284096,1.0546875 -2.00284096,2.34375 0,1.31036929 0.94815346,2.35440338 2.15198866,2.35440338 0.6285511,0 1.1931818,-0.234375 1.5767045,-0.51136363 L 4.0268111,-1.0544034 c -0.6285512,0.52201704 -1.2890625,0.55397726 -1.5127841,0.55397726 -0.7990057,0 -1.4382102,-0.70312496 -1.4701705,-1.68323866 z M 1.0971236,-2.7269886 c 0.1598011,-0.7563921 0.6818182,-1.2571023 1.2571023,-1.2571023 0.5113636,0 1.0759943,0.3409091 1.2038352,1.2571023 z m 0,0"
         style="fill:#000000;fill-opacity:1;fill-rule:nonzero;stroke:none" />
      <path
         id="path22"
         d="M 6.6661932,-3.2250355 H 6.5170455 c -0.4580966,0.4154829 -1.0227273,0.4367898 -1.4488637,0.4580966 v 0.4367898 C 5.3451705,-2.3408026 5.696733,-2.351456 6.037642,-2.4899503 V 1.0576349 H 5.1107955 V 1.4944247 H 7.5930398 V 1.0576349 H 6.6661932 Z m 0,0"
         style="fill:#000000;fill-opacity:1;fill-rule:nonzero;stroke:none" />
    </g>
    <path
       id="path23"
       d="m 222.80344,28.48361 -8.72098,-8.72087"
       style="fill:none;stroke:#000000;stroke-width:0.3985;stroke-linecap:butt;stroke-linejoin:miter;stroke-miterlimit:10;stroke-dasharray:none;stroke-opacity:1"
       transform="matrix(1.3333333,0,0,-1.3333333,43.666667,274.4)" />
    <path
       id="path24"
       d="M 3.68454,0 0.6434,1.14696 1.64552,0 0.6434,-1.14696 Z"
       style="fill:#000000;fill-opacity:1;fill-rule:nonzero;stroke:#000000;stroke-width:0.3985;stroke-linecap:butt;stroke-linejoin:miter;stroke-miterlimit:10;stroke-dasharray:none;stroke-opacity:1"
       transform="matrix(-0.9428,0.94277333,0.94277333,0.9428,330.56744,246.59223)" />
    <path
       id="path25"
       d="m 129.88269,182.17792 -8.72098,-8.72086"
       style="fill:none;stroke:#000000;stroke-width:0.3985;stroke-linecap:butt;stroke-linejoin:miter;stroke-miterlimit:10;stroke-dasharray:none;stroke-opacity:1"
       transform="matrix(1.3333333,0,0,-1.3333333,43.666667,274.4)" />
    <path
       id="path26"
       d="M 3.68454,0 0.6434,1.14696 1.64552,0 0.6434,-1.14696 Z"
       style="fill:#000000;fill-opacity:1;fill-rule:nonzero;stroke:#000000;stroke-width:0.3985;stroke-linecap:butt;stroke-linejoin:miter;stroke-miterlimit:10;stroke-dasharray:none;stroke-opacity:1"
       transform="matrix(-0.9428,0.94277333,0.94277333,0.9428,206.67312,41.66648)" />
  </g>
</svg>
